<?xml version="1.0" encoding="UTF-8"?>
<svg id="Layer_2" data-name="Layer 2" xmlns="http://www.w3.org/2000/svg" viewBox="0 0 3364 1568.82">
  <g id="Scrollytelling_-llustrations" data-name="Scrollytelling -llustrations">
    <path d="M0,1567.07h3364V28.62C2200.01-9.54,1078.67-9.54,0,28.62v1538.45Z" style="fill: #98e9f4; stroke-width: 0px;"/>
    <path d="M9.85,1568.82h3354.15v-776.54s-304.81-58.22-505.73-55c-200.92,3.22-421.56,167.47-820.92,162.39-399.36-5.08-484.07-128.69-806.19-122.65s-308.93,74.45-637.99,98.55S0,807.08,0,807.08l.04,761.74h9.81Z" style="fill: #fdc870; stroke-width: 0px;"/>
    <path d="M2079.53,517.1c-36.36,3.46-71.42-7.53-106.79-15.64-34.53-7.91-68.43-5.62-102.5,2.32-42.89,10-85.85,20.35-130.38,17.95-29.52-1.59-58.64-6.06-86.03-18.18-2.99-1.32-5.95-2.83-8.68-4.63-4-2.64-6.32-6.27-4.02-11.16,2.44-5.17,6.65-4.82,11.15-3.04,18.37,7.27,37.54,11.47,56.86,15.25,40.12,7.86,79.7,3.24,118.92-5.54,30.87-6.91,61.39-15.57,93.28-16.29,31.22-.71,61.43,5.58,91.44,13.54,39.66,10.52,79.79,10.97,120.15,4.46,2.86-.46,5.81-.47,8.72-.49,5.3-.04,9.53,1.99,10.43,7.58,1.06,6.58-4.35,8.04-8.91,8.82-20.81,3.56-41.66,6.93-63.65,5.03Z" style="fill: #2e86a6; stroke-width: 0px;"/>
    <path d="M707.9,538.41c-36.03.12-67.18-7.29-97.9-16.57-36.12-10.91-71.71-9.24-107.36,2.06-34.56,10.95-70.1,17.24-106.32,16.29-32.43-.86-64.22-7.55-95.52-16.16-31.73-8.73-63.24-6.88-94.93.93-38.7,9.53-77.74,16.37-117.59,6.84-8.47-2.03-16.78-4.74-25.06-7.46-2.33-.76-4.78-2.23-6.31-4.08-2.83-3.45-5.03-7.84-2.53-12.1,2.63-4.49,7.08-2.41,10.84-1.23,14.61,4.59,29.5,7.46,44.63,10.02,22.57,3.82,44.17-.35,66.09-3.74,28.69-4.43,56.56-13.83,86.25-12.42,14.66.7,29.08,1.69,43.13,5.82,34.44,10.13,69.65,16.02,105.46,15.41,28.03-.47,55.98-4.89,82.54-14.17,45.23-15.8,90.07-14.5,135.14-.17,25.85,8.22,52.59,12.73,79.48,12.49,29.45-.26,58.61-5.38,87.15-13.28,8.73-2.42,13.47,1.96,11.58,9.58-.86,3.46-3.66,4.26-6.14,5.64-12.7,7.06-26.98,8.89-40.87,11.28-18.24,3.13-36.71,5.37-51.74,5.01Z" style="fill: #2e86a6; stroke-width: 0px;"/>
    <path d="M2269.86,167.8c-26.77,1.34-51.93-3.16-75.39-15.73-4.96-2.65-10.83-5.65-8.1-12.12,2.77-6.55,8.15-4.15,13.89-2.12,38.98,13.79,78.41,17.58,118.87,5.61,23.64-6.99,47.12-15.15,72.09-16.71,24.01-1.5,47.15,2.84,69.62,10.74,28.86,10.14,58.09,16.49,88.84,11.4,6.34-1.05,10.95.9,12.4,7.5,1.67,7.62-4.56,8.19-9.32,9.16-24.77,5.01-49.48,3.29-73.46-3.72-26.18-7.65-51.86-17.23-79.59-17.26-16.79-.02-33.22,3.16-49.17,8.35-26.38,8.59-52.78,16.86-80.68,14.9Z" style="fill: #2e86a6; stroke-width: 0px;"/>
    <path d="M3330.97,569.16c-17.66,1.24-35.63-3.31-53.05-8.29-33.93-9.7-66.51-5.89-99.4,3.15-31.3,8.6-63.35,14.15-96.57,8.6-11.02-1.84-21.76-4.88-32.47-7.78-4.27-1.16-6.8-4.22-8.31-7.81-2.02-4.79.26-7.06,6.03-6.55,5.03.44,10.17,1.25,14.88,2.71,32.96,10.18,65.67,7.6,98.5-.51,26.82-6.62,53.47-13.43,82.3-12.27,19.32.78,37.06,6.04,55.32,9.82,13.51,2.8,26.92,5.04,40.9,4.71,2.17-.05,4.5-.12,6.51.41,4.61,1.22,11.2,1.17,10.72,7-.47,5.71-5.93,6.84-11.91,6.81-4.01-.02-8.03,0-13.45,0Z" style="fill: #2e86a5; stroke-width: 0px;"/>
    <path d="M1372.27,201.34c-29.96,1.68-57.58,8.38-85.24,14.63-34.08,7.7-67.88,7.2-101.54-2.03-3.1-.85-6.22-2.19-8.87-3.99-2.94-2-3.89-5.3-2.6-8.76,1.29-3.47,3.77-4.63,7.69-4.54,9.6.23,18.63,3.29,27.93,4.94,33.52,5.94,65.86-.38,98.12-8.81,38.25-10,76.7-11.57,115.19-1,37.37,10.27,75.1,13.78,113.43,6.1,5.55-1.11,9.71,1.03,10.81,6.48,1.27,6.28-2.78,8.95-8.5,10.37-34.28,8.51-68.47,6.74-102.47-1.14-21.63-5.01-43.09-10.71-63.93-12.24Z" style="fill: #2e87a6; stroke-width: 0px;"/>
    <g>
      <path d="M2928.22,1019.42c21.18-5.55,42.3-11.36,63.56-16.56,11.16-2.73,17.89-10.64,24.72-18.73,8.12,5.57,20.64,8.53,18.41,21.52-2.06,11.95-13.11,16.61-23.5,19.05-47.66,11.18-93.23,29.83-141.05,40.01-48.19,10.26-96.99,10.68-145.68,2.22-3.43-.6-6.78-2.09-9.96-3.6-13.33-6.3-13.8-7.96-6.74-21.53,15.15-2.44,30-6.24,44.85-10.07,4.48-4,7.59-1.47,10.89,1.96,15.97,16.61,33.96,23.84,57.21,15.07,15.68-5.91,32.32-9.26,48.54-13.75,12.87-10.9,46.67-19.87,58.76-15.59Z" style="fill: #f6b456; stroke-width: 0px;"/>
      <g>
        <path d="M2772.85,1058.99l85.1-22.17,155.18-40.44s49.88-30.48,35.14-84.39-72.84-53.75-72.84-53.75l-227.7,60.06c-15.2,8.91-27.66,23.47-37.5,43.47l-26.35,14.09-26.37,6.44s-21.42,3.75-12.68,39.26c8.74,35.5,33.22,26.81,33.22,26.81l20.25-5.7,14.41-9.55s13.82,10.15,33.38,18.34,26.76,7.55,26.76,7.55Z" style="fill: #e4f0f4; opacity: .48; stroke-width: 0px;"/>
        <path d="M2854.9,1036.68l74.64-22.05s19.37-29.82,5.14-75.6c-14.22-45.78-49.68-58.47-49.68-58.47l-72.21,18.32s39.28,26.12,46.65,60.74c7.37,34.62-4.54,77.06-4.54,77.06Z" style="fill: #86ea9b; stroke-width: 0px;"/>
        <path d="M2712.55,1028.74c-12.29,13.05-39.73,19.21-55.88,12.54-5.48-5.78-9.64-12.74-11.22-20.23-6.41-30.26-4.03-43.19,35.8-49.61,18.36-.37,32.32,46.97,31.3,57.3Z" style="fill: #2d8aab; stroke-width: 0px;"/>
      </g>
    </g>
  </g>
</svg>