<?xml version="1.0" encoding="UTF-8"?>
<svg id="Layer_2" data-name="Layer 2" xmlns="http://www.w3.org/2000/svg" viewBox="0 0 409.85 214.64">
  <g id="Scrollytelling_-llustrations" data-name="Scrollytelling -llustrations">
    <g>
      <path d="M287.07,161.19c21.18-5.55,42.3-11.36,63.56-16.56,11.16-2.73,17.89-10.64,24.72-18.73,8.12,5.57,20.64,8.53,18.41,21.52-2.06,11.95-13.11,16.61-23.5,19.05-47.66,11.18-93.23,29.83-141.05,40.01-48.19,10.26-96.99,10.68-145.68,2.22-3.43-.6-6.78-2.09-9.96-3.6-13.33-6.3-13.8-7.96-6.74-21.53,15.15-2.44,30-6.24,44.85-10.07,4.48-4,7.59-1.47,10.89,1.96,15.97,16.61,33.96,23.84,57.21,15.07,15.68-5.91,32.32-9.26,48.54-13.75,12.87-10.9,46.67-19.87,58.76-15.59Z" style="fill: #f6b456; stroke-width: 0px;"/>
      <g>
        <path d="M131.71,200.76l85.1-22.17,155.18-40.44s49.88-30.48,35.14-84.39S334.28,0,334.28,0L106.59,60.06c-15.2,8.91-27.66,23.47-37.5,43.47l-26.35,14.09-26.37,6.44s-21.42,3.75-12.68,39.26c8.74,35.5,33.22,26.81,33.22,26.81l20.25-5.7,14.41-9.55s13.82,10.15,33.38,18.34,26.76,7.55,26.76,7.55Z" style="fill: #e4f0f4; stroke-width: 0px;"/>
        <path d="M213.75,178.45l74.64-22.05s19.37-29.82,5.14-75.6c-14.22-45.78-49.68-58.47-49.68-58.47l-72.21,18.32s39.28,26.12,46.65,60.74c7.37,34.62-4.54,77.06-4.54,77.06Z" style="fill: #86ea9b; stroke-width: 0px;"/>
        <path d="M69.81,173.73c-12.29,13.17-39.73,19.39-55.88,12.66-5.48-5.84-9.64-12.86-11.22-20.41-6.41-30.53-4.03-43.58,35.8-50.05,18.36-.38,32.32,47.4,31.3,57.81Z" style="fill: #2d8aab; stroke-width: 0px;"/>
      </g>
    </g>
  </g>
</svg>