<?xml version="1.0" encoding="UTF-8"?>
<svg id="Layer_2" data-name="Layer 2" xmlns="http://www.w3.org/2000/svg" viewBox="0 0 338.12 219.27">
  <g id="Scrollytelling_-llustrations" data-name="Scrollytelling -llustrations">
    <g>
      <path d="M118.72,215c5.27-16.62,10.14-31.98,14.99-47.35,2.31-7.3,1.43-8.56-6.14-8.57-19.31-.02-38.63.06-57.94,0-39.11-.12-68.17-29.21-68.02-68.3.04-11.45-.85-22.92.85-34.37C6.34,30.27,28.24,7.32,54.16,2.51c4.09-.76,8.21-1.1,12.38-1.1,67.76.03,135.52-.04,203.28.04,32.08.04,60.28,22.97,64.76,54.85,2.66,18.93,3.73,38.51-2.41,57.3-8.98,27.46-33.95,45.38-62.85,45.45-31.47.07-62.93.1-94.4-.05-4.55-.02-7.46,1.35-10.42,5-12.03,14.82-22.86,30.69-37.12,43.62-2.44,2.21-5.01,4.27-8.68,7.38Z" style="fill: #fff; stroke: #000; stroke-miterlimit: 10; stroke-width: 2.83px;"/>
      <g>
        <path d="M36.94,72.34c0,.25-.17.37-.51.37-.21,0-.53-.02-.97-.05s-.76-.05-.97-.05c-.22,0-.55.02-.98.05s-.76.05-.97.05c-.29,0-.44-.13-.44-.4,0-1.34.06-3.35.18-6.04s.18-4.71.18-6.06-.06-3.25-.18-5.86-.18-4.56-.18-5.86c0-.29.13-.44.4-.44.22,0,.56.02,1.02.05s.8.05,1.04.05c.21,0,.53-.02.95-.05s.74-.05.95-.05c.3,0,.46.12.46.35,0,1.31-.05,3.28-.14,5.91s-.14,4.59-.14,5.91.05,3.37.15,6.06.15,4.72.15,6.06Z" style="stroke-width: 0px;"/>
        <path d="M50.39,69.47c0,.26-.02.61-.07,1.05-.06.55-.09.91-.11,1.07-.01.21-.03.34-.05.39-.05.08-.16.16-.33.25-.96.46-2.47.69-4.54.69-2.74,0-4.11-1.24-4.11-3.73,0-1,.02-2.49.07-4.49s.07-3.5.07-4.49c0-.48-.24-.74-.72-.77-.43,0-.86,0-1.28-.02-.25-.06-.37-.54-.37-1.44,0-.34.02-.7.07-1.07.04-.28.22-.45.56-.51.29,0,.58,0,.86-.02.54-.02.81-.26.81-.72s-.01-1.18-.04-2.14-.04-1.68-.04-2.16c0-.86.16-1.28.49-1.28.11,0,1.21.18,3.3.54.27.04.4.16.4.39,0,.52-.04,1.29-.11,2.32s-.11,1.8-.11,2.32c0,.34.16.51.47.51h4.22c.2,0,.3.07.3.21s-.02.37-.06.68-.06.54-.06.69c0,.18,0,.45.02.81s.02.63.02.81c0,.22-.16.33-.49.33-.47,0-1.18-.03-2.13-.1s-1.66-.1-2.13-.1c-.09,0-.16.33-.21,1-.06.83-.09,2-.09,3.5v2.62c0,1.01.09,1.71.28,2.11.28.61.86.91,1.74.91.36,0,.9-.08,1.6-.24s1.22-.24,1.56-.24c.14,0,.21.11.21.32Z" style="stroke-width: 0px;"/>
        <path d="M57.16,51.89c0,2.46-.97,4.72-2.92,6.77-.16.18-.29.26-.37.26-.06,0-.14-.05-.25-.16l-1.21-1.18s.04-.12.11-.21c.84-1.16,1.27-2.45,1.27-3.87,0-.76-.16-1.45-.49-2.06-.2-.39-.49-.77-.88-1.16-.32-.32-.47-.51-.47-.58,0-.04.35-.37,1.04-1,.74-.66,1.16-1.07,1.27-1.24s.21-.25.31-.25c.11,0,.25.08.44.25,1.44,1.28,2.16,2.75,2.16,4.43Z" style="stroke-width: 0px;"/>
        <path d="M68.58,67.29c0,1.75-.7,3.15-2.09,4.2-1.27.96-2.81,1.44-4.62,1.44-.7,0-1.1-.02-1.2-.05-.2-.09-.3-.38-.3-.86,0-.26-.03-.64-.1-1.16s-.1-.9-.1-1.14c0-.15.11-.25.32-.3.15-.04.37-.04.65,0,.36.04.54.05.53.05,2.21,0,3.32-.68,3.32-2.04,0-.64-.49-1.24-1.46-1.78-1.58-.87-2.49-1.4-2.72-1.6-.97-.83-1.46-1.92-1.46-3.27,0-1.76.66-3.13,1.99-4.11,1.2-.88,2.71-1.32,4.54-1.32.16,0,.28.08.36.23s.22.63.44,1.42.33,1.28.33,1.44c0,.13-.11.21-.33.25-.75.11-1.51.21-2.27.3-.9.25-1.35.74-1.35,1.48,0,.53.47,1.06,1.42,1.6,1.41.79,2.3,1.35,2.67,1.71.96.91,1.44,2.09,1.44,3.52Z" style="stroke-width: 0px;"/>
        <path d="M84.58,56.39c0,.77-.04,1.94-.11,3.49s-.11,2.72-.11,3.51c0,.86.01,2.14.04,3.86s.04,3.01.04,3.88c0,3.38-1.52,5.5-4.57,6.38-.87.26-1.5.39-1.9.39-.19,0-.3-.12-.35-.37-.05-.16-.06-.41-.04-.74.04-.45.05-.64.05-.58,0-.15-.02-.38-.06-.69s-.06-.54-.06-.68c0-.21.08-.33.23-.37,1.17-.21,1.92-.47,2.25-.79.4-.4.6-1.19.6-2.37,0-.84-.02-2.1-.07-3.78s-.07-2.94-.07-3.78c0-1.66-.13-3.99-.4-6.98l-.02-.19c0-.16.11-.27.32-.32.07-.02.71-.08,1.92-.18s1.89-.14,2.04-.14c.19,0,.28.15.28.46ZM84.81,51.65c0,1.42-.82,2.13-2.46,2.13-.69,0-1.26-.18-1.71-.53-.49-.39-.74-.92-.74-1.6s.25-1.2.74-1.62c.47-.39,1.04-.58,1.71-.58s1.24.19,1.71.58c.5.42.76.96.76,1.62Z" style="stroke-width: 0px;"/>
        <path d="M104.35,56.76c0,.86-.04,2.15-.11,3.88s-.11,3.03-.11,3.89.03,2.14.08,3.84.08,2.99.08,3.84c0,.23-.11.39-.33.46-.09.02-1.28.04-3.57.04-.14,0-.23-.44-.25-1.32s-.1-1.32-.2-1.32c-.06,0-.15.05-.26.16-1.96,1.7-3.89,2.55-5.8,2.55-2.59,0-4.3-.94-5.13-2.81-.52-1.16-.77-3.25-.77-6.26,0-2.72.22-5.02.65-6.91.11-.46.3-.69.58-.69.34,0,.85,0,1.53.02s1.19.02,1.53.02c.23,0,.35.13.35.39,0,.46-.08,1.22-.23,2.29-.16,1.14-.25,1.94-.26,2.41-.04.7-.05,1.48-.05,2.32,0,2.05.15,3.43.44,4.13.5,1.27,1.62,1.9,3.36,1.9.74,0,1.61-.36,2.62-1.09,1.07-.76,1.62-1.49,1.65-2.2.06-.88.09-3.97.09-9.28,0-.57.24-.86.72-.86h2.9c.34,0,.51.21.51.62Z" style="stroke-width: 0px;"/>
        <path d="M116.16,67.29c0,1.75-.7,3.15-2.09,4.2-1.27.96-2.81,1.44-4.62,1.44-.7,0-1.1-.02-1.2-.05-.2-.09-.3-.38-.3-.86,0-.26-.03-.64-.1-1.16s-.1-.9-.1-1.14c0-.15.11-.25.32-.3.15-.04.37-.04.65,0,.36.04.54.05.53.05,2.21,0,3.32-.68,3.32-2.04,0-.64-.49-1.24-1.46-1.78-1.58-.87-2.49-1.4-2.72-1.6-.97-.83-1.46-1.92-1.46-3.27,0-1.76.66-3.13,1.99-4.11,1.2-.88,2.71-1.32,4.54-1.32.16,0,.28.08.36.23s.22.63.44,1.42.33,1.28.33,1.44c0,.13-.11.21-.33.25-.75.11-1.51.21-2.27.3-.9.25-1.35.74-1.35,1.48,0,.53.47,1.06,1.42,1.6,1.41.79,2.3,1.35,2.67,1.71.96.91,1.44,2.09,1.44,3.52Z" style="stroke-width: 0px;"/>
        <path d="M128.49,69.47c0,.26-.02.61-.07,1.05-.06.55-.09.91-.11,1.07-.01.21-.03.34-.05.39-.05.08-.16.16-.33.25-.96.46-2.47.69-4.54.69-2.74,0-4.11-1.24-4.11-3.73,0-1,.02-2.49.07-4.49s.07-3.5.07-4.49c0-.48-.24-.74-.72-.77-.43,0-.86,0-1.28-.02-.25-.06-.37-.54-.37-1.44,0-.34.02-.7.07-1.07.04-.28.22-.45.56-.51.29,0,.58,0,.86-.02.54-.02.81-.26.81-.72s-.01-1.18-.04-2.14-.04-1.68-.04-2.16c0-.86.16-1.28.49-1.28.11,0,1.21.18,3.3.54.27.04.4.16.4.39,0,.52-.04,1.29-.11,2.32s-.11,1.8-.11,2.32c0,.34.16.51.47.51h4.22c.2,0,.3.07.3.21s-.02.37-.06.68-.06.54-.06.69c0,.18,0,.45.02.81s.02.63.02.81c0,.22-.16.33-.49.33-.47,0-1.18-.03-2.13-.1s-1.66-.1-2.13-.1c-.09,0-.16.33-.21,1-.06.83-.09,2-.09,3.5v2.62c0,1.01.09,1.71.28,2.11.28.61.86.91,1.74.91.36,0,.9-.08,1.6-.24s1.22-.24,1.56-.24c.14,0,.21.11.21.32Z" style="stroke-width: 0px;"/>
        <path d="M155.93,64.15c0,2.45-.8,4.54-2.41,6.28-1.64,1.79-3.67,2.69-6.1,2.69s-4.48-.89-6.12-2.67c-1.61-1.72-2.41-3.81-2.41-6.26s.8-4.54,2.41-6.26c1.65-1.76,3.69-2.64,6.12-2.64s4.44.88,6.08,2.64c1.62,1.71,2.43,3.79,2.43,6.22ZM152.22,64.18c0-1.43-.44-2.65-1.32-3.66-.91-1.07-2.07-1.6-3.48-1.6s-2.57.53-3.5,1.58c-.88,1.02-1.32,2.24-1.32,3.67s.45,2.62,1.34,3.66c.94,1.09,2.1,1.63,3.48,1.63s2.55-.54,3.48-1.63c.88-1.03,1.32-2.25,1.32-3.66Z" style="stroke-width: 0px;"/>
        <path d="M173.89,72.36c0,.26-.12.39-.35.39-.39,0-.96,0-1.73-.02s-1.34-.02-1.73-.02c-.21,0-.32-.17-.32-.51,0-.57.02-1.45.05-2.62s.05-2.05.05-2.64c0-.47,0-1.17-.02-2.1s-.02-1.63-.02-2.1c0-1.34-.19-2.28-.58-2.83-.47-.66-1.34-.98-2.6-.98-.59,0-1.4.33-2.44.98-1.1.69-1.65,1.31-1.65,1.85v10.55c0,.29-.11.44-.33.44-.38,0-.94,0-1.69-.02s-1.31-.02-1.69-.02c-.25,0-.37-.13-.37-.4,0-.93.01-2.31.04-4.17s.04-3.25.04-4.18c0-2.5-.26-4.8-.79-6.91-.04-.11-.05-.18-.05-.23,0-.12.08-.2.23-.25.08-.01.75-.12,2.01-.33s1.92-.31,1.98-.31c.07,0,.12.09.14.28.06.73.19,1.46.4,2.2.61-.48,1.41-1.08,2.41-1.79,1.23-.75,2.42-1.12,3.57-1.12,2.2,0,3.71.64,4.52,1.92.6.94.9,2.46.9,4.55,0,.36,0,.92-.03,1.67s-.03,1.31-.03,1.69c0,.79.01,1.96.04,3.52s.04,2.73.04,3.52Z" style="stroke-width: 0px;"/>
        <path d="M192.12,63.27c0,.87-.38,1.45-1.12,1.74-.5.19-4.13.53-10.88,1.04.15,1.03.72,1.91,1.71,2.64.94.69,1.95,1.04,3.02,1.04,1.85,0,3.55-.6,5.1-1.79l.56-.46c.09,0,.16.01.18.04s.25.43.66,1.22.62,1.22.62,1.27c0,.07-.09.21-.28.4-1.72,1.83-3.93,2.74-6.63,2.74s-4.89-.81-6.5-2.43-2.43-3.79-2.43-6.5c0-2.41.77-4.52,2.32-6.31,1.63-1.86,3.63-2.79,5.99-2.79,2.2,0,4.04.81,5.52,2.43,1.44,1.57,2.16,3.48,2.16,5.73ZM187.94,62.2c0-.97-.38-1.83-1.15-2.58s-1.63-1.12-2.59-1.12c-1.08,0-2.04.43-2.87,1.3s-1.26,1.84-1.26,2.92c0,.25.21.37.63.37,1.73,0,3.81-.18,6.22-.53.68-.09,1.02-.21,1.02-.35Z" style="stroke-width: 0px;"/>
        <path d="M221.02,64.22c0,2.32-.72,4.34-2.16,6.06-1.54,1.83-3.45,2.74-5.73,2.74-1.52,0-2.87-.39-4.03-1.16-.47-.4-.94-.79-1.41-1.18-.13.04-.21.39-.25,1.05s-.14,1-.29,1h-3.71c-.14,0-.21-.08-.21-.23,0,.01.01-.09.04-.32.19-1.88.28-5.46.28-10.76,0-2.17-.09-5.35-.28-9.54-.12-2.67-.18-3.84-.18-3.52,0-.3.15-.47.46-.51.42-.01,1.05-.04,1.88-.07.16-.01.5-.05,1-.12.42-.07.76-.11,1.02-.11.19,0,.28.13.28.4,0,.4-.03,1.01-.09,1.83s-.09,1.44-.09,1.85c0,.61-.03,1.53-.08,2.75s-.08,2.14-.08,2.75c0,.45.08.67.25.67.08,0,.17-.06.26-.19,1.29-1.61,2.99-2.41,5.12-2.41,2.43,0,4.39.91,5.89,2.72,1.41,1.71,2.11,3.8,2.11,6.28ZM217.05,64.06c0-1.39-.44-2.62-1.32-3.69-.94-1.14-2.09-1.71-3.46-1.71s-2.58.56-3.52,1.67c-.9,1.05-1.35,2.3-1.35,3.73s.45,2.71,1.35,3.76c.94,1.1,2.12,1.65,3.55,1.65s2.54-.57,3.46-1.71c.86-1.05,1.28-2.29,1.28-3.71Z" style="stroke-width: 0px;"/>
        <path d="M239.46,64.15c0,2.45-.8,4.54-2.41,6.28-1.64,1.79-3.67,2.69-6.1,2.69s-4.48-.89-6.12-2.67c-1.61-1.72-2.41-3.81-2.41-6.26s.8-4.54,2.41-6.26c1.65-1.76,3.69-2.64,6.12-2.64s4.44.88,6.08,2.64c1.62,1.71,2.43,3.79,2.43,6.22ZM235.75,64.18c0-1.43-.44-2.65-1.32-3.66-.91-1.07-2.07-1.6-3.48-1.6s-2.57.53-3.5,1.58c-.88,1.02-1.32,2.24-1.32,3.67s.45,2.62,1.34,3.66c.94,1.09,2.1,1.63,3.48,1.63s2.55-.54,3.48-1.63c.88-1.03,1.32-2.25,1.32-3.66Z" style="stroke-width: 0px;"/>
        <path d="M251.73,69.47c0,.26-.02.61-.07,1.05-.06.55-.09.91-.11,1.07-.01.21-.03.34-.05.39-.05.08-.16.16-.33.25-.96.46-2.47.69-4.54.69-2.74,0-4.11-1.24-4.11-3.73,0-1,.02-2.49.07-4.49s.07-3.5.07-4.49c0-.48-.24-.74-.72-.77-.43,0-.86,0-1.28-.02-.25-.06-.37-.54-.37-1.44,0-.34.02-.7.07-1.07.04-.28.22-.45.56-.51.29,0,.58,0,.86-.02.54-.02.81-.26.81-.72s-.01-1.18-.04-2.14-.04-1.68-.04-2.16c0-.86.16-1.28.49-1.28.11,0,1.21.18,3.3.54.27.04.4.16.4.39,0,.52-.04,1.29-.11,2.32s-.11,1.8-.11,2.32c0,.34.16.51.47.51h4.22c.2,0,.3.07.3.21s-.02.37-.06.68-.06.54-.06.69c0,.18,0,.45.02.81s.02.63.02.81c0,.22-.16.33-.49.33-.47,0-1.18-.03-2.13-.1s-1.66-.1-2.13-.1c-.09,0-.16.33-.21,1-.06.83-.09,2-.09,3.5v2.62c0,1.01.09,1.71.28,2.11.28.61.86.91,1.74.91.36,0,.9-.08,1.6-.24s1.22-.24,1.56-.24c.14,0,.21.11.21.32Z" style="stroke-width: 0px;"/>
        <path d="M264.03,69.47c0,.26-.02.61-.07,1.05-.06.55-.09.91-.11,1.07-.01.21-.03.34-.05.39-.05.08-.16.16-.33.25-.96.46-2.47.69-4.54.69-2.74,0-4.11-1.24-4.11-3.73,0-1,.02-2.49.07-4.49s.07-3.5.07-4.49c0-.48-.24-.74-.72-.77-.43,0-.86,0-1.28-.02-.25-.06-.37-.54-.37-1.44,0-.34.02-.7.07-1.07.04-.28.22-.45.56-.51.29,0,.58,0,.86-.02.54-.02.81-.26.81-.72s-.01-1.18-.04-2.14-.04-1.68-.04-2.16c0-.86.16-1.28.49-1.28.11,0,1.21.18,3.3.54.27.04.4.16.4.39,0,.52-.04,1.29-.11,2.32s-.11,1.8-.11,2.32c0,.34.16.51.47.51h4.22c.2,0,.3.07.3.21s-.02.37-.06.68-.06.54-.06.69c0,.18,0,.45.02.81s.02.63.02.81c0,.22-.16.33-.49.33-.47,0-1.18-.03-2.13-.1s-1.66-.1-2.13-.1c-.09,0-.16.33-.21,1-.06.83-.09,2-.09,3.5v2.62c0,1.01.09,1.71.28,2.11.28.61.86.91,1.74.91.36,0,.9-.08,1.6-.24s1.22-.24,1.56-.24c.14,0,.21.11.21.32Z" style="stroke-width: 0px;"/>
        <path d="M270.99,48.33l-.02.23c-.26,4.36-.39,8.1-.39,11.23,0,1.39.02,3.48.07,6.27s.07,4.87.07,6.25c0,.27-.09.4-.28.4h-3.36c-.21,0-.32-.13-.32-.4,0-1.38.01-3.47.04-6.25s.04-4.87.04-6.27c0-1.27-.06-3.17-.18-5.7s-.18-4.43-.18-5.69c0-.23.12-.35.37-.35.21,0,.53.02.95.05s.74.05.95.05c.22,0,.55-.02.98-.05s.76-.05.97-.05.31.09.3.28Z" style="stroke-width: 0px;"/>
        <path d="M289.36,63.27c0,.87-.38,1.45-1.12,1.74-.5.19-4.13.53-10.88,1.04.15,1.03.72,1.91,1.71,2.64.94.69,1.95,1.04,3.02,1.04,1.85,0,3.55-.6,5.1-1.79l.56-.46c.09,0,.16.01.18.04s.25.43.66,1.22.62,1.22.62,1.27c0,.07-.09.21-.28.4-1.72,1.83-3.93,2.74-6.63,2.74s-4.89-.81-6.5-2.43-2.43-3.79-2.43-6.5c0-2.41.77-4.52,2.32-6.31,1.63-1.86,3.63-2.79,5.99-2.79,2.2,0,4.04.81,5.52,2.43,1.44,1.57,2.16,3.48,2.16,5.73ZM285.18,62.2c0-.97-.38-1.83-1.15-2.58s-1.63-1.12-2.59-1.12c-1.08,0-2.04.43-2.87,1.3s-1.26,1.84-1.26,2.92c0,.25.21.37.63.37,1.73,0,3.81-.18,6.22-.53.68-.09,1.02-.21,1.02-.35Z" style="stroke-width: 0px;"/>
        <path d="M296.59,70.12c0,.77-.26,1.45-.78,2.03s-1.16.87-1.92.87-1.4-.3-1.92-.9c-.49-.56-.74-1.23-.74-2s.25-1.46.76-2.01,1.14-.83,1.9-.83,1.42.28,1.93.84.77,1.23.77,2Z" style="stroke-width: 0px;"/>
        <path d="M304.32,70.12c0,.77-.26,1.45-.78,2.03s-1.16.87-1.92.87-1.4-.3-1.92-.9c-.49-.56-.74-1.23-.74-2s.25-1.46.76-2.01,1.14-.83,1.9-.83,1.42.28,1.93.84.77,1.23.77,2Z" style="stroke-width: 0px;"/>
        <path d="M312.06,70.12c0,.77-.26,1.45-.78,2.03s-1.16.87-1.92.87-1.4-.3-1.92-.9c-.49-.56-.74-1.23-.74-2s.25-1.46.76-2.01,1.14-.83,1.9-.83,1.42.28,1.93.84.77,1.23.77,2Z" style="stroke-width: 0px;"/>
        <path d="M55.66,103.3c0,2.2-.12,3.59-.37,4.15-.33.77-1.2,2.31-2.6,4.62-1.52,2.5-2.44,3.79-2.76,3.87-.09.02-.56.04-1.41.04-.57,0-.91-.01-1-.04-.36-.09-1.76-2.11-4.18-6.05-.67,1.1-1.34,2.21-2.02,3.32-1.1,1.73-1.8,2.64-2.11,2.72-.09.02-.48.04-1.16.04s-1.08-.01-1.18-.04c-.36-.08-1.28-1.36-2.76-3.83-1.39-2.33-2.24-3.88-2.53-4.66-.27-.7-.4-2.09-.4-4.15,0-1.72.06-2.9.18-3.53.06-.26.21-.39.44-.39.35,0,.88.01,1.58.04s1.23.04,1.58.04c.22,0,.33.18.33.54,0,.26-.01.65-.04,1.17s-.04.91-.04,1.17c0,2.04.06,3.48.18,4.32.11.74,1.03,2.29,2.76,4.64.21.28.33.42.37.42s.14-.13.32-.39c1.52-2.21,2.39-3.73,2.6-4.54.14-.56.21-1.82.21-3.78,0-.4-.02-.99-.07-1.78s-.07-1.37-.07-1.76c0-.26.11-.39.32-.39h3.36c.19,0,.28.15.28.46,0,.38-.02.94-.05,1.7s-.05,1.32-.05,1.7c0,2.07.04,3.27.11,3.59s.62,1.24,1.65,2.76,1.62,2.28,1.78,2.28c.04,0,.14-.14.32-.42,1.49-2.26,2.29-3.77,2.41-4.54.11-.63.16-1.71.16-3.22,0-.45-.04-1.09-.11-1.92s-.11-1.44-.11-1.8c0-.18.12-.26.35-.26.35,0,.87-.01,1.56-.04s1.21-.04,1.56-.04c.26,0,.42.12.47.35.09.46.14,1.66.14,3.6Z" style="stroke-width: 0px;"/>
        <path d="M73.66,115.29c0,.43-.12.65-.37.65-.36,0-.91,0-1.65-.02s-1.29-.02-1.65-.02c-.29,0-.44-.19-.44-.58,0-.56.02-1.41.06-2.55s.06-1.99.06-2.57c0-.54-.02-1.36-.06-2.45s-.06-1.92-.06-2.47c0-2.11-1-3.16-2.99-3.16-.64,0-1.49.32-2.53.97-1.11.69-1.67,1.32-1.67,1.9v10.44c0,.34-.12.51-.37.51-.36,0-.91,0-1.63-.02s-1.27-.02-1.63-.02c-.27,0-.4-.16-.4-.47v-8.49c0-1.38-.08-4.32-.23-8.82-.02-1.39-.12-3.46-.3-6.19-.02-.14-.04-.23-.04-.28,0-.2.07-.32.21-.37.2-.07.86-.11,1.99-.11.25,0,.62-.04,1.11-.13s.85-.13,1.07-.13c.15,0,.23.11.23.33,0,1.1-.04,2.76-.13,4.97s-.13,3.86-.13,4.97c0,.27.05.41.14.42.6-.5,1.37-1.11,2.32-1.83,1.15-.71,2.36-1.07,3.64-1.07,2.2,0,3.72.66,4.55,1.97.6.96.9,2.48.9,4.57,0,.36,0,.92-.03,1.68s-.03,1.32-.03,1.68c0,.75.01,1.87.04,3.36s.04,2.6.04,3.34Z" style="stroke-width: 0px;"/>
        <path d="M92.96,107.35c0,2.45-.8,4.54-2.41,6.28-1.64,1.79-3.67,2.69-6.1,2.69s-4.48-.89-6.12-2.67c-1.61-1.72-2.41-3.81-2.41-6.26s.8-4.54,2.41-6.26c1.65-1.76,3.69-2.64,6.12-2.64s4.44.88,6.08,2.64c1.62,1.71,2.43,3.79,2.43,6.22ZM89.25,107.38c0-1.43-.44-2.65-1.32-3.66-.91-1.07-2.07-1.6-3.48-1.6s-2.57.53-3.5,1.58c-.88,1.02-1.32,2.24-1.32,3.67s.45,2.62,1.34,3.66c.94,1.09,2.1,1.63,3.48,1.63s2.55-.54,3.48-1.63c.88-1.03,1.32-2.25,1.32-3.66Z" style="stroke-width: 0px;"/>
        <path d="M116.71,99.96c0,.26-.13.83-.4,1.72s-.46,1.34-.56,1.34c-.53-.23-1.06-.47-1.59-.7s-1.12-.35-1.75-.35c-1.44,0-2.64.53-3.6,1.6s-1.44,2.33-1.44,3.78.48,2.67,1.44,3.71c.98,1.08,2.19,1.62,3.6,1.62.79,0,1.56-.19,2.32-.58s1.1-.58,1-.58c.15,0,.32.49.51,1.48.18.89.26,1.51.26,1.85,0,.36-.69.72-2.06,1.07-1.15.29-2,.44-2.55.44-2.41,0-4.45-.9-6.12-2.71-1.63-1.76-2.44-3.86-2.44-6.29s.8-4.59,2.39-6.33c1.64-1.78,3.69-2.67,6.13-2.67,1.64,0,3.14.42,4.5,1.25.23.14.35.26.35.37Z" style="stroke-width: 0px;"/>
        <path d="M135.99,100s-.02.15-.05.32c-.46,2.68-.69,5-.69,6.94,0,.12.15,2.75.44,7.89l.02.25c.01.34-.14.51-.47.51s-.81.04-1.46.11-1.13.11-1.45.11c-.22,0-.39-.41-.51-1.23s-.23-1.23-.33-1.23c-.07,0-.39.23-.95.69-.69.56-1.34.99-1.93,1.28-.93.47-1.85.7-2.78.7-2.27,0-4.19-.91-5.75-2.72-1.48-1.73-2.21-3.76-2.21-6.06,0-2.6.74-4.75,2.23-6.45,1.56-1.77,3.61-2.65,6.15-2.65,1.79,0,3.36.62,4.69,1.86.2.23.51.57.93,1.02.04.04.07.05.11.05.07,0,.17-.37.3-1.11s.29-1.11.49-1.11c.32,0,.91.09,1.78.26.96.21,1.44.4,1.44.56ZM131.51,107.35c0-1.44-.43-2.68-1.28-3.71-.9-1.11-2.06-1.67-3.46-1.67s-2.58.55-3.52,1.65c-.9,1.05-1.35,2.3-1.35,3.73s.45,2.65,1.35,3.69c.94,1.09,2.11,1.63,3.52,1.63s2.52-.56,3.45-1.67c.87-1.04,1.3-2.26,1.3-3.66Z" style="stroke-width: 0px;"/>
        <path d="M148.91,99.4c0,1.29-.09,2.46-.26,3.52-.04.27-.15.4-.35.4-.25,0-.62-.03-1.12-.08s-.88-.08-1.13-.08c-1.48,0-2.42.42-2.83,1.25-.25.5-.37,1.55-.37,3.15v1.93c0,.66.03,1.65.08,2.99s.08,2.33.08,2.99c0,.32-.13.47-.4.47-.36,0-.91,0-1.65-.02s-1.29-.02-1.65-.02c-.27,0-.4-.15-.4-.44,0-.95.01-2.38.04-4.29s.04-3.35.04-4.31c0-2.89-.27-5.22-.81-6.98-.02-.09-.04-.16-.04-.21,0-.14.08-.24.23-.3.43-.05,1.04-.12,1.83-.21,1.27-.23,1.85-.35,1.76-.35.19,0,.31.35.37,1.04s.16,1.04.32,1.04c.02,0,.05-.01.09-.04l1.44-.91c.53-.32,1.07-.55,1.62-.7.46-.14,1.04-.21,1.76-.21.91,0,1.37.12,1.37.37Z" style="stroke-width: 0px;"/>
        <path d="M165.74,106.47c0,.87-.38,1.45-1.12,1.74-.5.19-4.13.53-10.88,1.04.15,1.03.72,1.91,1.71,2.64.94.69,1.95,1.04,3.02,1.04,1.85,0,3.55-.6,5.1-1.79l.56-.46c.09,0,.16.01.18.04s.25.43.66,1.22.62,1.22.62,1.27c0,.07-.09.21-.28.4-1.72,1.83-3.93,2.74-6.63,2.74s-4.89-.81-6.5-2.43-2.43-3.79-2.43-6.5c0-2.41.77-4.52,2.32-6.31,1.63-1.86,3.63-2.79,5.99-2.79,2.2,0,4.04.81,5.52,2.43,1.44,1.57,2.16,3.48,2.16,5.73ZM161.55,105.4c0-.97-.38-1.83-1.15-2.58s-1.63-1.12-2.59-1.12c-1.08,0-2.04.43-2.87,1.3s-1.26,1.84-1.26,2.92c0,.25.21.37.63.37,1.73,0,3.81-.18,6.22-.53.68-.09,1.02-.21,1.02-.35Z" style="stroke-width: 0px;"/>
        <path d="M176.42,110.49c0,1.75-.7,3.15-2.09,4.2-1.27.96-2.81,1.44-4.62,1.44-.7,0-1.1-.02-1.2-.05-.2-.09-.3-.38-.3-.86,0-.26-.03-.64-.1-1.16s-.1-.9-.1-1.14c0-.15.11-.25.32-.3.15-.04.37-.04.65,0,.36.04.54.05.53.05,2.21,0,3.32-.68,3.32-2.04,0-.64-.49-1.24-1.46-1.78-1.58-.87-2.49-1.4-2.72-1.6-.97-.83-1.46-1.92-1.46-3.27,0-1.76.66-3.13,1.99-4.11,1.2-.88,2.71-1.32,4.54-1.32.16,0,.28.08.36.23s.22.63.44,1.42.33,1.28.33,1.44c0,.13-.11.21-.33.25-.75.11-1.51.21-2.27.3-.9.25-1.35.74-1.35,1.48,0,.53.47,1.06,1.42,1.6,1.41.79,2.3,1.35,2.67,1.71.96.91,1.44,2.09,1.44,3.52Z" style="stroke-width: 0px;"/>
        <path d="M190.73,97.98c0,1.7-.5,3.21-1.51,4.52-.13.15-1.09,1.11-2.88,2.88-1.08,1.04-1.66,2.07-1.76,3.08l-.07.77c-.05.2-.22.35-.51.46-.34.12-.6.18-.79.18-.6,0-.95-.02-1.05-.05-.28-.11-.42-.39-.42-.84,0-1.41.24-2.53.72-3.36.77-1.01,1.54-2.02,2.3-3.04.91-1.22,1.37-2.38,1.37-3.5s-.31-1.97-.94-2.64-1.48-1-2.56-1c-.87,0-1.83.3-2.89.91s-1.57.91-1.52.91c-.36,0-.54-1.12-.54-3.38,0-.16.18-.37.53-.62,1.84-1.28,3.77-1.92,5.8-1.92s3.6.61,4.85,1.83,1.88,2.82,1.88,4.8ZM185.72,113.92c0,.66-.22,1.23-.65,1.72s-.97.74-1.62.74-1.16-.25-1.59-.74-.64-1.07-.64-1.72.21-1.22.63-1.7.96-.71,1.6-.71,1.2.24,1.63.71.64,1.04.64,1.7Z" style="stroke-width: 0px;"/>
      </g>
    </g>
  </g>
</svg>