<?xml version="1.0" encoding="UTF-8"?>
<svg id="Layer_2" data-name="Layer 2" xmlns="http://www.w3.org/2000/svg" viewBox="0 0 1101.87 448.79">
  <g id="Scrollytelling_-llustrations" data-name="Scrollytelling -llustrations">
    <path d="M242.91,300.92c-2.48-12.32-4.61-22.86-6.72-33.41-15.57-77.76,46.2-138.52,124.52-124.03,46.97,8.69,86.45,31.55,126.71,61.16-.14-28.07,2.93-53.4,9.59-78.32,23.67-88.53,101.05-139.22,191.35-123.47,80.83,14.1,137.42,57.76,162.74,137.95,7.13,22.58,6.98,45.76,5.75,68.85-.82,15.26,1.26,20.18,18.52,15,60.46-18.15,118.17-10.34,171.04,24.72,42.67,28.29,61.22,69.11,53.92,119.58-4.66,32.22-25.02,53.68-55.52,65.77-27.49,10.89-56.45,13.65-85.22,13.7-293.61.54-587.22.41-880.83.2-15.57-.01-31.28-1.41-46.66-3.83-25.5-4.02-37.62-23.78-29.67-48.57,12.23-38.08,39.94-63.61,73.4-82.33,52.68-29.47,108.48-33.5,167.08-12.97Z" style="fill: #e1fff9; stroke-width: 0px;"/>
  </g>
</svg>