<?xml version="1.0" encoding="UTF-8"?>
<svg id="Layer_2" data-name="Layer 2" xmlns="http://www.w3.org/2000/svg" viewBox="0 0 889.96 336.55">
  <g id="Scrollytelling_-llustrations" data-name="Scrollytelling -llustrations">
    <path d="M742.19,243.21c40.27-15.61,77.89-24.08,115.49-2.39,15.97,9.21,28.55,22.64,31.54,41.42,4.87,30.6-14.47,49.15-52.25,50.89-36.35,1.68-72.67,3.41-109.12,3.36-214.9-.3-429.8-.06-644.7.05-18.51,0-36.89-1.75-54.85-5.87-25.19-5.78-34.68-23.83-23.95-47.9,21.02-47.12,59.24-72.75,109.28-79.66,30.55-4.21,60.89.43,88.59,15.35,12.09,6.51,12.56-2.66,14.34-9.5,9.92-38.09,23.42-74.57,46.76-106.75C314.64,31.49,383.01-4.73,471.33.5c61.83,3.66,119.66,60.85,124.12,122.8.94,13.05,3.39,14.65,14.9,7.91,34.58-20.24,70.81-25.57,108.84-9.07,34.72,15.06,48.95,43.27,40.56,80.27-3.16,13.95-8.54,26.73-17.56,40.81Z" style="fill: #96c1bc; stroke-width: 0px;"/>
  </g>
</svg>