<?xml version="1.0" encoding="UTF-8"?>
<svg id="Layer_2" data-name="Layer 2" xmlns="http://www.w3.org/2000/svg" viewBox="0 0 3364 1589.35">
  <g id="Scrollytelling_-llustrations" data-name="Scrollytelling -llustrations">
    <path d="M0,1589.35h3364V32.01s-240.82,67.57-461.01,70.1-602.66-43.67-709.33-39.62-258.35,87.38-385.01,100.57-217.64-22.33-291.18-24.38S0,510.49,0,510.49v1078.86Z" style="fill: #fdc870; stroke-width: 0px;"/>
    <path d="M0,1589.35h3364V227.06s-478.53,105.29-630.91,111.81S1343.38,122.44,1200.14,120.4s-481.52,96.52-783.24,67.05S0,89.92,0,89.92v1499.43Z" style="fill: #c5faff; stroke-width: 0px;"/>
    <path d="M0,1589.35h3364V551.6s-24.97,37.15-89.08,42.71-171.68-79.74-254.47-83.37-124.47,61.81-270.49,83.37-450.22-203.83-655.26-209.99-308.36,90.85-470.42,81.2-250.65-114.5-404.63-126.64-463.34,104.46-571.52,100.44-219.28-62.31-300.3-68.59-70.16,17.65-140.74,24.54S0,338.88,0,338.88v1250.47Z" style="fill: #98e9f4; stroke-width: 0px;"/>
    <path d="M823.8,827.7c64.38-56.86,212.15-16.1,219.22-51.39,3.38-16.85-23.65-36.8-19.07-66.56.91-5.9,4.38-11.97,11.87-18.31,37.18-31.46,93.35-21.81,172.34,2.12,9.36,2.83,17.4,5.38,24.41,7.7,5.8-1.3,11.67-2.31,17.5-3.41,8.65-1.64,16.91-4.01,24.94-7.35,21.89-9.1,46.31.82,55.16,22.53,2.65,6.5,1.64,14.92-1.83,22.84,53.6,11.35,149.37-81.09,185.6-76.8,32.74,3.88,37.23,43.83,72.44,54.27,25.32-1.93,45.53-13.67,64.72-31.14,25.48-23.21,57.93-28.87,91.51-26.94,29.96,1.72,56.45,12.51,78.67,33.12,1.9,1.77,3.5,3.14,4.02,5.99.24,1.31.5,2.6.78,3.88,13.06,11.88,20.7,22.49,44.65,23.17,42.97,1.22,35.34-27.74,87.22-42.66,51.88-14.92,199.36-38.5,318.74,84.02,2.03,2.08,3.99,4.09,5.91,6.03,14.63-6.04,27.85-14.74,39.71-26.18-3.09-12.32-4.89-23.97-3.45-32.8,7.69-47.27-40.72-27.89-78.31-28.56-37.59-.68-269.1-194.51-458.26-138.58-189.15,55.93-230.93,7.16-428.48,67.17-197.55,60.01-269.91,12.95-368.05,0-98.14-12.95-172.87,36.31-193.22,107.82-20.36,71.5-73.5,21.06-124.18,71.6s14.29,40.05,6.91,94.87c-7.37,54.82-62.69,3.89-72.58,48.02-9.89,44.13,37.36,163.31,47.42,195.57s71.62,94.46,95.77,122.79,163.77,62.25,211.12,101.52,178.09-1,232.88,62.91c54.79,63.91,73.08,32.22,102.34,0,29.26-32.22,55.05-30.66,44.09-70.07-10.96-39.41-56.4-39.95-80.67-28.74-24.27,11.22-26.93,40.41-71.73,35.9-40.89-4.12-67.76-36.64-95.27-55.41-52.76-35.99-97.29-9.2-145.12-22.24-132.86-36.24-217.97-359.9-119.72-446.67Z" style="fill: #2e86a6; stroke-width: 0px;"/>
    <path d="M1968.77,804.86c1.39,8.25,11,13.31,15.91,15.9,19.38,10.21,30.13,1.2,40.64,8.58,11.22,7.88,1.91,20.22,11.8,52.93,8.6,28.47,16.64,30.8,33.46,57.49,2.21,3.51,4.72,6.86,8.67,8.25,3.29,1.15,7.14.13,10.35-3.76,2.87-3.48,1.79-6.55.58-9.19-3.81-8.29-6.36-17.64-12.42-24.02-1.88-1.98-3.13-4.93-3.94-7.92-1.13-4.2-2.59-8.1-4.34-11.74-3.81-7.94-8.23-13.08-10.14-15.34-14.35-16.98,3.24-66.5-14.58-80.97-14.75-11.98-61-5.82-65.35-11.02-.23-.27-1.43-1.88-3.28-2.07-1.19-.13-2.58.39-4.32,1.98-1.49,1.57-2.98,3.15-4.48,4.72-.26,1.91-.47,4.53-.25,7.61,0,0,.98,4.42,1.68,8.58Z" style="fill: #2e86a6; stroke-width: 0px;"/>
    <path d="M2288.36,906.97c-6.46-4.78-11.88-10.52-17.06-16.69-1.82-2.16-3.47-4.35-4.98-6.57-58.87-35.64-106.41-84.56-116.66-92.51-14.44-11.2,21.3,132.2,123.46,160.73,102.16,28.53,40.3,154.33-9.81,209.13-12.97,14.19-41.14,26.73-75.72,38.18-6.81,7.02-10.16,8.39-10.16,8.39l-68.1,15.25-38.04,8.52c-71.03,18.04-133.42,34.23-132.07,51.98,2.84,37.17,297.46-110.88,369.26-87.89,71.8,22.99,123.89-256.28,33.99-278.4-.75-.18-1.49-.38-2.23-.58-18.17,5.24-42.03,1.97-51.89-9.53Z" style="fill: #2e86a6; stroke-width: 0px;"/>
    <path d="M1849.82,1309.84c-17.05-5.81-34.91-7.95-52.68-10.61-1-.15-1.99-.28-2.98-.41-1.51,1.78-3.23,3.51-5.22,5.19-12.1,10.23-26.56,16.1-41.29,21.26-24.19,8.46-48.6,16.01-72.64,19.5-2.83.5-5.71.86-8.64,1.08-3.39.35-6.77.62-10.14.78-10.43.19-18.46-.68-25.71-3.92-9.83-1.47-19.7-2.69-29.54-2.78-36.51-.34-71.95,8.27-107.52,15.2-9.85,1.92-22.15,16.46-21.2,24.73,1.41,12.28,12.25,13.24,21.21,14.79,17.81,3.09,35.81,1.75,53.77.58,21.42-1.4,42.46-4.34,63.76,4.82,27.4,11.78,56.28,19.63,89.15,18.21,20.43,1.79,41.33-2.22,59.07-18.31,8.11-7.35,17.78-12.96,26.64-19.49,19.64-14.47,42.19-22.7,64.85-30.91,10.8-3.91,17.06-12.13,16.89-24.39-.16-11.92-10.09-12.71-17.77-15.32Z" style="fill: #2e86a6; stroke-width: 0px;"/>
    <path d="M989.84,1078.4c-13.71,22.67-88.38-44.76-34.29-78.29s18.72-94.86,34.31-94.86,55.97,6.86,77.12,0-10.44-70.29,13.71-70.29,48.95,10.48,71.43,17.14,87.24-15.05,102.29-8-70.29,56.57-86.29,59.43-26.29-17.33-50.86-3.43,17.71,41.71-7.43,44.57-78.48-8.43-69.14,12.07,52.38,3.74,22.86,61.64-.95-90.29-47.43-44.57-12.57,81.9-26.29,104.57Z" style="fill: #2e86a6; stroke-width: 0px;"/>
    <path d="M1387.4,817.72c-7.18.47-13.84-.37-19.18-5.86-5.04-5.17-5.87-11.15-1.82-16.76,6.58-9.12,13.9-17.47,25.5-20.93,11.4-3.41,22.04-9.64,34.5-8.89,9.67.59,18.32,3.82,21.71,13.51,3.47,9.91-4.46,14.57-10.9,20.17-14.42,12.53-31.29,17.68-49.8,18.76Z" style="fill: #065c7f; stroke-width: 0px;"/>
    <path d="M2014.25,1118.81c-11.54-2.29-23.33-3.21-32.17-11.96-6.73-6.65-5.96-10,3.06-12.35,15.06-3.92,27.8-12.26,40.32-20.9,17.39-11.99,36.32-21.11,55.23-30.2,14.7-7.06,25.14-2.94,28.94,9.8,1.8,6.05-.3,11.15-3.61,15.26-23.66,29.4-54.97,45.04-91.78,50.35Z" style="fill: #107390; stroke-width: 0px;"/>
    <path d="M1652.94,1224.86c3.47,5.24,6.94,10.48,10.4,15.72-.5,6.35-5.49,7.92-11.18,8.68-55.44,7.37-110.88,14.43-166.57,18.9-27.21,2.18-54.29,7.6-81.49,10.83-20.15,2.39-40.21,2.3-59.87-1.66-5.46-1.1-11.49-1.66-17.08-.83-17.94,2.65-35.05-.75-52.46-1.97-5.56-.39-11.52-1.22-12.32-6.89-.9-6.33,3.24-11.45,9.68-14.46,7.73-3.61,16.19-4.23,24.42-4.4,43.74-.9,87.16,2.96,131.02.41,21.6-1.25,42.89-5.86,64.37-8.26,33.33-3.71,66.66-7.37,100.02-10.46,15.5-1.44,30.54-5.58,45.93-7.55,6.09-.78,11.43-2.52,13.83,4.19,0,0,.85-.14.91-.31.22-.62.27-1.29.38-1.93Z" style="fill: #0f6786; stroke-width: 0px;"/>
    <g style="opacity: .5;">
      <path d="M2044.34,1204.39c-5.67-5.7-10.16-12.19-14.35-19.07-12.11-19.84-13.49-40.05-4.28-61.38,3-6.94,5.13-14.37,6.72-21.78,5.8-27.01-10.57-48-38.74-49.76-7.97-.5-16-.38-23.99-.09-11.22.41-20.59-4.04-28.89-10.85-8.84-7.25-8.74-12.66.83-18.75,12.74-8.1,27.17-12.62,41.93-14.51,32.45-4.17,59.38-18.01,81.31-42.19,6.4-7.05,10.12-14.88,11.16-24.22,1.86-16.7,13.33-27.23,30.5-27.48,23.41-.34,46.12,4.92,68.84,9.56,18.07,3.69,36.68,5.04,53.89,12.58,9.14,4.01,17.94,8.58,23.44,17.11,15.07,23.35,27.5,47.62,29.07,76.37,1.13,20.63,4.87,41.06,4.45,61.86-.25,12.49-2.92,24.49-5.46,36.53-2.32,11-9.24,17.69-19.52,22.97-48.51,24.91-97.49,48.59-149.92,64.31-18.06,12.49-56.22,6.1-67.01-11.22Z" style="fill: #88d8b4; stroke-width: 0px;"/>
      <path d="M2222.36,1105.82c.21,7.8-3.86,12.04-8.22,13.55-5.8,2.01-4.83-4.93-6.24-7.91-20.48-43.14-35.74-88.23-49.62-133.83-1.69-5.56-.94-10.81,3.68-13.54,5.26-3.11,5.76,3.72,8.43,6.04,6.98,6.06,5.4,15.42,8.57,22.99,11.88,28.37,23.64,56.79,34.98,85.38,3.72,9.37,6,19.31,8.43,27.32Z" style="fill: #ade5ea; stroke-width: 0px;"/>
    </g>
    <g style="opacity: .8;">
      <g>
        <path d="M1772.98,1311.34l-75.64-19.71-137.92-35.94s-44.33-27.09-31.23-75.01c13.1-47.91,64.74-47.78,64.74-47.78l202.38,53.38c13.51,7.92,24.59,20.86,33.33,38.64l23.42,12.53,23.44,5.72s19.04,3.34,11.27,34.89c-7.77,31.56-29.53,23.83-29.53,23.83l-18-5.07-12.81-8.49s-12.29,9.02-29.67,16.3c-17.39,7.27-23.78,6.71-23.78,6.71Z" style="fill: #e4f0f4; stroke-width: 0px;"/>
        <path d="M1700.06,1291.51l-66.34-19.6s-17.21-26.51-4.57-67.2c12.64-40.69,44.16-51.97,44.16-51.97l64.18,16.28s-34.92,23.22-41.47,53.99c-6.55,30.77,4.04,68.5,4.04,68.5Z" style="fill: #86ea9b; stroke-width: 0px;"/>
        <path d="M1828,1287.32c10.92,11.71,35.31,17.23,49.67,11.25,4.87-5.19,8.56-11.43,9.97-18.14,5.69-27.13,3.59-38.73-31.82-44.49-16.31-.34-28.73,42.13-27.82,51.38Z" style="fill: #2d8aab; stroke-width: 0px;"/>
      </g>
    </g>
    <g>
      <path d="M899.91,1137.93c-6.72-15.02-11.82-30.63-16.98-46.21-1.84-1.29-3.1-3.03-3.61-5.2-3.02-12.82-6.11-25.63-7.16-38.82.37-2,1.31-3.57,3.31-4.32,20.35-7.71,39.23-18.78,59.69-26.25,11.52-4.2,23.34-7.11,35.39-9.15,3.99-.68,8.12-1.53,11.52,1.85,8.02,15.31,19.11,28.6,28.27,43.16,12.99,20.65,19.63,42.9,17.93,67.39-.75,10.77-4.04,20.58-11.6,28.65-2.84,3.03-6.02,5.45-10.12,6.48-6.77.69-13.6,1.86-19.73-2.47-3.53-1.92-6.94-4.03-10.26-6.31-5.17-3.54-7.39-2.97-10.93,2.4-2.62,3.98-3.19,8.92-6.04,12.79-2.86,3.82-5.66,7.72-10.61,9.1-12.65,7.58-28.84,2.24-38.91-13.4-3.98-6.18-6.82-13.09-10.18-19.66Z" style="fill: #8eceb8; stroke-width: 0px;"/>
      <path d="M901.36,873.11c4.59,13.6,11.93,23.65,28.01,24.68,5.23.34,10.28,3.48,15.41,5.34,18.45,12.17,25.48,30.66,28.8,51.37,2.16,13.46-.88,27.28,3.19,40.56-.44,5.1-4.74,3.89-7.63,4.32-30.09,4.4-57.14,16.63-83.21,31.6-4.46,2.56-6.8,8.31-12.85,8.33-6.68-7.12-9.14-16.25-11.92-25.22-.26-.51-.53-1.02-.79-1.53-2.55-2.31-4.18-5.18-5.1-8.48-9.53-15.86-14.53-32.49-9.62-51.16,3.25-12.33,7.72-24.12,14.62-34.81,5.86-9.08,8.19-18.67,6.46-29.29-1.41-2.92.54-4.51,2.56-5.77,8.52-5.33,18.27-7.69,27.54-11.21,1.61-.61,3.28-.08,4.53,1.26Z" style="fill: #81cbbb; stroke-width: 0px;"/>
      <path d="M872.61,1038.53c17.85-16.47,40.16-24.7,62.22-33.18,12.21-4.69,24.9-8.02,38.12-8.62,1.48-.07,2.81-.48,3.8-1.66,2.72,4.57,4.18,9.6,5.31,14.74-19.73.32-38.28,5.88-56.04,13.76-13.97,6.2-28.51,11.37-41.42,19.78-3.35,2.18-8.02.42-10.65,4.1-4.61-2.34-3.92-5.49-1.35-8.92Z" style="fill: #4bb6b1; stroke-width: 0px;"/>
      <path d="M901.36,873.11c-11.59,3.29-22.85,7.44-33.44,13.26-.65.36-.81,1.62-1.19,2.46-1.78-1.54-4.05-1.11-6.11-1.55-5.06-1.07-7.64-4.24-8.08-9.47-1.27-14.97,1.93-20.48,15.77-26.56,7.46-1,14.71-2.9,22.52-1.47,11.1,2.04,13.02,3.72,12.06,14.91-.24,2.83-1,5.61-1.53,8.42Z" style="fill: #2a9da2; stroke-width: 0px;"/>
      <path d="M986.43,1150.85c-6.99,10.31-18.14,9.08-28.43,10.25,2.98-4.58,2.9-10.5,6.47-14.82,3.67-4.44,7.47-7.27,12.92-2.18,2.73,2.55,6.01,4.52,9.05,6.75Z" style="fill: #37a8aa; stroke-width: 0px;"/>
    </g>
    <g style="opacity: .5;">
      <path d="M1155.66,1061.48c27.27-8.81,54.46-5.25,81.52.93,8.24,1.88,15.28,6.49,21.37,12.39,4.91,4.76,6.75,10.07,3.87,16.89-2.68,6.35-7.95,5.85-13.08,5.88-20,.13-40.05-.67-59.86,3.08-2.28.43-4.51,1.16-6.76,1.75-1.19,1.3-.64,2.98-.96,4.47-3.19,14.42.91,22.23,15.3,26.47,19.37,5.71,37.97,14.53,58.68,15.13,2.31.07,4.35,1.63,6.68,1.94,14.19,1.94,27.96-1.44,41.74-3.68,13.96-2.27,26.19.53,37.49,8.92,10.46,7.76,20.16,16.39,30.02,24.86,9.39,4.37,15.43,12.86,23.29,19.12,12.54,9.98,26.08,17.62,41.58,21.88,3.67,1.01,8.79,1.28,7.67,7.5-10.98,20.51-38.46,20.33-55.6,13.3-14.84-6.09-25.47-17.94-37.82-27.41-10.18-7.81-20.69-14.96-32.86-19.26-3.63-1.28-7.99-3.05-11.1-.02-3.08,3-.35,6.97.76,10.26,2.97,8.77,7.92,16.12,15,22.41,9.68,8.6,19.59,16.95,25.86,28.92,13.15,25.11,2.04,42.65-16.37,54.63-8.27,5.38-17.3,9.6-26.11,14.1-8.17,4.17-16.47,8.47-22.72,15.05-27.85,29.28-61.59,18.47-82.85-.67-12.97-11.69-22.19-26.26-31.6-40.6-5-7.61-11.34-12.57-19.33-16.27-14.21-6.57-27.87-14.13-40.81-22.99-11.5-7.87-21.44-16.92-28.96-29.05-17.88-28.88-13.4-57.13.97-85.29,5.2-10.18,11.46-19.82,17.24-29.71.11-3.48,1.35-6.53,3.46-9.27,12.4-16.13,25.59-31.43,43.47-41.9,3.4-1.99,6.83-3.61,10.83-3.74Z" style="fill: #47a7b8; stroke-width: 0px;"/>
      <path d="M1205.68,1264.44c.41-2.31-.66-5.54,2.46-5.93,2.47-.31,3.93,2.34,4.95,4.42,5.54,11.38,12.19,22.77,23.51,28.2,9.38,4.5,16.35,12.06,25.65,16.27,3.78,1.71,9.82,3.54,8.03,8.76-1.89,5.47-7.75,7.83-13.72,6.43-15.06-3.52-27.09-12.31-36.1-24.36-7.43-9.94-13.68-20.95-14.78-33.79Z" style="fill: #21839d; stroke-width: 0px;"/>
    </g>
    <g style="opacity: .5;">
      <path d="M1869.86,837.1c-4.36,10.92-12.99,16.42-23.44,19.72-6.06,1.91-9.36,4.87-6.21,12.05,2.22,5.06.99,10.77.18,16.17-.5,3.35-1.81,6.74-5.6,7.17-4.04.46-7.92-1.99-8.03-5.8-.68-22.69-21.04-19.08-33.71-25.59-3.68-1.89-5.99,1.28-7.98,3.96-8.63,11.59-16.12,24.33-31.16,29.18-2.9.93-3.72,3.78-1.74,6.2,5.73,7,5.63,15.41,6.46,23.7.67,6.67,4.35,12.22,7.7,17.84,1.86,3.11,3.99,6.14,4.03,9.96.03,2.5.56,5.28-2.06,6.91-2.95,1.84-4.58-.7-6.54-2.17-13.78-10.31-22.46-23.65-23.3-41.11-.41-8.51-5.44-8.94-11.85-8.65-20.39.91-41.02,1.16-60.26-6.16-55.69-21.2-80.65-54.64-85.2-108.27-2.43-28.68-20.67-47.91-38.58-67.53-2.3-2.52-5.3-2.54-8.09-1.8-11.99,3.17-24.74.63-36.55,4.92-4.78,1.74-8.47.85-11.05-3.82-3.09-5.59,1.24-8.14,4.59-10.57,10.28-7.43,22.69-8.15,34.46-8.09,29.15.15,51.56-12.14,72.73-31.42,25.48-23.21,57.94-28.87,91.52-26.94,29.96,1.72,56.45,12.51,78.67,33.12,1.9,1.77,3.5,3.14,4.02,5.99,7.32,40.31,34.64,65.38,74.55,69.37,19.09,1.91,38.36,3.43,56.06,12.18,6.05,2.99,11.36,6.57,14.33,12.76,1.59,3.3,2.83,7.02-.2,10.17-3.1,3.22-6.45,1.86-9.94.14-8.13-3.99-15.81-9.13-24.88-10.84-3.59-.68-8.31-2.53-8.86,4.18-.93,11.56-1.9,23.12-3.13,34.65-.83,7.8,1.64,13.24,9.1,16.61,4.94,2.23,9.42,5.5,12.82,9.91,2.83,3.67,2.91,7.65-.4,10.84-3.43,3.31-5.62-.96-8.42-2-7.82-2.9-6-13.6-14.02-16.92Z" style="fill: #66cc7e; stroke-width: 0px;"/>
      <path d="M1733.49,814.29c-1.2-10.04,4.64-19.66,7.53-30.05,1.43-5.14,5.06-6.02,9.25-4.57,13.69,4.74,27.24,9.84,40.89,14.7,3.75,1.34,4.05,3.38,2.29,6.64-5.52,10.2-11.02,20.41-16.25,30.75-2.03,4.02-4.69,5.23-8.76,3.64-10.46-4.09-20.9-8.2-31.36-12.3-3.51-1.37-5.41-3.58-3.58-8.81Z" style="fill: #004160; stroke-width: 0px;"/>
      <path d="M1685.06,878.36c-11.44-.15-20.97-5.06-30.29-10.84-3.33-2.07-3.36-4.24-1.93-7.18,4.77-9.81,7.44-20.34,10.37-30.76,1.17-4.16,2.74-6.12,7.53-5.08,10.94,2.37,21.97,4.31,32.99,6.31,5.69,1.03,7.22,4.13,4.97,9.27-4.77,10.91-9.72,21.75-14.34,32.73-1.87,4.45-5.36,5.41-9.31,5.55Z" style="fill: #014463; stroke-width: 0px;"/>
      <path d="M1770.07,852.28c-11.4,23.04-30.91,29.87-53.5,31.42-6.52.45-8.82-2.23-6.56-8.45,4.2-11.57,8.69-23.04,12.58-34.7,1.82-5.45,4.9-2.83,7.66-1.9,13.05,4.37,26.04,8.9,39.82,13.64Z" style="fill: #024766; stroke-width: 0px;"/>
      <path d="M1730.22,761.68c-14.7-1.72-26.56-3.13-38.43-4.47-3.39-.38-4.19-2.32-3.48-5.3.25-1.06.6-2.09.88-3.14q7.8-29.58,38.33-22.93c.71.15,1.4.4,2.11.54,19.74,3.86,20.1,4.08,9.37,21.5-3.04,4.93-2.81,13.45-8.78,13.81Z" style="fill: #01405f; stroke-width: 0px;"/>
      <path d="M1723.37,780.1c-2.88,9.72-5.8,19.43-8.61,29.17-1.12,3.9-3.06,4.86-7.23,3.86-9.14-2.2-18.4-4.35-27.73-5.22-7.87-.73-7.94-4.74-6.24-10.27,2.56-8.31,5.63-16.47,7.99-24.83,1.18-4.18,3.62-5,7.25-4.48,9.32,1.32,18.6,2.88,27.95,3.92,5.06.56,7.23,2.72,6.61,7.85Z" style="fill: #004160; stroke-width: 0px;"/>
      <path d="M1665.51,672.29c3.03.27,5.73,0,8.05.82,5.82,2.04,15.35-1.25,17.19,3.59,2.79,7.32-.92,16.15-2.45,24.28-.86,4.58-4.21,4.15-7.44,4.41-11.21.9-22.44,1.58-33.6,2.9-4.88.58-6.8-.8-6.74-5.57.07-5.11.07-10.48-2.53-14.89-5.47-9.26-.53-11.96,7.48-13.07,6.82-.95,13.67-1.69,20.04-2.47Z" style="fill: #014160; stroke-width: 0px;"/>
      <path d="M1813.51,848.99c-7.91-.77-12.75-5.06-18.48-7.25-2.2-.84-1.04-3.1-.25-4.69,5.33-10.68,10.73-21.33,16.02-32.03,1.7-3.45,3.74-2.37,6.13-.92,12.37,7.5,22.34,18.56,36,24.18,3.01,1.24,1.52,3.33.14,5.2-2.98,4.04-7.36,5.88-11.85,7.3-9.64,3.04-19.38,5.77-27.72,8.22Z" style="fill: #014261; stroke-width: 0px;"/>
      <path d="M1665.98,718.15q18.93-.1,13.56,18.02c-.31,1.04-.49,2.12-.79,3.16-4.73,16.06-12.2,19.98-28.19,14.3-7.85-2.79-11.35-8.53-9.27-16.94q4.55-18.44,24.69-18.54Z" style="fill: #014160; stroke-width: 0px;"/>
      <path d="M1769.13,731.81c2.62.88,4.7,2.63,5.46,5.02,4.23,13.4,13.88,21.32,25.99,27.34,7.13,3.55,1.49,9.09.46,13.29-1.44,5.87-4.97,1.23-7.43.28-12.46-4.81-24.79-10.09-38.02-12.49-5.79-1.05-7.47-3.12-4.15-8.53,3.97-6.47,7.44-13.25,11.24-19.82,1.44-2.5,3.11-4.95,6.45-5.08Z" style="fill: #01405f; stroke-width: 0px;"/>
      <path d="M1753.96,705.01c.15,4.78.2,8.37-6.97,7.09-12.44-2.22-25.09-3.36-37.69-4.6-5.31-.52-6.53-2.72-5.75-7.81,3.21-20.71,4.89-21.93,24.56-15.81,5.17,1.61,10.43,3.08,15.36,5.28,8.43,3.76,10.4,7.12,10.49,15.86Z" style="fill: #01405f; stroke-width: 0px;"/>
      <path d="M1604.89,788.31c-.51-13.51,12.78-23.61,24.45-20.19,1.93.56,3.03,1.64,3.69,3.49.96,2.72,2.55,5.3,3.1,8.09,1.58,8.02,6.91,18.55,1.57,23.68-6.3,6.06-17.95,1.13-27.15,2.99-2.78.56-3.01-2.41-3.37-4.56-.82-4.99-1.69-9.97-2.29-13.5Z" style="fill: #01405f; stroke-width: 0px;"/>
      <path d="M1853.16,810.93c-9.49-7.46-21.27-9.9-29.19-18.8-2.82-3.17-4.77-20.79-2-23.71.6-.64,1.97-1.22,2.69-.97,9.46,3.32,19.13,6.23,28.17,10.47,4.1,1.92,6.08,6.43,4.37,12.05-1.96,6.46-2.63,13.31-4.04,20.96Z" style="fill: #034866; stroke-width: 0px;"/>
      <path d="M1622.68,701.75c1.64,7.38-2.54,10.83-10.5,11.67-7.55.8-15.06,2.1-22.56,3.29-2.88.46-5.99,1.66-7.58-1.89-1.21-2.7.47-5.22,2.35-6.74,9.83-8,19.75-15.89,29.88-23.5,3.38-2.54,5.14.43,6.44,3.25,1.89,4.08,1.92,8.44,1.98,13.92Z" style="fill: #013f5e; stroke-width: 0px;"/>
      <path d="M1618.17,733.05c-.39,1.57-.41,3.19-1.14,4.34-3.73,5.87-.32,16.26-10.98,17.69-2.5.34-16.89-17.14-17.65-20.75-.38-1.8.3-2.78,1.78-3.34,7.85-2.94,15.91-4.79,24.37-4.21,4.39.3,3.66,3.54,3.62,6.26Z" style="fill: #013e5c; stroke-width: 0px;"/>
      <path d="M1629.82,822.79c8.14-1.69,13.12.97,10.69,12.28-1.01,4.73.76,9.99.35,14.93-.37,4.47-2.46,6.75-6.94,2.58-7.51-6.97-12.28-15.81-17.41-24.43-1.92-3.23-1.65-5.51,2.93-5.38,2.88.08,5.77.01,10.37.01Z" style="fill: #01415f; stroke-width: 0px;"/>
      <path d="M1653.71,767.35c5.16.56,14.7.51,14.88,1.8,1.13,7.88-4.51,14.18-7.61,22.37-2.87-7.88-5.31-14.48-7.65-21.11-.21-.58.15-1.36.38-3.06Z" style="fill: #013957; stroke-width: 0px;"/>
    </g>
    <path d="M1211.34,770.93c-8.81.16-15.46-.62-21.51-3.61-17.07-8.41-19.17-29.4-4.32-41.5,4.81-3.92,10.46-6.55,16.32-7.74,22.99-4.69,45.03-12.55,67.45-19.16,9.98-2.95,20.24-4.91,30.65-5.49,12.36-.69,21.05,4.96,25.23,15.73,4.01,10.33,1.35,19.83-8.1,27.82-9.64,8.15-21.15,12.83-32.89,16.93-24.31,8.51-48.9,15.86-72.82,17.01Z" style="fill: #fdb556; opacity: .5; stroke-width: 0px;"/>
    <path d="M2107.56,728.84c-21.51-5.31-43.53-7.1-65.41-9.97-11.05-1.45-16.78-10.85-18.14-21.88-1.31-10.57,3.39-17.97,12.8-22.96,12.76-6.76,26.83-8.82,40.65-11.44,8.65-1.64,16.91-4.01,24.94-7.35,21.89-9.1,46.31.82,55.17,22.53,5.9,14.46-6.31,38.43-23.38,45.26-8.45,3.38-17.22,5.87-26.62,5.8Z" style="fill: #e4561b; opacity: .5; stroke-width: 0px;"/>
    <g style="opacity: .5;">
      <path d="M1334.5,984.84c-7.73,5.83-14.03,13.44-22.48,18.38-8.32,4.86-17.26,7.67-26.99,7.57-23.4-5.82-39.89-21.98-56.51-37.88-12.51-11.97-15.45-26.59-11.8-43.06,1.81-8.19,6.55-14.6,11.75-20.81,17.22-20.57,33.08-42.09,46.08-65.62,1.01-1.83,2.07-3.64,3.11-5.46,2.36-.99,2.68,1.2,3.56,2.37,5.21,6.99,12.03,12.64,16.79,20.01,11.95,13.4,23.58,27.01,37.78,38.29,8.89,7.06,17.45,14.55,26.67,21.21,6.85,4.95,13.32,10.96,22.92,9.25.96-.17,1.65.71,1.13,1.89-12.13,15.17-26.57,28.12-40.51,41.52-4.09,3.93-7.43,8.45-11.48,12.36Z" style="fill: #a5d6c4; stroke-width: 0px;"/>
      <path d="M1287.57,812.27c1.91-14.09,11.34-21.38,26.24-20.7,14.76.67,26.79,8.11,38.04,16.25,27.12,19.61,53.08,40.71,76.03,65.23,2.57,2.75,4.91,5.83,6.81,9.08,6.97,11.92,4.61,24.45-6.33,32.91-10.94,8.45-23.84,11.17-37.32,11.86-3.58,1.01-6.41-.57-9.29-2.42-17.83-11.45-34.65-24.22-50.65-38.1-9.78-8.49-17.14-19.03-25-29.16-4.1-5.73-8.35-11.35-12.76-16.83-6.77-8.43-9.83-17.51-5.78-28.11Z" style="fill: #e5eac8; stroke-width: 0px;"/>
      <path d="M1308.03,856.53c19.96,28.43,47.99,47.73,76.04,66.98,2.11,1.45,4.64,2.27,6.98,3.38-1.52,1.36-3.03,2.72-4.55,4.08-10.31,3.52-17.4-3.19-24.39-8.47-15.24-11.5-30.95-22.59-43.89-36.77-7.4-8.1-16.37-14.88-21.72-24.79,3.15-3.28,7.13-4.38,11.53-4.42Z" style="fill: #7bc1c0; stroke-width: 0px;"/>
      <path d="M1308.03,856.53c-3.21,3.13-7.03,4.64-11.53,4.42-6.4-7.57-14.2-13.99-18.84-23,2.97-8.69,4.5-17.93,9.91-25.68-1.78,13.97,4.9,24.5,13.67,34.32,2.65,2.97,4.55,6.61,6.79,9.94Z" style="fill: #73bec0; stroke-width: 0px;"/>
      <path d="M1399.35,859.38c7.83,6.68,13.53,15.21,19.75,23.24,3.26,4.21,5.62,9.76,1.22,14.28-5.13,5.26-10.52,8.29-17.78,4.83-10.56-5.03-20.25-11.41-29.31-18.73-20.82-16.82-43.08-32.07-59.33-53.92-1.55-2.08-2.94-4.29-4.29-6.51-2.69-4.42-1.64-8.87.83-12.79,2.45-3.9,6.77-3.71,10.87-3.54,10.34.45,19.35,4.45,27.45,10.55,7.94,5.98,15.66,12.25,23.48,18.39,3.06,4.67,5.88,9.47,9.02,14.1,4.55,6.7,9.83,10.72,18.1,10.09Z" style="fill: #5eb2bf; stroke-width: 0px;"/>
      <path d="M1399.35,859.38c-7.8,3.84-9.22,3.26-14.46-5.17-1.91-3.07-4-6.05-6.32-8.7-2.6-2.97-3.36-6.36-2.89-10.33,9.51,5.99,16.56,15.13,23.68,24.19Z" style="fill: #9cccc3; stroke-width: 0px;"/>
    </g>
    <g>
      <g>
        <path d="M2514.98,184.94s1.67,27.01,2.4,31.24,2.66,12.2,2.69,15.57-.84,6.16.48,8.01,2.41,4.04,5.26,5.16,10.53-.26,12.89-.83,4.15.37,4.29-3.19c.14-3.57-3.01-10.7-2.17-21.23.83-10.53,3-22.47,3-22.47l3.59,1.31s.14,18.46,1.03,20.89,2.69,14.22,4.44,17.26c1.76,3.03,7.53,9.54,9.29,9.83s6.56,2.15,8.66,2.15,4,.2,4.54-1.42l.54-1.62s-3.17-3.22-3.95-13.26.72-7.54.7-18.46c-.01-10.93-.22-11.77-.7-16.68s.45-11.79.45-11.79l-57.43-.48Z" style="fill: #fba778; stroke-width: 0px;"/>
        <path d="M2558.41,28.73c3.82-11.07,1.74-21.07-5.81-25.85-8.98-5.68-17.74-2.05-25.06,2.86-9.46,6.36-4.69,15.09-1.34,23.06.28.64.31,1.39.44,2.09,11.12,7.11,21.68,6.03,31.76-2.16Z" style="fill: #0c2245; stroke-width: 0px;"/>
        <path d="M2526.65,30.89c.02.59.08,1.56.24,2.73.93,6.87,3.6,8.5,3.85,14.02.12,2.76,0,4.96,0,4.96l23.87-.29c.95-.9,7.47-7.23,6.51-16.07-.36-3.33-1.67-5.9-2.71-7.52-1.83,1.5-7.45,5.72-15.85,6.19-8.02.45-13.86-2.77-15.91-4.03Z" style="fill: #fba778; stroke-width: 0px;"/>
        <path d="M2504.78,94.76s-3.7,25.93-2.36,39.66,1.35,36.67,3.39,37.2,4.47-2.33,4.47-2.33c0,0,4.35-32.06,5.07-37.54s-.01-27.88-.01-27.88c0,0-.76-5.72-2.76-7.6s-7.81-1.51-7.81-1.51Z" style="fill: #fba778; stroke-width: 0px;"/>
        <path d="M2587.67,90.63s2.74,3.17,2.55,12.25c-.18,9.08-6.17,52.19-6.85,56.21s-1.92,8.58-3.8,9.61-10.33.72-10.33.72l-1.15,3.86-4.25-23.15,4.06-7.75,3.12-27.37,5.14-18.65,11.52-5.73Z" style="fill: #fba778; stroke-width: 0px;"/>
        <path d="M2513.18,153.36s-2.11,14.89-2.39,18.86c-.29,3.97.79,12.83,1.2,16.01l1.07,8.5s4.56-1.87,8.82-1.98,8.84,5.57,12.6,5.76c3.76.18,10-1.66,10-1.66h2.84s-.66-.32,1.33-2.12,17.97,1.96,22.82-4.42c4.85-6.38,3.43-5.85,4.21-7.53s-.75-13.5-.75-13.5l-4.8-20.12s-22.82,3.76-29.27,3.55-27.68-1.35-27.68-1.35Z" style="fill: #0c2245; stroke-width: 0px;"/>
        <path d="M2515.17,105.45c-.33,16.18-.28,32.36-2.46,48.43,19.54,1.73,39.05,2.65,58.29-2.55,0-.01,0-.02,0-.03,3.73-12.23,3.03-25.04,3.31-37.46.26-11.38,1.65-19.92,13.95-23.04h0c-1.42-5.11-2.61-10.3-4.28-15.33-6.26-18.87-10.69-22.2-30.16-23.22h.01s-.01,0-.02,0c-7.89.1-15.78.2-23.67.28,0,0,0,0-.01.01-17.74,5.89-30.66,27.6-25.24,42.39,7.88-.83,10.44,2.76,10.28,10.52Z" style="fill: #d84f23; stroke-width: 0px;"/>
      </g>
      <g>
        <path d="M2646.46,90.16c1.64-.08,5.71-.08,10.1,1.93,3.8,1.74,5.92,4.13,6.84,5.3-.85,27.72-4.2,41.84-10.06,42.35-1.16.1-2.42-.33-3.78-1.3-1.55-1.44-3.72-3.75-5.27-6.91-3.13-6.41-1.56-11.89-.28-18.59,1.01-5.27,2.15-12.95,2.45-22.78Z" style="fill: #fba778; stroke-width: 0px;"/>
        <path d="M2725.64,90.59c1.73,8.95-4.47,38.96-6.09,42.68-.08.18-.37.8-.61,1.69-.25.91-.13,1.03-.38,1.81-.23.74-.55,1.37-1.01,2.27-.39.78-.77,1.3-1.36,1.73-.45.33-1.08.51-2.37.68-2.66.35-2.65-2-4.41-4.93s-1.68-16.09,2.49-41.51c.22-1.1.74-3.01,2.18-4.89.91-1.2,2.28-2.99,4.71-3.51,1.8-.39,4.19-.09,5.63,1.43.87.92,1.13,2.02,1.23,2.55Z" style="fill: #fba778; stroke-width: 0px;"/>
        <path d="M2692.18,62.68c9.73-7.41,19.3-5.66,26.78,4.19.18.08.36.17.54.25,4.23-5.66,1.95-10.6-2.44-14.43-8.98-7.82-12.1-17.57-12.76-29.2-.69-12.15-7.65-18.9-17.68-19.67-11.62-.89-19.34,4.7-23.01,16.6-2.9,9.36-1.31,19.29-3.96,28.79-1.25,4.51,5.34,6.01,6.87,9.94h0c1.05.03,1.98.24,2.81.58,2.68-.12,4.94,1.31,6.85,2.98,5.54,4.86,10.22,4.38,16.02-.04Z" style="fill: #d04c22; stroke-width: 0px;"/>
        <path d="M2654.26,183.03c-.43,4.81-.19,9.69-.25,14.53-.94,8.55,2.31,17.5-2.6,25.71-1.09,1.82.35,2.83,2.12,3.37,5.05,1.56,15.72-5.59,17.54-10.76,3.76-10.7,5.2-21.59,4.55-32.83-10.13-.28-17.49-1.85-21.29-2.88.03.96.02,1.91-.07,2.85Z" style="fill: #fba778; stroke-width: 0px;"/>
        <path d="M2683.56,213.4c-.56,4.48-2.84,10.15,4.63,9.7,5.43-.32,14.72,5,14.5-7.73-.11-6.31,1.71-12.66,2.66-19,.36-5.23.73-10.46,1.09-15.69-4.37,1.11-12.67,2.75-23.72,2.82,3.23,9.77,2.1,19.85.84,29.89Z" style="fill: #fba778; stroke-width: 0px;"/>
        <path d="M2653.13,152.28s-.46,18.24-1.23,21.48c-.33,1.38-2.87,6.19-1.57,7.21.28.22.67.21.95.16,2.61.47,6.32,1.11,10.79,1.75,3.25.47,10.17,1.46,16.44,1.91,10.24.73,29.85.8,30.81-3.82.09-.41.06-1.04-.52-1.9-.98-3.96-1.86-8.45-2.44-13.41-.78-6.67-.84-12.69-.59-17.82l-52.51-2.02-.13,6.47Z" style="fill: #ebc283; stroke-width: 0px;"/>
        <path d="M2679.82,177.52c-.23-4.32-.48-8.23-.62-12.15-.17-4.65-.59-9.29-.27-13.95.08-1.19-.47-1.87-1.37-2.41-.23-.14-.5-.15-.73.04-.19.15-.25.42-.08.54,1.6,1.11.94,2.79.96,4.2.07,7.64.58,15.25.98,22.87.03.52-.02,1.17.64,1.27.44.07.51-.43.51-.41Z" style="fill: #b56e40; stroke-width: 0px;"/>
        <path d="M2645.9,90.41s2.8-14.05,8.27-22.69c5.48-8.64,12.85-14.51,16.3-14.21s9.95,10.33,13.69,10.63,9.04-10.62,18.55-10.63,14.05,4.29,16.03,6.5,4.16,9.12,4.16,9.12c0,0,4.04,18.68,2.76,19.86s-3.93-.25-6.91.77-4.61.79-6.03,3.18-1.26,46.08-1.45,48.27-.12,4.91-1.6,6.37-1.51,2.19-3.98,2.48-18.61,4.79-23.21,4.77-16.72.05-20.69-.9-1.88-.09-5-2.45-7.35-3.98-7.41-7.22.68-8.46,2.74-17.14c2.06-8.68,8.63-28.13,7.02-31.07s-3.19-2.69-6.15-4.03-7.09-1.61-7.09-1.61Z" style="fill: #115595; stroke-width: 0px;"/>
        <g>
          <path d="M2720.5,132.8c2.47-.47,4.93-.96,7.31-1.79,3.41-1.19,4.57-2.82,4.53-6.44-.04-3.35-.89-6.57-1.41-9.86-.94-5.8-1.94-11.6-2.84-17.4-.16-1.04-.49-1.52-1.6-1.42-.51.04-1.01.05-1.52.05-1.84,12.35-3.69,24.69-5.53,37.04.36-.06.71-.12,1.07-.18Z" style="fill: #0c2245; stroke-width: 0px;"/>
          <path d="M2713.03,123.36c-.2-5.96-.33-12.04-.37-18.24-.03-3.62-.03-7.21,0-10.75-.1-.08-.24-.16-.41-.2-.61-.17-1.15.22-1.24.29-1.25.14-2.5.24-3.74.45-.69.12-.98-.07-1.13-.75-1.12-5.31-1.99-10.66-2.47-16.08-.3-3.54-.32-7.08-.23-10.63.06-2.7.46-5.36,1.19-7.97.97-3.46,2.34-4.46,5.89-4.36.36,0,.72,0,1.08,0-.02-.02-.03-.03-.05-.05-1.27-.66-2.54-1.19-3.8-1.56-.35,0-.71.01-1.07.05-2.92.96-3.86,3.44-4.56,6.05-1.47,5.46-1.31,11.03-1,16.59.34,6.14,1.32,12.21,2.71,18.2.18.76-.12.97-.74,1.07-.8.13-1.59.27-2.38.45-2.12.49-2.25.7-2.08,2.83.24,3.09.49,6.17.72,9.26.06.89.05,1.8.07,2.69.35,4.51.7,9.01,1.05,13.51.1,1.21.45,4.96.64,6.15.34,2.13,6.64,1.87,10.3,1.02.18-2.24,1.51-4.19,1.68-6.44-.02-.19-.04-.39-.06-.6-.02-.35-.02-.67,0-.96Z" style="fill: #0c2346; stroke-width: 0px;"/>
        </g>
      </g>
    </g>
  </g>
</svg>