<?xml version="1.0" encoding="UTF-8"?>
<svg id="Layer_2" data-name="Layer 2" xmlns="http://www.w3.org/2000/svg" viewBox="0 0 547.24 1627.82">
  <g id="Scrollytelling_-llustrations" data-name="Scrollytelling -llustrations">
    <path d="M57.03,586.89c-6.78-5.28-19.47-2.51-21.92-11.63-1.98-7.4,1.87-16.36,3.15-24.62,2.5-16.19,5.02-32.38,7.53-48.57,5.92-23.87,8.66-48.37,16.78-71.86,12.45-36.02,35.15-62.29,69.25-78.88,20.25-9.85,40.42-19.95,62.39-25.65,8.54,1.62,7.95,9.59,10,15.25,5.64,15.52,14.17,27.65,31.24,31.96,6.15,1.55,12.15,2.16,18.29.68,29.66-7.14,52.79-22.08,62.79-52.65.91-2.79,1.84-5.55,4.73-7.01,38.39,10.66,75.09,25.33,109.12,46.25,22.12,13.6,37.77,32.95,48.99,56.03,13.82,28.43,27.36,57,41.02,85.51,8.24,17.63,16.14,35.43,24.91,52.79,3.15,6.24,2.85,9.47-3.72,12.34-5.56,2.43-10.7,5.83-16.03,8.8-2.51,7.1-9.15,9.07-15.05,11.61-19.38,8.35-38.69,16.94-58.74,23.52-8,2.63-10.38,6.47-7.74,14.36,2.18,6.54,2.85,13.61,5.23,20.02,7.01,18.83,4.02,36.79-1.71,55.38-12.42,40.29-25.4,80.41-37.12,120.92-1.6,5.53-2.89,11.38-7.89,15.24-26.87,14.29-56.7,18.18-85.91,23.83-39.09,7.57-78.66,10.34-118.51,9.26-27.81-.75-55.06-4.95-81.91-12.11-6.07-1.62-11.44-4.7-16.85-7.76-4.59-3.31-5.95-8.07-5.97-13.39-.18-48.7,1.49-97.35,3.79-145.98.53-11.28.19-22.56.38-33.83.2-12.34-.62-24.71,1.77-36.99,1.49-7.64-.68-15.12-2.19-22.56,2.43-3.58,4.27-7.12,4.19-11.88-.5-32.62,1.39-65.2,2.2-97.8-.84,32.7-2.65,65.39-2.25,98.12.05,4.38-1.14,7.8-4.63,10.42-10.93,5.08-30.33.61-39.62-9.11Z" style="fill: #d84f23; stroke-width: 0px;"/>
    <path d="M321.26,313.89c.63,14.13-6.36,25.1-15.14,35.04-14.71,16.67-33.11,27.11-55.34,29.62-21.63,2.44-40.06-8.95-48.36-29.33-3.13-7.69-5.5-15.7-8.21-23.56-.26-2.84-.52-5.67-.78-8.51,2.43-3.36,6.08-3.73,9.73-3.73,9.97,0,19.08-3.27,28.06-7.06-12.71,5.51-25.96,7.9-39.81,6.83-12.39-3.78-25.61-4.44-37.2-11.36-29.56-17.66-44.21-45.21-49.2-77.61-7.08-45.97-3.56-92.2.94-138.27,3.8-3.43,7.88-1.36,11.28.17,37.05,16.72,75.28,14.19,113.8,7.36,20.99-3.72,23.41-1.94,26.99,19.63,2.31,13.91,7.89,26.53,16.46,37.71,7.95,10.37,10.11,10.42,19.03,1.35,1.54-1.56,3.09-3.11,4.86-4.4,9.08-6.64,18.78-9.4,29.81-5.12,10.25,3.98,12.1,12.56,12.6,22.01.44,9.45,1.91,18.93-.07,28.33-3.21,15.24-11.97,23.72-27.33,26.44-2.81.5-4.83,1.01-5.28,4.21-4,28.25-7.72,56.46,6.6,83.25,1.56,2.92,3.22,5.74,6.55,6.99Z" style="fill: #fba778; stroke-width: 0px;"/>
    <path d="M340.79,164.66c-4.58-9.5-8.78-19.66-21.68-19.76-13.61-.1-22.76,7.43-27.76,19.27-2.36,5.6-4.02,4.43-7.51,1.95-17.68-12.61-25.81-30.84-30.37-51.19-.47-2.12-.68-4.3-1.12-6.43-2.86-13.84-2.84-13.67-17.65-10.95-39.05,7.18-77.94,10.15-115.86-5.72-4.35-1.82-8.58-3.91-12.86-5.88-15.08-9.02-25.23-21.77-29.43-38.99-3.13-12.83,1.78-19,14.51-15.86,23.63,5.83,44.52-.83,65.12-11.27C189.58,2.89,224.65-5.03,261.9,3.4c60.75,13.75,95.98,68.16,84.87,130.18-1.86,10.38-3.97,20.72-5.97,31.08Z" style="fill: #0c2245; stroke-width: 0px;"/>
    <path d="M191.41,313.2c.39-2.52,1.87-3.84,4.41-3.83,16.37.08,31.4-4.56,45.41-13.88.45,15.13-18.69,23.35-47.79,21.68-.68-1.33-1.36-2.65-2.03-3.97Z" style="fill: #bc3813; stroke-width: 0px;"/>
    <path d="M102.89,847.91c48.93,17.62,99.46,19.63,150.67,15.76,50.57-3.83,99.96-13.32,148.02-29.57,5.39,5.3,2.06,11.38-.05,15.99-7.43,16.19-4.22,28.97,8.85,40.84,7.21,6.55,12.63,15.07,19.13,22.46,7.18,8.15,7.9,8,13.55-1.79,2.91-5.06,5.28-10.43,8.59-15.25,2.22-3.23,4.05-7.13,8.91-7.16,1.76,30.85,3.49,61.71,5.31,92.56,1.49,25.42,3.09,50.83,4.65,76.24,1.41,28.36,2.6,56.73,4.38,85.07.49,7.79-1.86,11.24-9.57,13.6-14.22,4.35-28.75,7.26-43.12,10.86-11.19,9.81-25.15,7.34-38.23,8.21-4.64.31-9.38-.69-13.96.91-25.09.45-50.19.95-75.29-.51-9.02-.53-15.51-4.18-17.88-13.13-2.13-8.04-3.39-16.28-3.16-23.24-1.47,4.49.04,10.72-1.48,16.81-3.82,15.34-9.4,19.93-25.26,19.32-1.82-.07-3.62-.35-5.47-.28-35.01,2.17-69.74.15-104.26-6.05-4.57-.82-8.31-2.45-10.93-6.33-9.41-2.31-18.74-5.11-28.27-6.81-9.46-1.69-12.11-6.79-11.03-15.79,1.64-13.6,2.78-27.28,2.09-41.03,1.31-22.03,2.63-44.07,3.94-66.1-5.44-6.41-4.36-14.02-3.45-21.35.48-3.86,1.01-7.7,1.09-11.6,1.62-5.22,2.27-10.5.83-15.89,2.59-10.26,1.62-20.69,1.93-31.11.95-31.82,2.11-63.65,4.34-95.43.3-4.22,1.37-7.83,5.14-10.18Z" style="fill: #0c2245; stroke-width: 0px;"/>
    <path d="M126.29,1163.2c38.46,6.71,77.21,9.64,116.25,8.73,4.4,3.22,4.54,7.98,4.65,12.77,1.2,52.75-.37,105.47-2.61,158.14-1.26,29.74-1.3,59.63-4.34,89.19-3.2,31.13.51,61.62,3.19,92.32,3.7,20.19-4.9,32.01-24.84,35.64-29.68,5.39-59.4,10.5-88.8,17.54-22.07,5.29-44.86,4.53-67.4,2.99-7.46-.51-14.98-2.41-21.2-7.76-4.16-3.58-9.44-4.85-15.17-5.25-8.04-.55-15.97-2.31-20.06-10.7,4.42-12.45,8.94-23.99,25.38-25.32,16.48-1.34,29.44-11.89,42.9-20.32,16.65-10.43,32.62-21.93,49.16-32.54,8.57-5.5,12.49-12.67,11.83-22.79-2.22-34.01-4.28-68.04-6.37-102.06-.73-11.95-1.14-23.91-2.03-35.86-2.49-33.29-3.15-66.7-4.89-100.05-.75-14.47-1.71-28.99-3.86-43.29-1.16-7.71,2.99-9.4,8.21-11.37Z" style="fill: #fba778; stroke-width: 0px;"/>
    <path d="M369.11,1173.52c17.69-2.01,35.39-4.01,53.08-6.02,2.11,1.86,4.7,2.13,7.22,1.62,6.31-1.27,7.52,2.64,7.94,7.45.13,1.45.12,2.91.09,4.37-.96,55.69,3.06,111.29,2.53,166.99-.28,29.04,3.88,58.22,1.48,87.2-2.72,32.89,2.17,65.09,4.83,97.54,5.11,5.66,1.64,11.04-.99,16.01-6.25,11.8-15.91,20.86-26.44,28.56-16.47,12.04-34.6,21.3-53.99,27.89-4.93,1.67-9.9,2.49-14.67-.59-5.85-8.8,3.69-13.23,4.94-19.02-4.61,5.03-5.7,13.16-10.19,19.47-6.34,3.15-13,3.15-19.76,1.98-4.68-3.04-2.88-6.68-.99-10.4,2.94-5.79,6.63-11.08,9.63-14.74-6.55,6.16-9.31,16.9-16.34,24.86-5.99,3.4-12.08,3.97-18.27.61-8.22-8.11.91-13.5,2.56-19.01-2.92,5.19-8.51,10.82-4.44,18.91-8.09,5.56-26.96,6.55-34.04,1.52-7.25-5.15-8.07-12.53-6.18-20.51,2.63-11.12,10.13-19.34,17.67-27.09,9.9-10.17,18.1-21.88,28.79-31.28,2.26-1.99,3.12-4.87,4.78-7.25,19.42-21.49,29.57-44.95,24.55-75.45-5.71-34.67-6.33-70.1-9.67-105.15-4.78-50.22-8.05-100.57-12.75-150.8-1.22-13.03,1.69-16.03,14.56-16.45,14.7-.47,29.47,1.7,44.09-1.22Z" style="fill: #fba778; stroke-width: 0px;"/>
    <path d="M323.47,1604.93c7.18-2.25,14.56-2.4,21.99-2.12,1.19-1.27,2.44-1.25,3.72-.14,17.64.62,31.89-8.77,46.52-16.4,19.52-10.18,37.16-22.84,47.57-43.23,1.67-3.27,3.09-6.59,3-10.36,21.46,1.67,42.78,4.11,61.38,16.3,22.4,14.69,21.53,33.12-2.06,46-20.78,11.35-43.72,15.92-66.57,20.55-65.87,13.35-132.69,13.81-199.25,10.68-54.72-2.57-109.68-6.46-163.36-19.08-18.4-4.33-37.33-6.8-54.81-14.75-5.39-2.45-10.33-5.35-14.63-9.36-8.97-8.39-9.24-15.66-1-26.22,11.06,7.06,25.97,1.97,36.13,10.7,9.08,7.81,19.57,8.27,30.38,9.05,30.96,2.24,60.68-4.92,90.62-11.14,19.85-4.13,39.69-8.66,60.05-10.22,10.85-.83,17.01-12.04,17.16-29.09,1.92-9.17,10.44-7.63,15.93-8.05,15.21-1.15,30.46,1.56,45.74,2.05,3.66.12,6.85,2.41,8.48,6.11-8.45,13.2-19.67,24.04-30.05,35.62-7.19,8.03-15.46,15.39-18.76,26.28-3.91,12.89.19,19.25,13.25,18.93,7.42-.18,15.27,2.38,22.27-2.3l-.07.09c6.79-.71,14.04,2.3,20.33-2.49,2.7-.74,4.62.36,6.06,2.57Z" style="fill: #f6b558; stroke-width: 0px;"/>
    <path d="M460.55,889.18c-7.4,13.19-14.81,26.38-22.92,40.84-15.33-18.34-30.4-36.25-45.3-54.3-2.36-2.85-.74-6.24.14-9.36,3.04-10.75,6.08-21.5,9.12-32.26,15.12-49.86,30.11-99.76,45.5-149.53,2.8-9.05,3.2-17.54.59-26.63-3.72-12.95-6.59-26.14-9.99-39.19-1.25-4.77-1.3-7.89,4.66-9.82,28.46-9.24,55.73-21.53,83.2-33.32,5.95,22.8,11.39,45.76,17.99,68.37,6.45,22.1-1.58,42.37-6.65,62.93-14.44,58.58-39.89,112.72-68.14,165.67-2.9,5.44-5.47,11.06-8.19,16.6Z" style="fill: #fba778; stroke-width: 0px;"/>
    <path d="M95.39,1000.81c-.79,10.89-1.58,21.77-2.37,32.66-10.86-4.14-20.19-10.96-26.65-20.23-17.85-25.62-31.14-52.07-28.62-85.71,5.57-74.15,8.32-148.5,12.38-222.76,2.14-39.3,4.59-78.59,6.91-117.88,13.2,1.98,25.45,8.18,38.99,8.65.79-.79,1.32-.65,1.59.44,7.45,1.4,6.8,6.84,6.62,12.5-2.28,74.72-4.46,149.44-6.55,224.17-.16,5.56-1.94,12.04,5.21,15.26-1.81,39.64-3.58,79.29-5.48,118.92-.3,6.17-1.17,12.32-1.78,18.48-8.2-1.02-5.36-8.62-7.71-12.3,1.97,8.88,5.17,18.22,7.47,27.8Z" style="fill: #fba778; stroke-width: 0px;"/>
    <path d="M373.06,482.68c2.97.56,3.8,3.17,4.7,5.47,15.14,38.63,30.25,77.27,45.29,115.94,1.32,3.4,2.88,8.06-1.43,9.59-5.12,1.81-5.04-3.81-6.22-6.85-14.08-36.31-28.09-72.66-42.07-109.01-1.3-3.39-2.55-6.84-3.38-10.36-.52-2.2.1-4.41,3.11-4.77Z" style="fill: #a52610; stroke-width: 0px;"/>
    <path d="M97.61,595.98c-.54-.11-1.07-.25-1.59-.44,2.17-4.06,1.84-8.48,1.84-12.84,0-34.23-.29-68.46,2.34-102.63.14-1.81.04-3.66.31-5.45.33-2.19.99-4.51,3.77-4.46,2.3.04,2.62,2.28,3.02,3.95.58,2.46,1.22,5.01,1.13,7.5-1.24,34.89-2.62,69.78-3.9,104.67-.18,4.86.31,9.96-6.91,9.69Z" style="fill: #a5260f; stroke-width: 0px;"/>
    <path d="M166.96,162.2c2.73,8.53-.23,14.12-2.42,19.77-2.88,7.43-6.27,14.66-8.92,22.16-2.75,7.78-4.37,15.5,8.07,15.82,1.9.05,3.93.74,3.85,2.9-.07,2.06-2.14,2.53-3.96,2.99-13,3.29-20.72-3.98-17.62-17.12,3.86-16.34,14.26-29.63,21.01-46.52Z" style="fill: #924f40; stroke-width: 0px;"/>
    <path d="M206.68,255.91c-12.94,2.97-25.86,6.03-38.84,8.85-2.25.49-5.54,1.65-6.53-1.71-1.28-4.34,2.57-4.31,5.22-4.89,13.08-2.88,25.92-8.55,40.14-2.26Z" style="fill: #8f220b; stroke-width: 0px;"/>
    <path d="M129.51,121c1.78.08,2.93-.08,3.95.21,4.66,1.34,12.94.65,12.07,6.46-.94,6.26-7.81.86-11.97.91-6.23.06-12.32-.3-18.07,2.74-1.79.95-4.27,2.78-5.83.41-1.89-2.87.87-4.66,2.87-6.08,5.27-3.74,11.44-4.35,16.97-4.66Z" style="fill: #8d5245; stroke-width: 0px;"/>
    <path d="M192.34,129.7c9.81-8.35,16.95-3.97,23.74-.66,4.54,2.21,13.82,3.81,11.64,8.61-2.98,6.56-9-.99-13.46-2.54-6.35-2.22-12.65-4.43-21.92-5.4Z" style="fill: #854d42; stroke-width: 0px;"/>
    <path d="M214.09,171.33c-.55,5.46-.81,11.16-6.52,11.83-5.36.63-6.91-3.98-6.85-8.87.06-5,1.02-10.52,6.26-11.3,5.31-.79,6.46,4.53,7.11,8.33Z" style="fill: #121325; stroke-width: 0px;"/>
    <path d="M133.12,166.64c-.33,4.97-.67,10.56-7.55,10.8-4.6.16-5.63-3.8-5.72-7.69-.13-5.41.94-10.79,7.15-11.59,5.38-.69,5.93,4.04,6.11,8.47Z" style="fill: #151524; stroke-width: 0px;"/>
    <path d="M95.39,1000.81c-8.84-12.81-12.2-27.15-12.05-42.56,9.23,6.81,6.84,18.69,12.29,27.06-.08,5.17-.16,10.33-.24,15.5Z" style="fill: #a25138; stroke-width: 0px;"/>
    <path d="M94.92,1538.98c-.18,2.43-2.34,2.35-3.91,2.97-13.19,5.24-25.81,11.45-36.3,21.29-1.52,1.43-3.12,3.4-5.34.8-1.86-2.18-.91-4.41.61-5.85,11.22-10.63,24.31-18.16,39.15-22.53,2.69-.79,5,.14,5.78,3.32Z" style="fill: #a0360d; stroke-width: 0px;"/>
    <path d="M323.47,1604.93c-2.9,1.21-4.71-.14-6.06-2.57,6.18-11.1,9.91-24.37,24.18-28.42-4.84,11.2-13.24,20.02-18.12,30.99Z" style="fill: #9f370e; stroke-width: 0px;"/>
    <path d="M349.18,1602.67c-1.24.05-2.48.09-3.72.14-.14-11.36,7.06-19.31,13.08-27.75,1.13-1.59,2.97-3.66,5.31-1.4,1.61,1.56.69,3.27-.27,4.87-4.81,8.04-9.6,16.09-14.4,24.14Z" style="fill: #9b330b; stroke-width: 0px;"/>
    <path d="M297.15,1604.77c-2.93.28-4.19-1.42-3.72-3.94,2.08-10.95,7.31-19.9,17.19-25.88-1.8,11.29-11,19.1-13.55,29.91,0,0,.07-.09.07-.09Z" style="fill: #9d350e; stroke-width: 0px;"/>
  </g>
</svg>