<?xml version="1.0" encoding="UTF-8"?>
<svg id="Layer_2" data-name="Layer 2" xmlns="http://www.w3.org/2000/svg" viewBox="0 0 3365.59 1629.09">
  <g id="Scrollytelling_-llustrations" data-name="Scrollytelling -llustrations">
    <path d="M2.37,1627.28h3362.74V53.61s-208.09-27.43-953.97-51.81S2.37,209.04,2.37,209.04v1418.25Z" style="fill: #fdc858; stroke-width: 0px;"/>
    <path d="M0,1629.09h3365.11V89.95s-204.88-59.72-432.8-41.44c-227.92,18.28-555.06,59.9-966.73,63.47S1161.26,17.85,731.31,30.14C301.35,42.42,2.22,105.65,2.22,105.65L0,1629.09Z" style="fill: #98e9f4; stroke-width: 0px;"/>
    <path d="M0,1629.09h3365.11V214.94s-64.9,28.81-456.52,39.62-316.95-79.38-796.95-64-355.64,62.33-730.3,39.62-406.46-90.05-763.04-70.1S2.13,170.74,2.13,170.74L0,1629.09Z" style="fill: #1572a4; stroke-width: 0px;"/>
    <g>
      <path d="M511.95,1131.81c-15.35-7.41-30.75-14.73-46.03-22.28-8.86-4.38-17.03-9.79-16.79-21.21.23-10.48,7.3-15.75,15.52-21.23,14.42-9.61,26.41-21.01,33.94-38.13,59.12-134.43,160.35-219.93,303.5-253.18,61.44-14.27,123.91-13.05,185.22,4.3,24.51,6.94,46.46,19.26,66.41,35.01,5.89,4.65,11.45,9.5,18.38,12.75,6.86,3.23,8.15,10.73,10.79,16.96,1.85,4.37,2.38,9.31,5.91,12.91,2.31,1.65,2.51,3.94,1.98,6.45-11.34,13.72-16.15,30.62-21.91,46.87-14.67,41.42-36.25,78.24-68.86,108.11-15.73,14.4-32.73,27.19-50.48,39-11.35,7.12-22.4,14.68-34.15,21.19-22.47,12.45-44.88,24.93-69.42,32.98-2.42.41-4.28,2.05-6.45,3-37.82,12.71-75.67,25.39-115.35,31.15-35.65,5.17-71.45,8.27-107.53,6.41-29.13-1.46-58.1-4.38-86.49-11.26-6.63-1.61-14.49-2.18-18.17-9.81Z" style="fill: #6b571e; stroke-width: 0px;"/>
      <path d="M948.13,1055.43c17.15-13.53,35.26-25.81,51.23-40.89,30.11-28.42,50.89-62.57,64.55-101.42,4.96-14.1,9.77-28.34,17.82-41.13,1.89-3.01,3.62-6.27,7.13-7.88,4.67,4.56,1.76,9.44.55,14.22-11.37,44.9-6.05,87.67,16.39,128.23,3.2,5.78,7.55,10.73,11.82,15.75,3.22,3.79,7.2,7.41,6.16,13.25-14.53,18.71-31.84,34.6-50.04,49.61-5.18-8.06-4.07-17.65-6.15-26.46-1.07-4.53-2.83-9.18-2.42-13.72-.29-1.51-1.9.29-.85-.29.26-.14.48.07.58.66,2.84,16.04,6.95,31.87,8.05,48.21,4.91,43.49-9.29,82.83-26.84,121.3-29.26,64.12-78.28,110.57-135.29,149.7-23.93,16.43-49.06,30.19-78.44,34.2-6.89.94-13.72,1.02-20.57-.57-12.18-2.82-18.3-11.56-16.18-23.84,1.88-10.88,7.19-20.26,13.32-29.25,42.12-61.76,74.16-128.68,101.54-197.99-2.61-3.79-.98-7.5.43-11.06,9.33-23.52,20.4-46.32,29.23-70.06,1.53-4.12,4.67-7.54,7.98-10.58Z" style="fill: #7ea341; stroke-width: 0px;"/>
      <path d="M1103.2,824.06c10.18-30.17,21.76-59.71,42.34-84.62,33.49-40.55,76.04-62.39,129.33-60.26,22.5.9,43.84,7.37,62.73,19.78,38.3,25.15,66.74,58.08,78.06,103.6,2.61,10.5,3.29,21.3,1.2,32.09-5.73,5.17-13.23,3.76-19.75,4.27-28.64,2.24-54.94,11.29-79.87,24.97-6.9,3.79-14.69,6.15-21.66,12.84,5.29.21,8.15-2.08,11.14-3.64,22.82-11.91,45.43-24.46,71.19-28.94,6.57-1.14,13.99-4.54,19.94,2.19.17,6.08-2.63,10.7-6.7,15.03-25.93,27.57-56.91,46.92-93.19,57.76-6.39,8.12-16.2,7.45-24.7,8.37-53.39,5.8-101.06-10.33-144.85-39.72-8.96-6.02-16.58-13.97-22.84-22.76-9.21-12.93-11.65-26.73-2.37-40.97Z" style="fill: #7ea342; stroke-width: 0px;"/>
      <path d="M1103.2,824.88c-.25,2.38-.22,4.83-.79,7.12-3.48,14.04.56,25.88,9.89,36.51,17.95,20.43,41.17,32.47,65.92,42.32,38.99,15.52,78.79,19.63,119.73,9.12,26.93,37.95,63.74,59.99,108.99,69.91,68,14.91,139.28-11.56,179.87-68.1,2.69-3.74,5.07-8.2,10.56-4.5,5.89,3.97,2.56,8.21-.23,12.25-15.84,22.88-36.72,40.1-60.76,53.64-6.16,3.47-10.38,7.76-13.84,14.25-10.43,19.57-27,34.27-42.52,49.66-12.1,12-24.65,23.57-41.54,34.44,16.27,0,29.81.19,43.35-.11,4.52-.1,9.6-1.91,10.58,4.6,1.06,7.05-4.9,7.68-9.45,7.92-18.28.95-36.59,1.39-54.88.24-5.61-.35-10.28.99-15.19,3.9-26.25,15.54-53.16,29.77-82.81,37.95-1.39.38-2.64,1.3-4.44,2.21,21.52,12.2,44.16,19.3,67.98,22.67,4.64.66,8.73,1.45,8.56,6.87-.18,5.76-4.73,6.13-9.2,5.79-23.96-1.81-46.42-9.36-67.1-20.87-14.06-7.82-27.58-12.72-43.8-9.96-7.89,1.34-16.15.52-24.25.68-9.38,6.28-18.48-.29-27.46-.63,4.1,9.41,14.94,14.75,16.12,26.15,7.86,8.17,15.74,16.34,23.57,24.54,1.64,1.72,3.28,3.47,4.67,5.39,2.24,3.08,2.12,6.1-.82,8.76-3.69,3.34-6.46,1.24-9.18-1.53-9.2-9.36-18.44-18.68-27.66-28.02-4.01,0-6.49-2.69-9.07-5.19-4.53-4.4-8.69-9.23-11.88-14.58-18.99-31.79-45.24-58.87-60.42-93.11-2.46-5.55-7.31-8.51-12.2-11.44-4.12-2.47-8.28-4.9-9.67-10.01-3.35-2.44-6.71-4.88-10.05-7.31-34.08-34.15-44.89-76.59-43.67-123.19.35-13.5,2.79-26.73,6.93-39.63.9-2.79,2.79-5.41,1.82-8.62-.02-2.14-.05-4.28-.07-6.41-1.35-13.85.79-26.21,14.42-33.66Z" style="fill: #fca68f; stroke-width: 0px;"/>
      <path d="M511.95,1131.81c33.94,12.07,69.51,14.4,104.94,17.53,2.18,10.34-2.26,18.16-9.48,24.92-.98,1.1-2.27,2.05-2.89,3.32-29.2,60.17-78.33,97.16-139.76,119.58-28.11,10.26-57.08,16.57-87.25,12.74-20.37-2.59-28.18-14.96-21.56-34.43,10.33-30.39,30.81-53.88,53.66-75.47,17.57-16.6,38.16-28.95,59.16-40.65,14.94-8.32,29.42-17.37,43.17-27.55Z" style="fill: #7ea341; stroke-width: 0px;"/>
      <path d="M1133.83,1042.88c5.68,3.3,11.22,6.88,17.09,9.8,4.07,2.02,6.48,4.98,8.17,8.99,8.9,21.13,21.51,39.82,36.17,57.45,10.67,12.84,16.99,28.84,28.02,41.59,4.69,5.42,9.2,11,13.79,16.51-7.13,17.15-18.9,31.21-30.87,44.95-15.79,18.12-33.35,34.51-52.59,48.99-3.33,2.51-6.92,4.82-10.69,6.58-18.73,8.72-32.73-.17-32.19-20.82.39-14.69,3.38-29.14,5.94-43.59,8.83-49.9,16.29-99.94,16.59-150.77.04-6.57-.99-13.15.57-19.67Z" style="fill: #578a35; stroke-width: 0px;"/>
      <path d="M607.41,1174.27c1.77-8.84,6.37-16.6,9.48-24.92,45.76.67,91.2-2.22,135.96-12.44,29.57-6.75,58.28-16.44,87.11-25.74,4.01-1.59,6.39,1.18,8.32,3.68,11,14.26,22.55,27.97,36.54,39.46,1.6,1.31,2.9,3.1,2.09,5.51-30.89,11.46-62.85,18.71-95.34,23.61-15.95,2.4-32.05,3.86-48.11,5.43-5.3.52-10.88-1.44-15.82,1.99-1.83,2.8-4.62,3.5-7.72,3.65-26.36,1.32-52.24-2.21-77.92-7.69-3.05-.65-5.22-2.74-7.07-5.15-9.17-2.46-18.35-4.93-27.52-7.39Z" style="fill: #eabf56; stroke-width: 0px;"/>
      <path d="M634.93,1181.67c25.94,4.61,51.83,9.59,78.35,9.41,4.79-.03,9.58-.15,14.37-.22,2.54,13.04-3.51,23.68-10.17,33.79-11.95,18.14-27.52,33.11-43.82,47.28-13.13,11.41-27.31,21.44-42.49,29.97-5.49,3.09-11.3,5.52-17.57,6.61-14.68,2.55-24.23-5.25-23.8-20.16.4-14,5.93-26.74,11.09-39.51,9.44-23.36,23.67-44.29,34.05-67.17Z" style="fill: #568a34; stroke-width: 0px;"/>
      <path d="M948.13,1055.43c-11.14,31.15-25.39,61.02-37.64,91.71-5.1,2.37-9.92,5.42-15.65,6.19-3.27,2.02-6.49,1.28-9.19-.84-15.48-12.12-28.19-26.86-39.89-42.54,24.97-11.33,49.73-23.09,73.32-37.13,9.7-5.77,19.37-11.59,29.05-17.38Z" style="fill: #ebbf56; stroke-width: 0px;"/>
      <path d="M1397.85,846.34c-25.44-.52-48.02,8.99-70.09,20.13-9.63,4.86-19.18,9.93-28.49,15.38-5.06,2.96-6.23-1.34-8.47-3.62-3.22-3.29-.03-4.66,2.22-5.95,38.39-22.03,78.05-39.9,123.83-37.62,1.44,7.69-1.6,10.87-9.49,10.2-3.1-.26-6.34.95-9.51,1.5Z" style="fill: #317236; stroke-width: 0px;"/>
      <path d="M1246.5,1168.08c-9.88-9.53-17.61-20.74-26.02-33.19,13,4.02,25,6.82,37.37,7.67-3.42,8.67-6.54,17.47-11.34,25.52Z" style="fill: #528834; stroke-width: 0px;"/>
      <path d="M1040.26,1183.82c.11,11.57-3.89,20.11-9.99,27.76-3.06,3.84-7.36,5.35-12.06,3.75-4.69-1.61-6.87-5.2-6.99-10.35-.2-9.25,2.15-17.81,6.73-25.68,2.96-5.08,6.09-11.39,13.44-9.65,7.88,1.87,9.07,8.62,8.85,14.16Z" style="fill: #387634; stroke-width: 0px;"/>
      <path d="M1036.79,1123.61c.19,12.5-4.37,19.98-11.66,20.13-6.61.13-12.26-7.22-13.44-17.61-.65-5.75.35-11.29,2.55-16.61,1.71-4.13,4.34-7.14,9.31-6.97,4.6.16,7.87,2.3,9.9,6.45,2.41,4.92,3.58,10.09,3.33,14.61Z" style="fill: #387633; stroke-width: 0px;"/>
      <path d="M1004.08,1162.4c.15,8.02-7.4,16.91-13.58,16.37-5.07-.44-8.04-3.55-8.22-8.91-.23-6.7,7.31-14.84,13.95-15.11,6.07-.24,7.53,3.64,7.84,7.64Z" style="fill: #367433; stroke-width: 0px;"/>
      <path d="M1234.58,780.85c-.71-9.88,4.13-17.69,15.37-21.63,6.75-2.37,13.22-5.51,19.85-8.22,13.4-5.48,14.82-5.17,25.07,5.19,11.76,11.89,14.65,26.18,8.31,41.01-5.85,13.68-20.47,22.84-35.81,22.44-17.85-.47-32.88-17.45-32.78-38.78Z" style="fill: #fbf3d5; stroke-width: 0px;"/>
      <path d="M1235.72,760.27c-3.22.12-4.98-.88-5.7-3.13-.94-2.95-.13-5.83,2.85-6.64,15.06-4.08,29.24-10.32,43.43-16.67,5.17-2.31,8.43,2.42,10.36,6.3,1.23,2.48-.62,5.65-4.15,5.17-15.92-2.13-28.21,7.7-42.01,12.49-1.92.66-3.64,1.88-4.78,2.48Z" style="fill: #2e7032; stroke-width: 0px;"/>
      <path d="M1208.07,723.51c-.17,8.57-7.97,16.66-15.95,16.24-5.21-.28-8.13-2.86-8.02-8.59.17-8.84,7.88-18.08,15.61-17.93,6.64.13,8.48,4.5,8.36,10.28Z" style="fill: #357433; stroke-width: 0px;"/>
      <path d="M1393.62,801.42c.05,3.54-1.01,5.87-5.25,4.9-7.91-1.8-12.04-7.6-14.3-14.6-1.2-3.72,1.38-6.38,5.51-6.12,5.63.35,13.96,9.97,14.04,15.83Z" style="fill: #337333; stroke-width: 0px;"/>
      <path d="M1160.48,764.03c-5.02-.19-8.09-3.23-8.02-7.82.08-5.25,4.11-8.06,9.13-7.72,4.42.3,8.27,2.77,8.09,7.9-.19,5.54-4.09,7.5-9.21,7.65Z" style="fill: #327333; stroke-width: 0px;"/>
      <path d="M1181.61,992.63c12.4,1.09,18.86,7.59,22.13,19.93,4.64,17.54,13.9,33.4,23,50.62-20.08-3.56-38.67-7.47-56.61-14.2-3.6-1.35-4.75-4.15-6.02-7.23-8.42-20.48-13.83-41.73-17.44-64.98,9.38,4.46,17.63,8.38,25.89,12.3-1.29,5.26-7.16,8.08-7.54,14.1,4.84,1.94,6.41-1.94,8.29-4.69,2.1-3.05,4-6.06,8.31-5.86Z" style="fill: #588a35; stroke-width: 0px;"/>
      <path d="M1261.8,1129.22c-43.64-1.36-64.15-16.49-87.6-64.39,13.94,3.13,27.44,6.15,40.92,9.18.87.2,1.76.82,2.58.72,14.95-1.93,23.16,7.18,30.96,17.93,4.88,6.73,11.16,12.44,16.8,18.61,4.07,7.06,2.68,13.01-3.66,17.95Z" style="fill: #588a35; stroke-width: 0px;"/>
      <path d="M1276.22,1061.02c-6.27.48-12.64.41-18.79,1.55-11.41,2.12-18.21-2.37-23.28-12.56-7.84-15.73-15.8-31.34-21.42-49.27,19,3.3,37.17,3.38,55.39,2.21,6.03-.39,6.07,5.53,8.39,8.98,5.91,13.7,3.53,28.07,3.43,42.25-.02,2.9-1.68,4.99-3.72,6.84Z" style="fill: #578a36; stroke-width: 0px;"/>
      <path d="M1148.58,1036.59c-36.86-19.42-61.37-74.51-55.46-124.98,6.52,18.09,14.55,33.53,27.65,45.05,10.01,8.81,15.93,18.1,16.3,31.93.43,16.12,7.76,31.09,11.52,48Z" style="fill: #7ca142; stroke-width: 0px;"/>
      <path d="M1182.2,978.22c-11.64-3.22-22.07-9.11-32.62-14.74-3.42-1.83-5.11-4.54-5.05-8.71.2-12.88.16-25.77-.01-38.65-.06-4.54.74-5.93,5.54-3.71,10.58,4.89,21.38,9.32,32.2,13.67,3.75,1.51,5.86,3.37,5.75,7.8-.3,12.02,2.14,23.81,3.45,35.7-2.24,3.78-3.33,8.8-9.26,8.64Z" style="fill: #7ca142; stroke-width: 0px;"/>
      <path d="M1203.67,961.7c-1.8-9.63-3.56-19.26-3.17-29.45,11.6,1.69,22.42,5.44,33.82,5.29,2.78-.04,4.31,1.52,5.12,4.11,5.3,16.87,13.27,32.51,23.39,48.41-18.29,2.29-35.35.65-52.01-3.32-5.29-1.26-4.07-8.5-4.92-13.32.85-7.97,8.87-11.8,11.28-19.59-5.58,1.37-7.98,7.46-13.5,7.87Z" style="fill: #598c36; stroke-width: 0px;"/>
      <path d="M1101.53,875.21c8.33,10.1,17.54,17.68,27.19,24.75,3.69,2.7,4.91,5.36,4.54,10.42-.9,12.5-.29,25.1-.29,38.11-18.09-9.42-37.06-50.8-31.44-73.27Z" style="fill: #7ca142; stroke-width: 0px;"/>
      <path d="M1264.82,937.39c.82,9.11-.9,18.23,7.58,26.02,5.02,4.61,1.61,13.58,1.85,20.6-10.02-13.69-16.64-29.09-23.09-45.29,4.92-.48,9.29-.9,13.66-1.32Z" style="fill: #508935; stroke-width: 0px;"/>
      <path d="M1276.03,1073.43c-1.88,7.31-3.33,14.77-7.11,21.46-6.75-5.43-12.04-12.11-17.53-19.9,8.8-.56,16.72-1.06,24.64-1.56Z" style="fill: #4f8733; stroke-width: 0px;"/>
      <path d="M463.21,1267.57c-.21-8.85,7.5-17.25,16.07-17.33,6.32-.06,10.44,3.07,10.87,9.47.53,7.85-9.47,17.09-18.09,16.89-5.62-.13-8.89-3.1-8.85-9.03Z" style="fill: #377634; stroke-width: 0px;"/>
      <path d="M513.55,1235.85c-4.33-.14-8.4-1.9-8.82-8.05-.55-7.96,6.24-15.33,14.23-15.56,6.92-.21,9.87,3.97,10.2,10.03.34,6.22-7.74,13.38-15.6,13.59Z" style="fill: #367533; stroke-width: 0px;"/>
      <path d="M418.38,1258.02c.51-5.02,3.56-9.99,9.98-10.59,5.29-.49,8.16,3.68,7.81,8.9-.44,6.44-4.41,10.84-10.66,11.43-5.02.47-7.2-3.49-7.13-9.73Z" style="fill: #367533; stroke-width: 0px;"/>
      <path d="M1261.82,785.26c-.11-11.56,8.58-20.88,19.74-21.17,10.52-.27,19.78,9.02,19.89,19.98.11,11.12-9.23,21.04-19.98,21.22-10.76.18-19.55-8.78-19.66-20.02Z" style="fill: #122a4d; stroke-width: 0px;"/>
      <path d="M1505.47,995.64c-1.79,5.14-5.2,8.23-8.12,11.52-22.76,25.59-47.33,49.19-75.92,68.37-3.57,2.39-7,3.53-10.87,2.63-21.67-5.05-43.3-10.31-64.13-21.2,16.9-8.88,33.5-16.88,48.87-27.07,10.23-6.79,20.31-13.74,29.64-21.74,2.06-1.77,3.85-3.51,7-3.25,24.76,2.06,48.64-3.2,73.53-9.26Z" style="fill: #1672a4; stroke-width: 0px;"/>
      <path d="M1276.05,1073.51c16.94-1.94,33.84-4.16,50.21-9.12,4.2-1.27,7.5.11,11.11,1.72,10.09,4.51,20.15,9.16,30.48,13.05,10.32,3.88,20.96,6.9,31.87,8.66.79,3.31-2.21,3.12-3.77,4-25.09,14.08-50.85,26.49-79.13,33.1-6.81,1.59-11.88.68-17.24-3.71-10.41-8.54-21.8-15.89-30.65-26.24-1.5-8.43.13-15.83,7.11-21.46Z" style="fill: #1572a3; stroke-width: 0px;"/>
      <path d="M1283.4,999.94c22.07-4.09,43.32-7.18,63.69-14.22,1.63-.56,3.71-1.33,5.12-.79,19.09,7.32,38.56,13.42,59.79,18-24.04,18.57-49.06,32.32-75.37,43.91-3.25,1.43-5.72.83-8.32-1.02-17.4-12.43-32.83-26.79-44.9-45.87Z" style="fill: #1572a4; stroke-width: 0px;"/>
      <path d="M1263.2,937.48c7.67-1.19,15.41-2.04,22.97-3.73,3.41-.76,4.98.62,6.79,2.72,12.72,14.71,26.98,27.77,43.36,39.96-19.87,6.46-39.76,8.56-59.3,12.22-3.2.6-3.74-2.25-4.4-4.56-2.91-9.18-4.92-18.47-10.41-26.95-3.54-5.47-4.71-13.39.99-19.66Z" style="fill: #1572a4; stroke-width: 0px;"/>
      <path d="M1274.59,1061.11c.1-16.36.19-32.73.29-49.09,11.96,15.31,24.79,29.78,42.19,42.28-15.13,3.43-28.57,6.4-42.48,6.81Z" style="fill: #1471a5; stroke-width: 0px;"/>
    </g>
    <g>
      <g>
        <path d="M2679.57,764.14c-6.27-2.65-13.75-3.42-20.82-4.74-49.79-9.29-86.48-30.89-117.74-57.65-1.15-.99-3.08-2.63-2.55-3.36,5.73-7.8-.36-11.26-6.82-15.35-3.69-2.34.2-6.4,2.68-9.36,8.12-9.68,18.33-18.17,30.93-25.21,26.13-14.61,55.2-23.49,85.59-29.92,39.26-8.3,78.53-14.66,117.93-13.1,2.25.09,3.84-.95,5.53-1.86,13.82-2.19,25.04,1.99,36.76,4.45,29.3,6.15,54.05,17.69,78.43,29.57,3.73,1.82,6.19,4.26,6.47,7.76,20.83,10.73,39.85,23.05,61.6,32.96,3.05,1.39,5.66,3.57,10.23,2.92,11.32,11.95,10.54,25.51-2.12,36.95-4.83,4.36-10.4,7.72-18.19,7.97-23.06.87-44.92,6.17-65.66,15.53-16.3,10.79-34.73,16.88-55.53,17.72-24.91,4.55-49.77,6.17-74.62,7.1-11.82,5.01-23.63,3.93-35.14,3.11-12.7-.9-26.32-.2-36.96-5.5Z" style="fill: #f1702f; stroke-width: 0px;"/>
        <path d="M2947.46,726.16c7.69-4.73,16.27-8.63,20.5-15.89,4.27-7.33,4.99-13.98.95-20.45-1.65-2.65-3.62-5.24-1.12-8.59,31.02-16.08,64.74-25.9,100.49-30.31,20.84-2.57,30.58,8.1,21,22.45-8.52,12.76-23.82,21.52-38.51,30.47-14.92,9.09-15.27,8.98-9.56,20.51,4.24,8.58,6.87,17.57,9.48,26.58,1.73,5.98-.78,11.94-5.31,17.48-6.1,7.45-16.99,9.1-29.28,5.12-26.81-8.68-46.18-23.05-61.92-40.21-2.21-2.4-4.47-4.78-6.7-7.16Z" style="fill: #de5721; stroke-width: 0px;"/>
        <path d="M2895.96,645.36c-34.31-18.97-71.52-34.38-116.77-39.99-1.79-.22-3.27-1.18-4.89-1.79,2.08-2.25,5.28-3.43,8.44-4.4,30.52-9.35,61.42-14.85,91.62-9.62,40.14,6.94,48.27,29.19,21.6,55.8Z" style="fill: #de5721; stroke-width: 0px;"/>
        <path d="M2826.28,759.42c18.95-4.93,37.02-11.8,55.53-17.72,2.32,4.17,4.68,8.32,5.29,13.01,1.05,8.1-3.2,12.05-15.04,13.88-15.02,2.31-26.79-1.97-38.61-6.08-2.52-.87-4.79-2.05-7.17-3.09Z" style="fill: #df5721; stroke-width: 0px;"/>
        <path d="M2679.57,764.14c22.85.49,44.74,4.83,68.53,1.61,1.16-.16,2.38.5,3.57.77-3.03,15.61-12.17,20.33-32.8,16.86-16.87-2.83-28.1-11.04-39.29-19.25Z" style="fill: #de5620; stroke-width: 0px;"/>
        <path d="M2758.39,699.8c9.99-2.6,22.04-2.29,34.02-3.27,19.61-1.59,26.94,5.74,19.68,19.13-5.9,10.89-14.17,20.73-30.18,26.37-17.32,6.1-30.37.69-43.65-3.73-6.5-2.16-12.34-5.18-18.24-8.05-10.63-5.18-9.32-15.24,2.6-21.35,10.56-5.41,10.84-5.48,35.76-9.12Z" style="fill: #dd5521; stroke-width: 0px;"/>
        <path d="M2663.04,732.06c36.84-26.31,45.66-54.39,35.78-84.81,14.18,9.04,16.27,31.07,5.56,52.83-6.99,14.2-24.98,28.95-41.34,31.98Z" style="fill: #d3461a; stroke-width: 0px;"/>
        <path d="M2641.91,668.73c.54,7.06-5.18,12.04-15.38,13.38-11.1,1.46-20.09-3.42-20.47-11.11-.32-6.42,6.25-12.25,15.02-13.34,10.86-1.35,20.27,3.65,20.84,11.07Z" style="fill: #143058; stroke-width: 0px;"/>
      </g>
      <g style="opacity: .5;">
        <path d="M2960.67,644.09l-35.79-14.46c-16.49-28.28-35.1-47.38-55.91-56.92l-87.67-8.61c-9.31,12.08-41.09,56.62-42.66,104.23-1.83,55.82,22,118.36,22,118.36l-97.6-13.21s-30.44-40.84-22.43-115.92c6.79-63.73,37.68-94.75,46.87-102.68l-114.74-11.27s-72.37,16.13-79.29,103.97c-6.92,87.84,61.64,121.11,61.64,121.11l201.78,19.06,110.66,10.45s9.09-1.04,31.71-19.25c22.62-18.22,37.68-37.87,37.68-37.87l19.97,10.77,7.38.88,7.46-107.82-11.05-.83Z" style="fill: #e4f0f4; stroke-width: 0px;"/>
        <path d="M2783.85,560.89l-93.79-8.1s-.95.68-2.59,2.09l93.83,9.21c1.61-2.08,2.55-3.21,2.55-3.21Z" style="fill: #86ea9b; stroke-width: 0px;"/>
        <path d="M2640.6,657.56c-8,75.08,22.43,115.92,22.43,115.92l97.6,13.21s-23.83-62.54-22-118.36c1.56-47.61,33.34-92.16,42.66-104.23l-93.83-9.21c-9.18,7.92-40.08,38.94-46.87,102.68Z" style="fill: #86ea9b; stroke-width: 0px;"/>
      </g>
    </g>
    <g>
      <path d="M586.26,710.13c-25.15,1.92-49.09-3.13-72.33-12.58-17.47-7.1-35.16-7.46-53.28-1.75-18.69,5.89-37.6,11.13-57.56,10.65-25.87-.63-43.13-15.74-48.82-41.11-3.43-15.27-.17-28.69,6.82-41.89,9.23-17.41,21.54-32.81,32.07-49.37,17.39-27.37,30.36-56.13,29.34-89.64-.4-13.13-5.64-24.54-10.23-36.36-11.17-28.78-19.64-57.98-9.55-89.04,7.39-22.78,25.41-37.15,44.97-35.79,11.22.78,20.84,6.04,29.78,12.42,29.36,20.95,53.13,47.54,75.41,75.53,30.27,38.02,74.38,35.78,108.71,3.82,23.52-21.89,39.01-49.58,53.44-77.85,5.46-10.7,11.2-21.18,19.6-29.93,26.41-27.49,50.43-23.63,74.51,2.85,14.75,16.22,21.31,36.79,22.5,58.88,1.71,31.7-4.22,62.22-14.07,92.11-8.62,26.16-12.11,53.02-12.29,80.45-.42,63.35-27.5,110.06-85.76,137.51-42.24,19.9-85.84,33.67-133.28,31.1Z" style="fill: #f9f0d0; stroke-width: 0px;"/>
      <path d="M790.48,383.36c.41,15.8-1.88,34.11-6.88,52.04-5.11,18.31-21.66,28.99-37.59,24.58-17.03-4.72-25.54-20.57-20.5-39.65,8.78-33.28,22.69-64.73,35.56-96.51,3.94-9.72,9.71-10.15,15.88-1.47,12.41,17.44,13.81,37.68,13.53,61.02Z" style="fill: #1372a3; stroke-width: 0px;"/>
      <path d="M437.65,369.68c.42-2.94-2.73-10.6,3.71-13.18,6.21-2.49,11.8,3.05,15.96,7.38,24.44,25.41,38.92,56.45,49.73,89.5.92,2.81.54,4.88-1.74,6.74-12.83,10.48-28.35,15.14-40.35-1.91-11.83-16.81-17.91-36.26-22.78-55.95-2.42-9.78-5.3-19.66-4.51-32.57Z" style="fill: #1373a3; stroke-width: 0px;"/>
    </g>
    <g>
      <path d="M2556.58,1169.77c13.77-.7,25.28.68,36.4,4.71,10.15,3.68,30.02-2.11,36.85-10.53,1.58-1.95,1.65-3.9,1.69-6.05.69-45.05,26.27-72.72,64.89-89.84,35.46-15.72,70.84-15.97,103.52,8.01,13.76,10.09,20.7,24.55,24.76,41.13,5.31,21.68,17.72,38.13,40.33,44.52,19.43,5.49,36.37,14.57,49.05,30.77,12.95,16.55,15.59,34.83,9.78,54.61-16.27,55.4-86.1,88.29-139.71,65.2-8.86-3.82-15.57-3.88-23.04,1.59-3.2,2.35-6.98,3.89-10.46,5.87-9.61,5.47-15.01,10.88-12.76,24.77,3.38,20.85-8.5,38.56-21.63,54.15-29.73,35.27-81.49,48.68-124.18,31.75-28.28-11.22-43.9-32.87-46.37-63.18-1.77-21.72-13.42-36.1-35.18-41.43-26.6-6.51-46-21.34-54.57-48.18-8.64-27.03,1.97-58.42,26.84-78.96,21.95-18.13,46.49-29.92,73.82-28.93Z" style="fill: #bcd0c6; stroke-width: 0px;"/>
      <path d="M2658.24,1297.2c15.78.87,32.89,6.55,45.39,22.31,12.4,15.64,13.83,32.28,4.38,49.84-20.39,37.88-68.82,55.71-106.75,39.31-34.34-14.84-41.92-52.67-17.21-80.76,19.04-21.64,42.87-30.19,74.19-30.71Z" style="fill: #1772a4; stroke-width: 0px;"/>
      <path d="M2834.89,1181.26c21.66,1.38,41.33,6.53,56.69,22.49,11.54,12,13.89,25.74,7.85,41.21-14.95,38.27-65.73,61.43-104.22,47.41-35.24-12.83-45.58-50.43-21.45-80.62,15.54-19.43,36.43-29.46,61.13-30.5Z" style="fill: #1672a4; stroke-width: 0px;"/>
      <path d="M2534.43,1305.95c-8.2.29-15.99-1.17-23.63-3.93-34.59-12.46-44.95-49-20.7-76.39,23.42-26.44,53.01-37.88,88.36-30.81,38.68,7.74,52.27,46.33,27.31,76.81-18.45,22.53-42.59,33.28-71.34,34.32Z" style="fill: #1672a3; stroke-width: 0px;"/>
      <path d="M2716.78,1194.39c-25.73,0-43.11-5.69-54.29-23.7-7.86-12.66-8.53-25.88-2.22-39.57,17.05-36.98,67.69-58.98,106.32-46.03,30.46,10.22,40.5,35.63,23.88,62.89-17.96,29.45-44.69,44.9-73.69,46.4Z" style="fill: #1672a4; stroke-width: 0px;"/>
      <path d="M2633.87,1275.65c6.6-17.32,12.22-33.04,8.25-50.22-.58-2.49.93-4.16,2.82-5.42,10.6-7.08,19.64-15.94,35.01-7.78,14.21,7.54,30.88,8.14,46.99,4.78,7.44-1.56,10.17.74,9.4,8.2-1.47,14.19-2.15,28.38,3.88,41.88,1.49,3.34-.18,5.68-2.13,7.83-2.93,3.24-6.05,6.3-9.19,9.33-8.23,7.93-14.88,12.15-27.38,3.42-19.32-13.49-42.68-15.75-67.64-12.02Z" style="fill: #1672a3; stroke-width: 0px;"/>
    </g>
    <path d="M1058.37,333c12.88-.15,22.12,8.65,22.41,21.35.3,13.22-8.11,22.18-21.05,22.44-13.76.27-22.86-8.38-22.91-21.78-.04-13.08,8.54-21.86,21.55-22.01Z" style="fill: #469dc0; stroke-width: 0px;"/>
    <path d="M1373.34,616.49c12.88-.15,22.12,8.65,22.41,21.35.3,13.22-8.11,22.18-21.05,22.44-13.76.27-22.86-8.38-22.91-21.78-.04-13.08,8.54-21.86,21.55-22.01Z" style="fill: #469dc0; stroke-width: 0px;"/>
    <path d="M2008.08,403.81c12.88-.15,22.12,8.65,22.41,21.35.3,13.22-8.11,22.18-21.05,22.44-13.76.27-22.86-8.38-22.91-21.78-.04-13.08,8.54-21.86,21.55-22.01Z" style="fill: #469dc0; stroke-width: 0px;"/>
    <path d="M2067.63,1235.69c12.88-.15,22.12,8.65,22.41,21.35.3,13.22-8.11,22.18-21.05,22.44-13.76.27-22.86-8.38-22.91-21.78-.04-13.08,8.54-21.86,21.55-22.01Z" style="fill: #469dc0; stroke-width: 0px;"/>
    <path d="M2220.16,532.04c12.88-.15,22.12,8.65,22.41,21.35.3,13.22-8.11,22.18-21.05,22.44-13.76.27-22.86-8.38-22.91-21.78-.04-13.08,8.54-21.86,21.55-22.01Z" style="fill: #469dc0; stroke-width: 0px;"/>
    <path d="M346.1,978.84c12.88-.15,22.12,8.65,22.41,21.35.3,13.22-8.11,22.18-21.05,22.44-13.76.27-22.86-8.38-22.91-21.78-.04-13.08,8.54-21.86,21.55-22.01Z" style="fill: #469dc0; stroke-width: 0px;"/>
    <path d="M184.25,782.73c12.88-.15,22.12,8.65,22.41,21.35.3,13.22-8.11,22.18-21.05,22.44-13.76.27-22.86-8.38-22.91-21.78-.04-13.08,8.54-21.86,21.55-22.01Z" style="fill: #469dc0; stroke-width: 0px;"/>
    <path d="M2999.09,412.69c12.88-.15,22.12,8.65,22.41,21.35.3,13.22-8.11,22.18-21.05,22.44-13.76.27-22.86-8.38-22.91-21.78-.04-13.08,8.54-21.86,21.55-22.01Z" style="fill: #469dc0; stroke-width: 0px;"/>
    <g>
      <path d="M2387.46,1609.08c-16.18-.77-32.37-1.55-48.55-2.32-24.97-47-29.57-93.91.41-140.77,6.1-9.53,12.08-19.15,17.69-28.96,10.8-18.86,13.93-39.09,8.56-60.14-4.14-16.27-9.36-32.27-14.07-48.4-10.49-35.92-4.31-68.88,17.56-99.08,3.23-4.46,6.09-9.2,9.48-13.52,19.77-25.17,24.99-53.81,20.64-84.83-1.54-11.01-1.14-21.99,1.5-32.8,2.85-11.62,9.99-18.81,19.08-19.78,11.6-1.23,18.47,5.57,23.22,14.63,12.8,24.4,15.93,50.15,11.42,77.4-4.66,28.19-15.07,54.22-28.21,79.11-15.74,29.82-16.4,60.02-6.64,91.47,4.88,15.72,10.47,31.35,11.62,47.99,1.84,26.65-6.46,50.63-19.67,73.25-4.47,7.66-9.01,15.28-13.67,22.82-20,32.35-23.4,66.83-13.78,103.17,1.79,6.74,2.31,13.82,3.41,20.75Z" style="fill: #015569; stroke-width: 0px;"/>
      <path d="M2459.01,1615.26c-16.07-1.48-32.14-2.97-48.2-4.45,5.4-8.88,10.9-17.69,16.17-26.64,13.01-22.08,16.77-45.53,10.78-70.62-7.21-30.21-3.51-58.85,13.23-85.46,5.54-8.8,10.63-17.88,16-26.78,14.13-23.4,18.45-48.93,16.31-75.78-1.23-15.37-.39-30.53,3.15-45.53,1.57-6.64,4.36-12.73,8.72-18.01,10.9-13.21,28.61-12.25,37.93,2.14,6.66,10.28,9.1,21.86,10.16,33.88,3.7,41.96-7.82,80.47-26.33,117.46-6.02,12.03-11.71,24.19-16.18,36.94-6.28,17.93-9.34,36.01-5.23,54.9,5.9,27.16-.01,52.11-14.3,75.49-6.85,11.21-13.07,22.82-22.21,32.46Z" style="fill: #015568; stroke-width: 0px;"/>
    </g>
    <g>
      <path d="M1029.13,1620.91c16.18-.77,32.37-1.55,48.55-2.32,24.97-47,29.57-93.91-.41-140.77-6.1-9.53-12.08-19.15-17.69-28.96-10.8-18.86-13.93-39.09-8.56-60.14,4.14-16.27,9.36-32.27,14.07-48.4,10.49-35.92,4.31-68.88-17.56-99.08-3.23-4.46-6.09-9.2-9.48-13.52-19.77-25.17-24.99-53.81-20.64-84.83,1.54-11.01,1.14-21.99-1.5-32.8-2.85-11.62-9.99-18.81-19.08-19.78-11.6-1.23-18.47,5.57-23.22,14.63-12.8,24.4-15.93,50.15-11.42,77.4,4.66,28.19,15.07,54.22,28.21,79.11,15.74,29.82,16.4,60.02,6.64,91.47-4.88,15.72-10.47,31.35-11.62,47.99-1.84,26.65,6.46,50.63,19.67,73.25,4.47,7.66,9.01,15.28,13.67,22.82,20,32.35,23.4,66.83,13.78,103.17-1.79,6.74-2.31,13.82-3.41,20.75Z" style="fill: #015569; stroke-width: 0px;"/>
      <path d="M957.59,1627.09c16.07-1.48,32.14-2.97,48.2-4.45-5.4-8.88-10.9-17.69-16.17-26.64-13.01-22.08-16.77-45.53-10.78-70.62,7.21-30.21,3.51-58.85-13.23-85.46-5.54-8.8-10.63-17.88-16-26.78-14.13-23.4-18.45-48.93-16.31-75.78,1.23-15.37.39-30.53-3.15-45.53-1.57-6.64-4.36-12.73-8.72-18.01-10.9-13.21-28.61-12.25-37.93,2.14-6.66,10.28-9.1,21.86-10.16,33.88-3.7,41.96,7.82,80.47,26.33,117.46,6.02,12.03,11.71,24.19,16.18,36.94,6.28,17.93,9.34,36.01,5.23,54.9-5.9,27.16.01,52.11,14.3,75.49,6.85,11.21,13.07,22.82,22.21,32.46Z" style="fill: #015568; stroke-width: 0px;"/>
    </g>
    <path d="M1976.28,1163.41c-8.38.12-15.25-4.11-21.31-9.33-20.42-17.58-40.86-35.15-59.61-54.55-3.28-3.39-6.43-7.02-9.01-10.95-6.71-10.22-5.05-18.6,5.69-24.55,20.92-11.59,39.87-25.32,53.89-45.1,1.87-2.63,4.52-4.74,6.96-6.93,12.93-11.62,22.22-9.01,25.33,8,3.63,19.88,16.82,33.57,29.5,47.33,15.79,17.13,32.94,32.99,49.25,49.65,4.6,4.69,12.38,9.52,9.1,16.82-3.23,7.17-11.86,9.11-19.63,9.67-7.25.52-14.57.14-21.85.32-11.91.3-22.9,2.83-31.92,11.62-4.35,4.24-9.37,8.22-16.38,8Z" style="fill: #f8f0d0; stroke-width: 0px;"/>
    <path d="M2233.55,1594.08c29.85-35.53,64.81-63.13,109.24-78.77,46.18-16.26,94.61-17.55,142.28-23.1,26.74-3.11,48.51-13.65,69.29-29.06,26.34-19.53,42.24-48.17,63.57-72.07,22.64-25.37,48.46-45.78,79.35-59.44,45.73-20.23,94.71-27.34,143.8-33.26,52.07-6.28,97.09-27.39,134.75-63.55,18.42-17.69,32.1-39.3,46.89-60.09,39.73-55.83,94.19-92.1,158.21-115.28,37.26-13.49,75.74-20.63,114.96-22.4,23.13-1.04,46.51-2.75,69.68.56v591.41h-1159.61c8.3-12.3,17.99-23.55,27.57-34.96Z" style="fill: #085f8e; stroke-width: 0px;"/>
    <path d="M1079.44,1595.76c-28.46-33.88-61.8-60.2-104.16-75.11-44.03-15.5-90.22-16.73-135.67-22.03-25.49-2.97-46.26-13.02-66.07-27.71-25.11-18.62-40.28-45.93-60.62-68.72-21.59-24.19-46.2-43.65-75.66-56.68-43.61-19.29-90.31-26.07-137.12-31.71-49.65-5.99-92.58-26.12-128.49-60.6-17.56-16.86-30.61-37.48-44.72-57.3-37.88-53.24-89.82-87.82-150.86-109.92-35.53-12.86-72.22-19.67-109.62-21.36-22.05-.99-44.35-2.62-66.44.54v563.93h1105.73c-7.91-11.73-17.15-22.46-26.29-33.33Z" style="fill: #085f8e; stroke-width: 0px;"/>
  </g>
</svg>