<?xml version="1.0" encoding="UTF-8"?>
<svg id="Layer_2" data-name="Layer 2" xmlns="http://www.w3.org/2000/svg" viewBox="0 0 1384 399.7">
  <g id="Scrollytelling_-llustrations" data-name="Scrollytelling -llustrations">
    <g>
      <path d="M0,398.03h291.63s-15.83-11.92-15.25-24.82,15.56-26.78,15.83-28.82-.61-9.02.83-20.74,22.12-27.87,22.12-27.87c0,0,2.58-1.06,2.88-8.31s-.65-7.63.85-22.06,10.68-28.25,10.68-28.25c0,0,11.3-13.59,16.34-16.89s22.18-10.5,22.18-10.5l21.25-2.61,22.7,2.85s3.59-.19,13.36,3.75c9.78,3.94,12.83,8.63,12.83,8.63l7.71,9.08,6.31,10.67,3.91,13.07,1.48,11.52.86,9.39s-.06,2.77.54,4.22,2.5,3.6,3.66,4.47,4.56,3.38,6.73,5.04,5.68,5.62,5.68,5.62c0,0,2,3.98,1.03,5.38s-1.66,3.87-1.66,3.87l-1.98,2.12-1.45,1.1-4.13,2.33-4.53,1.1s-3,.48-3.55,2.1-1,3.73-1,3.73l-.31,3.88-1.18,5.91s-.73,2.85-3.27,7.86-7.69,8.6-7.91,9.22-5.66,3.69-5.66,3.69l-4.81,2.13-4.82,1.44-8.05,1.2-6.2.03-4.45-.43-3.79-.24-.35.59s11.59,2.97,14.23,4.28,6.6,3.65,6.6,3.65l6.07,4.48,5.52,5.11,6.07,6.84,5.32,7.65,4.33,7.85,2.21,5.67h435.72l5.81-16.95,6.66-11.57,7.98-9.32,13.04-10,10.88-5.48,2.26-1.89s.32-.45-.34-.81-2.38-.8-2.09-.01-5.19.49-5.19.49c0,0-9.24-.18-9.81-.25s-4.73-.93-4.73-.93l-5.12-1.92-5.68-3.42-5.41-5.51-3.01-5.17-1.6-4.3-1.07-4.47-.71-5.44s-.63-4.41-1.12-4.79-1.21-.73-1.21-.73l-1.07-.31-2.2-.49-2.34-.82-2.05-1.12-2.05-1.7-2.36-3.71-.71-3.1.31-4.2,1.64-4.34,2.34-3.49,2.36-1.9,2.42-3.32.96-2.64.45-2.9.07-2.29-.15-3.1-.29-3.43-.22-4.48.05-5.57.44-5.76.62-4.41,1.14-5.48.87-2.74s-.02-1.94-1.08-3.14-2.88-2.56-2.88-2.56l-1.94-1.41-3.75-3.14-4.24-4.09-2.04-3.37-2.06-3.84-1.07-2.75-.63-2.18s-.67-1.11-.77-4.48c-.14-4.74-.16-3.28-.16-3.28l.3-3.95.76-2.96,1.19-3.09s.51-.78.85-.75,1.58-.11,1.58-.11h2.67l2,.55,1.37.55,1.37.83.88.45,2.97,1.16,4.31.99,4.24.46h8.04s6.23-.44,6.23-.44l5.77-.88,7.37-1.6,11.33-2.68,6.78-1.23,6.81-.68h3.38l5.99.33,6.22.93,3.8.87,3.98,1.17,5.8,2.17,5.84,2.8,4.6,2.82,4.84,3.84,2.59,2.58,2.32,2.76,2.27,3.27,1.04,1.76.97,1.23,1.28,1.08,1.11.81,1.32,1.04,2.08,2.54,2.69,4.37,2.78,6.23,1.52,5.23.9,5.05.48,6.48v5.76l-1.26,10.36-1.09,5.13-3.49,11.18-4.03,9.57-8.53,16.71-2.48,5.17s-.23,1.55-.23,1.93.39,3.82.39,3.82l.34,2.41.12,2.94.19,2.46.63,2.1s1.21,1.12,1.72,1.41,2.41.8,2.6.78,4.64,1.02,4.64,1.02c0,0,8.63,2.39,9.74,2.85s10.49,4.54,10.49,4.54l5.28,2.96,7.08,4.81,4.91,3.98,4.78,4.45,6.94,7.64,4.94,6.45,4.31,6.34,5.73,9.35,5.44,9.95,2.49,4.42s.33.95,1.05,1.52,16.24,0,16.24,0h48.24l.76.25h239.24" style="fill: none; stroke: #000; stroke-miterlimit: 10; stroke-width: 2.83px;"/>
      <path d="M494.04,215c5.27-16.62,10.14-31.98,14.99-47.35,2.31-7.3,1.43-8.56-6.14-8.57-19.31-.02-38.63.06-57.94,0-39.11-.12-68.17-29.21-68.02-68.3.04-11.45-.85-22.92.85-34.37,3.88-26.15,25.78-49.11,51.7-53.91,4.09-.76,8.21-1.1,12.38-1.1,67.76.03,135.52-.04,203.28.04,32.08.04,60.28,22.97,64.76,54.85,2.66,18.93,3.73,38.51-2.41,57.3-8.98,27.46-33.95,45.38-62.85,45.45-31.47.07-62.93.1-94.4-.05-4.55-.02-7.46,1.35-10.42,5-12.03,14.82-22.86,30.69-37.12,43.62-2.44,2.21-5.01,4.27-8.68,7.38Z" style="fill: #fff; stroke: #000; stroke-miterlimit: 10; stroke-width: 2.83px;"/>
    </g>
  </g>
</svg>