<?xml version="1.0" encoding="UTF-8"?>
<svg id="Layer_2" data-name="Layer 2" xmlns="http://www.w3.org/2000/svg" viewBox="0 0 707.06 458.12">
  <g id="Scrollytelling_-llustrations" data-name="Scrollytelling -llustrations">
    <path d="M536.71,2.86c11.01,2.23,22.26,3.63,32.98,6.83,71.37,21.36,118.53,67.09,132.77,140.95,18.31,94.96-44.35,186.16-139.06,206.57-13.21,2.85-26.55,4.38-40.13,4.36-78.12-.11-156.24.08-234.36-.21-9.06-.03-15.79,2.34-22.31,8.81-27.47,27.23-55.39,53.99-83.23,80.83-2.92,2.82-5.58,7.98-10.8,4.58-5.03-3.27-1.77-8.15-.67-11.97,6.88-23.8,13.79-47.6,21.4-71.17,2.95-9.12.46-10.99-8.49-11.03-55.14-.27-101.24-21.15-138.52-61.75C-14.55,233.4-13.4,126.68,49,62,81.12,28.69,120.07,9.29,166.3,4.81c2.48-.24,4.89-1.23,7.33-1.87,2.9-2.33,6.31-1.28,9.48-1.29,114.69-.06,229.38-.06,344.07,0,3.18,0,6.58-.97,9.52,1.21Z" style="fill: #f3fffd; stroke: #000; stroke-miterlimit: 10; stroke-width: 2.83px;"/>
  </g>
</svg>