<?xml version="1.0" encoding="UTF-8"?>
<svg id="Layer_2" data-name="Layer 2" xmlns="http://www.w3.org/2000/svg" viewBox="0 0 3364 1568.82">
  <g id="Scrollytelling_-llustrations" data-name="Scrollytelling -llustrations">
    <path d="M0,1567.07h3364V28.62C2200.01-9.54,1078.67-9.54,0,28.62v1538.45Z" style="fill: #98e9f4; stroke-width: 0px;"/>
    <path d="M9.85,1568.82h3354.15v-776.54s-304.81-58.22-505.73-55c-200.92,3.22-421.56,167.47-820.92,162.39-399.36-5.08-484.07-128.69-806.19-122.65-322.13,6.04-308.93,74.45-637.99,98.55C264.1,899.66,0,807.08,0,807.08l.04,761.74h9.81Z" style="fill: #fdc870; stroke-width: 0px;"/>
    <path d="M1965.91,583.29c-36.36,3.46-71.42-7.53-106.79-15.64-34.53-7.91-68.43-5.62-102.5,2.32-42.89,10-85.85,20.35-130.38,17.95-29.52-1.59-58.64-6.06-86.03-18.18-2.99-1.32-5.95-2.83-8.68-4.63-4-2.64-6.32-6.27-4.02-11.16,2.44-5.17,6.65-4.82,11.15-3.04,18.37,7.27,37.54,11.47,56.86,15.25,40.12,7.86,79.7,3.24,118.92-5.54,30.87-6.91,61.39-15.57,93.28-16.29,31.22-.71,61.43,5.58,91.44,13.54,39.66,10.52,79.79,10.97,120.15,4.46,2.86-.46,5.81-.47,8.72-.49,5.3-.04,9.53,1.99,10.43,7.58,1.06,6.58-4.35,8.04-8.91,8.82-20.81,3.56-41.66,6.93-63.65,5.03Z" style="fill: #2e86a6; stroke-width: 0px;"/>
    <path d="M671.56,560.31c-36.03.12-67.18-7.29-97.9-16.57-36.12-10.91-71.71-9.24-107.36,2.06-34.56,10.95-70.1,17.24-106.32,16.29-32.43-.86-64.22-7.55-95.52-16.16-31.73-8.73-63.24-6.88-94.93.93-38.7,9.53-77.74,16.37-117.59,6.84-8.47-2.03-16.78-4.74-25.06-7.46-2.33-.76-4.78-2.23-6.31-4.08-2.83-3.45-5.03-7.84-2.53-12.1,2.63-4.49,7.08-2.41,10.84-1.23,14.61,4.59,29.5,7.46,44.63,10.02,22.57,3.82,44.17-.35,66.09-3.74,28.69-4.43,56.56-13.83,86.25-12.42,14.66.7,29.08,1.69,43.13,5.82,34.44,10.13,69.65,16.02,105.46,15.41,28.03-.47,55.98-4.89,82.54-14.17,45.23-15.8,90.07-14.5,135.14-.17,25.85,8.22,52.59,12.73,79.48,12.49,29.45-.26,58.61-5.38,87.15-13.28,8.73-2.42,13.47,1.96,11.58,9.58-.86,3.46-3.66,4.26-6.14,5.64-12.7,7.06-26.98,8.89-40.87,11.28-18.24,3.13-36.71,5.37-51.74,5.01Z" style="fill: #2e86a6; stroke-width: 0px;"/>
    <path d="M2269.86,167.8c-26.77,1.34-51.93-3.16-75.39-15.73-4.96-2.65-10.83-5.65-8.1-12.12,2.77-6.55,8.15-4.15,13.89-2.12,38.98,13.79,78.41,17.58,118.87,5.61,23.64-6.99,47.12-15.15,72.09-16.71,24.01-1.5,47.15,2.84,69.62,10.74,28.86,10.14,58.09,16.49,88.84,11.4,6.34-1.05,10.95.9,12.4,7.5,1.67,7.62-4.56,8.19-9.32,9.16-24.77,5.01-49.48,3.29-73.46-3.72-26.18-7.65-51.86-17.23-79.59-17.26-16.79-.02-33.22,3.16-49.17,8.35-26.38,8.59-52.78,16.86-80.68,14.9Z" style="fill: #2e86a6; stroke-width: 0px;"/>
    <path d="M3330.97,569.16c-17.66,1.24-35.63-3.31-53.05-8.29-33.93-9.7-66.51-5.89-99.4,3.15-31.3,8.6-63.35,14.15-96.57,8.6-11.02-1.84-21.76-4.88-32.47-7.78-4.27-1.16-6.8-4.22-8.31-7.81-2.02-4.79.26-7.06,6.03-6.55,5.03.44,10.17,1.25,14.88,2.71,32.96,10.18,65.67,7.6,98.5-.51,26.82-6.62,53.47-13.43,82.3-12.27,19.32.78,37.06,6.04,55.32,9.82,13.51,2.8,26.92,5.04,40.9,4.71,2.17-.05,4.5-.12,6.51.41,4.61,1.22,11.2,1.17,10.72,7-.47,5.71-5.93,6.84-11.91,6.81-4.01-.02-8.03,0-13.45,0Z" style="fill: #2e86a5; stroke-width: 0px;"/>
    <path d="M1372.27,201.34c-29.96,1.68-57.58,8.38-85.24,14.63-34.08,7.7-67.88,7.2-101.54-2.03-3.1-.85-6.22-2.19-8.87-3.99-2.94-2-3.89-5.3-2.6-8.76,1.29-3.47,3.77-4.63,7.69-4.54,9.6.23,18.63,3.29,27.93,4.94,33.52,5.94,65.86-.38,98.12-8.81,38.25-10,76.7-11.57,115.19-1,37.37,10.27,75.1,13.78,113.43,6.1,5.55-1.11,9.71,1.03,10.81,6.48,1.27,6.28-2.78,8.95-8.5,10.37-34.28,8.51-68.47,6.74-102.47-1.14-21.63-5.01-43.09-10.71-63.93-12.24Z" style="fill: #2e87a6; stroke-width: 0px;"/>
    <g>
      <path d="M1272.93,1064.22c13.88-3.64,27.71-7.44,41.64-10.85,7.31-1.79,11.72-6.97,16.2-12.27,5.32,3.65,13.52,5.59,12.06,14.1-1.35,7.83-8.59,10.88-15.4,12.48-31.22,7.33-61.08,19.54-92.41,26.21-31.57,6.72-63.54,7-95.44,1.46-2.25-.39-4.44-1.37-6.52-2.36-8.73-4.13-9.04-5.21-4.41-14.11,9.93-1.6,19.66-4.09,29.38-6.6,2.93-2.62,4.97-.96,7.13,1.28,10.46,10.88,22.25,15.62,37.48,9.88,10.27-3.87,21.18-6.07,31.8-9.01,8.43-7.14,30.58-13.02,38.49-10.21Z" style="fill: #f6b456; stroke-width: 0px;"/>
      <g>
        <path d="M1171.15,1090.15l55.75-14.53,101.66-26.49s32.67-19.97,23.02-55.29c-9.66-35.32-47.72-35.22-47.72-35.22l-149.17,39.34c-9.96,5.83-18.12,15.38-24.57,28.48l-17.26,9.23-17.27,4.22s-14.04,2.46-8.31,25.72c5.73,23.26,21.76,17.57,21.76,17.57l13.27-3.74,9.44-6.26s9.06,6.65,21.87,12.01c12.81,5.36,17.53,4.94,17.53,4.94Z" style="fill: #e4f0f4; stroke-width: 0px;"/>
        <path d="M1224.9,1075.53l48.9-14.45s12.69-19.54,3.37-49.53c-9.32-29.99-32.55-38.31-32.55-38.31l-47.31,12s25.74,17.11,30.56,39.79c4.83,22.68-2.98,50.49-2.98,50.49Z" style="fill: #86ea9b; stroke-width: 0px;"/>
        <path d="M1130.6,1072.44c-8.05,8.63-26.03,12.7-36.61,8.29-3.59-3.82-6.31-8.42-7.35-13.37-4.2-20-2.64-28.55,23.45-32.79,12.03-.25,21.18,31.05,20.51,37.87Z" style="fill: #2d8aab; stroke-width: 0px;"/>
      </g>
    </g>
    <g>
      <path d="M2437.95,720.57c-4.26-3.32-12.24-1.57-13.78-7.31-1.25-4.65,1.18-10.28,1.98-15.48,1.57-10.18,3.15-20.36,4.73-30.54,3.72-15,5.45-30.41,10.55-45.17,7.83-22.64,22.09-39.16,43.53-49.59,12.73-6.19,25.41-12.54,39.22-16.13,5.37,1.02,5,6.03,6.29,9.58,3.55,9.76,8.9,17.38,19.64,20.09,3.87.97,7.64,1.36,11.5.43,18.64-4.49,33.19-13.88,39.47-33.1.57-1.75,1.16-3.49,2.97-4.41,24.13,6.7,47.21,15.92,68.6,29.07,13.9,8.55,23.74,20.72,30.8,35.22,8.69,17.87,17.2,35.83,25.79,53.75,5.18,11.08,10.15,22.27,15.66,33.19,1.98,3.93,1.79,5.95-2.34,7.76-3.5,1.53-6.73,3.67-10.08,5.53-1.58,4.46-5.75,5.7-9.46,7.3-12.18,5.25-24.32,10.65-36.93,14.79-5.03,1.65-6.52,4.07-4.87,9.03,1.37,4.11,1.79,8.56,3.29,12.59,4.4,11.83,2.53,23.13-1.08,34.81-7.81,25.33-15.97,50.55-23.34,76.01-1.01,3.47-1.82,7.15-4.96,9.58-16.89,8.99-35.64,11.43-54.01,14.98-24.57,4.76-49.45,6.5-74.5,5.82-17.48-.47-34.62-3.11-51.49-7.61-3.82-1.02-7.19-2.95-10.59-4.88-2.88-2.08-3.74-5.07-3.75-8.42-.11-30.61.94-61.2,2.38-91.77.34-7.09.12-14.18.24-21.27.12-7.76-.39-15.53,1.12-23.25.94-4.8-.43-9.51-1.37-14.18,1.53-2.25,2.68-4.48,2.64-7.47-.31-20.51.87-40.99,1.38-61.48-.53,20.56-1.67,41.11-1.42,61.68.03,2.75-.72,4.9-2.91,6.55-6.87,3.19-19.06.39-24.91-5.73Z" style="fill: #d84f23; stroke-width: 0px;"/>
      <path d="M2604.05,548.95c.39,8.88-4,15.78-9.52,22.03-9.25,10.48-20.82,17.04-34.79,18.62-13.6,1.54-25.19-5.63-30.4-18.44-1.97-4.84-3.46-9.87-5.16-14.81-.16-1.78-.32-3.57-.49-5.35,1.53-2.11,3.82-2.35,6.11-2.35,6.27,0,11.99-2.06,17.64-4.44-7.99,3.46-16.32,4.96-25.03,4.3-7.79-2.38-16.1-2.79-23.39-7.14-18.58-11.1-27.79-28.42-30.93-48.79-4.45-28.9-2.24-57.96.59-86.92,2.39-2.15,4.96-.85,7.09.11,23.29,10.51,47.33,8.92,71.54,4.62,13.19-2.34,14.72-1.22,16.97,12.34,1.45,8.74,4.96,16.68,10.35,23.71,4.99,6.52,6.36,6.55,11.97.85.97-.98,1.94-1.96,3.06-2.77,5.71-4.17,11.8-5.91,18.74-3.22,6.44,2.5,7.61,7.89,7.92,13.83.28,5.94,1.2,11.9-.05,17.81-2.02,9.58-7.52,14.91-17.18,16.62-1.77.31-3.03.64-3.32,2.65-2.52,17.76-4.85,35.49,4.15,52.33.98,1.84,2.02,3.61,4.12,4.4Z" style="fill: #fba778; stroke-width: 0px;"/>
      <path d="M2616.33,455.14c-2.88-5.97-5.52-12.36-13.63-12.42-8.56-.06-14.31,4.67-17.45,12.12-1.49,3.52-2.53,2.79-4.72,1.23-11.11-7.93-16.23-19.38-19.09-32.18-.3-1.33-.43-2.7-.71-4.04-1.8-8.7-1.79-8.6-11.1-6.88-24.55,4.51-49,6.38-72.84-3.6-2.73-1.14-5.39-2.46-8.09-3.7-9.48-5.67-15.86-13.68-18.5-24.51-1.97-8.06,1.12-11.95,9.12-9.97,14.86,3.67,27.99-.52,40.94-7.09,21.01-10.65,43.06-15.63,66.47-10.33,38.19,8.65,60.34,42.85,53.35,81.84-1.17,6.53-2.5,13.03-3.75,19.54Z" style="fill: #0c2245; stroke-width: 0px;"/>
      <path d="M2522.42,548.51c.25-1.58,1.18-2.42,2.77-2.41,10.29.05,19.74-2.87,28.54-8.73.28,9.51-11.75,14.68-30.04,13.63-.43-.83-.85-1.66-1.28-2.49Z" style="fill: #bc3813; stroke-width: 0px;"/>
      <path d="M2466.78,884.65c30.76,11.08,62.52,12.34,94.72,9.9,31.79-2.41,62.84-8.37,93.05-18.59,3.39,3.33,1.3,7.16-.03,10.05-4.67,10.18-2.66,18.21,5.56,25.67,4.53,4.11,7.94,9.47,12.03,14.12,4.51,5.12,4.97,5.03,8.52-1.13,1.83-3.18,3.32-6.56,5.4-9.59,1.4-2.03,2.55-4.48,5.6-4.5,1.11,19.39,2.19,38.79,3.34,58.18.94,15.98,1.94,31.95,2.92,47.93.89,17.83,1.64,35.66,2.76,53.48.31,4.89-1.17,7.07-6.02,8.55-8.94,2.73-18.07,4.56-27.11,6.82-7.04,6.17-15.81,4.62-24.03,5.16-2.92.19-5.9-.43-8.78.57-15.77.28-31.55.6-47.33-.32-5.67-.33-9.75-2.63-11.24-8.25-1.34-5.06-2.13-10.23-1.98-14.61-.92,2.82.02,6.74-.93,10.56-2.4,9.64-5.91,12.53-15.88,12.14-1.14-.04-2.28-.22-3.44-.18-22.01,1.36-43.84.09-65.54-3.81-2.87-.52-5.22-1.54-6.87-3.98-5.92-1.46-11.78-3.21-17.77-4.28-5.95-1.06-7.61-4.27-6.93-9.92,1.03-8.55,1.75-17.15,1.31-25.79.83-13.85,1.65-27.7,2.48-41.56-3.42-4.03-2.74-8.81-2.17-13.42.3-2.43.63-4.84.68-7.29,1.02-3.28,1.43-6.6.52-9.99,1.63-6.45,1.02-13,1.21-19.56.6-20,1.32-40.02,2.73-59.99.19-2.65.86-4.92,3.23-6.4Z" style="fill: #0c2245; stroke-width: 0px;"/>
      <path d="M2481.48,1082.86c24.18,4.22,48.54,6.06,73.08,5.49,2.77,2.02,2.85,5.02,2.92,8.03.75,33.16-.23,66.3-1.64,99.41-.79,18.7-.82,37.49-2.73,56.07-2.01,19.57.32,38.74,2.01,58.04,2.32,12.69-3.08,20.13-15.62,22.4-18.66,3.39-37.34,6.6-55.82,11.03-13.87,3.32-28.2,2.84-42.37,1.88-4.69-.32-9.42-1.52-13.33-4.88-2.61-2.25-5.94-3.05-9.54-3.3-5.05-.35-10.04-1.45-12.61-6.73,2.78-7.83,5.62-15.08,15.96-15.92,10.36-.84,18.51-7.47,26.97-12.77,10.47-6.56,20.51-13.79,30.91-20.46,5.39-3.46,7.85-7.96,7.43-14.33-1.4-21.38-2.69-42.77-4.01-64.16-.46-7.51-.72-15.03-1.28-22.55-1.56-20.92-1.98-41.93-3.08-62.9-.47-9.09-1.08-18.22-2.43-27.21-.73-4.85,1.88-5.91,5.16-7.15Z" style="fill: #fba778; stroke-width: 0px;"/>
      <path d="M2634.13,1089.35c11.12-1.26,22.25-2.52,33.37-3.78,1.33,1.17,2.96,1.34,4.54,1.02,3.97-.8,4.72,1.66,4.99,4.68.08.91.07,1.83.06,2.75-.61,35.01,1.93,69.96,1.59,104.98-.17,18.26,2.44,36.6.93,54.81-1.71,20.67,1.36,40.92,3.03,61.32,3.21,3.56,1.03,6.94-.62,10.06-3.93,7.42-10,13.11-16.62,17.95-10.35,7.57-21.75,13.39-33.94,17.53-3.1,1.05-6.22,1.56-9.22-.37-3.68-5.53,2.32-8.32,3.11-11.96-2.9,3.16-3.58,8.27-6.4,12.24-3.99,1.98-8.17,1.98-12.42,1.24-2.94-1.91-1.81-4.2-.63-6.54,1.85-3.64,4.17-6.96,6.05-9.27-4.12,3.87-5.85,10.62-10.27,15.63-3.77,2.14-7.59,2.49-11.49.38-5.17-5.1.57-8.49,1.61-11.95-1.84,3.26-5.35,6.8-2.79,11.89-5.08,3.49-16.95,4.12-21.4.96-4.56-3.24-5.07-7.87-3.89-12.89,1.65-6.99,6.37-12.16,11.11-17.03,6.22-6.39,11.38-13.75,18.1-19.67,1.42-1.25,1.96-3.06,3-4.56,12.21-13.51,18.59-28.26,15.43-47.43-3.59-21.79-3.98-44.07-6.08-66.1-3.01-31.57-5.06-63.22-8.02-94.8-.77-8.19,1.06-10.08,9.16-10.34,9.24-.3,18.52,1.07,27.72-.77Z" style="fill: #fba778; stroke-width: 0px;"/>
      <path d="M2605.44,1360.55c4.51-1.41,9.15-1.51,13.82-1.33.75-.8,1.53-.79,2.34-.09,11.09.39,20.05-5.51,29.25-10.31,12.27-6.4,23.36-14.36,29.91-27.18,1.05-2.06,1.94-4.14,1.89-6.51,13.49,1.05,26.89,2.58,38.58,10.25,14.08,9.23,13.54,20.82-1.3,28.92-13.06,7.13-27.48,10.01-41.85,12.92-41.41,8.39-83.42,8.68-125.26,6.72-34.4-1.62-68.95-4.06-102.7-12-11.57-2.72-23.47-4.27-34.45-9.27-3.39-1.54-6.5-3.36-9.2-5.88-5.64-5.27-5.81-9.85-.63-16.48,6.95,4.44,16.33,1.24,22.71,6.73,5.71,4.91,12.3,5.2,19.1,5.69,19.46,1.41,38.14-3.09,56.97-7.01,12.48-2.6,24.95-5.44,37.75-6.42,6.82-.52,10.69-7.57,10.79-18.29,1.21-5.77,6.57-4.8,10.01-5.06,9.56-.72,19.15.98,28.75,1.29,2.3.07,4.31,1.51,5.33,3.84-5.31,8.3-12.37,15.11-18.89,22.39-4.52,5.05-9.72,9.67-11.8,16.52-2.46,8.1.12,12.1,8.33,11.9,4.67-.11,9.6,1.5,14-1.44l-.05.06c4.27-.45,8.83,1.45,12.78-1.57,1.7-.47,2.9.23,3.81,1.61Z" style="fill: #f6b558; stroke-width: 0px;"/>
      <path d="M2691.61,910.6c-4.65,8.29-9.31,16.58-14.41,25.67-9.64-11.53-19.11-22.79-28.48-34.14-1.48-1.79-.47-3.92.09-5.88,1.91-6.76,3.82-13.52,5.73-20.28,9.51-31.34,18.93-62.71,28.61-94,1.76-5.69,2.01-11.02.37-16.74-2.34-8.14-4.14-16.43-6.28-24.63-.78-3-.82-4.96,2.93-6.17,17.89-5.81,35.04-13.54,52.3-20.94,3.74,14.33,7.16,28.76,11.31,42.98,4.06,13.89-1,26.64-4.18,39.56-9.08,36.82-25.08,70.86-42.84,104.15-1.83,3.42-3.44,6.95-5.15,10.43Z" style="fill: #fba778; stroke-width: 0px;"/>
      <path d="M2462.06,980.78c-.5,6.84-.99,13.69-1.49,20.53-6.83-2.6-12.69-6.89-16.75-12.72-11.22-16.11-19.58-32.74-17.99-53.88,3.5-46.61,5.23-93.35,7.78-140.04,1.35-24.71,2.89-49.4,4.34-74.1,8.3,1.24,16,5.14,24.51,5.44.49-.5.83-.41,1,.27,4.68.88,4.27,4.3,4.16,7.86-1.43,46.97-2.81,93.95-4.12,140.92-.1,3.49-1.22,7.57,3.28,9.6-1.14,24.92-2.25,49.84-3.44,74.76-.19,3.88-.74,7.75-1.12,11.62-5.16-.64-3.37-5.42-4.85-7.73,1.24,5.58,3.25,11.45,4.69,17.48Z" style="fill: #fba778; stroke-width: 0px;"/>
      <path d="M2636.61,655.05c1.87.35,2.39,1.99,2.95,3.44,9.52,24.28,19.01,48.58,28.47,72.88.83,2.14,1.81,5.07-.9,6.03-3.22,1.14-3.17-2.39-3.91-4.31-8.85-22.83-17.66-45.68-26.45-68.53-.82-2.13-1.61-4.3-2.13-6.51-.32-1.38.06-2.77,1.96-3Z" style="fill: #a52610; stroke-width: 0px;"/>
      <path d="M2463.45,726.28c-.34-.07-.67-.16-1-.27,1.36-2.55,1.16-5.33,1.16-8.07,0-21.52-.18-43.04,1.47-64.52.09-1.14.03-2.3.2-3.43.21-1.37.62-2.83,2.37-2.8,1.45.02,1.65,1.44,1.9,2.49.37,1.54.77,3.15.71,4.71-.78,21.94-1.65,43.87-2.45,65.8-.11,3.06.19,6.26-4.35,6.09Z" style="fill: #a5260f; stroke-width: 0px;"/>
      <path d="M2507.05,453.59c1.72,5.36-.14,8.88-1.52,12.43-1.81,4.67-3.94,9.22-5.61,13.93-1.73,4.89-2.75,9.75,5.07,9.94,1.2.03,2.47.47,2.42,1.82-.04,1.29-1.35,1.59-2.49,1.88-8.17,2.07-13.03-2.5-11.08-10.76,2.43-10.27,8.97-18.62,13.21-29.24Z" style="fill: #924f40; stroke-width: 0px;"/>
      <path d="M2532.02,512.5c-8.13,1.87-16.26,3.79-24.41,5.56-1.42.31-3.48,1.04-4.1-1.07-.81-2.73,1.62-2.71,3.28-3.07,8.23-1.81,16.29-5.37,25.23-1.42Z" style="fill: #8f220b; stroke-width: 0px;"/>
      <path d="M2483.51,427.68c1.12.05,1.84-.05,2.49.13,2.93.84,8.14.41,7.59,4.06-.59,3.94-4.91.54-7.52.57-3.92.04-7.74-.19-11.36,1.72-1.12.59-2.68,1.75-3.67.26-1.19-1.8.54-2.93,1.8-3.82,3.31-2.35,7.19-2.74,10.67-2.93Z" style="fill: #8d5245; stroke-width: 0px;"/>
      <path d="M2523.01,433.16c6.17-5.25,10.65-2.5,14.93-.42,2.86,1.39,8.69,2.4,7.32,5.41-1.87,4.12-5.66-.62-8.46-1.6-3.99-1.39-7.95-2.79-13.78-3.4Z" style="fill: #854d42; stroke-width: 0px;"/>
      <path d="M2536.68,459.33c-.35,3.43-.51,7.01-4.1,7.44-3.37.4-4.34-2.5-4.3-5.57.04-3.14.64-6.61,3.93-7.1,3.34-.49,4.06,2.85,4.47,5.24Z" style="fill: #121325; stroke-width: 0px;"/>
      <path d="M2485.77,456.38c-.21,3.12-.42,6.64-4.74,6.79-2.89.1-3.54-2.39-3.59-4.83-.08-3.4.59-6.78,4.49-7.28,3.38-.44,3.73,2.54,3.84,5.33Z" style="fill: #151524; stroke-width: 0px;"/>
      <path d="M2462.06,980.78c-5.56-8.06-7.67-17.07-7.57-26.75,5.8,4.28,4.3,11.75,7.73,17.01-.05,3.25-.1,6.5-.15,9.74Z" style="fill: #a25138; stroke-width: 0px;"/>
      <path d="M2461.76,1319.09c-.11,1.53-1.47,1.48-2.46,1.87-8.29,3.29-16.23,7.2-22.82,13.39-.96.9-1.96,2.14-3.35.5-1.17-1.37-.57-2.77.38-3.68,7.06-6.68,15.28-11.42,24.61-14.16,1.69-.5,3.15.09,3.64,2.09Z" style="fill: #a0360d; stroke-width: 0px;"/>
      <path d="M2437.42,1319.02c-2.88,5.32-7.69,8.63-12.34,12.09-.67.5-1.67,1.02-2.41.04-.83-1.11-.32-2.28.43-3.1,3.87-4.23,8.22-7.8,14.31-9.02Z" style="fill: #9c310c; stroke-width: 0px;"/>
      <path d="M2605.44,1360.55c-1.82.76-2.96-.09-3.81-1.62,3.89-6.98,6.23-15.32,15.2-17.87-3.04,7.04-8.33,12.59-11.39,19.48Z" style="fill: #9f370e; stroke-width: 0px;"/>
      <path d="M2621.6,1359.13c-.78.03-1.56.06-2.34.09-.09-7.14,4.44-12.14,8.22-17.45.71-1,1.86-2.3,3.34-.88,1.01.98.43,2.06-.17,3.06-3.02,5.05-6.03,10.11-9.05,15.17Z" style="fill: #9b330b; stroke-width: 0px;"/>
      <path d="M2588.9,1360.45c-1.84.17-2.64-.89-2.34-2.48,1.3-6.89,4.6-12.51,10.81-16.27-1.13,7.1-6.92,12.01-8.52,18.8,0,0,.05-.06.05-.06Z" style="fill: #9d350e; stroke-width: 0px;"/>
    </g>
    <g>
      <path d="M2113.78,754.11c13.61,33.88,18.99,69.92,27.64,105.1,1.11,4.5-.15,6.75-4.18,8.21-4.51,1.64-8.97,3.44-13.45,5.18-5.68,6.13-13.63,7.86-20.38,4.44-1.09-7.86-.35-15.77-.25-23.65.17-14.17-1.23-28.19-2.43-38.34,2.78,16.63,2.73,37.28,2.05,57.95-.06,1.74,0,3.33.62,4.93,1.23,11.46,1.57,23.02,1.75,34.45.39,25.69,2.77,51.26,3.43,76.92.22,8.54,2.97,17.08-.49,25.55-6.65,6.68-15.69,5.5-23.77,6.55-35.37,4.62-70.96,5.32-106.59,4.69-3.35-.06-6.79.26-9.81-1.7-5.61-6.25-3.3-13.72-2.65-20.66,1.47-15.79,1.73-31.66,3.48-47.42.53-4.75-1.72-7.67-6.63-8.71-3.76-.8-7.45-1.91-11.24-2.64-8.53-1.62-10.89-4.65-9.21-12.94,4.19-20.74,8.38-41.5,10.67-62.53,4.09-37.59,6.91-75.27-.83-112.78-2.95-14.32-6.87-28.27-21-36.24-1.28-.72-2.04-2.02-2.32-3.52,3.04-6.56,9.88-5.71,15.25-7.59,2.84-1,5.99-1.67,9.13-.98,5.49,2.06,9.78,6.02,14.48,9.35,15.09,10.68,31.45,16.5,50.25,13.11,10.77-1.94,19.34-7.11,25.19-16.47,1.67-2.67,3.33-5.32,6.21-6.91,10.93-1.07,20.16,2.28,27.46,10.61,15.89,8.51,28.32,20.64,37.62,36.02Z" style="fill: #115595; stroke-width: 0px;"/>
      <path d="M1953.36,710.68c-8.61.51-16.49,4.1-24.78,5.96-1.98,2.63-5,2.13-7.73,2.69-5.92,1.23-12.24,1.67-16.53,6.87-5.04,3.08-9.19,8.22-16.09,7.1-13.95-15.9-15.09-33.4-2.18-50.43,5.92-7.81,8.65-15.18,6.8-25.22-2.35-12.74.99-25.41,11.47-33.26,17.31-12.95,21.28-30.57,21.25-50.21-.06-40.69,26.59-71.58,70.57-79.21,18.51-3.21,36.83-2.47,54.81,4.01,26.01,9.38,43.88,33.98,44.26,61.71.15,11.29-1.21,22.62,1.14,33.83-4.7.73-5.74-2.89-6.53-6.04-1.11-4.41-1.82-8.93-2.09-13.53-.66-11.56-5.23-24.09-11.62-32.81-1.43.17-1.92,1.39-2.44,2.41-8.91,17.38-22.99,29.47-39.91,38.49-5.96,3.18-10.43,7.29-13.66,13.31-5.64,10.52-12.93,11.7-22.29,4.17-4.12-3.31-7.39-7.6-12.13-10.2-7.26-3.97-14.19-2.57-19.15,3.99-8.82,11.66-4.62,29.19,9.11,34.4,7.67,2.91,10.93,7.17,11.66,15.15,1.22,13.39,4.18,26.71.24,40.09-3.54,12.01-9.21,22.23-22.26,26.37-4.05,1.29-7.89,2.02-11.92.35Z" style="fill: #d04c22; stroke-width: 0px;"/>
      <path d="M1953.36,710.68c26.01-6.79,36.79-24.05,32.79-52.48-.4-2.85-.76-5.72-1.12-8.58-1.04-8.28-.94-15.74-12.37-19.02-12.34-3.54-17.37-21.17-11.94-32.99,6.21-13.54,19.22-16.64,30.67-7.16,3.7,3.06,6.87,6.79,10.65,9.73,6.21,4.82,11.62,3.84,14.46-3.42,3.25-8.3,9.18-12.83,16.69-16.86,19.17-10.28,34.29-24.65,42.16-46.64,8.4,13.58,14.15,26.78,15.51,41.8.61,6.71-.56,14.19,5.49,19.47,2.33,5.93,6.82,10.31,10.79,15.08,5.41,6.51,4.63,10.66-2.55,14.97-1.62.97-3.18,2.05-4.77,3.07-3.9,1.69-2.67,5.44-2.82,8.22-.37,6.98-1.41,13.82-2.64,20.67-3.9,21.8-22.18,29.32-41.17,28.8-1.19-.03-2.34-.51-3.54-.62-6.52-.6-7.15.48-8.11,6.73-1.15,7.52,2.29,12.6,7.15,17.37-10.39,22.24-29.96,30.46-56.5,24.12-15.2-3.63-27.45-12.12-38.83-22.27Z" style="fill: #fba778; stroke-width: 0px;"/>
      <path d="M1888.23,733.31c4.66-2.76,9.32-5.51,13.97-8.27,16.53-7.46,31.79-1.38,38.06,15.39,6.05,16.17,8.16,33.1,8.81,50.21,1.75,46.15-3.29,91.67-12.88,136.77-2.73,12.83-4.79,14.94-17.17,13.41-4.8-.59-9.59-.7-13.8-3.45-2.72-2.98-2.39-6.46-1.96-10.15,1.56-13.54,1.32-27.24,3.36-40.75.25-1.66-1-2.57-2.28-3.32-16.81-4.07-33.42-8.78-49.75-14.47-3.58-1.25-7.51-2.24-8.77-6.63-16.66-5.77-16.78-5.82-10.05-22.14,11.79-28.57,21.84-57.84,35.07-85.82,5.65-7.04,10.31-14.91,17.39-20.76Z" style="fill: #115595; stroke-width: 0px;"/>
      <path d="M2048.68,708.83q-10.4-3.12-10.16-14.55c.06-2.64.21-5.28.2-7.92-.02-4.07,1.02-5.99,5.93-5.05,8.53,1.64,17.14,1.56,25.63-1.13,10.69-3.4,18.12-9.95,20.35-21.16,1.77-8.92,2.82-17.99,4.19-26.99.44-2.87.51-6.14,5-4.36-.89,7.21,1.84,13.75,3.98,20.35,8.42,25.87.9,49.36-21.15,65.5-2.13,1.56-4.33,3.05-6.49,4.57-9.29-2.71-17.48-8.66-27.47-9.26Z" style="fill: #d04c23; stroke-width: 0px;"/>
      <path d="M1967.58,1022.95c33.35.33,66.7.56,99.94-2.89,13.09-1.36,26.21-2.61,39.11-5.44,2.96,1.75,2.98,4.71,3.1,7.61.79,18.97,3.78,37.75,4.8,56.7,1.78,13.06,2.71,26.21,4.68,39.25-1.85,3.93-.85,7.99-.43,12,.33,3.12,1.04,6.24-1.93,8.58-.2,16.48.91,32.89,2.75,49.26,1.28,11.39.17,12.85-11.02,14.48-2.12.31-4.19.93-6.29,1.4-3.3,5.02-8.72,4.48-13.6,4.96-21.4,2.1-42.8,4.4-64.36,3.52-10.19.9-20.46-.17-30.64,1.12-18.04.58-36.05-.78-54.05-1.43-5.5-.2-11.04-.56-16.57-.79-4.46-.18-8.63-.93-11.76-4.49-3.01-.76-6.01-1.54-9.03-2.28-8.84-2.17-9.51-3.12-7.33-11.8,3.44-13.65,7.01-27.27,10.53-40.9,3.59-2.04,7.02,4.67,10.34.45,2.45-3.12.35-6.86.05-10.34-.23-2.71,1.16-4.5,3.63-5.53,5.89-1.12,11.93-.77,17.81-2.18,11.34-2.71,18.49-10.23,19.88-21.8,1.26-10.45,2.27-20.96,2.83-31.45.87-16.26,2.71-32.44,3.28-48.71.13-3.67.57-7.24,4.27-9.29Z" style="fill: #ebc283; stroke-width: 0px;"/>
      <path d="M1911.31,1206.77c27.43,2.95,55.02,2.77,82.53,4.29,3.46,2.63,3.06,6.33,2.51,9.9-4.21,27.26-8.74,54.46-13.05,81.7-5.63,35.53-11.54,71.01-17.78,106.43-2.45,13.93,6.03,24.14,13.95,34.22,8.34,9.93,17.3,19.26,26.67,28.22,4.6,4.4,8.26,9.45,9.92,15.67,1.71,6.39-.37,11.03-6.58,12.2-13.78,2.61-27.72,2.09-41.6.27-1.42-.19-2.65-1.11-3.6-2.25-4.02-4.46-6.66-9.94-10.68-14.4,3.82,4.32,6.56,9.41,10.09,13.94-1.61,3.28-4.61,3.18-7.48,2.84-18.62-2.21-34.3-10.43-47.3-23.75-4.17-4.27-8.38-8.63-11.3-13.96-1.86-3.39-3.82-6.76-2.24-10.86-.03-16.36,3.79-32.32,5.01-48.56.31-4.06.61-8.12.73-12.19,1.07-34.25,3.54-68.42,5.49-102.62.94-16.51,2.24-32.99,3.05-49.49.51-10.53,2.49-21,1.65-31.6Z" style="fill: #fba778; stroke-width: 0px;"/>
      <path d="M2024.16,1209.67c26.16-.43,52.23-2.02,78.14-5.78-2.77,26.03-2.83,52.24-5.48,78.29-1.82,17.91-2.19,35.96-3.4,53.93-1.25,18.67-2.69,37.34-4.12,56-.78,10.11,3.38,17.96,11.56,23.3,14.31,9.34,28.95,18.17,43.45,27.21,2.95,3.36,7.04,5,10.84,7.02,2.35,1.25,4.66,2.58,6.58,4.35,2.24,2.07,3.06,4.92,2.32,7.95-.8,3.28-3.46,5.03-6.42,4.83-6.02-.4-10.36,2.74-15.16,5.5-7.63,4.4-16.21,4.71-24.6,3.33-18.73-3.09-37.35-6.77-56.2-9.15-6.67-.84-13.43-.62-20.08-2.06-5.96-1.29-11.65-3.01-16.62-6.63-3.65-2.66-6.29-5.97-6.13-10.84-2.05-10.65.63-21.14,1.28-31.65.98-16.13,1.5-32.19-.2-48.28-.41-3.84-.36-7.7-.37-11.56-.03-24.1.02-48.2-.02-72.29-.04-21.67,2.33-43.28,1.55-64.96-.12-3.2.31-6.29,3.06-8.49Z" style="fill: #fba778; stroke-width: 0px;"/>
      <path d="M1918.89,1138.45c-2.19,1.77-.27,3.29.16,5.02,1.16,4.62,2.75,9.94-2.25,12.98-5.07,3.08-8.26-1.29-11.31-4.66-.8-1.27-1.69-2.43-3.41-1.53-8.18,4.23-13.44-.46-18.43-6-3.5-3.88-6.99-7.75-10.49-11.63-9.44-8.68-10.33-20.76-12.43-32.2-2-10.89-2.23-21.99-1.58-33.06.4-6.9-1.49-13.36-3.64-19.73-10.8-31.92-19.67-64.34-24.62-97.69-.93-6.3-4.28-13.12.51-19.45-.36-22.19,6.76-43.06,11.43-64.36.36-1.65.06-4.17,2.99-4.11,19.45,7.15,39.11,13.63,59.41,17.99,2.82,3.03,1.33,6.22.45,9.46-4.13,15.27-9.64,30.13-13.42,45.5,4.63,26.96,7.62,54.15,11.85,81.16,1.19,7.59,2.26,15.19,3.01,22.83,1.05,10.76,4.76,20.38,10.96,29.28,7.03,10.09,12.8,20.9,15.58,33.06.49,2.12.79,4.25.78,6.42-.02,4.2-.16,8.63-4.94,10.2-4.57,1.5-7.72-1.47-10.42-4.76-1.01-1.23-1.69-2.71-3.04-4.82-.95,10.89,3.96,20.21,2.83,30.08Z" style="fill: #fba778; stroke-width: 0px;"/>
      <path d="M1831.41,930.51c3.97,39.33,14.35,77.17,26.62,114.56,3.09,9.43,5.08,18.8,4.51,28.89-1.15,20.33,2.83,39.89,10.62,58.68-9.02-1.51-18.04-3.02-27.07-4.53-13.23-2.52-26.44-5.15-39.18-9.58-18.27-6.36-24.49-15.08-24.3-34.54.18-17.93,4.75-35.27,7.6-52.83,5.05-31.12,10.41-62.19,15.27-93.34.87-5.58,2.64-8.15,8.58-7.64,5.75.5,11.56.25,17.35.32Z" style="fill: #0c2245; stroke-width: 0px;"/>
      <path d="M2021.22,1448.35c1.87,6.35,7.31,8.53,12.67,10.73,10.47,4.3,21.76,3.58,32.67,4.94,16.71,2.09,33.17,5.51,49.77,8.11,11.25,1.76,21.98,1.75,30.78-6.99,1.67-1.65,3.48-2.19,5.9-1.65,3.12.71,7.75,2.63,8.73-1.56.98-4.15-1.53-8.38-6.05-10.48-2.83-1.31-5.7-2.57-8.42-4.09-1.74-.97-2.72-2.69-2.96-4.74,12.68,5.02,23.98,11.97,32.31,23.08,3.06,4.09,2.96,7.65-.89,11.47-4.97,4.93-10.96,8.05-17.39,9.95-31.66,9.35-63.98,14.8-96.89,17.97-34.08,3.28-68.2,5.58-102.29,3.73-36.27-1.97-72.26-7.15-105.98-22.19-.44-.2-.86-.45-1.3-.64-5.41-2.4-9.68-6.29-9.84-12.26-.18-6.33,5.22-9.66,10.13-12.03,13.6-6.54,28.24-9.26,43.2-10.46,10.35,22.46,27.65,36.99,51.29,43.63,5.1,1.43,10.73,4.67,16.38.92l-.03.03c13.97,3.14,28.11,2.38,42.19,1.54,9.12-.54,10.56-3.91,7-12.32-3.04-7.18-8.71-12.08-14.17-17.06-7.5-6.84-13.6-14.84-20.2-22.44,1.85-2.83,4.8-3.4,7.66-2.88,9.09,1.63,18.24.92,27.36,1.21,3.6.12,6.68.92,8.34,4.49Z" style="fill: #f6b558; stroke-width: 0px;"/>
      <path d="M2116.85,1138.75c-.15-6.76-3.57-13.51-.09-20.29.97-.07,1.96-.11,2.82.37,8.61,4.84,12.31,3.63,16.54-5.43,3.68-7.88,5.27-17.68,4.66-28.75,1.01,9.15-1.29,22.83-5.16,29.76-2.17,3.89-4.91,7.59-9.99,6.94-5.28-.68-6.47-5.15-7.28-9.54-1.58-8.5-1.6-17.18-2.96-25.71-.38-2.36-.26-4.87-2.71-6.31-3.58-10.75-2.82-22.09-4.29-33.13-1.41-10.58-2.39-21.31-1.77-32.06-1.2-23.95-2.55-47.89-3.55-71.84-.87-20.62-1.33-41.26-2.01-61.89-.05-1.53.28-2.84,1.39-3.91.33-.55.76-.6,1.25-.22,6.95-.12,13.35-2.96,20.08-4.15,3.52,25.21,7,50.42,10.57,75.63,4.2,29.71,8.58,59.4,12.67,89.12,1.91,13.9,7.8,26.68,10.77,40.27,1.29,5.88,2.57,11.71,2.48,17.76-3.82,17.62-8.29,34.82-27.45,42.54-5.22,2.1-10.5,3.56-15.98.82Z" style="fill: #fba777; stroke-width: 0px;"/>
      <path d="M1918.89,1138.45c-1.68-.73-2.69-1.97-2.94-3.8-1.22-9.04-2.51-18.06-3.6-27.11-.31-2.58-.58-6.25,2.43-6.76,3.27-.56,3.37,3.34,4.35,5.66.09.22.24.43.31.65,1.49,5.25,4.84,10.6,10.1,9.14,4.5-1.25,2.24-7.78,1.66-11.69-1.65-11.07-6.13-21.46-12.93-30.12-10.15-12.92-13.55-27.64-15.58-43.31-4.07-31.42-8.65-62.78-13-94.17-.1-.7.08-1.43.12-2.15,5.6-4.9,10.66-2.71,15.58,1.2,6.69.77,13.43,1.3,20.06,2.41,3.7.62,5.26-.39,6.02-4.01,6.01-28.5,10.69-57.17,13.21-86.22,1.65-19.01,1.71-38,1.26-57.02-.34-14.47-2.44-28.75-6.37-42.71-5.23-18.58-12.54-23.94-31.6-23.41-1.92.05-3.85,0-5.78,0,7.08-8.18,16.39-9.33,26.37-8.4,15.63,5.15,20.73,18.45,24.48,32.4,7.87,29.24,7.03,59.13,5.38,88.95-1.82,32.95-7.11,65.45-14.53,97.59-.94,4.07.63,5.17,3.98,5.74,4.26.73,8.54,1.43,12.75,2.41,11.36,2.62,12.09,3.72,11.18,15.17-1.32,16.54-2.65,33.07-3.85,49.62-.35,4.8-.28,9.62-.4,14.44-1.88,24.16-3.75,48.31-5.66,72.46-.51,6.46-.74,12.97-1.76,19.35-2.41,14.99-13.14,23.07-31.2,23.88-3.35.15-6.71-.11-10.07-.19Z" style="fill: #0c2346; stroke-width: 0px;"/>
      <path d="M2103.71,876.75l-.61.23s-.65-.01-.65-.01c-1.8-2-1.55-4.48-1.52-6.85.31-21.87-.45-43.67-4.15-65.3-.29-1.71-1.11-4.44,1.29-4.98,2.66-.6,2.53,2.23,2.95,3.97,3.53,14.81,4.52,29.88,4.21,45.02-.19,9.31,1.52,18.76-1.54,27.92Z" style="fill: #07305b; stroke-width: 0px;"/>
      <path d="M2076.23,571c.12,1.94-1.18,2.39-2.71,2.61-4.89.71-8.96,3.07-12.78,6.08-.97.76-2.04,2.46-3.6,1.03-1.52-1.38-.24-2.81.6-3.73,3.95-4.36,8.8-7.28,14.7-8.17,1.76-.26,3.39-.04,3.79,2.18Z" style="fill: #5a160d; stroke-width: 0px;"/>
      <path d="M2081.23,649.8c-2.63-1-7.1,1.73-7.45-1.88-.42-4.29,4.37-1.9,6.74-2.82.21-.08.48-.1.71-.06,2.73.48,7.52-3.01,7.83,1.44.36,5.09-5.3,1.77-7.84,3.31Z" style="fill: #761f0e; stroke-width: 0px;"/>
      <path d="M2079.23,599.47c-.02,2.93-.33,5.72-3.15,5.12-3.55-.75-4.12-4.16-4.15-7.42-.02-2.17-.03-5.18,2.7-4.8,4.05.55,4.39,4.37,4.6,7.1Z" style="fill: #131220; stroke-width: 0px;"/>
      <path d="M1934.2,816.47c2.34,3.12,1.25,5.4.72,7.69-4.2,18.11-11.33,35.29-16.88,52.97-.54,1.7-1.17,4.19-3.78,3.36-2.12-.68-1.54-2.78-1.02-4.35,6.4-19.19,12.85-38.35,19.32-57.51.21-.63.84-1.13,1.64-2.16Z" style="fill: #07305b; stroke-width: 0px;"/>
      <path d="M2011.44,1202.45c2.72-19.72,5.42-37.58,7.59-55.5,2.58-21.26,6.34-42.42,6.69-63.9.09-5.49,2.9-8.39,7.25-10.54,1.1-.54,2.36-.48,3.35.48.81.79.99,2.03.16,2.51-7.76,4.47-5.42,12.45-6.04,18.9-3.32,35.01-8.59,69.75-13.43,104.55-.33,2.36-.36,5.36-3.41,5.56-2.04.13-2.15-2.15-2.16-2.07Z" style="fill: #b56e40; stroke-width: 0px;"/>
      <path d="M2112.69,1079.8c4.91-3.27,4.71,1.53,5.07,3.69.98,5.91,1.28,11.92,1.94,17.88.45,4.05.9,8.12,1.67,12.12.49,2.55,1.19,5.51,4.33,6.01,3.01.48,4.88-1.9,6.33-4.04,4.74-7.02,5.84-15.15,6.4-23.32.33-4.78.07-9.61.12-14.41.01-1.48.27-3.17,2.04-3.22,1.2-.03,1.89,1.38,2.05,2.63,1.84,14.07,1.28,27.93-5.83,40.59-4.77,8.5-15.28,10.11-20.05.72-2.28-12.79-3.39-25.7-4.07-38.66Z" style="fill: #a85033; stroke-width: 0px;"/>
      <path d="M1982.38,1474.14c7.95,4.92,12.37,12.49,16.27,20.44-.75.58-1.5,1.15-2.26,1.73-5.35-6.85-10.69-13.69-16.04-20.54.68-.54,1.35-1.09,2.03-1.63Z" style="fill: #9f360d; stroke-width: 0px;"/>
      <path d="M1963.05,1495.78c-1.35-.02-2.8.74-3.91-.77-3.67-4.98-7.38-9.93-11.07-14.9-.86-1.16-1.9-2.5-.38-3.69,1.07-.85,2.35-.02,3.18.81,5.31,5.36,11.47,10.19,12.16,18.57,0,0,.31.28.31.28l-.28-.31Z" style="fill: #9f360d; stroke-width: 0px;"/>
      <path d="M1981.53,1497.86c-6.97-6.9-10.6-14.31-15.68-21.21,6.69.17,15.29,11.27,15.68,21.21Z" style="fill: #9d360d; stroke-width: 0px;"/>
      <path d="M2120.69,1449.37c7.94,1.99,15.93,3.91,22.58,9.05,1.4,1.08,3.51,2.74,1.8,4.73-1.52,1.77-3-.47-4.27-1.23-6.47-3.88-13.49-6.26-20.72-8.22-1.42-.39-3.72-.74-3.04-3.14.51-1.8,2.17-1.52,3.64-1.18Z" style="fill: #9f350d; stroke-width: 0px;"/>
      <path d="M1879.53,1105.42c3.28,6.84,2.92,13.71,5.01,19.93,1.38,4.09,2.61,8.24,3.88,12.37.47,1.51,2,3.5-.08,4.42-2.15.96-3.61-1.08-4.26-2.88-3.11-8.58-6.04-17.23-6.21-26.5-.04-2.09-.67-4.31,1.65-7.34Z" style="fill: #a34d31; stroke-width: 0px;"/>
      <path d="M1892.46,1116.75c.34-2.36-.73-5.7,1.73-5.95,3.35-.34,2.31,3.27,2.75,5.35,1.62,7.71,3.2,15.43,4.75,23.15.4,1.99,1.91,4.73-.97,5.54-2.36.67-2.66-2.29-3.19-3.92-2.58-7.97-4.03-16.19-5.07-24.16Z" style="fill: #a44e32; stroke-width: 0px;"/>
    </g>
    <path d="M288.01,1438.18c18.05-37.87,49.64-63.66,80.82-89.64,11.41-9.5,24.02-17.6,36.38-25.89,4.97-3.33,9.22-7.05,12.34-12.09,13.35-.05,22.12-10.06,32.63-15.8,37.64-20.56,76.14-35.49,120.17-36.9,28.05-.9,55.74-1.49,83.51,2.19,28.32,3.76,51.76,17.1,72.7,36.01,37.49,33.88,76.48,66.26,103.47,110.01,11,17.83,19.19,36.75,23.76,57.22,5.23,23.41-2.97,39.3-26.62,49.02-18.87,7.76-38.51,12.47-59.2,12.32-35.72-.25-71.49-1.1-107.16.19-50.83,1.84-101.33,9.56-152.25,10.06-36.08.35-72.14,1.65-108.3-1.31-26.03-2.13-52-2.62-77.71-8.59-22.21-5.16-40.07-13.71-45.64-37.98-.17-.7-.33-1.4-.51-2.11-3.07-17.3.02-33.07,11.61-46.73Z" style="fill: #c3c29d; stroke-width: 0px;"/>
    <g>
      <path d="M48.55,1110.5c18.53,13.17,31.56,30.93,44.59,52.09,10.41-44.9,26.16-83.89,60.05-112.31,3.37-2.82,6.8-5.54,10.3-8.1-1.88-21.45-3.93-42.89-6.16-64.31-2.99-26.6-5.86-53.22-8.98-79.8-26.96-230.08-56.95-459.66-117.17-684.02C20.76,175.26,10.51,136.43,0,97.68v998.43c16.54-2.01,32.61,3.07,48.55,14.39Z" style="fill: #a26d3d; stroke-width: 0px;"/>
      <path d="M39.48,1458.6c-.21-15.11.07-29.92,2.58-44.43-4.65-3.89-9.59-7.52-14.93-10.8-8.62-5.29-17.48-9.71-27.13-12.34v75.06c6.64,1.74,13.16,3.99,19.56,6.51,20.18,7.93,20.23,8.5,19.91-14Z" style="fill: #67b14e; stroke-width: 0px;"/>
      <path d="M179.71,1326.08c12.4-12.74,23.86-25.13,43.07-21.17,21.35,4.4,35.35,18.15,39.19,39.67,4.89,27.4,6.31,55.14,1.13,84.46,14.96-5.93,28.27-11.05,41.3-16.33,20.32-8.24,37.71.53,50.06,11.44,14.86,13.13,23.45,32.46,17.83,55.3-8.87,36.04-31.35,62.35-58.35,85.41-1.69,1.44-3.12,2.76-4.29,3.98h243.37c5-7.16,7.82-15.93,7.86-26.55.09-22.75-12.92-37.73-32.72-47.51-14.01-6.92-28.66-11.02-48.02-10.27,14.77-9.53,26.87-17.32,37.43-27.16,37.57-35.02,51.7-78.34,44.83-128.52-5.78-42.21-48.44-68.02-93.8-57.25-10.58,2.51-20.7,7-31.92,10.89,4.02-15.6,9.15-30.92,11.77-46.65,4.78-28.68,3.03-57.09-8.71-84.24-22.09-51.05-71.55-61.48-116.03-24.33-13.88,11.59-26.36,24.67-39.84,41.7,5.82-27.42,9.02-51.55,3.28-75.4-7.2-29.91-20.35-56.71-52.25-67.12-27.42-8.94-50.62.54-71.42,15.76,8.37,95.56,13.08,191.3,13.08,287.29,1.02-1.15,2.06-2.28,3.14-3.39Z" style="fill: #67b14e; stroke-width: 0px;"/>
      <path d="M42.06,1414.17c2.18-12.55,6.02-24.87,12.67-36.96,12.5-22.7,30.91-26.56,46.6-5.61,9.14,12.19,21.69,21.55,28.21,38.14,17.76-27.44,26.53-57.26,47.02-80.27,0-95.98-4.71-191.73-13.08-287.29-3.5,2.56-6.93,5.28-10.3,8.1-33.9,28.41-49.64,67.41-60.05,112.31-13.03-21.16-26.05-38.92-44.59-52.09-15.94-11.32-32.01-16.4-48.55-14.39v294.92c9.65,2.63,18.52,7.05,27.13,12.34,5.33,3.27,10.27,6.9,14.93,10.8Z" style="fill: #67b14e; stroke-width: 0px;"/>
      <path d="M307.17,1564.35c2.92-3.33,6.66-5.82,9.68-9.01,21.25-22.47,41.84-44.88,49.52-76.7,8.59-35.58-28.31-72.88-62.13-59.54-9.7,3.83-19.71,7-29.45,10.84-10.15,4-16.08.95-15.87-10.8.09-4.97.86-9.88,1.2-14.82,1.32-19.31-.08-38.62-3.62-57.49-3.4-18.07-14.85-30.74-33.24-35.3-17.04-4.23-28.22,6.06-38.29,17.51-2.9,3.3-5.71,6.65-8.42,10.07-.02,5-.02,9.99-.07,14.99-.14,16-.84,31.99-1.28,47.98-.05,3.95-2.99,5.89-5.88,7.22-26.05,12-39.67,35.01-52.69,58.69-3.94,7.17-5.55,18.45-15.03,18.7-10.01.26-10.43-11.73-14.92-18.47-11.95-17.96-24.23-35.59-40.03-50.03-.89,5.58-1.37,11.28-1.38,17.11,0,8.27.15,16.54-.11,24.81-.69,22-6,25.75-26.31,18.33-6.21-2.27-12.49-4.32-18.85-6v96.4h304c.8-1.48,1.85-2.98,3.17-4.47Z" style="fill: #4c9f41; stroke-width: 0px;"/>
      <path d="M140.41,1402.14c-7.56,10.42-12.31,10.78-20.57.64-8.37-10.26-16.61-20.67-25.94-30.01-12.21-12.23-23.75-10.43-32.26,4.31-7.5,12.98-12.68,26.64-15,41.11,15.8,14.44,28.08,32.06,40.03,50.03,4.48,6.74,4.91,18.74,14.92,18.47,9.48-.25,11.09-11.54,15.03-18.7,13.02-23.68,26.65-46.69,52.69-58.69,2.89-1.33,5.83-3.27,5.88-7.22.44-15.99,1.15-31.98,1.28-47.98.04-5,.05-10,.07-14.99-9.6,12.11-17.87,25.11-23.72,39.71-3.27,8.17-7.2,16.16-12.4,23.33Z" style="fill: #4c9f41; stroke-width: 0px;"/>
      <path d="M45.16,1460.1c.26-8.26.11-16.54.11-24.81,0-5.83.48-11.53,1.38-17.11-1.5-1.37-3.02-2.71-4.58-4.01-2.51,14.51-2.8,29.32-2.58,44.43.32,22.5.27,21.93-19.91,14-6.41-2.52-12.92-4.77-19.56-6.51v6.34c6.36,1.68,12.63,3.73,18.85,6,20.31,7.42,25.62,3.67,26.31-18.33Z" style="fill: #4c9f41; stroke-width: 0px;"/>
      <path d="M313.95,1564.85c27-23.06,49.48-49.38,58.35-85.41,5.62-22.84-2.97-42.17-17.83-55.3-12.35-10.91-29.74-19.68-50.06-11.44-13.03,5.29-26.34,10.4-41.3,16.33,5.17-29.31,3.76-57.06-1.13-84.46-3.84-21.52-17.84-35.27-39.19-39.67-19.22-3.96-30.67,8.43-43.07,21.17-1.08,1.11-2.12,2.25-3.14,3.39,0,3.21-.02,6.42-.03,9.64,2.71-3.42,5.52-6.78,8.42-10.07,10.07-11.45,21.25-21.74,38.29-17.51,18.39,4.57,29.84,17.23,33.24,35.3,3.54,18.86,4.94,38.18,3.62,57.49-.34,4.94-1.11,9.85-1.2,14.82-.22,11.75,5.72,14.8,15.87,10.8,9.75-3.84,19.75-7.02,29.45-10.84,33.82-13.34,70.72,23.96,62.13,59.54-7.68,31.82-28.27,54.23-49.52,76.7-3.02,3.2-6.76,5.68-9.68,9.01-1.31,1.5-2.37,2.99-3.17,4.47h5.65c1.17-1.22,2.61-2.54,4.29-3.98Z" style="fill: #4c9f41; stroke-width: 0px;"/>
      <path d="M129.55,1409.74c-6.52-16.59-19.07-25.95-28.21-38.14-15.7-20.95-34.11-17.09-46.6,5.61-6.65,12.08-10.5,24.4-12.67,36.96,1.56,1.31,3.09,2.65,4.58,4.01,2.32-14.47,7.5-28.12,15-41.11,8.51-14.74,20.05-16.54,32.26-4.31,9.33,9.34,17.57,19.75,25.94,30.01,8.27,10.14,13.01,9.78,20.57-.64,5.2-7.16,9.13-15.16,12.4-23.33,5.85-14.6,14.12-27.59,23.72-39.71.01-3.21.03-6.42.03-9.64-20.5,23.02-29.26,52.84-47.02,80.27Z" style="fill: #4c9f41; stroke-width: 0px;"/>
    </g>
    <path d="M155.54,992.15c-9.9-21-24.78-4.78-33.84-1.45-14.47,5.33-28.46,6.78-43.22,7.64-15.83.93-31.58,3.01-47.39,4.29-10.46.85-10.48.61-12.07-10.69,28.9-1.05,56.57-6.42,83.48-18.07,11.42-4.95,24.92-4.95,36.53-11.68,6.44-3.74,9.13-6.79,8.22-14.36-2.12-17.63-3.33-35.37-4.82-53.08-.21-2.47-2.38-6,2.6-6.51,3.5,34.64,7,69.28,10.5,103.91Z" style="fill: #975e32; stroke-width: 0px;"/>
    <path d="M135.75,806.3c-9.32-19.39-21.73-5.94-29.5-3.59-12.42,3.77-24.54,4.11-37.36,3.88-13.74-.24-27.39.54-41.11.61-9.07.05-9.1-.16-10.86-10.35,25.12,1.03,49.03-1.88,72.06-10.45,9.77-3.63,21.53-2.72,31.4-7.94,5.48-2.9,7.72-5.43,6.68-12.25-2.44-15.86-4.08-31.76-5.97-47.64-.26-2.22-2.27-5.51,2.05-5.63,4.21,31.11,8.41,62.23,12.62,93.34Z" style="fill: #975e32; stroke-width: 0px;"/>
    <path d="M77.53,644.72c3.93-1.4,7.86-2.8,13.07-4.65.18,18.91-16.91,20.82-26.92,25.94-14,7.17-30.35,11.37-46.96,9.84-8.58-.79-16.89-2.4-13.1-14.58,25.7-.73,50.99-3.33,73.9-16.55Z" style="fill: #965d31; stroke-width: 0px;"/>
    <path d="M92.48,511.47c-6.28-11.42-14.05-1.82-19.01.36-7.93,3.49-15.71,4.79-23.96,5.79-8.84,1.07-17.6,2.78-26.41,4.05-5.83.84-5.85.71-7.14-5.57,16.16-1.59,31.49-5.56,46.16-13.03,6.23-3.17,13.8-3.64,20.07-7.82,3.48-2.32,4.88-4.12,4.11-8.34-1.8-9.81-3.1-19.71-4.54-29.58-.2-1.38-1.54-3.28,1.23-3.74,3.16,19.29,6.33,38.58,9.49,57.88Z" style="fill: #975e32; stroke-width: 0px;"/>
    <path d="M39.12,358.06c-12.19,7.04-25.51,9.06-39.12,9.74v8.65c.84.14,1.71.24,2.59.32,9.98.92,19.8-1.6,28.21-5.91,6.01-3.08,16.28-4.22,16.17-15.59-3.14,1.12-5.5,1.96-7.86,2.79Z" style="fill: #965d31; stroke-width: 0px;"/>
  </g>
</svg>