<?xml version="1.0" encoding="UTF-8"?>
<svg id="Layer_2" data-name="Layer 2" xmlns="http://www.w3.org/2000/svg" viewBox="0 0 599.46 1537.84">
  <g id="Scrollytelling_-llustrations" data-name="Scrollytelling -llustrations">
    <path d="M501.11,394.89c20.6,51.27,28.74,105.79,41.82,159.03,1.67,6.82-.22,10.21-6.33,12.43-6.83,2.48-13.57,5.21-20.35,7.83-8.59,9.27-20.63,11.89-30.83,6.72-1.65-11.89-.52-23.86-.38-35.78.26-21.44-1.87-42.66-3.67-58.01,4.2,25.17,4.13,56.41,3.1,87.69-.09,2.63,0,5.03.95,7.45,1.86,17.34,2.38,34.83,2.64,52.13.59,38.87,4.19,77.57,5.18,116.39.33,12.92,4.5,25.84-.75,38.66-10.06,10.11-23.74,8.32-35.96,9.91-53.52,6.99-107.37,8.05-161.28,7.1-5.06-.09-10.27.4-14.85-2.58-8.49-9.46-4.99-20.77-4.01-31.26,2.23-23.89,2.62-47.9,5.27-71.76.8-7.19-2.61-11.61-10.04-13.18-5.69-1.2-11.28-2.9-17.01-3.99-12.91-2.45-16.48-7.04-13.94-19.58,6.35-31.38,12.68-62.8,16.14-94.62,6.19-56.88,10.45-113.88-1.25-170.64-4.47-21.66-10.4-42.78-31.77-54.84-1.94-1.09-3.09-3.05-3.51-5.32,4.6-9.92,14.96-8.64,23.07-11.49,4.3-1.51,9.06-2.52,13.82-1.48,8.31,3.12,14.8,9.11,21.91,14.14,22.84,16.16,47.59,24.96,76.04,19.84,16.29-2.93,29.26-10.76,38.11-24.92,2.53-4.05,5.04-8.05,9.39-10.45,16.54-1.62,30.5,3.45,41.55,16.05,24.04,12.88,42.85,31.23,56.93,54.5Z" style="fill: #115595; stroke-width: 0px;"/>
    <path d="M258.37,329.18c-13.03.78-24.95,6.2-37.49,9.01-3,3.98-7.56,3.22-11.69,4.08-8.96,1.86-18.52,2.53-25.02,10.4-7.63,4.67-13.9,12.44-24.34,10.74-21.11-24.06-22.83-50.53-3.3-76.31,8.95-11.82,13.09-22.97,10.28-38.16-3.56-19.27,1.49-38.45,17.36-50.32,26.18-19.59,32.2-46.26,32.16-75.98-.08-61.56,40.24-108.31,106.79-119.85,28.01-4.86,55.73-3.74,82.93,6.07,39.36,14.19,66.4,51.41,66.97,93.38.23,17.08-1.83,34.23,1.73,51.19-7.11,1.11-8.68-4.37-9.88-9.14-1.68-6.68-2.76-13.51-3.16-20.47-1-17.5-7.91-36.45-17.59-49.65-2.17.25-2.9,2.1-3.69,3.64-13.49,26.3-34.79,44.59-60.38,58.23-9.02,4.8-15.78,11.03-20.66,20.15-8.53,15.91-19.57,17.7-33.73,6.31-6.23-5.01-11.19-11.5-18.36-15.43-10.98-6.01-21.47-3.89-28.97,6.03-13.35,17.65-6.99,44.17,13.79,52.05,11.61,4.4,16.55,10.85,17.64,22.92,1.84,20.27,6.32,40.42.36,60.66-5.36,18.18-13.94,33.63-33.68,39.9-6.13,1.95-11.94,3.06-18.04.53Z" style="fill: #d04c22; stroke-width: 0px;"/>
    <path d="M258.37,329.18c39.36-10.27,55.67-36.39,49.61-79.41-.61-4.32-1.15-8.65-1.7-12.98-1.58-12.53-1.42-23.81-18.72-28.77-18.68-5.35-26.28-32.03-18.07-49.92,9.4-20.49,29.08-25.17,46.41-10.83,5.6,4.63,10.39,10.27,16.12,14.72,9.4,7.29,17.58,5.81,21.88-5.17,4.92-12.55,13.88-19.41,25.26-25.51,29-15.55,51.89-37.29,63.79-70.58,12.71,20.55,21.4,40.52,23.46,63.25.92,10.15-.85,21.47,8.31,29.46,3.53,8.98,10.32,15.6,16.32,22.82,8.18,9.85,7.01,16.12-3.86,22.66-2.45,1.47-4.82,3.1-7.22,4.65-5.9,2.55-4.05,8.23-4.27,12.43-.55,10.56-2.13,20.91-3.99,31.27-5.91,32.99-33.56,44.36-62.3,43.58-1.8-.05-3.55-.76-5.36-.93-9.86-.91-10.82.73-12.27,10.18-1.74,11.38,3.46,19.07,10.81,26.28-15.72,33.65-45.34,46.09-85.49,36.49-23-5.5-41.54-18.33-58.75-33.69Z" style="fill: #fba778; stroke-width: 0px;"/>
    <path d="M159.82,363.41c7.05-4.17,14.09-8.34,21.14-12.51,25-11.29,48.1-2.08,57.59,23.28,9.15,24.46,12.34,50.08,13.32,75.97,2.65,69.83-4.98,138.71-19.48,206.95-4.13,19.42-7.25,22.61-25.97,20.29-7.26-.9-14.51-1.06-20.88-5.22-4.11-4.51-3.61-9.77-2.97-15.36,2.36-20.49,2-41.22,5.09-61.66.38-2.51-1.52-3.89-3.45-5.03-25.43-6.16-50.57-13.28-75.28-21.9-5.42-1.89-11.36-3.39-13.28-10.04-25.21-8.73-25.39-8.81-15.21-33.51,17.83-43.23,33.05-87.52,53.06-129.86,8.55-10.65,15.6-22.57,26.32-31.41Z" style="fill: #115595; stroke-width: 0px;"/>
    <path d="M402.61,326.38q-15.74-4.72-15.37-22.02c.09-3.99.32-7.99.3-11.98-.02-6.16,1.54-9.07,8.97-7.64,12.91,2.49,25.94,2.37,38.78-1.71,16.18-5.14,27.41-15.05,30.78-32.01,2.68-13.5,4.27-27.22,6.34-40.85.66-4.34.77-9.29,7.57-6.6-1.35,10.91,2.78,20.81,6.03,30.79,12.74,39.14,1.36,74.68-32,99.11-3.23,2.37-6.55,4.61-9.83,6.91-14.05-4.1-26.44-13.1-41.57-14.01Z" style="fill: #d04c23; stroke-width: 0px;"/>
    <path d="M279.89,801.67c50.46.51,100.93.84,151.22-4.37,19.81-2.05,39.66-3.95,59.17-8.23,4.48,2.65,4.51,7.12,4.69,11.52,1.19,28.7,5.71,57.12,7.26,85.79,2.69,19.75,4.11,39.66,7.08,59.4-2.8,5.95-1.29,12.09-.64,18.15.5,4.72,1.57,9.44-2.92,12.98-.3,24.94,1.38,49.77,4.16,74.53,1.94,17.23.25,19.45-16.67,21.91-3.21.47-6.35,1.4-9.51,2.13-4.99,7.6-13.2,6.78-20.59,7.5-32.38,3.17-64.76,6.66-97.39,5.32-15.42,1.35-30.95-.26-46.36,1.69-27.3.88-54.54-1.18-81.79-2.16-8.32-.3-16.71-.85-25.07-1.2-6.74-.28-13.05-1.41-17.8-6.79-4.55-1.15-9.1-2.33-13.66-3.45-13.37-3.28-14.4-4.72-11.09-17.85,5.2-20.66,10.61-41.26,15.93-61.88,5.43-3.09,10.62,7.07,15.64.68,3.71-4.72.53-10.39.08-15.65-.35-4.11,1.75-6.8,5.49-8.36,8.91-1.7,18.05-1.16,26.96-3.29,17.16-4.1,27.98-15.49,30.09-32.99,1.9-15.82,3.43-31.72,4.28-47.58,1.32-24.6,4.1-49.09,4.96-73.71.19-5.56.86-10.96,6.47-14.05Z" style="fill: #ebc283; stroke-width: 0px;"/>
    <path d="M194.75,1079.81c41.51,4.46,83.26,4.2,124.88,6.48,5.23,3.98,4.63,9.57,3.79,14.97-6.36,41.24-13.22,82.4-19.74,123.62-8.51,53.76-17.47,107.44-26.91,161.05-3.71,21.08,9.13,36.52,21.11,51.78,12.61,15.02,26.17,29.15,40.35,42.7,6.97,6.66,12.5,14.3,15.02,23.71,2.59,9.67-.55,16.69-9.96,18.47-20.86,3.95-41.94,3.16-62.94.41-2.16-.28-4.02-1.67-5.44-3.4-6.08-6.74-10.07-15.04-16.17-21.79,5.78,6.53,9.92,14.23,15.27,21.09-2.43,4.96-6.97,4.81-11.31,4.3-28.17-3.35-51.9-15.79-71.57-35.93-6.32-6.47-12.67-13.06-17.1-21.12-2.81-5.13-5.78-10.23-3.38-16.43-.04-24.75,5.74-48.91,7.59-73.48.46-6.14.92-12.28,1.11-18.44,1.61-51.82,5.35-103.53,8.3-155.28,1.42-24.98,3.4-49.92,4.61-74.89.78-15.94,3.77-31.77,2.5-47.81Z" style="fill: #fba778; stroke-width: 0px;"/>
    <path d="M365.5,1084.2c39.58-.65,79.03-3.06,118.23-8.75-4.2,39.38-4.28,79.04-8.29,118.47-2.76,27.09-3.32,54.41-5.14,81.6-1.89,28.26-4.06,56.5-6.24,84.73-1.18,15.3,5.12,27.17,17.49,35.25,21.65,14.14,43.81,27.49,65.75,41.17,4.47,5.08,10.66,7.56,16.41,10.62,3.56,1.89,7.06,3.9,9.96,6.58,3.39,3.13,4.62,7.44,3.5,12.02-1.21,4.96-5.23,7.61-9.71,7.31-9.11-.61-15.68,4.15-22.93,8.33-11.54,6.65-24.52,7.13-37.22,5.04-28.33-4.68-56.52-10.24-85.03-13.85-10.1-1.28-20.33-.94-30.38-3.12-9.01-1.96-17.63-4.56-25.14-10.03-5.52-4.03-9.52-9.03-9.27-16.4-3.1-16.11.96-31.98,1.93-47.9,1.49-24.41,2.27-48.71-.31-73.05-.62-5.81-.55-11.65-.56-17.48-.05-36.46.03-72.92-.03-109.39-.06-32.79,3.53-65.48,2.35-98.3-.17-4.84.47-9.51,4.64-12.85Z" style="fill: #fba778; stroke-width: 0px;"/>
    <path d="M206.21,976.44c-3.31,2.68-.41,4.98.24,7.6,1.75,7,4.15,15.04-3.41,19.64-7.67,4.66-12.49-1.95-17.11-7.05-1.2-1.93-2.56-3.67-5.16-2.32-12.38,6.4-20.33-.7-27.88-9.07-5.29-5.87-10.58-11.73-15.87-17.59-14.28-13.13-15.62-31.42-18.8-48.72-3.03-16.48-3.37-33.27-2.39-50.02.61-10.44-2.25-20.21-5.51-29.85-16.33-48.29-29.76-97.35-37.25-147.82-1.41-9.53-6.47-19.85.78-29.42-.54-33.58,10.23-65.16,17.3-97.38.55-2.5.09-6.3,4.52-6.22,29.43,10.82,59.18,20.62,89.89,27.23,4.27,4.58,2.01,9.41.68,14.31-6.25,23.11-14.59,45.6-20.3,68.85,7,40.79,11.52,81.93,17.93,122.8,1.8,11.48,3.43,22.99,4.55,34.55,1.58,16.29,7.2,30.83,16.59,44.31,10.64,15.27,19.37,31.62,23.57,50.02.73,3.22,1.2,6.43,1.19,9.72-.03,6.36-.25,13.06-7.47,15.43-6.92,2.27-11.68-2.23-15.77-7.21-1.53-1.86-2.56-4.1-4.59-7.29-1.44,16.47,5.99,30.57,4.28,45.52Z" style="fill: #fba778; stroke-width: 0px;"/>
    <path d="M73.84,661.79c6,59.5,21.72,116.77,40.28,173.34,4.68,14.28,7.69,28.45,6.82,43.71-1.74,30.76,4.28,60.35,16.07,88.78-13.65-2.29-27.3-4.57-40.96-6.86-20.01-3.81-40-7.79-59.29-14.5C9.12,936.65-.28,923.45,0,894.02c.27-27.12,7.19-53.36,11.5-79.94,7.64-47.09,15.74-94.1,23.11-141.23,1.32-8.44,4-12.33,12.98-11.55,8.7.75,17.49.37,26.25.49Z" style="fill: #0c2245; stroke-width: 0px;"/>
    <path d="M361.05,1445.35c2.83,9.61,11.06,12.9,19.17,16.23,15.84,6.51,32.92,5.42,49.43,7.48,25.28,3.16,50.19,8.34,75.31,12.27,17.03,2.66,33.25,2.65,46.58-10.58,2.52-2.5,5.26-3.32,8.93-2.49,4.72,1.07,11.72,3.98,13.21-2.37,1.48-6.28-2.32-12.69-9.15-15.85-4.28-1.99-8.62-3.9-12.74-6.19-2.63-1.47-4.12-4.07-4.48-7.17,19.19,7.59,36.29,18.11,48.88,34.93,4.63,6.18,4.47,11.58-1.35,17.36-7.51,7.46-16.58,12.19-26.31,15.06-47.9,14.14-96.82,22.4-146.61,27.19-51.56,4.96-103.19,8.44-154.78,5.64-54.88-2.98-109.34-10.82-160.35-33.57-.67-.3-1.29-.68-1.96-.97-8.19-3.62-14.65-9.52-14.9-18.55-.27-9.58,7.89-14.62,15.33-18.2,20.57-9.9,42.73-14.01,65.36-15.83,15.67,33.99,41.84,55.97,77.61,66.02,7.72,2.17,16.23,7.06,24.79,1.39l-.05.05c21.13,4.75,42.54,3.6,63.85,2.34,13.8-.82,15.98-5.91,10.59-18.64-4.61-10.86-13.18-18.28-21.45-25.82-11.35-10.35-20.58-22.46-30.56-33.96,2.79-4.28,7.26-5.14,11.59-4.36,13.75,2.46,27.6,1.39,41.41,1.83,5.45.18,10.1,1.39,12.63,6.79Z" style="fill: #f6b558; stroke-width: 0px;"/>
    <path d="M505.76,976.89c-.23-10.23-5.4-20.45-.14-30.7,1.46-.1,2.96-.17,4.27.56,13.03,7.32,18.63,5.49,25.03-8.22,5.57-11.93,7.98-26.75,7.06-43.5,1.52,13.84-1.95,34.55-7.81,45.04-3.29,5.89-7.42,11.49-15.11,10.5-7.98-1.02-9.78-7.79-11.02-14.43-2.39-12.86-2.42-25.99-4.48-38.9-.57-3.57-.4-7.36-4.11-9.55-5.41-16.27-4.27-33.43-6.5-50.12-2.13-16-3.62-32.24-2.68-48.51-1.82-36.23-3.86-72.46-5.38-108.7-1.31-31.2-2.02-62.43-3.04-93.65-.08-2.32.42-4.29,2.11-5.91.51-.83,1.15-.91,1.9-.33,10.52-.18,20.2-4.47,30.38-6.28,5.32,38.14,10.59,76.3,15.99,114.43,6.36,44.95,12.98,89.87,19.17,134.85,2.9,21.03,11.8,40.37,16.3,60.94,1.95,8.89,3.89,17.72,3.75,26.88-5.78,26.66-12.55,52.68-41.53,64.37-7.9,3.18-15.88,5.39-24.18,1.24Z" style="fill: #fba777; stroke-width: 0px;"/>
    <path d="M206.21,976.44c-2.54-1.11-4.07-2.98-4.44-5.76-1.84-13.67-3.8-27.33-5.45-41.03-.47-3.9-.88-9.45,3.68-10.23,4.95-.85,5.09,5.05,6.58,8.57.14.34.36.64.46.99,2.26,7.95,7.32,16.05,15.29,13.82,6.81-1.9,3.39-11.77,2.5-17.69-2.5-16.75-9.27-32.47-19.56-45.57-15.35-19.54-20.5-41.82-23.57-65.53-6.15-47.55-13.09-95-19.67-142.49-.15-1.06.12-2.17.19-3.26,8.48-7.42,16.13-4.09,23.58,1.82,10.13,1.17,20.32,1.97,30.36,3.65,5.6.94,7.95-.59,9.11-6.07,9.1-43.12,16.18-86.51,19.99-130.47,2.5-28.76,2.58-57.5,1.9-86.27-.52-21.89-3.69-43.5-9.63-64.62-7.91-28.11-18.98-36.23-47.82-35.42-2.91.08-5.83.01-8.74.01,10.71-12.38,24.81-14.12,39.91-12.71,23.66,7.79,31.36,27.91,37.04,49.02,11.91,44.25,10.64,89.47,8.14,134.59-2.75,49.86-10.76,99.03-21.99,147.66-1.42,6.16.95,7.82,6.03,8.68,6.45,1.1,12.92,2.17,19.3,3.64,17.19,3.96,18.3,5.63,16.92,22.95-1.99,25.02-4.01,50.04-5.83,75.08-.53,7.26-.42,14.56-.61,21.85-2.85,36.55-5.68,73.1-8.56,109.65-.77,9.77-1.12,19.62-2.67,29.28-3.64,22.68-19.88,34.91-47.21,36.13-5.07.23-10.16-.17-15.24-.28Z" style="fill: #0c2346; stroke-width: 0px;"/>
    <path d="M485.87,580.46l-.92.35s-.98-.02-.98-.02c-2.72-3.02-2.35-6.78-2.3-10.37.47-33.1-.68-66.08-6.27-98.8-.44-2.59-1.68-6.71,1.95-7.53,4.03-.91,3.83,3.37,4.46,6,5.34,22.4,6.85,45.21,6.38,68.12-.29,14.09,2.3,28.39-2.32,42.25Z" style="fill: #07305b; stroke-width: 0px;"/>
    <path d="M444.28,117.82c.18,2.94-1.79,3.62-4.1,3.95-7.39,1.08-13.56,4.65-19.33,9.2-1.47,1.16-3.08,3.72-5.45,1.56-2.3-2.1-.36-4.25.91-5.65,5.98-6.6,13.31-11.01,22.25-12.36,2.66-.4,5.14-.06,5.73,3.3Z" style="fill: #5a160d; stroke-width: 0px;"/>
    <path d="M451.86,237.06c-3.97-1.51-10.74,2.62-11.28-2.85-.64-6.49,6.62-2.88,10.2-4.26.32-.13.73-.15,1.08-.09,4.13.73,11.38-4.55,11.85,2.18.54,7.7-8.02,2.67-11.86,5.01Z" style="fill: #761f0e; stroke-width: 0px;"/>
    <path d="M448.83,160.9c-.03,4.44-.5,8.65-4.77,7.74-5.37-1.14-6.24-6.3-6.28-11.22-.03-3.28-.05-7.83,4.08-7.27,6.13.83,6.64,6.61,6.97,10.75Z" style="fill: #131220; stroke-width: 0px;"/>
    <path d="M229.39,489.25c3.53,4.72,1.89,8.17,1.08,11.63-6.36,27.4-17.14,53.4-25.55,80.16-.81,2.58-1.77,6.35-5.72,5.09-3.2-1.02-2.34-4.21-1.55-6.58,9.68-29.03,19.44-58.03,29.24-87.02.32-.96,1.27-1.7,2.49-3.27Z" style="fill: #07305b; stroke-width: 0px;"/>
    <path d="M346.26,1073.27c4.11-29.85,8.2-56.87,11.49-83.98,3.9-32.17,9.6-64.18,10.12-96.68.13-8.3,4.38-12.7,10.97-15.94,1.67-.82,3.57-.72,5.07.73,1.23,1.19,1.5,3.08.24,3.8-11.73,6.77-8.21,18.84-9.13,28.6-5.03,52.97-13,105.53-20.32,158.19-.5,3.57-.54,8.11-5.16,8.41-3.08.2-3.26-3.25-3.27-3.13Z" style="fill: #b56e40; stroke-width: 0px;"/>
    <path d="M499.46,887.69c7.43-4.95,7.13,2.32,7.67,5.58,1.48,8.94,1.93,18.04,2.94,27.06.68,6.13,1.36,12.28,2.53,18.33.74,3.87,1.81,8.34,6.55,9.1,4.56.73,7.38-2.87,9.58-6.12,7.18-10.62,8.84-22.92,9.69-35.29.5-7.24.11-14.54.18-21.81.02-2.23.42-4.8,3.08-4.87,1.82-.05,2.85,2.09,3.1,3.99,2.79,21.3,1.93,42.26-8.82,61.42-7.22,12.86-23.12,15.29-30.33,1.09-3.45-19.35-5.13-38.89-6.16-58.49Z" style="fill: #a85033; stroke-width: 0px;"/>
    <path d="M302.28,1484.37c12.03,7.45,18.72,18.89,24.61,30.93-1.14.87-2.28,1.74-3.41,2.61-8.09-10.36-16.18-20.72-24.26-31.08,1.02-.82,2.04-1.65,3.07-2.47Z" style="fill: #9f360d; stroke-width: 0px;"/>
    <path d="M273.04,1517.12c-2.04-.03-4.24,1.12-5.92-1.16-5.55-7.54-11.17-15.03-16.75-22.54-1.31-1.76-2.87-3.78-.58-5.58,1.62-1.28,3.56-.03,4.8,1.23,8.04,8.11,17.35,15.42,18.4,28.1,0,0,.47.42.47.42l-.43-.47Z" style="fill: #9f360d; stroke-width: 0px;"/>
    <path d="M301,1520.26c-10.54-10.44-16.04-21.66-23.73-32.09,10.13.26,23.13,17.06,23.73,32.09Z" style="fill: #9d360d; stroke-width: 0px;"/>
    <path d="M511.55,1446.89c12.01,3.02,24.11,5.91,34.17,13.69,2.12,1.64,5.32,4.15,2.73,7.15-2.3,2.67-4.54-.71-6.46-1.87-9.79-5.87-20.41-9.47-31.34-12.44-2.16-.59-5.63-1.12-4.6-4.75.77-2.72,3.28-2.31,5.51-1.79Z" style="fill: #9f350d; stroke-width: 0px;"/>
    <path d="M146.67,926.46c4.97,10.35,4.42,20.75,7.59,30.15,2.09,6.19,3.94,12.47,5.88,18.71.71,2.28,3.03,5.29-.11,6.69-3.26,1.45-5.46-1.64-6.45-4.36-4.7-12.98-9.13-26.07-9.39-40.09-.06-3.16-1.02-6.53,2.49-11.1Z" style="fill: #a34d31; stroke-width: 0px;"/>
    <path d="M166.22,943.59c.52-3.58-1.1-8.63,2.62-9,5.07-.51,3.5,4.94,4.16,8.1,2.44,11.67,4.84,23.34,7.19,35.03.6,3.01,2.89,7.15-1.47,8.38-3.57,1.01-4.03-3.46-4.83-5.94-3.9-12.06-6.09-24.5-7.67-36.56Z" style="fill: #a44e32; stroke-width: 0px;"/>
  </g>
</svg>