<?xml version="1.0" encoding="UTF-8"?><svg id="Layer_2" xmlns="http://www.w3.org/2000/svg" viewBox="0 0 3365.59 1596.6"><g id="_3-bottle-fish"><g id="_3-fish"><path d="M2665.65,753.18c-5.69-2.36-12.5-3.1-18.93-4.31-45.28-8.52-78.54-27.68-106.81-51.31-1.04-.87-2.79-2.33-2.3-2.95,5.28-6.76-.24-9.84-6.09-13.46-3.34-2.07.23-5.59,2.52-8.16,7.47-8.39,16.84-15.72,28.37-21.77,23.92-12.55,50.47-20.07,78.19-25.44,35.83-6.93,71.65-12.17,107.52-10.48,2.05.1,3.5-.8,5.05-1.58,12.6-1.8,22.79,1.94,33.45,4.19,26.64,5.61,49.1,15.89,71.21,26.46,3.38,1.62,5.61,3.77,5.84,6.83,18.89,9.54,36.12,20.46,55.85,29.29,2.77,1.24,5.13,3.16,9.29,2.64,10.22,10.53,9.4,22.37-2.22,32.25-4.44,3.77-9.54,6.66-16.64,6.82-21.02.58-40.96,5.03-59.93,13.04-14.94,9.3-31.77,14.46-50.72,15.03-22.73,3.77-45.38,4.98-68.02,5.6-10.81,4.28-21.55,3.24-32.03,2.43-11.56-.89-23.97-.39-33.62-5.1l.02-.02Z" fill="#f1702f"/><path id="_back-fin" d="M2909.98,722.19c7.04-4.07,14.89-7.4,18.79-13.71,3.95-6.36,4.65-12.17,1.02-17.85-1.48-2.32-3.26-4.61-.96-7.51,28.39-13.8,59.18-22.1,91.77-25.66,19-2.08,27.79,7.32,18.96,19.77-7.86,11.08-21.86,18.6-35.32,26.3-13.66,7.82-13.98,7.72-8.87,17.84,3.8,7.52,6.13,15.4,8.43,23.29,1.53,5.24-.8,10.42-4.97,15.22-5.62,6.46-15.55,7.81-26.71,4.24-24.35-7.8-41.88-20.51-56.09-35.62-1.99-2.12-4.03-4.21-6.05-6.31h0Z" fill="#de5721"/><path d="M2863.69,651.2c-31.1-16.85-64.88-30.61-106.06-35.88-1.63-.21-2.97-1.05-4.44-1.6,1.92-1.95,4.84-2.96,7.72-3.77,27.87-7.92,56.06-12.47,83.54-7.66,36.51,6.39,43.75,25.89,19.24,48.91Z" fill="#de5721"/><path d="M2799.33,750.25c17.3-4.15,33.82-10,50.72-15.03,2.08,3.66,4.2,7.3,4.72,11.41.9,7.09-3.01,10.5-13.8,12-13.7,1.9-24.38-1.94-35.12-5.62-2.29-.78-4.34-1.83-6.51-2.75h0Z" fill="#df5721"/><path id="front-right-fin" d="M2665.65,753.18c20.81.61,40.72,4.58,62.41,1.96,1.06-.13,2.16.45,3.24.7-2.88,13.61-11.25,17.66-30.01,14.46-15.34-2.61-25.51-9.87-35.64-17.13h0Z" fill="#de5620"/><path id="front-left-fin" d="M2737.95,697.63c9.12-2.19,20.09-1.83,31.01-2.58,17.87-1.23,24.5,5.23,17.78,16.87-5.46,9.46-13.07,17.99-27.7,22.79-15.82,5.19-27.67.36-39.73-3.61-5.9-1.94-11.2-4.63-16.55-7.18-9.64-4.61-8.37-13.39,2.54-18.63,9.66-4.64,9.92-4.7,32.65-7.67h0Z" fill="#dd5521"/><path d="M2650.85,725.03c33.76-22.68,42.02-47.14,33.25-73.78,12.85,8.01,14.58,27.27,4.65,46.19-6.48,12.35-22.98,25.08-37.9,27.6h0Z" fill="#d3461a"/><path d="M2628.64,669.9c.49,6.17-3.15,10.3-9.78,11.12-7.22.89-13.19-3.67-13.59-10.38-.33-5.6,3.84-10.45,9.55-11.1,7.06-.8,13.31,3.88,13.83,10.35h-.01Z" fill="#143058"/></g><g id="_3-bottle" opacity=".5"><path d="M2922.25,649.42l-32.61-12.63c-15.03-24.7-31.98-41.38-50.93-49.72l-79.86-7.52c-8.49,10.55-37.43,49.46-38.86,91.04-1.67,48.76,20.04,103.38,20.04,103.38l-88.91-11.54s-27.73-35.67-20.44-101.25c6.19-55.67,34.33-82.76,42.7-89.68l-104.53-9.84s-65.92,14.09-72.23,90.81c-6.3,76.72,56.15,105.79,56.15,105.79l183.81,16.65,100.8,9.13s8.28-.91,28.89-16.82c20.6-15.91,34.32-33.08,34.32-33.08l18.19,9.41,6.72.77,6.8-94.18-10.06-.73h.01Z" fill="#e4f0f4"/><path d="M2630.68,661.19c-7.29,65.58,20.44,101.25,20.44,101.25l88.91,11.54s-21.71-54.62-20.04-103.38c1.42-41.58,30.37-80.5,38.86-91.04l-85.47-8.05c-8.37,6.92-36.51,34.01-42.7,89.68Z" fill="#86ea9b"/></g></g></svg>