<?xml version="1.0" encoding="UTF-8"?><svg id="Layer_2" xmlns="http://www.w3.org/2000/svg" viewBox="0 0 3365.59 1596.6"><g id="_3-bubbles" opacity=".8"><path id="_3-bubble-8" d="M1058.37,299c12.88-.15,22.12,8.65,22.41,21.35.3,13.22-8.11,22.18-21.05,22.44-13.76.27-22.86-8.38-22.91-21.78-.04-13.08,8.54-21.86,21.55-22.01Z" fill="#469dc0"/><path id="_3-bubble-7" d="M1373.34,582.49c12.88-.15,22.12,8.65,22.41,21.35.3,13.22-8.11,22.18-21.05,22.44-13.76.27-22.86-8.38-22.91-21.78-.04-13.08,8.54-21.86,21.55-22.01h0Z" fill="#469dc0"/><path id="_3-bubble-6" d="M2008.08,369.81c12.88-.15,22.12,8.65,22.41,21.35.3,13.22-8.11,22.18-21.05,22.44-13.76.27-22.86-8.38-22.91-21.78-.04-13.08,8.54-21.86,21.55-22.01Z" fill="#469dc0"/><path id="_3-bubble-5" d="M2067.63,1201.69c12.88-.15,22.12,8.65,22.41,21.35.3,13.22-8.11,22.18-21.05,22.44-13.76.27-22.86-8.38-22.91-21.78-.04-13.08,8.54-21.86,21.55-22.01h0Z" fill="#469dc0"/><path id="_3-bubble-4" d="M2220.16,498.04c12.88-.15,22.12,8.65,22.41,21.35.3,13.22-8.11,22.18-21.05,22.44-13.76.27-22.86-8.38-22.91-21.78-.04-13.08,8.54-21.86,21.55-22.01h0Z" fill="#469dc0"/><path id="_3-bubble-3" d="M346.1,944.84c12.88-.15,22.12,8.65,22.41,21.35.3,13.22-8.11,22.18-21.05,22.44-13.76.27-22.86-8.38-22.91-21.78-.04-13.08,8.54-21.86,21.55-22.01h0Z" fill="#469dc0"/><path id="_3-bubble-2" d="M184.25,748.73c12.88-.15,22.12,8.65,22.41,21.35.3,13.22-8.11,22.18-21.05,22.44-13.76.27-22.86-8.38-22.91-21.78-.04-13.08,8.54-21.86,21.55-22.01h0Z" fill="#469dc0"/><path id="_3-bubble-1" d="M2999.09,378.69c12.88-.15,22.12,8.65,22.41,21.35.3,13.22-8.11,22.18-21.05,22.44-13.76.27-22.86-8.38-22.91-21.78-.04-13.08,8.54-21.86,21.55-22.01Z" fill="#469dc0"/></g></svg>