<?xml version="1.0" encoding="UTF-8"?><svg id="Layer_2" xmlns="http://www.w3.org/2000/svg" viewBox="0 0 3365.59 1596.6"><path id="_3-paper" d="M1976.28,1129.4c-8.38.12-15.25-4.11-21.31-9.33-20.42-17.58-40.86-35.15-59.61-54.55-3.28-3.39-6.43-7.02-9.01-10.95-6.71-10.22-5.05-18.6,5.69-24.55,20.92-11.59,39.87-25.32,53.89-45.1,1.87-2.63,4.52-4.74,6.96-6.93,12.93-11.62,22.22-9.01,25.33,8,3.63,19.88,16.82,33.57,29.5,47.33,15.79,17.13,32.94,32.99,49.25,49.65,4.6,4.69,12.38,9.52,9.1,16.82-3.23,7.17-11.86,9.11-19.63,9.67-7.25.52-14.57.14-21.85.32-11.91.3-22.9,2.83-31.92,11.62-4.35,4.24-9.37,8.22-16.38,8h0Z" fill="#f8f0d0"/><path id="_3-plastic-bag" d="M731.04,443.48c.99-14.17-1.56-27.8-9.67-39.3-13.24-18.78-28.24-23.15-47.25-7.72-6.05,4.91-10.53,11.13-14.86,17.52-11.43,16.87-23.51,33.28-40.22,45.37-24.41,17.64-52.7,15.57-68.97-11.05-11.98-19.6-25.02-38.43-42.06-54.11-5.19-4.77-10.91-8.89-17.99-10.27-12.36-2.42-24.98,5.31-31.49,19.24-8.89,18.99-5.81,38.27-.97,57.49,1.99,7.89,4.42,15.58,3.63,23.98-2.01,21.43-12.55,38.73-25.8,54.79-8.02,9.72-17.09,18.56-24.35,28.92-5.5,7.85-8.64,16.15-7.67,26.15,1.62,16.61,11.41,27.61,27.85,30.06,12.67,1.89,25.14.05,37.52-2.22,12-2.2,23.24-.57,33.81,5.34,14.05,7.86,28.91,12.98,45.09,13.75,30.03,5.4,58.9.08,87.39-9.25,39.3-12.87,60.26-40.49,65.55-80.82,2.29-17.46,6.64-34.3,14.21-50.29,8.64-18.26,14.84-37.24,16.27-57.58h-.02ZM515.86,475.69c-9.01,5.66-19.27,7.4-25.56-4.41-6.21-11.65-8.53-24.52-10.08-37.46-.77-6.43-1.82-12.95-.29-21.11.5-1.84-.9-6.97,3.41-8.1,4.15-1.09,7.27,2.88,9.58,5.96,13.56,18.13,20.32,39.06,24.59,60.97.36,1.86-.04,3.15-1.64,4.15h-.01ZM695.15,482c-4.71,11.26-16.1,16.76-25.9,12.68-10.48-4.36-14.64-15.13-9.92-26.89,8.23-20.51,19.59-39.44,30.31-58.68,3.28-5.88,6.99-5.7,10.23.32,6.52,12.1,5.81,25.11,3.79,39.95-.99,10.1-3.9,21.59-8.51,32.61h0Z" fill="#f9f0d0"/></svg>