<?xml version="1.0" encoding="UTF-8"?>
<svg id="Layer_2" data-name="Layer 2" xmlns="http://www.w3.org/2000/svg" viewBox="0 0 1076.27 550.71">
  <g id="Scrollytelling_-llustrations" data-name="Scrollytelling -llustrations">
    <path d="M25.59,518.26c27.7-32.97,60.15-58.59,101.39-73.11,42.86-15.09,87.81-16.29,132.06-21.44,24.81-2.89,45.02-12.67,64.31-26.97,24.44-18.12,39.21-44.71,59.01-66.89,21.02-23.54,44.97-42.49,73.64-55.17,42.45-18.77,87.9-25.37,133.47-30.87,48.33-5.83,90.11-25.42,125.07-58.99,17.1-16.42,29.8-36.48,43.52-55.77,36.87-51.82,87.43-85.48,146.84-107,34.58-12.52,70.29-19.15,106.7-20.79,21.46-.97,43.17-2.55,64.67.52v548.9H0c7.7-11.42,16.7-21.86,25.59-32.44Z" style="fill: #085f8e; stroke-width: 0px;"/>
  </g>
</svg>