<?xml version="1.0" encoding="UTF-8"?>
<svg id="Layer_2" data-name="Layer 2" xmlns="http://www.w3.org/2000/svg" viewBox="0 0 3365.59 1596.6">
  <g id="Scrollytelling_-llustrations" data-name="Scrollytelling -llustrations">
    <g id="_3-scene" data-name="3-scene">
      <path id="_3-sand" data-name="3-sand" d="M2.37,1595.09h3362.74V186.5s-208.09-24.55-953.97-46.37C1665.25,118.31,2.37,325.63,2.37,325.63v1269.46Z" style="fill: #fdc858; stroke-width: 0px;"/>
      <path id="_3-water-2" data-name="3-water-2" d="M0,1564.69c764.93,13.42,1119.63,2.82,1295.12-12.29,40.88-3.52,190.76-17.5,392.38-11.02,146.11,4.7,253.47,18.03,281.14,21.25,173.33,20.22,545.53,31.99,1396.47,2.06V67.45c-100.77-13.66-250.61-30.97-432.8-40.31-426.12-21.86-592.01,22.25-959.32,35.9-653.01,24.27-627.55-96.59-1241.69-53.78L2.22,82.72,0,1564.69Z" style="fill: #98e9f4; stroke-width: 0px;"/>
      <path id="_3-water-1" data-name="3-water-1" d="M0,1574.54c706.93-.21,1038.44-8.24,1208.97-16.19,66.64-3.11,180.32-4.87,407.67-8.4,71.84-1.11,160.42-2.26,276.57,7.03,101.24,8.1,175.16,20.27,190.48,22.65,123.6,19.25,452.61,27.67,1281.42-5.09V144.56c-233.65,134.22-394.66,136.39-500.39,111.13-54.87-13.11-93.77-33.34-187.43-48.43-93.89-15.12-138.74-8.3-327.62,0-230.02,10.11-346.88,14.89-437.33,1.56-72.51-10.68-106.39-22.08-190.48-26.56-97.19-5.17-137.2,5.51-243.81,12.5-68.15,4.47-211.69,13.24-359.62-7.81-155.86-22.18-141.21-52.52-275.81-73.42-205.6-31.92-229.25,40.51-493.71,28.12C193.04,134.35,2.13,99.86,2.13,99.86L0,1574.54Z" style="fill: #1572a4; stroke-width: 0px;"/>
      <g id="_3-bottle-fish" data-name="3-bottle-fish">
        <g id="_3-fish" data-name="3-fish">
          <path d="M2665.65,753.18c-5.69-2.36-12.5-3.1-18.93-4.31-45.28-8.52-78.54-27.68-106.81-51.31-1.04-.87-2.79-2.33-2.3-2.95,5.28-6.76-.24-9.84-6.09-13.46-3.34-2.07.23-5.59,2.52-8.16,7.47-8.39,16.84-15.72,28.37-21.77,23.92-12.55,50.47-20.07,78.19-25.44,35.83-6.93,71.65-12.17,107.52-10.48,2.05.1,3.5-.8,5.05-1.58,12.6-1.8,22.79,1.94,33.45,4.19,26.64,5.61,49.1,15.89,71.21,26.46,3.38,1.62,5.61,3.77,5.84,6.83,18.89,9.54,36.12,20.46,55.85,29.29,2.77,1.24,5.13,3.16,9.29,2.64,10.22,10.53,9.4,22.37-2.22,32.25-4.44,3.77-9.54,6.66-16.64,6.82-21.02.58-40.96,5.03-59.93,13.04-14.94,9.3-31.77,14.46-50.72,15.03-22.73,3.77-45.38,4.98-68.02,5.6-10.81,4.28-21.55,3.24-32.03,2.43-11.56-.89-23.97-.39-33.62-5.1Z" style="fill: #f1702f; stroke-width: 0px;"/>
          <path id="_3-fin" data-name="3-fin" d="M2909.98,722.19c7.04-4.07,14.89-7.4,18.79-13.71,3.95-6.36,4.65-12.17,1.02-17.85-1.48-2.32-3.26-4.61-.96-7.51,28.39-13.8,59.18-22.1,91.77-25.66,19-2.08,27.79,7.32,18.96,19.77-7.86,11.08-21.86,18.6-35.32,26.3-13.66,7.82-13.98,7.72-8.87,17.84,3.8,7.52,6.13,15.4,8.43,23.29,1.53,5.24-.8,10.42-4.97,15.22-5.62,6.46-15.55,7.81-26.71,4.24-24.35-7.8-41.88-20.51-56.09-35.62-1.99-2.12-4.03-4.21-6.05-6.31Z" style="fill: #de5721; stroke-width: 0px;"/>
          <path d="M2863.69,651.2c-31.1-16.85-64.88-30.61-106.06-35.88-1.63-.21-2.97-1.05-4.44-1.6,1.92-1.95,4.84-2.96,7.72-3.77,27.87-7.92,56.06-12.47,83.54-7.66,36.51,6.39,43.75,25.89,19.24,48.91Z" style="fill: #de5721; stroke-width: 0px;"/>
          <path d="M2799.33,750.25c17.3-4.15,33.82-10,50.72-15.03,2.08,3.66,4.2,7.3,4.72,11.41.9,7.09-3.01,10.5-13.8,12-13.7,1.9-24.38-1.94-35.12-5.62-2.29-.78-4.34-1.83-6.51-2.75Z" style="fill: #df5721; stroke-width: 0px;"/>
          <path d="M2665.65,753.18c20.81.61,40.72,4.58,62.41,1.96,1.06-.13,2.16.45,3.24.7-2.88,13.61-11.25,17.66-30.01,14.46-15.34-2.61-25.51-9.87-35.64-17.13Z" style="fill: #de5620; stroke-width: 0px;"/>
          <path d="M2737.95,697.63c9.12-2.19,20.09-1.83,31.01-2.58,17.87-1.23,24.5,5.23,17.78,16.87-5.46,9.46-13.07,17.99-27.7,22.79-15.82,5.19-27.67.36-39.73-3.61-5.9-1.94-11.2-4.63-16.55-7.18-9.64-4.61-8.37-13.39,2.54-18.63,9.66-4.64,9.92-4.7,32.65-7.67Z" style="fill: #dd5521; stroke-width: 0px;"/>
          <path d="M2650.85,725.03c33.76-22.68,42.02-47.14,33.25-73.78,12.85,8.01,14.58,27.27,4.65,46.19-6.48,12.35-22.98,25.08-37.9,27.6Z" style="fill: #d3461a; stroke-width: 0px;"/>
          <path d="M2628.64,669.9c.49,6.17-3.15,10.3-9.78,11.12-7.22.89-13.19-3.67-13.59-10.38-.33-5.6,3.84-10.45,9.55-11.1,7.06-.8,13.31,3.88,13.83,10.35Z" style="fill: #143058; stroke-width: 0px;"/>
        </g>
        <g id="_3-bottle" data-name="3-bottle" style="opacity: .5;">
          <path d="M2922.25,649.42l-32.61-12.63c-15.03-24.7-31.98-41.38-50.93-49.72l-79.86-7.52c-8.49,10.55-37.43,49.46-38.86,91.04-1.67,48.76,20.04,103.38,20.04,103.38l-88.91-11.54s-27.73-35.67-20.44-101.25c6.19-55.67,34.33-82.76,42.7-89.68l-104.53-9.84s-65.92,14.09-72.23,90.81c-6.3,76.72,56.15,105.79,56.15,105.79l183.81,16.65,100.8,9.13s8.28-.91,28.89-16.82c20.6-15.91,34.32-33.08,34.32-33.08l18.19,9.41,6.72.77,6.8-94.18-10.06-.73Z" style="fill: #e4f0f4; stroke-width: 0px;"/>
          <path d="M2630.68,661.19c-7.29,65.58,20.44,101.25,20.44,101.25l88.91,11.54s-21.71-54.62-20.04-103.38c1.42-41.58,30.37-80.5,38.86-91.04l-85.47-8.05c-8.37,6.92-36.51,34.01-42.7,89.68Z" style="fill: #86ea9b; stroke-width: 0px;"/>
        </g>
      </g>
      <g id="_3-bubbles" data-name="3-bubbles">
        <path id="_3-bubble-8" data-name="3-bubble-8" d="M1058.37,299c12.88-.15,22.12,8.65,22.41,21.35.3,13.22-8.11,22.18-21.05,22.44-13.76.27-22.86-8.38-22.91-21.78-.04-13.08,8.54-21.86,21.55-22.01Z" style="fill: #469dc0; stroke-width: 0px;"/>
        <path id="_3-bubble-7" data-name="3-bubble-7" d="M1373.34,582.49c12.88-.15,22.12,8.65,22.41,21.35.3,13.22-8.11,22.18-21.05,22.44-13.76.27-22.86-8.38-22.91-21.78-.04-13.08,8.54-21.86,21.55-22.01Z" style="fill: #469dc0; stroke-width: 0px;"/>
        <path id="_3-bubble-6" data-name="3-bubble-6" d="M2008.08,369.81c12.88-.15,22.12,8.65,22.41,21.35.3,13.22-8.11,22.18-21.05,22.44-13.76.27-22.86-8.38-22.91-21.78-.04-13.08,8.54-21.86,21.55-22.01Z" style="fill: #469dc0; stroke-width: 0px;"/>
        <path id="_3-bubble-5" data-name="3-bubble-5" d="M2067.63,1201.69c12.88-.15,22.12,8.65,22.41,21.35.3,13.22-8.11,22.18-21.05,22.44-13.76.27-22.86-8.38-22.91-21.78-.04-13.08,8.54-21.86,21.55-22.01Z" style="fill: #469dc0; stroke-width: 0px;"/>
        <path id="_3-bubble-4" data-name="3-bubble-4" d="M2220.16,498.04c12.88-.15,22.12,8.65,22.41,21.35.3,13.22-8.11,22.18-21.05,22.44-13.76.27-22.86-8.38-22.91-21.78-.04-13.08,8.54-21.86,21.55-22.01Z" style="fill: #469dc0; stroke-width: 0px;"/>
        <path id="_3-bubble-3" data-name="3-bubble-3" d="M346.1,944.84c12.88-.15,22.12,8.65,22.41,21.35.3,13.22-8.11,22.18-21.05,22.44-13.76.27-22.86-8.38-22.91-21.78-.04-13.08,8.54-21.86,21.55-22.01Z" style="fill: #469dc0; stroke-width: 0px;"/>
        <path id="_3-bubble-2" data-name="3-bubble-2" d="M184.25,748.73c12.88-.15,22.12,8.65,22.41,21.35.3,13.22-8.11,22.18-21.05,22.44-13.76.27-22.86-8.38-22.91-21.78-.04-13.08,8.54-21.86,21.55-22.01Z" style="fill: #469dc0; stroke-width: 0px;"/>
        <path id="_3-bubble-1" data-name="3-bubble-1" d="M2999.09,378.69c12.88-.15,22.12,8.65,22.41,21.35.3,13.22-8.11,22.18-21.05,22.44-13.76.27-22.86-8.38-22.91-21.78-.04-13.08,8.54-21.86,21.55-22.01Z" style="fill: #469dc0; stroke-width: 0px;"/>
      </g>
      <g id="_3-turtle" data-name="3-turtle">
        <g>
          <path d="M1143.41,1055.59c.51-76.39,9.5-97.1,18.97-99.01,3.78-.76,5.8,1.84,20.41,4.27,12.41,2.06,22.26,2.07,30.28,2.05,22.93-.08,23.31-3.42,28.96-1.71,26.38,8.02,26.91,83.63,27.2,123.21.17,23.72-.99,43.43-2.11,57.2-9.92,36.25-23.3,62.68-33.42,79.73-5.58,9.39-10.54,16.59-14.09,21.67-13.03,18.63-27.89,35.81-44.53,51.37-2.88,2.69-6.02,5.23-9.39,7.26-16.74,10.09-30.8,3.14-32.37-16.34-1.8-22.41.91-40.61,1.2-41.59,13.81-47.6,17.94-111.7,14.49-152.19-1.35-15.82-3.88-28.46-5.59-35.93Z" style="fill: #578a35; stroke-width: 0px;"/>
          <path d="M606.57,1145.23c-14.52-7.01-29.09-13.93-43.54-21.08-8.38-4.15-16.11-9.26-15.88-20.07.22-9.91,6.9-14.9,14.68-20.08,13.64-9.09,24.98-19.88,32.1-36.07,55.92-127.15,151.67-208.02,287.07-239.47,58.11-13.5,117.2-12.35,175.19,4.07,23.18,6.56,43.95,18.22,62.82,33.12,5.57,4.39,10.83,8.98,17.38,12.06,6.49,3.05,7.71,10.15,10.2,16.04,1.75,4.13,2.25,8.81,5.59,12.21,2.18,1.56,2.38,3.73,1.87,6.1-10.73,12.97-15.28,28.96-20.72,44.33-13.87,39.17-34.28,74.01-65.13,102.26-14.87,13.62-30.96,25.71-47.74,36.89-10.73,6.74-21.18,13.88-32.3,20.04-21.25,11.78-42.45,23.58-65.66,31.2-2.29.39-4.04,1.94-6.11,2.83-35.78,12.03-71.57,24.01-109.1,29.46-33.72,4.89-67.58,7.82-101.71,6.07-27.55-1.38-54.96-4.14-81.81-10.65-6.27-1.52-13.71-2.06-17.18-9.28Z" style="fill: #6b571e; stroke-width: 0px;"/>
          <path d="M1019.13,1072.99c16.22-12.8,33.35-24.42,48.45-38.67,28.48-26.88,48.13-59.19,61.06-95.93,2.28-6.47,4.52-23,16.85-38.91,6.14-7.92,12.64-13.23,17.09-16.43,4.82,7.94,12.82,19.11,25.37,29.56,4.72,3.93,13.55,10.65,32.02,19.02,14.59,6.61,36.38,14.8,64.87,19.67-13.99,26.75-37.73,64.16-76.61,99.67-25.05,22.88-49.79,38.96-70.29,50.16-4.31-20.04-8.38-38.51-8.71-38.42-.02,0-.21.12-.2.14,0,.02.17-.04.18-.04.36-.06,6.48,29.15,7.98,46.26,4.04,46.02-17.3,97.02-25.39,114.74-27.68,60.65-74.04,104.58-127.96,141.6-22.64,15.54-46.41,28.55-74.19,32.35-6.52.89-12.98.97-19.46-.54-11.52-2.67-17.31-10.93-15.3-22.55,1.78-10.29,6.8-19.17,12.6-27.67,39.84-58.42,70.14-121.71,96.04-187.27-2.46-3.58-.93-7.09.41-10.46,8.82-22.25,19.29-43.81,27.65-66.27,1.45-3.9,4.42-7.13,7.55-10.01Z" style="fill: #7ea341; stroke-width: 0px;"/>
          <path d="M1165.81,854.14c9.63-28.54,20.58-56.47,40.04-80.04,31.68-38.36,71.92-59.01,122.33-57,21.28.85,41.47,6.98,59.33,18.71,36.22,23.79,63.13,54.94,73.83,97.99,2.47,9.93,3.11,20.15,1.13,30.35-5.42,4.89-12.51,3.56-18.68,4.04-27.09,2.12-51.96,10.67-75.55,23.62-6.53,3.58-13.89,5.82-20.49,12.15,5,.2,7.71-1.97,10.54-3.45,21.59-11.27,42.97-23.13,67.34-27.37,6.21-1.08,13.23-4.29,18.86,2.07.16,5.75-2.49,10.12-6.34,14.22-24.52,26.08-53.83,44.38-88.14,54.63-6.04,7.68-15.33,7.05-23.36,7.92-50.49,5.48-95.59-9.77-137-37.57-8.48-5.69-15.68-13.21-21.6-21.53-8.71-12.23-11.01-25.29-2.25-38.75Z" style="fill: #7ea342; stroke-width: 0px;"/>
          <path d="M606.57,1145.23c32.1,11.41,65.74,13.62,99.26,16.59,2.06,9.78-2.14,17.18-8.97,23.57-.92,1.04-2.14,1.93-2.73,3.14-27.62,56.91-74.09,91.9-132.19,113.1-26.59,9.7-53.98,15.68-82.52,12.05-19.27-2.45-26.66-14.15-20.39-32.57,9.77-28.74,29.14-50.96,50.75-71.38,16.62-15.7,36.1-27.39,55.95-38.45,14.14-7.87,27.82-16.43,40.84-26.05Z" style="fill: #7ea341; stroke-width: 0px;"/>
          <path d="M696.86,1185.39c1.67-8.36,6.02-15.7,8.97-23.57,43.29.63,86.26-2.1,128.6-11.77,27.97-6.39,55.13-15.55,82.39-24.34,3.79-1.5,6.04,1.12,7.87,3.48,10.4,13.49,21.33,26.45,34.56,37.32,1.51,1.24,2.75,2.94,1.98,5.21-29.22,10.84-59.45,17.7-90.18,22.33-15.08,2.27-30.31,3.65-45.5,5.14-5.01.49-10.29-1.36-14.96,1.88-1.73,2.65-4.37,3.31-7.3,3.45-24.93,1.24-49.41-2.09-73.7-7.27-2.89-.62-4.94-2.59-6.69-4.87-8.68-2.33-17.35-4.66-26.03-6.99Z" style="fill: #eabf56; stroke-width: 0px;"/>
          <path d="M722.89,1192.38c24.53,4.36,49.03,9.07,74.11,8.9,4.53-.03,9.06-.14,13.59-.21,2.4,12.33-3.32,22.39-9.62,31.96-11.3,17.16-26.03,31.32-41.45,44.72-12.42,10.79-25.83,20.28-40.19,28.35-5.2,2.92-10.69,5.23-16.62,6.26-13.89,2.41-22.92-4.97-22.51-19.07.38-13.24,5.61-25.29,10.49-37.37,8.93-22.1,22.39-41.89,32.2-63.53Z" style="fill: #568a34; stroke-width: 0px;"/>
          <path d="M1019.13,1072.99c-10.53,29.46-24.01,57.71-35.6,86.74-4.82,2.24-9.39,5.13-14.81,5.85-3.1,1.92-6.14,1.21-8.7-.8-14.64-11.46-26.66-25.41-37.73-40.23,23.62-10.72,47.03-21.84,69.35-35.12,9.17-5.46,18.32-10.96,27.48-16.44Z" style="fill: #ebbf56; stroke-width: 0px;"/>
          <path d="M1444.5,875.22c-24.06-.49-45.42,8.5-66.3,19.04-9.11,4.6-18.14,9.39-26.95,14.54-4.79,2.8-5.89-1.27-8.01-3.43-3.05-3.11-.03-4.41,2.1-5.63,36.31-20.83,73.82-37.74,117.13-35.59,1.36,7.27-1.51,10.28-8.98,9.65-2.94-.25-5.99.9-8.99,1.42Z" style="fill: #317236; stroke-width: 0px;"/>
          <path d="M1106.27,1194.42c.11,10.94-3.68,19.02-9.45,26.26-2.9,3.63-6.96,5.06-11.4,3.54-4.44-1.52-6.5-4.92-6.61-9.79-.19-8.75,2.04-16.85,6.37-24.29,2.8-4.8,5.76-10.77,12.71-9.12,7.46,1.77,8.58,8.15,8.37,13.39Z" style="fill: #387634; stroke-width: 0px;"/>
          <path d="M1102.99,1137.47c.18,11.82-4.13,18.9-11.03,19.04-6.25.13-11.6-6.83-12.71-16.66-.61-5.44.33-10.68,2.41-15.71,1.62-3.91,4.1-6.75,8.81-6.59,4.35.15,7.44,2.18,9.37,6.1,2.28,4.65,3.38,9.54,3.15,13.82Z" style="fill: #387633; stroke-width: 0px;"/>
          <path d="M1072.05,1174.16c.14,7.59-7,15.99-12.84,15.49-4.8-.42-7.6-3.35-7.78-8.42-.22-6.33,6.91-14.04,13.2-14.29,5.74-.23,7.12,3.44,7.42,7.23Z" style="fill: #367433; stroke-width: 0px;"/>
          <path d="M1290.07,813.27c-.67-9.34,3.9-16.73,14.53-20.46,6.38-2.24,12.5-5.21,18.77-7.78,12.67-5.19,14.02-4.89,23.71,4.91,11.12,11.24,13.86,24.76,7.86,38.79-5.53,12.94-19.36,21.61-33.87,21.22-16.89-.45-31.1-16.51-31.01-36.68Z" style="fill: #fbf3d5; stroke-width: 0px;"/>
          <path d="M1291.14,793.8c-3.05.12-4.71-.84-5.39-2.96-.89-2.79-.12-5.51,2.7-6.28,14.25-3.86,27.65-9.76,41.08-15.77,4.89-2.19,7.97,2.29,9.79,5.96,1.16,2.35-.58,5.34-3.92,4.89-15.06-2.01-26.68,7.29-39.74,11.81-1.81.63-3.44,1.78-4.52,2.34Z" style="fill: #2e7032; stroke-width: 0px;"/>
          <path d="M1264.99,759.04c-.16,8.1-7.54,15.76-15.09,15.36-4.93-.26-7.69-2.71-7.58-8.13.16-8.36,7.45-17.1,14.76-16.96,6.28.12,8.02,4.26,7.91,9.73Z" style="fill: #357433; stroke-width: 0px;"/>
          <path d="M1440.5,832.73c.05,3.35-.95,5.55-4.96,4.64-7.48-1.7-11.39-7.19-13.53-13.81-1.13-3.51,1.31-6.04,5.21-5.79,5.32.33,13.21,9.43,13.28,14.97Z" style="fill: #337333; stroke-width: 0px;"/>
          <path d="M1219.99,797.37c-4.75-.18-7.65-3.06-7.58-7.4.08-4.97,3.89-7.62,8.64-7.3,4.18.28,7.82,2.62,7.65,7.47-.18,5.24-3.87,7.09-8.71,7.23Z" style="fill: #327333; stroke-width: 0px;"/>
          <path d="M560.47,1273.63c-.2-8.37,7.09-16.32,15.2-16.39,5.98-.05,9.88,2.9,10.28,8.95.5,7.42-8.96,16.16-17.11,15.98-5.32-.12-8.41-2.93-8.37-8.54Z" style="fill: #377634; stroke-width: 0px;"/>
          <path d="M608.08,1243.64c-4.09-.13-7.95-1.8-8.35-7.62-.52-7.53,5.91-14.5,13.46-14.72,6.55-.19,9.33,3.75,9.64,9.49.32,5.89-7.32,12.66-14.76,12.85Z" style="fill: #367533; stroke-width: 0px;"/>
          <path d="M518.07,1264.6c.48-4.75,3.36-9.45,9.44-10.02,5.01-.47,7.72,3.48,7.38,8.42-.42,6.09-4.17,10.25-10.08,10.81-4.75.45-6.81-3.3-6.74-9.21Z" style="fill: #367533; stroke-width: 0px;"/>
          <path d="M1315.83,817.45c-.11-10.94,8.11-19.75,18.67-20.03,9.95-.26,18.71,8.54,18.82,18.9.11,10.51-8.73,19.9-18.89,20.07-10.18.17-18.49-8.3-18.6-18.94Z" style="fill: #122a4d; stroke-width: 0px;"/>
        </g>
        <g>
          <path d="M1079.18,920.32c-2.24-.51-3.75-1.55-4.54-3.98-6.4-19.68-11-39.71-12.56-61.53,12.64,9.2,25.25,16.73,38.33,23.47.96.5,1.55,1.98,2.03,3.13,5.98,14.32,14.51,27.21,22.9,41.02-16.04,2.66-31.14,1.27-46.16-2.12Z" style="fill: none; stroke-width: 0px;"/>
          <path d="M1051.46,845.05c1.65,1.57,1.57,3.36,1.61,5.32.18,8.84,1.28,17.59,2.54,26.34,1.89,13.14,5.56,25.89,8.89,39.22-15.83-5.97-29.03-15.05-42.13-24.27-2.34-1.65-3.37-4.04-3.8-7.1-3.41-24.55-2.52-49.05.31-73.55.36-3.14.39-6.46,2.29-9.88,8.68,16.27,17.31,31.61,30.28,43.92Z" style="fill: none; stroke-width: 0px;"/>
          <path d="M1277.86,951.12c-14.75-2.08-33.56-6.52-53.48-16.15-27.2-13.14-42.54-29.21-46.84-34.32-.43-.51-.9-1.08-.9-1.08-7.79-9.44-12.81-17.53-15.96-23.23-8.39.92-20.49,1.39-34.65-1.08-7.34-1.28-31.27-7.2-54.51-24-40.61-29.37-60.58-80.33-49.67-129.24.72-3.24,1.97-6.66-2.65-7.83-4.96-1.26-5.64,2.56-6.47,6-4.69,19.47-3.92,38.94.33,58.35,1.09,4.97.81,9.3-1.02,14.26-5.51,14.98-5.46,30.93-6.28,46.64-.64,12.25-.84,24.54,1.42,38.82-7.8-8.73-14.4-15.92-20.73-23.33-2.12-2.48-3.58-6.07-7.54-3.48-4.3,2.81-1.78,6.31.28,8.87,8.25,10.27,16.8,20.32,26.18,29.59,2.88,2.84,4.4,6,5.19,10.03,4.24,21.55,9.5,42.82,19.33,62.66.46.93.57,2.04.94,3.45-16.87-5.71-31.54-14.46-44.77-25.64-2.58-2.18-4.96-3.99-7.79-1.3-3.01,2.86-1.02,5.47,1.31,7.72,12.46,12,27.28,20.44,43.38,26.03,10.94,3.8,20.05,8.71,26.35,18.75,3.06,4.88,7.46,8.93,11.26,13.35.02.12.04.24.06.35.13-.25.25-.5.38-.75,6.38,6.23,13.64,11.34,22.03,16.39-10.66,1.44-20.34,2.66-30.14,1.95-.2.13-.4.24-.6.39-8.16-.3-16.32-.62-24.48-.89-1.71-.06-3.44-.1-5.13.07-2.73.27-4.3,1.79-4.31,4.64-.02,3.58,2.43,4.06,5.22,4.2,9.44.46,18.87.94,28.31,1.42,1.93,2.15,4.56,2.2,7.14,2.38,4.53.33,9.12.24,13.53-.61,26.18-5.04,53.3-3.93,78.97-12.19,4.16-1.34,8.07-.15,12,1.07,3.3,1.03,6.6,2.1,10.01.39,2.92.63,5.83,1.26,8.75,1.89,34.68,1.93,62.65-12.62,87.09-35.62,7.47-7.02,12.36-13.77,15.25-18.27.62-.96,1.61-2.57,2.71-4.46,3.43-5.88,5.86-10.95,7.46-14.57M1102.45,881.41c5.98,14.32,14.51,27.21,22.9,41.02-16.04,2.66-31.14,1.27-46.16-2.12-2.24-.51-3.75-1.55-4.54-3.98-6.4-19.68-11-39.71-12.56-61.53,12.64,9.2,25.25,16.73,38.33,23.47.96.5,1.55,1.98,2.03,3.13ZM1119.36,933.01c.92-.41,1.86-.8,2.85-1.13,2.97-.41,6.16-3.23,8.85.2,8.11,10.35,16.87,20.06,27.74,28.68-12.32,5.58-24.52,8.79-36.73,12.12-7.9,2.16-13.57.66-17.91-6.48-2.25-3.7-5.2-6.99-7.87-10.43-6.24-7.54-11-16.01-16.29-25.56,13.76,3.06,26.58,3.29,39.35,2.6ZM1173.68,910.39c-10.6,3.87-20.91,7.35-31.72,8.87-.97.46-1.95.92-2.94,1.36-1.56.76-3.35,1.83-4.56-.17-7.4-12.25-15.81-23.94-21.87-37.7,14.4,2.95,28.25,4.35,42.25,4.13,2-.03,3.49.14,4.72,2.34,2.72,4.87,5.97,9.43,9.01,14.12,0,.03,0,.05-.01.07,1.63,2.23,3.28,4.48,5.12,6.98ZM1184.11,946.92c-2.43-3.17-.3-7.37-2.25-11.02-3.03,5.03-1.24,11.17-5.11,15.45-3,1.86-6.3,5.98-9.51,3.75-10.12-7.04-19.18-15.42-26.72-26.34,13.39-2.19,25.61-5.41,37.21-10.65,1.78-.8,3.34-.73,4.66.78,5.39,6.19,12.59,10.2,19.06,15.62-5.28,5.1-11.3,8.77-17.33,12.42ZM1236.95,956.82c-7,6.09-13.94,12.25-20.76,18.53-2.21,2.03-4.47,2.43-7.1,1.46-8.08-2.96-16.25-5.74-23.56-10.45-2.92-3.11-.75-6.1.2-9.11,7.01-5,14.52-9.34,20.83-15.26,2.33-2.19,4.33-1.95,6.94-.66,7.52,3.72,15.08,7.4,22.78,10.74,3.49,1.51,3.13,2.61.66,4.75ZM1225.1,978.54c6.98-6.24,14.04-11.95,20.32-18.43,2.54-2.62,4.55-3.24,7.77-2.55,8.42,1.79,16.91,3.1,26.32,2.73-9.37,13.79-40.69,23.45-54.42,18.25ZM1170.3,1012.41c10.88-6.09,22.43-9.33,31.3-16.83,7.6-6.43,15.43-7.71,24.96-6.56,12.47,1.51,24.61-1.58,37.45-6.76-24.27,27.37-65.6,40.63-93.7,30.14ZM1153.32,1006.78c-12.22-6.4-23.22-14.51-34.77-23.59,13.61-3.37,26.57-6,38.21-11.92,8.19-4.17,14.78-3.81,21.31,2.32,2.17,2.21,1.47,4.68.84,7.27-.57,2.33-1.9,5.03,1.46,6.7,3.05-3.1,1.75-7.6,3.96-10.81,6.06,2.55,12.12,5.1,19.02,8-14.22,9.21-28.23,16.49-43.26,21.79-2.26.8-4.32,1.52-6.77.24ZM1074.16,985.45c6.02.08,12.1.7,18.05.1,9.51-.96,18.34-.92,24.47,8.03.33.49,1.1.67,1.62,1.04,8.1,5.79,16.19,11.58,24.55,17.57-36.97,10.37-54.92,6.62-76.58-16.17-.39-5.77,2.14-9.37,7.88-10.57ZM1022.38,902.11c6.18,5.02,12.9,9.29,19.93,12.96,7.04,3.68,14.36,6.85,21.62,10.11,2.6,1.17,4.93,2.28,6.25,5.14,5.19,11.17,12.1,21.31,19.18,31.34,0,.02,0,.03,0,.05.02-.03.04-.05.06-.08,3.53,4.49,7.06,8.99,10.98,13.98-6.81.78-12.94,1.15-19.09.13,0,0,0,0,0-.01-.02.01-.04.03-.06.04-9.8.21-19.21-2.38-28.79-3.88-4.92-.77-7.85-3.05-10.26-7.47-10.01-18.36-15.7-38.14-20.16-58.37-.28-1.26-1.81-2.78.34-3.94ZM1021.18,801.13c8.68,16.27,17.31,31.61,30.28,43.92,1.65,1.57,1.57,3.36,1.61,5.32.18,8.84,1.28,17.59,2.54,26.34,1.89,13.14,5.56,25.89,8.89,39.22-15.83-5.97-29.03-15.05-42.13-24.27-2.34-1.65-3.37-4.04-3.8-7.1-3.41-24.55-2.52-49.05.31-73.55.36-3.14.39-6.46,2.29-9.88Z" style="fill: #fca68f; stroke-width: 0px;"/>
        </g>
      </g>
      <g id="_3-algae" data-name="3-algae">
        <path id="_3-algae-3" data-name="3-algae-3" d="M2387.46,1575.08c-16.18-.77-32.37-1.55-48.55-2.32-24.97-47-29.57-93.91.41-140.77,6.1-9.53,12.08-19.15,17.69-28.96,10.8-18.86,13.93-39.09,8.56-60.14-4.14-16.27-9.36-32.27-14.07-48.4-10.49-35.92-4.31-68.88,17.56-99.08,3.23-4.46,6.09-9.2,9.48-13.52,19.77-25.17,24.99-53.81,20.64-84.83-1.54-11.01-1.14-21.99,1.5-32.8,2.85-11.62,9.99-18.81,19.08-19.78,11.6-1.23,18.47,5.57,23.22,14.63,12.8,24.4,15.93,50.15,11.42,77.4-4.66,28.19-15.07,54.22-28.21,79.11-15.74,29.82-16.4,60.02-6.64,91.47,4.88,15.72,10.47,31.35,11.62,47.99,1.84,26.65-6.46,50.63-19.67,73.25-4.47,7.66-9.01,15.28-13.67,22.82-20,32.35-23.4,66.83-13.78,103.17,1.79,6.74,2.31,13.82,3.41,20.75Z" style="fill: #015569; stroke-width: 0px;"/>
        <path id="_3-algae4" data-name="3-algae4" d="M2459.01,1581.25c-16.07-1.48-32.14-2.97-48.2-4.45,5.4-8.88,10.9-17.69,16.17-26.64,13.01-22.08,16.77-45.53,10.78-70.62-7.21-30.21-3.51-58.85,13.23-85.46,5.54-8.8,10.63-17.88,16-26.78,14.13-23.4,18.45-48.93,16.31-75.78-1.23-15.37-.39-30.53,3.15-45.53,1.57-6.64,4.36-12.73,8.72-18.01,10.9-13.21,28.61-12.25,37.93,2.14,6.66,10.28,9.1,21.86,10.16,33.88,3.7,41.96-7.82,80.47-26.33,117.46-6.02,12.03-11.71,24.19-16.18,36.94-6.28,17.93-9.34,36.01-5.23,54.9,5.9,27.16-.01,52.11-14.3,75.49-6.85,11.21-13.07,22.82-22.21,32.46Z" style="fill: #015568; stroke-width: 0px;"/>
        <path id="_3-algae-2" data-name="3-algae-2" d="M1029.13,1586.91c16.18-.77,32.37-1.55,48.55-2.32,24.97-47,29.57-93.91-.41-140.77-6.1-9.53-12.08-19.15-17.69-28.96-10.8-18.86-13.93-39.09-8.56-60.14,4.14-16.27,9.36-32.27,14.07-48.4,10.49-35.92,4.31-68.88-17.56-99.08-3.23-4.46-6.09-9.2-9.48-13.52-19.77-25.17-24.99-53.81-20.64-84.83,1.54-11.01,1.14-21.99-1.5-32.8-2.85-11.62-9.99-18.81-19.08-19.78-11.6-1.23-18.47,5.57-23.22,14.63-12.8,24.4-15.93,50.15-11.42,77.4,4.66,28.19,15.07,54.22,28.21,79.11,15.74,29.82,16.4,60.02,6.64,91.47-4.88,15.72-10.47,31.35-11.62,47.99-1.84,26.65,6.46,50.63,19.67,73.25,4.47,7.66,9.01,15.28,13.67,22.82,20,32.35,23.4,66.83,13.78,103.17-1.79,6.74-2.31,13.82-3.41,20.75Z" style="fill: #015569; stroke-width: 0px;"/>
        <path id="_3-algae-1" data-name="3-algae-1" d="M957.59,1593.09c16.07-1.48,32.14-2.97,48.2-4.45-5.4-8.88-10.9-17.69-16.17-26.64-13.01-22.08-16.77-45.53-10.78-70.62,7.21-30.21,3.51-58.85-13.23-85.46-5.54-8.8-10.63-17.88-16-26.78-14.13-23.4-18.45-48.93-16.31-75.78,1.23-15.37.39-30.53-3.15-45.53-1.57-6.64-4.36-12.73-8.72-18.01-10.9-13.21-28.61-12.25-37.93,2.14-6.66,10.28-9.1,21.86-10.16,33.88-3.7,41.96,7.82,80.47,26.33,117.46,6.02,12.03,11.71,24.19,16.18,36.94,6.28,17.93,9.34,36.01,5.23,54.9-5.9,27.16.01,52.11,14.3,75.49,6.85,11.21,13.07,22.82,22.21,32.46Z" style="fill: #015568; stroke-width: 0px;"/>
      </g>
      <path id="_3-paper" data-name="3-paper" d="M1976.28,1129.4c-8.38.12-15.25-4.11-21.31-9.33-20.42-17.58-40.86-35.15-59.61-54.55-3.28-3.39-6.43-7.02-9.01-10.95-6.71-10.22-5.05-18.6,5.69-24.55,20.92-11.59,39.87-25.32,53.89-45.1,1.87-2.63,4.52-4.74,6.96-6.93,12.93-11.62,22.22-9.01,25.33,8,3.63,19.88,16.82,33.57,29.5,47.33,15.79,17.13,32.94,32.99,49.25,49.65,4.6,4.69,12.38,9.52,9.1,16.82-3.23,7.17-11.86,9.11-19.63,9.67-7.25.52-14.57.14-21.85.32-11.91.3-22.9,2.83-31.92,11.62-4.35,4.24-9.37,8.22-16.38,8Z" style="fill: #f8f0d0; stroke-width: 0px;"/>
      <g id="_3-rocks" data-name="3-rocks">
        <path id="_3-rocks-2" data-name="3-rocks-2" d="M2233.55,1560.08c29.85-35.53,64.81-63.13,109.24-78.77,46.18-16.26,94.61-17.55,142.28-23.1,26.74-3.11,48.51-13.65,69.29-29.06,26.34-19.53,42.24-48.17,63.57-72.07,22.64-25.37,48.46-45.78,79.35-59.44,45.73-20.23,94.71-27.34,143.8-33.26,52.07-6.28,97.09-27.39,134.75-63.55,18.42-17.69,32.1-39.3,46.89-60.09,39.73-55.83,94.19-92.1,158.21-115.28,37.26-13.49,75.74-20.63,114.96-22.4,23.13-1.04,46.51-2.75,69.68.56v591.41h-1159.61c8.3-12.3,17.99-23.55,27.57-34.96Z" style="fill: #085f8e; stroke-width: 0px;"/>
        <path id="_3-rocks-1" data-name="3-rocks-1" d="M1079.44,1561.76c-28.46-33.88-61.8-60.2-104.16-75.11-44.03-15.5-90.22-16.73-135.67-22.03-25.49-2.97-46.26-13.02-66.07-27.71-25.11-18.62-40.28-45.93-60.62-68.72-21.59-24.19-46.2-43.65-75.66-56.68-43.61-19.29-90.31-26.07-137.12-31.71-49.65-5.99-92.58-26.12-128.49-60.6-17.56-16.86-30.61-37.48-44.72-57.3-37.88-53.24-89.82-87.82-150.86-109.92-35.53-12.86-72.22-19.67-109.62-21.36-22.05-.99-44.35-2.62-66.44.54v563.93h1105.73c-7.91-11.73-17.15-22.46-26.29-33.33Z" style="fill: #085f8e; stroke-width: 0px;"/>
      </g>
      <path id="_3-can-rings" data-name="3-can-rings" d="M3136.67,1238.94c-9.99-12.76-23.33-19.92-38.64-24.24-17.81-5.03-27.58-17.98-31.76-35.06-3.2-13.06-8.66-24.45-19.5-32.4-25.74-18.89-53.61-18.69-81.54-6.31-30.42,13.48-50.57,35.28-51.11,70.76-.03,1.69-.08,3.23-1.33,4.76-5.37,6.63-21.03,11.19-29.02,8.29-8.76-3.18-17.83-4.26-28.67-3.71-21.52-.78-40.85,8.51-58.14,22.79-19.59,16.18-27.94,40.91-21.14,62.2,6.75,21.14,22.03,32.82,42.98,37.95,17.14,4.2,26.32,15.52,27.71,32.63,1.94,23.88,14.25,40.93,36.52,49.76,33.63,13.34,74.4,2.77,97.81-25.01,10.35-12.27,19.7-26.23,17.04-42.65-1.77-10.94,2.48-15.2,10.05-19.51,2.74-1.56,5.72-2.78,8.24-4.63,5.88-4.31,11.17-4.26,18.15-1.25,42.23,18.19,97.23-7.72,110.05-51.36,4.58-15.58,2.49-29.98-7.71-43.02ZM2837.66,1328.3c-6.46.22-12.59-.92-18.61-3.09-27.24-9.81-35.41-38.6-16.3-60.17,18.44-20.82,41.76-29.84,69.6-24.27,30.47,6.09,41.17,36.49,21.51,60.5-14.53,17.74-33.54,26.21-56.19,27.03ZM2974.37,1378.25c-16.06,29.84-54.21,43.88-84.08,30.97-27.05-11.69-33.02-41.49-13.55-63.61,15-17.04,33.77-23.78,58.44-24.19,12.43.68,25.91,5.16,35.75,17.58,9.77,12.32,10.89,25.42,3.45,39.26ZM2998.07,1303.87c-2.3,2.55-4.77,4.96-7.24,7.35-6.48,6.25-11.72,9.57-21.56,2.69-15.22-10.63-33.61-12.41-53.28-9.47,5.2-13.65,9.63-26.03,6.5-39.56-.45-1.96.73-3.27,2.22-4.27,8.35-5.58,15.47-12.55,27.57-6.13,11.19,5.94,24.33,6.42,37.01,3.76,5.86-1.22,8.01.59,7.4,6.46-1.16,11.18-1.69,22.35,3.06,32.99,1.18,2.63-.14,4.47-1.68,6.17ZM2981.29,1240.43c-20.27,0-33.96-4.48-42.76-18.66-6.19-9.97-6.72-20.38-1.75-31.16,13.43-29.13,53.31-46.46,83.74-36.25,24,8.05,31.9,28.07,18.81,49.54-14.15,23.2-35.2,35.37-58.04,36.55ZM3125.15,1280.27c-11.78,30.14-51.77,48.38-82.09,37.35-27.76-10.11-35.9-39.72-16.89-63.5,12.24-15.31,28.7-23.2,48.15-24.02,17.06,1.09,32.56,5.14,44.65,17.71,9.09,9.45,10.94,20.28,6.18,32.46Z" style="fill: #bcd0c6; stroke-width: 0px;"/>
      <path id="_3-plastic-bag" data-name="3-plastic-bag" d="M731.04,443.48c.99-14.17-1.56-27.8-9.67-39.3-13.24-18.78-28.24-23.15-47.25-7.72-6.05,4.91-10.53,11.13-14.86,17.52-11.43,16.87-23.51,33.28-40.22,45.37-24.41,17.64-52.7,15.57-68.97-11.05-11.98-19.6-25.02-38.43-42.06-54.11-5.19-4.77-10.91-8.89-17.99-10.27-12.36-2.42-24.98,5.31-31.49,19.24-8.89,18.99-5.81,38.27-.97,57.49,1.99,7.89,4.42,15.58,3.63,23.98-2.01,21.43-12.55,38.73-25.8,54.79-8.02,9.72-17.09,18.56-24.35,28.92-5.5,7.85-8.64,16.15-7.67,26.15,1.62,16.61,11.41,27.61,27.85,30.06,12.67,1.89,25.14.05,37.52-2.22,12-2.2,23.24-.57,33.81,5.34,14.05,7.86,28.91,12.98,45.09,13.75,30.03,5.4,58.9.08,87.39-9.25,39.3-12.87,60.26-40.49,65.55-80.82,2.29-17.46,6.64-34.3,14.21-50.29,8.64-18.26,14.84-37.24,16.27-57.58ZM515.86,475.69c-9.01,5.66-19.27,7.4-25.56-4.41-6.21-11.65-8.53-24.52-10.08-37.46-.77-6.43-1.82-12.95-.29-21.11.5-1.84-.9-6.97,3.41-8.1,4.15-1.09,7.27,2.88,9.58,5.96,13.56,18.13,20.32,39.06,24.59,60.97.36,1.86-.04,3.15-1.64,4.15ZM695.15,482c-4.71,11.26-16.1,16.76-25.9,12.68-10.48-4.36-14.64-15.13-9.92-26.89,8.23-20.51,19.59-39.44,30.31-58.68,3.28-5.88,6.99-5.7,10.23.32,6.52,12.1,5.81,25.11,3.79,39.95-.99,10.1-3.9,21.59-8.51,32.61Z" style="fill: #f9f0d0; stroke-width: 0px;"/>
    </g>
  </g>
</svg>