<?xml version="1.0" encoding="UTF-8"?><svg id="Layer_2" xmlns="http://www.w3.org/2000/svg" viewBox="0 0 3364.16 1603.68"><g id="_2-scene"><g id="_2-waves"><path d="M828.76,884.36c71.18-62.86,234.54-17.8,242.36-56.81,3.73-18.63-26.14-40.68-21.08-73.59,1-6.52,4.84-13.24,13.12-20.24,41.11-34.78,103.21-24.11,190.53,2.34,10.35,3.13,19.23,5.95,26.98,8.51,6.41-1.44,12.91-2.55,19.35-3.77,9.56-1.81,18.69-4.43,27.57-8.13,24.2-10.06,51.19.91,60.98,24.91,2.93,7.18,1.81,16.49-2.02,25.25,59.26,12.55,165.14-89.65,205.18-84.9,36.2,4.29,41.16,48.46,80.09,60,27.99-2.13,50.33-15.11,71.55-34.43,28.17-25.66,64.05-31.91,101.17-29.78,33.12,1.9,62.41,13.83,86.97,36.61,2.11,1.95,3.87,3.47,4.44,6.62.26,1.45.55,2.88.86,4.29,14.44,13.14,22.88,24.87,49.37,25.62,47.5,1.35,39.07-30.66,96.42-47.16,57.35-16.49,220.4-42.56,352.38,92.89,2.24,2.3,4.42,4.52,6.53,6.66,16.18-6.68,30.78-16.29,43.9-28.94-3.42-13.62-5.4-26.5-3.81-36.26,8.5-52.26-45.02-30.83-86.58-31.58s-297.51-215.04-506.62-153.21c-209.12,61.83-255.3,7.92-473.7,74.26s-298.4,14.32-406.9,0-191.11,40.15-213.62,119.2c-22.5,79.05-81.26,23.28-137.28,79.16s15.79,44.28,7.64,104.88c-8.15,60.6-69.3,4.3-80.24,53.09-10.94,48.79,41.31,180.55,52.43,216.21s79.18,104.42,105.88,135.76,181.05,68.82,233.4,112.23,196.89-1.11,257.46,69.55,80.79,35.63,113.14,0,60.86-33.9,48.74-77.46c-12.12-43.57-62.36-44.17-89.19-31.77s-29.77,44.67-79.3,39.69c-45.2-4.55-74.91-40.51-105.32-61.26-58.33-39.79-107.56-10.17-160.43-24.59-146.88-40.07-240.98-397.89-132.35-493.82v-.03Z" fill="#50593d"/><path d="M2094.58,859.12c1.54,9.12,12.16,14.72,17.59,17.58,21.42,11.29,33.31,1.33,44.93,9.49,12.41,8.71,2.11,22.35,13.04,58.51,9.51,31.47,18.4,34.05,36.99,63.55,2.44,3.88,5.22,7.59,9.58,9.12,3.64,1.27,7.9.15,11.44-4.15,3.18-3.85,1.98-7.24.64-10.16-4.21-9.16-7.03-19.5-13.73-26.55-2.08-2.19-3.46-5.45-4.35-8.76-1.25-4.64-2.87-8.96-4.8-12.98-4.22-8.77-9.1-14.46-11.21-16.96-15.86-18.78,3.58-73.52-16.12-89.52-16.31-13.24-67.44-6.43-72.24-12.18-.25-.3-1.58-2.07-3.62-2.29-1.31-.14-2.86.43-4.77,2.19-1.65,1.74-3.3,3.48-4.95,5.22-.29,2.12-.52,5-.27,8.41,0,0,1.08,4.89,1.86,9.49h0Z" fill="#50593d"/><path d="M2447.89,971.99c-7.14-5.28-13.13-11.63-18.86-18.45-2.01-2.39-3.84-4.81-5.5-7.26-65.08-39.4-117.64-93.48-128.97-102.27-15.96-12.39,23.55,146.15,136.49,177.69,112.95,31.54,44.55,170.62-10.85,231.2-14.34,15.68-45.48,29.55-83.71,42.21-7.52,7.76-11.23,9.27-11.23,9.27l-75.29,16.86-42.06,9.42c-78.53,19.94-147.51,37.84-146.01,57.46,3.14,41.1,328.86-122.58,408.24-97.17,79.38,25.42,136.96-283.33,37.57-307.78-.82-.2-1.65-.43-2.47-.64-20.09,5.79-46.47,2.18-57.36-10.54h.01Z" fill="#50593d"/><path d="M1963.07,1417.39c-18.85-6.42-38.59-8.79-58.23-11.73-1.1-.17-2.2-.31-3.3-.45-1.67,1.97-3.57,3.89-5.77,5.74-13.38,11.31-29.36,17.8-45.65,23.5-26.75,9.36-53.73,17.7-80.31,21.55-3.13.55-6.31.95-9.55,1.19-3.75.39-7.49.69-11.21.87-11.53.21-20.4-.75-28.42-4.33-10.87-1.63-21.77-2.97-32.66-3.07-40.36-.38-79.54,9.14-118.87,16.81-10.89,2.12-24.49,18.2-23.44,27.34,1.56,13.57,13.54,14.63,23.44,16.35,19.69,3.41,39.59,1.93,59.44.64,23.68-1.55,46.94-4.8,70.49,5.33,30.29,13.02,62.22,21.7,98.56,20.14,22.59,1.98,45.69-2.46,65.3-20.24,8.96-8.12,19.65-14.32,29.45-21.54,21.72-16,46.64-25.1,71.69-34.17,11.94-4.33,18.86-13.42,18.67-26.97-.18-13.18-11.16-14.05-19.64-16.94v-.02Z" fill="#50593d"/><path d="M1012.32,1161.52c-15.16,25.06-97.71-49.49-37.9-86.55,59.8-37.06,20.7-104.87,37.93-104.87s61.88,7.58,85.26,0c23.37-7.58-11.54-77.7,15.16-77.7s54.12,11.58,78.97,18.95,96.45-16.64,113.08-8.84c16.64,7.79-77.7,62.54-95.39,65.7-17.69,3.16-29.06-19.16-56.22-3.79-27.16,15.37,19.58,46.12-8.21,49.28-27.8,3.16-86.76-9.32-76.44,13.34,10.32,22.66,57.91,4.13,25.27,68.15s-1.05-99.81-52.43-49.28c-51.38,50.54-13.9,90.55-29.06,115.61h-.02Z" fill="#50593d"/><path d="M1451.85,873.33c-7.94.52-15.3-.41-21.21-6.48-5.57-5.72-6.49-12.33-2.02-18.53,7.27-10.08,15.37-19.31,28.19-23.14,12.61-3.77,24.37-10.66,38.14-9.83,10.69.65,20.26,4.22,24,14.93,3.83,10.95-4.93,16.11-12.06,22.3-15.94,13.86-34.59,19.54-55.06,20.74h.02Z" fill="#50593d"/><path d="M2144.86,1206.2c-12.76-2.54-25.79-3.55-35.57-13.22-7.44-7.35-6.59-11.06,3.39-13.65,16.65-4.33,30.73-13.56,44.58-23.1,19.22-13.25,40.15-23.34,61.06-33.39,16.25-7.81,27.8-3.25,31.99,10.83,1.99,6.69-.33,12.33-3.99,16.87-26.16,32.5-60.78,49.8-101.47,55.66h.01Z" fill="#50593d"/><path d="M1745.41,1323.44c3.83,5.79,7.67,11.59,11.5,17.38-.55,7.03-6.07,8.76-12.36,9.59-61.29,8.14-122.59,15.95-184.15,20.89-30.08,2.41-60.02,8.4-90.09,11.97-22.27,2.64-44.45,2.55-66.19-1.84-6.04-1.22-12.71-1.83-18.88-.92-19.83,2.93-38.75-.83-58-2.18-6.14-.43-12.73-1.35-13.63-7.61-1-7,3.59-12.66,10.71-15.99,8.54-3.99,17.9-4.67,27-4.86,48.36-1,96.35,3.27,144.85.45,23.88-1.39,47.42-6.48,71.17-9.13,36.84-4.11,73.7-8.14,110.58-11.56,17.14-1.59,33.76-6.17,50.78-8.35,6.73-.86,12.63-2.78,15.29,4.63,0,0,.94-.16,1-.34.24-.69.29-1.42.42-2.14h0Z" fill="#50593d"/><path d="M2167.39,1542.1c7.6-10.47,17.19-19.11,26.52-28.03.52-.5,1.05-.99,1.58-1.47,1.62.42,3.35.72,5.21.89,11.34.99,22.25-1.54,33.03-4.62,17.7-5.05,35.15-10.72,50.69-18.63,1.87-.88,3.71-1.86,5.51-2.94,2.13-1.2,4.23-2.44,6.28-3.74,6.2-4.21,10.55-8.04,13.46-12.94,5.16-4.93,10.44-9.73,16.18-13.86,21.28-15.31,45.64-24.93,69.38-35.58,6.57-2.95,19.81.49,22.67,5.73,4.26,7.79-1.71,12.84-6.32,17.45-9.17,9.18-20.29,15.85-31.31,22.59-13.15,8.04-26.71,15.03-35.42,29.22-11.2,18.25-24.9,34.81-44.77,47.58-11.25,9.51-25.17,15.8-42.24,13.71-7.8-.96-15.79-.25-23.7-.41-17.52-.36-34.15,4.14-50.84,8.7-7.96,2.17-15.03-.06-20.01-7.32-4.84-7.06.66-11.64,4.08-16.35l.02.02Z" fill="#50593d"/><path d="M859.55,580.31c-10.16,22.05-129.98,32.75-137.78,33.42-85.54,7.33-144.82-2.97-181.52,20.05-4.08,2.56-6.99,4.83-7.87,5.78-11.46,12.3,4.31,27.67-11.06,67.23-7.3,18.79-15.6,16.52-16.45,30.24-.98,15.84,11.14,30.18,26.97,48.48,12.31,14.22,17.73,17.19,14.04,22.07-9.12,12.08-61.26,19.05-75.01,9.46-9.98-6.96,5.89-18.73-4.38-24.24-13.69-7.36-50.66,8.9-61.45,2.2-7.69-4.78,1.26-19.15,15.05-28.07,13.07-8.46,23.56-7.53,35.85-17.32,7.08-5.64,14.32-14.49,9.25-18.19-4.51-3.3-15.41-.07-18.87-2.8-5.9-4.68,17.7-20.65,21.39-23.21,56.4-39.17,11.6-106,52-119.53,26.96-9.03,54.63,18.16,96.18,6.87,24-6.52,32.18-20.32,68.16-27.18,7.25-1.38,13.83-2.14,26.69-5.06,17.88-4.05,31.92-8.66,41.13-11.97,6.85-1.69,19.1-4.13,33.88-3.92,22.8.33,36.92,6.79,41.8,9.3,17.06,6.57,36.65,16.32,32,26.41v-.02Z" fill="#50593d"/></g><g id="_2-plastic-bag-2" opacity=".8"><path d="M2230.24,1271.29c-6.27-6.3-11.23-13.48-15.87-21.08-13.39-21.94-14.92-44.28-4.73-67.86,3.32-7.67,5.67-15.89,7.43-24.07,6.42-29.86-11.69-53.06-42.83-55.01-8.81-.55-17.69-.42-26.52-.1-12.41.45-22.76-4.46-31.94-11.99-9.77-8.02-9.66-14,.92-20.73,14.08-8.95,30.04-13.95,46.36-16.05,35.87-4.61,65.64-19.91,89.89-46.64,7.07-7.79,11.19-16.46,12.34-26.78,2.06-18.46,14.73-30.11,33.72-30.39,25.88-.38,50.98,5.44,76.11,10.57,19.97,4.08,40.55,5.57,59.58,13.91,10.1,4.43,19.83,9.49,25.91,18.91,16.67,25.81,30.4,52.64,32.14,84.43,1.25,22.8,5.39,45.4,4.92,68.39-.28,13.81-3.23,27.07-6.04,40.39-2.56,12.16-10.22,19.56-21.58,25.39-53.63,27.53-107.78,53.72-165.74,71.1-19.97,13.8-62.15,6.74-74.08-12.4h.01Z" fill="#88d8b4"/><path d="M2427.05,1162.31c.23,8.62-4.27,13.31-9.09,14.99-6.41,2.23-5.34-5.46-6.9-8.75-22.64-47.69-39.51-97.54-54.86-147.96-1.87-6.15-1.04-11.95,4.06-14.97,5.82-3.44,6.37,4.11,9.32,6.67,7.72,6.7,5.96,17.04,9.47,25.42,13.14,31.36,26.14,62.79,38.67,94.39,4.11,10.36,6.63,21.35,9.32,30.21h.01Z" fill="#ade5ea"/></g><g id="_2-bottle-2"><path d="M1836.09,1235.6l-83.62-21.79-152.48-39.73s-49.01-29.95-34.53-82.93c14.48-52.97,71.57-52.82,71.57-52.82l223.75,59.01c14.93,8.75,27.18,23.06,36.85,42.72l25.89,13.85,25.91,6.33s21.05,3.69,12.46,38.58c-8.59,34.89-32.65,26.35-32.65,26.35l-19.9-5.61-14.16-9.39s-13.58,9.98-32.8,18.02c-19.22,8.04-26.29,7.42-26.29,7.42h0Z" fill="#e4f0f4"/><path d="M1755.47,1213.68l-73.34-21.67s-19.03-29.3-5.05-74.29,48.82-57.46,48.82-57.46l70.95,18s-38.6,25.67-45.84,59.69c-7.24,34.02,4.46,75.73,4.46,75.73h0Z" fill="#86ea9b"/><path d="M1896.92,1209.05c12.08,12.94,39.04,19.05,54.91,12.44,5.39-5.73,9.47-12.63,11.03-20.06,6.3-30,3.96-42.82-35.18-49.18-18.04-.37-31.76,46.57-30.76,56.81h0Z" fill="#2d8aab"/></g><g id="_2-bottle-1"><path d="M912.9,1227.33c-7.43-16.6-13.07-33.86-18.77-51.09-2.03-1.43-3.43-3.35-3.99-5.75-3.33-14.17-6.76-28.33-7.91-42.91.41-2.21,1.45-3.94,3.66-4.78,22.5-8.53,43.37-20.76,65.99-29.03,12.73-4.65,25.81-7.86,39.13-10.12,4.41-.75,8.98-1.69,12.73,2.04,8.87,16.92,21.13,31.62,31.26,47.72,14.36,22.83,21.71,47.43,19.83,74.5-.83,11.91-4.46,22.76-12.82,31.67-3.14,3.35-6.66,6.02-11.19,7.16-7.48.77-15.03,2.06-21.81-2.74-3.9-2.12-7.67-4.45-11.34-6.97-5.71-3.91-8.17-3.28-12.08,2.65-2.89,4.39-3.53,9.86-6.68,14.14-3.16,4.22-6.26,8.54-11.73,10.06-13.98,8.38-31.89,2.48-43.02-14.82-4.4-6.83-7.54-14.47-11.25-21.74h-.01Z" fill="#8eceb8"/><path d="M914.5,934.56c5.07,15.03,13.19,26.14,30.97,27.29,5.78.37,11.36,3.85,17.04,5.91,20.4,13.45,28.16,33.89,31.84,56.79,2.39,14.88-.98,30.16,3.52,44.84-.49,5.64-5.24,4.31-8.44,4.77-33.26,4.87-63.17,18.38-91.99,34.94-4.93,2.83-7.52,9.19-14.21,9.21-7.39-7.87-10.1-17.96-13.18-27.88-.29-.56-.58-1.13-.87-1.69-2.82-2.56-4.62-5.73-5.64-9.37-10.53-17.54-16.07-35.92-10.63-56.56,3.59-13.63,8.54-26.67,16.16-38.49,6.48-10.04,9.06-20.64,7.14-32.38-1.56-3.23.6-4.99,2.83-6.38,9.42-5.89,20.2-8.5,30.45-12.39,1.78-.68,3.62-.09,5.01,1.4h0Z" fill="#81cbbb"/><path d="M882.72,1117.44c19.73-18.21,44.39-27.31,68.79-36.68,13.49-5.19,27.53-8.87,42.14-9.53,1.63-.07,3.11-.53,4.21-1.84,3,5.06,4.62,10.61,5.87,16.3-21.81.35-42.32,6.5-61.96,15.21-15.45,6.85-31.52,12.57-45.79,21.87-3.7,2.41-8.87.46-11.78,4.54-5.09-2.59-4.34-6.07-1.49-9.86h.01Z" fill="#4bb6b1"/><path d="M914.5,934.56c-12.82,3.64-25.27,8.22-36.97,14.65-.72.4-.89,1.79-1.32,2.72-1.97-1.7-4.47-1.23-6.75-1.71-5.59-1.18-8.45-4.68-8.94-10.47-1.4-16.56,2.13-22.64,17.43-29.36,8.25-1.11,16.26-3.21,24.9-1.62,12.27,2.26,14.39,4.11,13.34,16.48-.27,3.13-1.11,6.21-1.69,9.31h0Z" fill="#2a9da2"/><path d="M1008.55,1241.62c-7.73,11.4-20.06,10.04-31.43,11.33,3.3-5.07,3.2-11.61,7.15-16.39,4.06-4.91,8.25-8.03,14.28-2.41,3.02,2.82,6.65,5,10,7.46h0Z" fill="#37a8aa"/></g><g id="_2-plastic-bag-1" opacity=".8"><path d="M1195.65,1142.81c30.15-9.74,60.2-5.81,90.13,1.02,9.11,2.08,16.9,7.18,23.63,13.7,5.43,5.26,7.47,11.13,4.28,18.67-2.97,7.02-8.79,6.47-14.46,6.5-22.11.15-44.27-.74-66.18,3.4-2.52.48-4.99,1.28-7.48,1.94-1.32,1.44-.7,3.29-1.07,4.94-3.53,15.94,1.01,24.57,16.91,29.26,21.41,6.32,41.98,16.07,64.87,16.72,2.55.07,4.81,1.8,7.38,2.15,15.68,2.15,30.91-1.59,46.15-4.07,15.43-2.51,28.95.59,41.45,9.86,11.56,8.58,22.29,18.12,33.19,27.48,10.39,4.83,17.06,14.21,25.75,21.13,13.86,11.03,28.84,19.48,45.96,24.19,4.05,1.11,9.72,1.41,8.48,8.3-12.14,22.67-42.52,22.48-61.46,14.7-16.41-6.73-28.15-19.83-41.81-30.3-11.26-8.64-22.87-16.54-36.33-21.3-4.01-1.42-8.83-3.37-12.27-.02-3.4,3.32-.39,7.7.84,11.34,3.28,9.7,8.76,17.82,16.58,24.78,10.7,9.51,21.65,18.73,28.59,31.98,14.54,27.76,2.26,47.15-18.1,60.39-9.14,5.94-19.13,10.61-28.87,15.58-9.03,4.61-18.21,9.37-25.12,16.63-30.79,32.37-68.1,20.42-91.59-.75-14.34-12.92-24.53-29.03-34.94-44.89-5.52-8.41-12.53-13.9-21.37-17.99-15.71-7.26-30.81-15.62-45.12-25.41-12.72-8.71-23.71-18.7-32.01-32.11-19.77-31.92-14.81-63.16,1.07-94.3,5.74-11.26,12.67-21.91,19.06-32.84.12-3.85,1.49-7.22,3.82-10.25,13.71-17.83,28.29-34.75,48.06-46.32,3.76-2.2,7.56-3.99,11.98-4.14v.03Z" fill="#47a7b8"/><path d="M1250.95,1367.2c.45-2.55-.73-6.12,2.72-6.55,2.73-.34,4.35,2.59,5.47,4.89,6.12,12.58,13.48,25.17,25.99,31.18,10.37,4.98,18.07,13.33,28.36,17.99,4.18,1.89,10.86,3.92,8.87,9.68-2.08,6.05-8.56,8.65-15.16,7.11-16.65-3.89-29.95-13.61-39.91-26.93-8.21-10.98-15.13-23.17-16.34-37.36h0Z" fill="#21839d"/></g><path id="_2-litter-2" d="M1278.21,821.6c-9.74.18-17.09-.69-23.78-3.99-18.88-9.3-21.2-32.51-4.78-45.88,5.32-4.33,11.57-7.24,18.04-8.56,25.41-5.18,49.78-13.87,74.57-21.18,11.04-3.26,22.38-5.43,33.88-6.07,13.67-.76,23.27,5.48,27.89,17.39,4.43,11.42,1.5,21.92-8.96,30.76-10.66,9.01-23.38,14.18-36.36,18.72-26.88,9.4-54.06,17.54-80.5,18.8h0Z" fill="#fdb556" isolation="isolate" opacity=".7"/><path id="_2-litter-1" d="M2248.01,775.06c-23.78-5.87-48.12-7.85-72.31-11.02-12.22-1.6-18.55-12-20.06-24.19-1.45-11.69,3.74-19.87,14.15-25.38,14.11-7.48,29.67-9.75,44.94-12.65,9.56-1.81,18.69-4.43,27.58-8.13,24.2-10.06,51.2.91,60.99,24.91,6.52,15.98-6.97,42.48-25.85,50.04-9.34,3.74-19.04,6.49-29.44,6.42h0Z" fill="#e4561b" isolation="isolate" opacity=".8"/><g id="_2-cup" opacity=".9"><path d="M1384.14,1020.78c-6.36,4.8-11.54,11.05-18.49,15.12-6.84,4-14.19,6.31-22.2,6.23-19.25-4.79-32.81-18.08-46.49-31.16-10.29-9.84-12.71-21.87-9.71-35.42,1.49-6.73,5.39-12.01,9.67-17.12,14.17-16.92,27.21-34.62,37.9-53.98.83-1.51,1.7-3,2.56-4.49,1.94-.81,2.21.99,2.93,1.95,4.29,5.75,9.89,10.4,13.81,16.46,9.83,11.02,19.4,22.22,31.07,31.5,7.31,5.81,14.36,11.97,21.94,17.45,5.63,4.07,10.95,9.01,18.86,7.61.79-.14,1.36.59.93,1.55-9.98,12.48-21.86,23.13-33.32,34.15-3.36,3.23-6.11,6.95-9.45,10.16h-.01Z" fill="#a5d6c4"/><path d="M1345.53,878.82c1.57-11.59,9.33-17.59,21.58-17.03,12.14.55,22.04,6.67,31.29,13.36,22.31,16.13,43.67,33.48,62.54,53.65,2.12,2.26,4.04,4.8,5.6,7.47,5.74,9.81,3.8,20.12-5.21,27.07-9,6.95-19.61,9.19-30.7,9.76-2.94.83-5.27-.47-7.64-1.99-14.67-9.42-28.5-19.92-41.66-31.34-8.05-6.98-14.1-15.65-20.56-23.99-3.37-4.72-6.87-9.33-10.5-13.85-5.57-6.93-8.08-14.41-4.75-23.12h.01Z" fill="#e5eac8"/><path d="M1362.37,915.23c16.42,23.39,39.47,39.26,62.55,55.1,1.73,1.19,3.82,1.87,5.74,2.78-1.25,1.12-2.49,2.24-3.74,3.35-8.48,2.9-14.31-2.63-20.06-6.97-12.53-9.46-25.46-18.58-36.1-30.24-6.08-6.66-13.47-12.24-17.87-20.39,2.59-2.7,5.87-3.61,9.48-3.63Z" fill="#7bc1c0"/><path d="M1362.37,915.23c-2.64,2.58-5.79,3.82-9.48,3.63-5.26-6.23-11.68-11.51-15.5-18.92,2.44-7.15,3.71-14.75,8.15-21.12-1.46,11.49,4.03,20.15,11.24,28.23,2.18,2.44,3.74,5.43,5.59,8.18Z" fill="#73bec0"/><path d="M1437.48,917.58c6.44,5.5,11.13,12.51,16.25,19.12,2.68,3.46,4.62,8.03,1,11.75-4.22,4.33-8.65,6.82-14.62,3.97-8.68-4.14-16.66-9.39-24.11-15.41-17.13-13.83-35.44-26.38-48.8-44.35-1.28-1.71-2.42-3.53-3.53-5.36-2.21-3.64-1.35-7.3.68-10.52,2.02-3.21,5.57-3.05,8.94-2.91,8.5.37,15.91,3.66,22.58,8.68,6.53,4.92,12.88,10.08,19.31,15.13,2.52,3.84,4.84,7.79,7.42,11.6,3.74,5.51,8.08,8.82,14.89,8.3h-.01Z" fill="#5eb2bf"/><path d="M1437.48,917.58c-6.42,3.16-7.59,2.68-11.89-4.25-1.57-2.52-3.29-4.97-5.2-7.16-2.14-2.44-2.77-5.23-2.38-8.5,7.82,4.93,13.62,12.45,19.48,19.9h-.01Z" fill="#9cccc3"/></g><g id="_2-net" opacity=".9"><path d="M2014.77,624.13c-7.11-2.66-14.09-1.44-21.2.81-20.82,6.58-37.34,20.12-54.02,33.23-34.87,27.39-75.85,28.33-112.56,1.8-2.6-1.88-4.92-1.75-7.79-1.7-33.5.59-62.88,12.28-88.08,33.86-28.25,24.18-49.78,53.55-52.32,91.57-2.11,31.59-10.55,58.55-33.91,80.76-9.43,8.97-18.77,19.04-21.27,32.85-.82,4.51-2.31,9.86,4.44,11.94,5.64,1.74,9.25-.38,11.73-5.42,6.13-12.47,18.24-20.21,25.37-31.92,1.66-2.73,4.06-5.01,7.83-4.76,29.31,1.93,58.57,3.28,82.48,24.28,44.7,39.28,90.21,46.81,150.85,21.05,20.95-8.9,37.19-24.91,52.75-41.24,4.89-5.13,9.22-8.64,16.07-2.18,14.05,13.27,31.19,17.26,50.07,14.92,2.69-.33,5.94.45,6.88-3.28.83-3.31-1.72-5.12-3.65-7.09-2.96-3.02-6.98-3.79-10.85-4.85-6.97-1.91-14.16-3.52-19.8-8.32-7.02-5.97-13.38-12.75-23.31-13.94-3.44-.41-4.96-3.31-3.37-6.28,8.28-15.38,4.49-31.28,2.49-47.13-.46-3.66-1.06-7.96,3.33-9.27,15.09-4.51,28.55-22.99,46.48-5.42,3.01,2.95,7.97,1.93,10.84-1.53,2.69-3.25,1.15-6.95-1.02-10.01-3.49-4.92-6.89-10.42-12.53-12.75-8.01-3.31-7.65-8.19-4.28-14.36,5.81-10.63,8.47-21.63,3.59-33.67,8.93-3.5,15.68,6.42,24.13,2.75,3.04-1.32,8.05.41,8.25-4.86.19-5.08-2.92-8.19-7.99-8.95-6.08-.91-12.16-.09-17.81,1.92-8.53,3.03-14.66.6-19.98-6.27-7.85-10.14-15.93-20.09-24.04-30.02-4.71-5.77.47-7.91,3.86-10.12,8.54-5.58,18.6-7.37,28.13-10.42,4.1-1.31,7.82-2.78,7.82-7.73s-3.84-6.85-7.63-8.27l.02.02ZM1859.07,699.31c2.77-1.31,5.76-1.51,8.19-.18,13.64,7.44,27.4,6.36,41.66,1.89,8.4-2.64,8.16,6.1,10.55,10.24,3.35,5.79-3.03,4.79-5.7,5.91-13.62,5.71-27.49,10.94-39.87,19.16-5.42,3.6-8.35,3.23-9.85-3.63-1.79-8.2-4.22-16.25-6.22-24.41-.76-3.1-1.32-6.33,1.25-8.99h-.01ZM1782.18,723.92c-13.31-18.97-12.9-21.22,7.47-31.41,5.35-2.68,10.68-5.54,16.29-7.56,9.6-3.46,13.74-2.29,20.51,4.61,3.78,3.69,6.57,6.52-.13,10.99-11.62,7.76-22.58,16.54-33.57,25.21-4.63,3.65-7.29,2.84-10.57-1.83h0ZM1821.32,726.42c.68-.42,1.42-.75,2.09-1.19,18.69-12.05,19.15-12.15,23.94,9.96,1.36,6.26,8.06,12.88,3.58,17.73-13.03,9.89-23.57,17.85-34.06,25.87-3,2.29-5.12,1.36-6.84-1.56-.61-1.03-1.12-2.13-1.7-3.18-10.96-19.7-6.63-35.58,12.99-47.64h0ZM1859.58,772.86c5.15,9.95,10.26,19.93,15.48,29.84,2.09,3.97,1.29,6.22-2.81,8.61-8.97,5.25-18,10.62-26.1,17.08-6.83,5.45-9.96,2.3-12.84-3.41-4.33-8.58-8.13-17.44-12.65-25.92-2.26-4.24-.94-6.76,2.35-9.13,8.44-6.08,17.04-11.95,25.28-18.28,4.47-3.43,7.84-3.37,11.28,1.2h.01ZM1716.79,748.55c4.71-5.98,9.6-11.82,14.09-17.32,2.63-2.11,4.57-4.38,7.05-5.51,6.21-2.83,11.27-12.75,16.45-10.31,7.83,3.7,11.64,13.58,16.64,21.23,2.82,4.31-.18,6.54-2.56,9.22-8.25,9.3-16.68,18.44-24.56,28.05-3.44,4.2-6.03,4.58-9.64.73-3.86-4.12-7.97-8.41-13.42-9.93-11.46-3.19-9.59-9.13-4.05-16.15h0ZM1696.91,829.08c-3.03-1.22-3.62-4.52-3.29-7.17,1.71-13.9,3.57-27.8,5.82-41.62.75-4.61,4.43-3.59,7.63-2.34,4.63,1.81,8,5.25,12.24,9.58,6.96,4.62,6.27,10.58.57,17.35-5.41,6.42-10.4,13.2-15.46,19.91-1.94,2.57-3.5,5.91-7.5,4.3h0ZM1716.93,839.76c-1.68-1.15-1.89-2.45-1.14-4.02,4.01-8.36,9.01-16.01,16.2-22.03,3.73-3.12,5.64.02,7.68,2.22.89,1.55,2.12,2.85,2.42,4.34,1.52,7.54,12.2,13.21,4.81,22.51-1.74,2.18-26.59-.73-29.96-3.03h-.01ZM1789.76,880.22c-1.79,2.58-4.24.39-6.17-1.06-4.47-3.35-8.98-6.65-12.17-9.01-10.75-10.38-7.9-28.61,4.02-34.83,1.97-1.03,3.67-1.01,5.61-.04,2.85,1.43,6.09,2.27,8.66,4.07,7.41,5.18,19.71,9.5,19.4,17.67-.38,9.66-13.44,14.65-19.35,23.18v.02ZM1847.35,891.78c3.13,3.85,3.21,7.26-3.55,7.38-11.33.19-21.9-3.2-32.59-6.14-4.01-1.1-5.54-3.13-1.78-6.54,2.36-2.15,4.61-4.41,8.28-7.93,5.19-7.59,11.2-9.28,17.93,1.6,2.81,4.55,8.26,7.38,11.72,11.63h-.01ZM1760.9,801.11c-7-12.12-5.17-23.35,5.48-33.69,10.01-9.72,18.22-8.39,24.62,3.98.55,1.06,1.23,2.06,1.79,3.12,8.53,16.43,5.58,25.28-11.52,32.99-8.39,3.79-15.58,1.89-20.37-6.4h0ZM1818.6,829.75c-8.33-4.08-15.32-7.48-22.28-10.97-.61-.3-.92-1.2-2.04-2.73,4.55-3.51,12.11-10.85,13.24-9.97,6.93,5.41,7.27,14.75,11.07,23.66h.01ZM1907.48,868.97c1.91,4.98-.13,8.42-3.17,11.56-9.24,8.64-20.59,12.04-32.45,14.56-4.24.9-5.92-.8-7.04-4.25-3.71-11.47-9.65-21.91-15.29-32.46-2.26-4.22-2.51-6.98,2.11-9.82,10.54-6.49,20.82-13.4,31.13-20.24,5.33-3.53,8.92-2.24,11.06,3.58,4.55,12.36,8.91,24.79,13.64,37.08h.01ZM1933.51,860.65c-4.86,5.35-8.74,4.98-11.7-1.71-5.51-12.44-10.72-25.02-16.55-37.3-2.73-5.74,1.74-6.01,4.65-7.38,13.75-6.51,27.58-12.85,42.19-19.63,8.56,27.1-1.76,47.49-18.58,66.03h-.01ZM1942.06,772.8c1.46,4.77.27,7.76-4.2,9.61-11.47,4.75-22.95,9.47-34.42,14.22-3.85,1.59-7.06,1.3-9.61-4.28-8.65-7.09-11.36-19.23-17.01-29.72-2.79-5.19-.58-8.68,3.87-10.73,14.54-6.71,29.26-13.02,43.86-19.6,4.02-1.81,5.82-.41,6.91,3.53,3.41,12.36,6.84,24.71,10.6,36.97h0ZM2003.86,716.05c.72,5.51-1.36,10.33-3.86,14.89-5.36,9.8-11.03,19.44-15.8,27.79-6.89,5.44-14.05,5.73-20.28,8.38-2.39,1.01-3.21-1.68-3.79-3.55-3.94-12.6-7.78-25.22-11.77-37.8-1.29-4.06,1.17-4.76,4.18-5.44,15.61-3.5,32.02-2.31,47.22-8.3,3.35-1.32,3.76,1.49,4.1,4.04h0ZM1973.83,678.21c3.38,6.65,8.1,12.63,12.84,19.81-13.29,1.32-24.54,8.4-37.67,7.37-4.68-.37-19.73-12.92-19.75-17.37,0-.97.64-2.49,1.4-2.83,10.08-4.6,20.03-9.68,30.48-13.23,4.74-1.61,9.77.47,12.71,6.26h0Z" fill="#026849"/></g></g></svg>