<?xml version="1.0" encoding="UTF-8"?>
<svg id="Layer_2" data-name="Layer 2" xmlns="http://www.w3.org/2000/svg" viewBox="0 0 3364.16 1603.68">
  <g id="Scrollytelling_-llustrations" data-name="Scrollytelling -llustrations">
    <g id="_2-scene" data-name="2-scene">
      <g id="_2-bush" data-name="2-bush">
        <path d="M2892.73,197.69c-10.92,10.21-10.91,23-8.6,36.71-8.13-3.39-15.85-8.55-25.19-5.12-6.4,3.23-8.83,11.54-7.44,17.82.49,2.2,1.08,4.38,1.63,6.57,0,2.35,1.84,3.26,3.42,4.34,8.7,5.94,16.67,12.68,23.31,20.91,1.5,1.86,2.29,4.18,4.07,5.82.69.53,1.41,1.02,2.24,1.3,2.69.9,4.26-.26,4.1-3.11-.17-3.03-.99-6-.92-9.06.1-4.07,1.39-5.21,5.47-4.66,2.37.32,4.66,1.01,6.91,1.83,4,1.46,5.04.72,5.18-3.61.05-1.63.02-3.25.02-4.88,0-4.12,1.18-7.92,3.22-11.46,1.68-2.9,3.95-3.25,6.35-.85,1.84,1.84,3.46,3.89,5.11,5.91,1.63,1.99,2.56,1.92,4.05-.13,1.02-1.41,1.8-2.98,2.44-4.59,1.48-3.68,3.73-6.85,6.33-9.8,1.98-2.25,4.18-4.28,7.54-3.45,3.62.9,5.87,3.39,6.54,6.95.7,3.71.97,7.51.71,11.31-.07.97-.22,1.94-.24,2.92-.04,2.31,1.13,2.91,3.12,2.13,1.92-.76,3.89-1.38,5.8-2.13,6.66-2.63,13.92,4.71,12.23,11.72-1.51,6.26-5.56,10.67-9.75,15.1-.59.63-1.33,1.12-1.9,1.77-1.33,1.52-1.36,3.03.42,4.1,1.85,1.11,3.43,2.63,5.43,3.51,4.13.15,8.27-.28,12.39.23,8.38.27,16.67-.19,24.65-3.07,4.26-1.54,7.03-4.4,7.05-9.1.02-4.48-2.54-7.43-6.44-9.35-2.76-1.36-5.64-2.17-9.45-2.02,2.91-1.88,5.29-3.41,7.37-5.35,7.39-6.89,10.18-15.42,8.82-25.29-1.14-8.31-9.53-13.39-18.46-11.27-2.08.49-4.07,1.38-6.28,2.14.79-3.07,1.8-6.09,2.32-9.18.94-5.64.6-11.24-1.71-16.58-4.35-10.05-14.08-12.1-22.84-4.79-2.73,2.28-5.19,4.85-7.84,8.21,1.15-5.4,1.78-10.15.65-14.84-1.42-5.89-4.01-11.16-10.28-13.21-6.3-2.06-11.48.84-16.08,4.7-6.67,5.59-9.77,13.27-11.82,22.1-2.56-4.16-5.13-7.66-8.78-10.25-4.82-3.42-9.69-3.95-14.87-.97Z" style="fill: #67b14e; stroke-width: 0px;"/>
        <path d="M2887.02,295.85c1.12-1.01,2.48-.55,3.73-.55,24.36-.05,48.72-.06,73.08-.08-.41-1.92-1.82-2.98-3.48-3.55-2.76-.93-2.65-1.77-.52-3.59,5.31-4.54,9.74-9.72,11.48-16.81,1.11-4.49-.58-8.3-3.51-10.88-2.43-2.15-5.85-3.87-9.85-2.25-2.56,1.04-5.18,2.05-8.13,3.21,1.02-5.77.74-11.23-.22-16.62-.76-4.24-3.51-6.94-7.71-7.81-3.78-.78-6.04,1.66-8.48,4.17-4.49,4.61-6.2,10.8-9.87,16.47-1.28-3.27-3.75-5.11-5.55-7.51-3.09-4.12-6.71-3.36-9.17,1.1-2.82,5.13-3.08,10.47-3,16.02.06,4.43.05,4.32-3.92,2.76-3.01-1.18-6.15-2.07-9.46-2-2.79.07-4.05,1.5-4.22,4.25-.22,3.39.55,6.67.82,10.01.08,1.03,1.05,2.23-.1,2.98-1.2.79-2.51.23-3.61-.62-.34-.26-.62-.64-1.09-.25.93,3.85,1.86,7.69,2.79,11.54Z" style="fill: #4c9f41; stroke-width: 0px;"/>
      </g>
      <g id="_2-tree" data-name="2-tree">
        <path d="M2969.44,122.9c1.57,2.52,2.16,5.42,3.13,8.17,1.83,5.21,3.5,10.48,5.25,15.72.31.92.67,1.82,1.12,3.02,2.33-2.39,4.46-4.57,6.58-6.76-.66,3.93-2.3,7.43-3.85,10.94-.69,1.58-.77,2.98-.12,4.55,3.19,7.68,6.4,15.37,9,23.28.04.11.23.17.49.34,2.9-4.1,5.59-8.34,8.55-12.55-.74,2.34-1.53,4.66-2.22,7.01-1.12,3.84-3.04,7.41-3.84,11.36-.14.69-.21,1.33.05,1.99,2.93,7.55,5.39,15.29,8.99,22.56,1.35,2.74,1.67,2.78,3.58.27,9.21-12.13,13.81-25.86,12.82-41.05-1.45-22.14-10.35-41.12-25.64-57.16-3.22-3.38-6.83-6.31-10.29-9.43,7.89,3.48,15.48,7.47,22.77,12.04,3.9,2.45,7.76,4.97,11.59,7.53,1.38.92,2.07,1.03,2.18-.95.16-2.77.49-5.53.93-8.31,1.62,3.51,2.4,7.22,2.91,10.97.27,2.01,1.13,3.34,2.82,4.55,6.89,4.92,13.41,10.33,19.86,15.81,1.4,1.19,1.84.85,2.06-.72.57-4.1,1.13-8.2,1.78-12.95,1.41,4.59,2.32,8.72,2.38,12.83.08,4.62,1.94,7.74,5.32,10.76,5.74,5.13,10.92,10.87,15.8,16.86.55.68.96,1.95,1.85,1.76,1.12-.24,1.15-1.64,1.42-2.62,2.86-10.35,2.27-20.64-.59-30.88-4.33-15.48-14.06-26.83-27.19-35.63-14.64-9.81-30.64-15.58-48.28-16.59-5.29-.3-10.58-.28-15.85,1.13.19-.84.97-.87,1.51-1.12,16.1-7.34,32.91-12.11,50.52-13.98,1.14-.12,2.82.2,3.26-.9.37-.93-1-1.88-1.68-2.76-.92-1.2-1.94-2.32-2.93-3.47-.97-1.12-1.95-2.22-2.83-3.43,4.36,2.29,8.29,5.19,12.1,8.23,1.14.91,2.28,1.28,3.7,1.38,9.45.65,18.71,2.54,27.89,4.78.66.16,1.46.65,1.94.18.63-.62-.01-1.43-.29-2.08-3.43-8.04-9.2-14.15-16.2-19.14-12.29-8.76-25.92-12.84-41.04-11.13-9.57,1.08-17.85,5.37-25.73,10.67-8.58,5.77-16.15,12.46-21.11,21.7,6.7-34.5-7.11-58.65-37.79-73.67-15.1-7.39-31.02-7.97-47.55-1.89,4.27,2.92,7.93,5.43,11.6,7.95.75.51,1.61.92,2.21,1.57,3.72,4,8.46,5.25,13.71,5.77,3.95.39,7.83,1.55,11.74,2.65-3.3.35-6.61.63-9.89,1.1-1.26.18-3.11-.32-3.6,1.22-.44,1.38,1.24,2.08,2.1,2.96,4.64,4.77,9.5,9.33,13.69,14.5,1.04,1.28,2.43,1.72,3.94,1.98,3.65.64,7.2,1.65,10.73,3.11-2.63.12-5.26.22-7.88.39-.72.05-1.68-.19-2.05.63-.37.83.48,1.37.9,1.94,6.81,9.26,13.83,18.38,19.36,28.52.85,1.55,1.69,3.11,2.37,4.78-3.81-5.3-8.16-10.1-13.42-13.9-20.62-14.89-43.23-20.48-67.94-12.81-18.03,5.59-30.02,17.85-35.63,36.03-.47,1.53-1.54,3.65-.48,4.69.94.92,2.89-.48,4.37-.93,7.69-2.34,15.51-4.12,23.5-4.97,1.95-.21,3.19-1.06,4.21-2.58,3.06-4.53,6.89-8.36,11.18-11.85-1.83,4.44-4.47,8.54-5.82,13.45,1.75-.12,3.39-.23,5.02-.36,7.47-.56,14.94-.93,22.43-.91,1.34,0,2.26-.41,3.1-1.43,2.39-2.91,5.07-5.54,8.48-7.59-1.19,2.34-2.32,4.71-3.58,7.01-1.1,1.99-1.1,2.18,1.25,2.32,9.97.59,19.86,1.89,29.73,3.36.34.05.68.16,1.66.41-8.81.59-16.68,2.34-24.11,5.75-13.32,6.11-24.71,14.63-32.69,27.14-8.48,13.3-11.76,27.99-11.08,43.64.06,1.37-.16,3.29,1.28,3.84,1.16.44,2.12-1.17,3.05-1.98,6.33-5.51,12.86-10.78,19.48-15.93,1.44-1.12,2.32-2.37,2.59-4.26.78-5.29,1.77-10.55,3.08-15.84.45,4.7.91,9.4,1.4,14.59,3.4-3.11,6.46-5.94,9.55-8.74,2.19-1.98,4.4-3.93,6.63-5.85,1.38-1.19,2.16-2.59,2.36-4.44.42-3.85,1.04-7.68,2.19-11.94,1.02,2.63,1.15,4.89,1.53,7.09.53,3.06.57,3.1,2.91,1.21,7.25-5.82,14.51-11.64,22.42-16.57.5-.31,1.05-.55,1.58-.82,1.56-.1,2.45-1.38,3.65-2.11,2.15-1.3,2.55-1.25,3.29,1.22,1.29,4.33,3.35,8.4,4.1,12.9.06.38.27.7.66.86Z" style="fill: #66b14e; stroke-width: 0px;"/>
        <path d="M2969.44,122.9c-.47-5.75-3.32-10.77-4.94-16.17-.38-1.25-1.21-.95-1.94-.44-1.67,1.16-3.48,2.14-4.81,3.73-.73,14.76-.78,29.54-.96,44.32-.46,37.32,4,74.25,8.95,111.15.57,4.26,1.18,8.52,1.77,12.78,2.94,19.99,6.81,39.79,11.98,59.33.66,2.48,1.4,4.95,2.11,7.42.16.61.7.8,1.2.89,4.53.83,7.57,3.87,10.54,7.04.9.96,1.6,2.65,3.08,2.31,1.57-.36,1.16-2.24,1.59-3.47,1.58-4.5,3.27-8.94,6.69-12.46,1.43-1.48,2.98-2.76,4.9-3.58.93-.4,2.08-.65,2.26-1.95-3.6-15.48-9.95-30.1-14.16-45.39-.2-.73-.37-1.46-.55-2.19-3.04-8.56-5.27-17.37-7.8-26.08-8.9-30.63-13.36-62.02-16.23-93.68-1.25-13.84-2.28-27.69-3.41-41.54-.06-.68-.18-1.35-.27-2.02Z" style="fill: #a26d3d; stroke-width: 0px;"/>
      </g>
      <path id="_2-sand" data-name="2-sand" d="M.16,1603.68h3364c-.21-435.95-.41-871.91-.62-1307.87-193.96-43.85-353-57.29-460.39-61.65-249.58-10.14-292.13,25.79-700.76,30.08-121.25,1.27-259.88-.4-401.14-2.1-73.71-.89-136.54-1.92-186.1-2.84-59.84-1.11-80.46-2.59-120.18-2.43,0,0-76.68.32-164.57,7.37C1226.83,272.55,703.32,396.39.16,610.22v993.46Z" style="fill: #fdc870; stroke-width: 0px;"/>
      <path id="_2-water-2" data-name="2-water-2" d="M.17,1601.24h3364V238.95c-126.8,67.85-320.15,152.91-565.17,187.58-445.92,63.1-551.08-113.13-1097.14-162.29-612.9-55.17-932.34,126.17-1328-20.57-17.88-8.71-35.17-15-51.48-19.5C180.15,184.87,47.67,262.83,0,294.3c.05,435.65.11,871.29.17,1306.94Z" style="fill: #c5faff; stroke-width: 0px;"/>
      <path id="_2-water-1" data-name="2-water-1" d="M.16,1601.99h3364V564.25s-24.97,37.15-89.08,42.71c-64.11,5.56-171.68-79.74-254.47-83.37-82.79-3.64-124.47,61.81-270.49,83.37-146.02,21.56-450.22-203.83-655.26-209.99-205.04-6.16-308.36,90.85-470.42,81.2-162.05-9.65-250.65-114.5-404.63-126.64-153.99-12.15-463.34,104.46-571.52,100.44-108.18-4.02-219.28-62.31-300.3-68.59-81.02-6.29-70.16,17.65-140.74,24.54C136.68,414.8.16,351.52.16,351.52v1250.47Z" style="fill: #98e9f4; stroke-width: 0px;"/>
      <g id="_2-waves" data-name="2-waves">
        <path d="M828.76,884.36c71.18-62.86,234.54-17.8,242.36-56.81,3.73-18.63-26.14-40.68-21.08-73.59,1-6.52,4.84-13.24,13.12-20.24,41.11-34.78,103.21-24.11,190.53,2.34,10.35,3.13,19.23,5.95,26.98,8.51,6.41-1.44,12.91-2.55,19.35-3.77,9.56-1.81,18.69-4.43,27.57-8.13,24.2-10.06,51.19.91,60.98,24.91,2.93,7.18,1.81,16.49-2.02,25.25,59.26,12.55,165.14-89.65,205.18-84.9,36.2,4.29,41.16,48.46,80.09,60,27.99-2.13,50.33-15.11,71.55-34.43,28.17-25.66,64.05-31.91,101.17-29.78,33.12,1.9,62.41,13.83,86.97,36.61,2.11,1.95,3.87,3.47,4.44,6.62.26,1.45.55,2.88.86,4.29,14.44,13.14,22.88,24.87,49.37,25.62,47.5,1.35,39.07-30.66,96.42-47.16,57.35-16.49,220.4-42.56,352.38,92.89,2.24,2.3,4.42,4.52,6.53,6.66,16.18-6.68,30.78-16.29,43.9-28.94-3.42-13.62-5.4-26.5-3.81-36.26,8.5-52.26-45.02-30.83-86.58-31.58-41.56-.75-297.51-215.04-506.62-153.21-209.12,61.83-255.3,7.92-473.7,74.26-218.4,66.34-298.4,14.32-406.9,0-108.5-14.32-191.11,40.15-213.62,119.2-22.5,79.05-81.26,23.28-137.28,79.16-56.02,55.88,15.79,44.28,7.64,104.88-8.15,60.6-69.3,4.3-80.24,53.09-10.94,48.79,41.31,180.55,52.43,216.21,11.12,35.66,79.18,104.42,105.88,135.76s181.05,68.82,233.4,112.23c52.35,43.41,196.89-1.11,257.46,69.55,60.57,70.66,80.79,35.63,113.14,0,32.35-35.63,60.86-33.9,48.74-77.46-12.12-43.57-62.36-44.17-89.19-31.77-26.83,12.4-29.77,44.67-79.3,39.69-45.2-4.55-74.91-40.51-105.32-61.26-58.33-39.79-107.56-10.17-160.43-24.59-146.88-40.07-240.98-397.89-132.35-493.82Z" style="fill: #1572a4; stroke-width: 0px;"/>
        <path d="M2094.58,859.12c1.54,9.12,12.16,14.72,17.59,17.58,21.42,11.29,33.31,1.33,44.93,9.49,12.41,8.71,2.11,22.35,13.04,58.51,9.51,31.47,18.4,34.05,36.99,63.55,2.44,3.88,5.22,7.59,9.58,9.12,3.64,1.27,7.9.15,11.44-4.15,3.18-3.85,1.98-7.24.64-10.16-4.21-9.16-7.03-19.5-13.73-26.55-2.08-2.19-3.46-5.45-4.35-8.76-1.25-4.64-2.87-8.96-4.8-12.98-4.22-8.77-9.1-14.46-11.21-16.96-15.86-18.78,3.58-73.52-16.12-89.52-16.31-13.24-67.44-6.43-72.24-12.18-.25-.3-1.58-2.07-3.62-2.29-1.31-.14-2.86.43-4.77,2.19-1.65,1.74-3.3,3.48-4.95,5.22-.29,2.12-.52,5-.27,8.41,0,0,1.08,4.89,1.86,9.49Z" style="fill: #1572a4; stroke-width: 0px;"/>
        <path d="M2447.89,971.99c-7.14-5.28-13.13-11.63-18.86-18.45-2.01-2.39-3.84-4.81-5.5-7.26-65.08-39.4-117.64-93.48-128.97-102.27-15.96-12.39,23.55,146.15,136.49,177.69,112.95,31.54,44.55,170.62-10.85,231.2-14.34,15.68-45.48,29.55-83.71,42.21-7.52,7.76-11.23,9.27-11.23,9.27l-75.29,16.86-42.06,9.42c-78.53,19.94-147.51,37.84-146.01,57.46,3.14,41.1,328.86-122.58,408.24-97.17,79.38,25.42,136.96-283.33,37.57-307.78-.82-.2-1.65-.43-2.47-.64-20.09,5.79-46.47,2.18-57.36-10.54Z" style="fill: #1572a4; stroke-width: 0px;"/>
        <path d="M1963.07,1417.39c-18.85-6.42-38.59-8.79-58.23-11.73-1.1-.17-2.2-.31-3.3-.45-1.67,1.97-3.57,3.89-5.77,5.74-13.38,11.31-29.36,17.8-45.65,23.5-26.75,9.36-53.73,17.7-80.31,21.55-3.13.55-6.31.95-9.55,1.19-3.75.39-7.49.69-11.21.87-11.53.21-20.4-.75-28.42-4.33-10.87-1.63-21.77-2.97-32.66-3.07-40.36-.38-79.54,9.14-118.87,16.81-10.89,2.12-24.49,18.2-23.44,27.34,1.56,13.57,13.54,14.63,23.44,16.35,19.69,3.41,39.59,1.93,59.44.64,23.68-1.55,46.94-4.8,70.49,5.33,30.29,13.02,62.22,21.7,98.56,20.14,22.59,1.98,45.69-2.46,65.3-20.24,8.96-8.12,19.65-14.32,29.45-21.54,21.72-16,46.64-25.1,71.69-34.17,11.94-4.33,18.86-13.42,18.67-26.97-.18-13.18-11.16-14.05-19.64-16.94Z" style="fill: #1572a4; stroke-width: 0px;"/>
        <path d="M1012.32,1161.52c-15.16,25.06-97.71-49.49-37.9-86.55,59.8-37.06,20.7-104.87,37.93-104.87,17.24,0,61.88,7.58,85.26,0,23.37-7.58-11.54-77.7,15.16-77.7s54.12,11.58,78.97,18.95c24.85,7.37,96.45-16.64,113.08-8.84,16.64,7.79-77.7,62.54-95.39,65.7-17.69,3.16-29.06-19.16-56.22-3.79-27.16,15.37,19.58,46.12-8.21,49.28-27.8,3.16-86.76-9.32-76.44,13.34,10.32,22.66,57.91,4.13,25.27,68.15-32.64,64.02-1.05-99.81-52.43-49.28-51.38,50.54-13.9,90.55-29.06,115.61Z" style="fill: #1572a4; stroke-width: 0px;"/>
        <path d="M1451.85,873.33c-7.94.52-15.3-.41-21.21-6.48-5.57-5.72-6.49-12.33-2.02-18.53,7.27-10.08,15.37-19.31,28.19-23.14,12.61-3.77,24.37-10.66,38.14-9.83,10.69.65,20.26,4.22,24,14.93,3.83,10.95-4.93,16.11-12.06,22.3-15.94,13.86-34.59,19.54-55.06,20.74Z" style="fill: #065c7f; stroke-width: 0px;"/>
        <path d="M2144.86,1206.2c-12.76-2.54-25.79-3.55-35.57-13.22-7.44-7.35-6.59-11.06,3.39-13.65,16.65-4.33,30.73-13.56,44.58-23.1,19.22-13.25,40.15-23.34,61.06-33.39,16.25-7.81,27.8-3.25,31.99,10.83,1.99,6.69-.33,12.33-3.99,16.87-26.16,32.5-60.78,49.8-101.47,55.66Z" style="fill: #107390; stroke-width: 0px;"/>
        <path d="M1745.41,1323.44c3.83,5.79,7.67,11.59,11.5,17.38-.55,7.03-6.07,8.76-12.36,9.59-61.29,8.14-122.59,15.95-184.15,20.89-30.08,2.41-60.02,8.4-90.09,11.97-22.27,2.64-44.45,2.55-66.19-1.84-6.04-1.22-12.71-1.83-18.88-.92-19.83,2.93-38.75-.83-58-2.18-6.14-.43-12.73-1.35-13.63-7.61-1-7,3.59-12.66,10.71-15.99,8.54-3.99,17.9-4.67,27-4.86,48.36-1,96.35,3.27,144.85.45,23.88-1.39,47.42-6.48,71.17-9.13,36.84-4.11,73.7-8.14,110.58-11.56,17.14-1.59,33.76-6.17,50.78-8.35,6.73-.86,12.63-2.78,15.29,4.63,0,0,.94-.16,1-.34.24-.69.29-1.42.42-2.14Z" style="fill: #1572a4; stroke-width: 0px;"/>
        <path d="M2852.51,1443.5c14.24-105.4-36.77-181.6,133.07-397.24,41.67-52.91,109.88-100.1,89.08-131.93-7.04-10.77-21.4-16.3-32.74-19.32-16.52.76-33.04,1.51-49.57,2.27-32.43,13.44-90.21,40.5-142.92,85.16-46,38.98-68.63,74.83-79.73,96.4,14.24-4.06,28.41-5.49,38.11-2.89,32.4,8.68,39.85,34.63,17.01,58.62-8.38,8.81-15.25,17.82-21.07,27.22-3.92,6.33-7.7,12.71-11.93,19.03,1.26,7.47,2.53,16.05,3.8,26.03,10.69,84.28,6.21,144.51-58.83,185.92-13.1,8.34-24.32,12.33-34.32,13.55-50.47,6.15-73.41-22.21-102.27-17.88-54.22,8.13-97.72,133.51-146.16,212.8h288.1c59.47-39.3,101.81-94.41,110.37-157.73Z" style="fill: #1572a4; stroke-width: 0px;"/>
        <path d="M2167.39,1542.1c7.6-10.47,17.19-19.11,26.52-28.03.52-.5,1.05-.99,1.58-1.47,1.62.42,3.35.72,5.21.89,11.34.99,22.25-1.54,33.03-4.62,17.7-5.05,35.15-10.72,50.69-18.63,1.87-.88,3.71-1.86,5.51-2.94,2.13-1.2,4.23-2.44,6.28-3.74,6.2-4.21,10.55-8.04,13.46-12.94,5.16-4.93,10.44-9.73,16.18-13.86,21.28-15.31,45.64-24.93,69.38-35.58,6.57-2.95,19.81.49,22.67,5.73,4.26,7.79-1.71,12.84-6.32,17.45-9.17,9.18-20.29,15.85-31.31,22.59-13.15,8.04-26.71,15.03-35.42,29.22-11.2,18.25-24.9,34.81-44.77,47.58-11.25,9.51-25.17,15.8-42.24,13.71-7.8-.96-15.79-.25-23.7-.41-17.52-.36-34.15,4.14-50.84,8.7-7.96,2.17-15.03-.06-20.01-7.32-4.84-7.06.66-11.64,4.08-16.35Z" style="fill: #1572a4; stroke-width: 0px;"/>
        <path d="M859.55,580.31c-10.16,22.05-129.98,32.75-137.78,33.42-85.54,7.33-144.82-2.97-181.52,20.05-4.08,2.56-6.99,4.83-7.87,5.78-11.46,12.3,4.31,27.67-11.06,67.23-7.3,18.79-15.6,16.52-16.45,30.24-.98,15.84,11.14,30.18,26.97,48.48,12.31,14.22,17.73,17.19,14.04,22.07-9.12,12.08-61.26,19.05-75.01,9.46-9.98-6.96,5.89-18.73-4.38-24.24-13.69-7.36-50.66,8.9-61.45,2.2-7.69-4.78,1.26-19.15,15.05-28.07,13.07-8.46,23.56-7.53,35.85-17.32,7.08-5.64,14.32-14.49,9.25-18.19-4.51-3.3-15.41-.07-18.87-2.8-5.9-4.68,17.7-20.65,21.39-23.21,56.4-39.17,11.6-106,52-119.53,26.96-9.03,54.63,18.16,96.18,6.87,24-6.52,32.18-20.32,68.16-27.18,7.25-1.38,13.83-2.14,26.69-5.06,17.88-4.05,31.92-8.66,41.13-11.97,6.85-1.69,19.1-4.13,33.88-3.92,22.8.33,36.92,6.79,41.8,9.3,17.06,6.57,36.65,16.32,32,26.41Z" style="fill: #1572a4; stroke-width: 0px;"/>
        <path d="M436.74,1438.5c-9.48-55.86,16.33-152.69-19.96-175.5-17.27-10.86-42.58-2.57-73.3-20.8-6.09-3.61-11.96-9.06-17.48-17.38-27.41-41.32-8.42-74.7,29.23-116.38,4.46-4.94,8.41-9.12,11.95-12.73-.46-4.61-.61-9.13-.87-13.66-.1-1.74-.25-3.48-.46-5.24-.88-7.25-2.55-12.83-3.4-15.49-10.81-34.15-17.21-44.13-16.69-60.68.48-15.09,6.09-16.14,6.86-36.57.44-11.62-1.01-21.19-2.29-27.43-5.82-13.11-12.2-22.97-17.14-29.71-4.56-6.22-7.34-10.75-12.57-14.86-5.96-4.67-11.96-6.99-16.09-8.21-4.88,1.6-9.75,3.19-14.63,4.79-1.74,4.17-4.22,10.89-5.85,19.42-5.38,28.1,3.17,51.36,5.55,58.6,16.47,50.26,11.04,119.95-2.47,156.5-14.6,39.51-39.52,61.87-55.17,94.34-29.05,60.31,11.29,136.26,83.64,186.44,72.34,50.18,10.73,60.79,56.19,120.99,45.46,60.2,44.55,10.6,101.3,43.46,24.26,14.04,26.73,24.25,25.14,33.61h142.14c-147.02-53.64-194.93-112.24-203.62-163.49Z" style="fill: #1572a4; stroke-width: 0px;"/>
      </g>
      <g id="_2-plastic-bag-2" data-name="2-plastic-bag-2" style="opacity: .8;">
        <path d="M2230.24,1271.29c-6.27-6.3-11.23-13.48-15.87-21.08-13.39-21.94-14.92-44.28-4.73-67.86,3.32-7.67,5.67-15.89,7.43-24.07,6.42-29.86-11.69-53.06-42.83-55.01-8.81-.55-17.69-.42-26.52-.1-12.41.45-22.76-4.46-31.94-11.99-9.77-8.02-9.66-14,.92-20.73,14.08-8.95,30.04-13.95,46.36-16.05,35.87-4.61,65.64-19.91,89.89-46.64,7.07-7.79,11.19-16.46,12.34-26.78,2.06-18.46,14.73-30.11,33.72-30.39,25.88-.38,50.98,5.44,76.11,10.57,19.97,4.08,40.55,5.57,59.58,13.91,10.1,4.43,19.83,9.49,25.91,18.91,16.67,25.81,30.4,52.64,32.14,84.43,1.25,22.8,5.39,45.4,4.92,68.39-.28,13.81-3.23,27.07-6.04,40.39-2.56,12.16-10.22,19.56-21.58,25.39-53.63,27.53-107.78,53.72-165.74,71.1-19.97,13.8-62.15,6.74-74.08-12.4Z" style="fill: #88d8b4; stroke-width: 0px;"/>
        <path d="M2427.05,1162.31c.23,8.62-4.27,13.31-9.09,14.99-6.41,2.23-5.34-5.46-6.9-8.75-22.64-47.69-39.51-97.54-54.86-147.96-1.87-6.15-1.04-11.95,4.06-14.97,5.82-3.44,6.37,4.11,9.32,6.67,7.72,6.7,5.96,17.04,9.47,25.42,13.14,31.36,26.14,62.79,38.67,94.39,4.11,10.36,6.63,21.35,9.32,30.21Z" style="fill: #ade5ea; stroke-width: 0px;"/>
      </g>
      <g id="_2-bottle-2" data-name="2-bottle-2" style="opacity: .86;">
        <g>
          <path d="M1878.12,1419.05l-83.62-21.79-152.48-39.73s-49.01-29.95-34.53-82.93c14.48-52.97,71.57-52.82,71.57-52.82l223.75,59.01c14.93,8.75,27.18,23.06,36.85,42.72l25.89,13.85,25.91,6.33s21.05,3.69,12.46,38.58c-8.59,34.89-32.65,26.35-32.65,26.35l-19.9-5.61-14.16-9.39s-13.58,9.98-32.8,18.02c-19.22,8.04-26.29,7.42-26.29,7.42Z" style="fill: #e4f0f4; stroke-width: 0px;"/>
          <path d="M1797.5,1397.13l-73.34-21.67s-19.03-29.3-5.05-74.29c13.98-44.99,48.82-57.46,48.82-57.46l70.95,18s-38.6,25.67-45.84,59.69c-7.24,34.02,4.46,75.73,4.46,75.73Z" style="fill: #86ea9b; stroke-width: 0px;"/>
          <path d="M1938.95,1392.5c12.08,12.94,39.04,19.05,54.91,12.44,5.39-5.73,9.47-12.63,11.03-20.06,6.3-30,3.96-42.82-35.18-49.18-18.04-.37-31.76,46.57-30.76,56.81Z" style="fill: #2d8aab; stroke-width: 0px;"/>
        </g>
      </g>
      <g id="_2-bottle-1" data-name="2-bottle-1">
        <path d="M912.9,1227.33c-7.43-16.6-13.07-33.86-18.77-51.09-2.03-1.43-3.43-3.35-3.99-5.75-3.33-14.17-6.76-28.33-7.91-42.91.41-2.21,1.45-3.94,3.66-4.78,22.5-8.53,43.37-20.76,65.99-29.03,12.73-4.65,25.81-7.86,39.13-10.12,4.41-.75,8.98-1.69,12.73,2.04,8.87,16.92,21.13,31.62,31.26,47.72,14.36,22.83,21.71,47.43,19.83,74.5-.83,11.91-4.46,22.76-12.82,31.67-3.14,3.35-6.66,6.02-11.19,7.16-7.48.77-15.03,2.06-21.81-2.74-3.9-2.12-7.67-4.45-11.34-6.97-5.71-3.91-8.17-3.28-12.08,2.65-2.89,4.39-3.53,9.86-6.68,14.14-3.16,4.22-6.26,8.54-11.73,10.06-13.98,8.38-31.89,2.48-43.02-14.82-4.4-6.83-7.54-14.47-11.25-21.74Z" style="fill: #8eceb8; stroke-width: 0px;"/>
        <path d="M914.5,934.56c5.07,15.03,13.19,26.14,30.97,27.29,5.78.37,11.36,3.85,17.04,5.91,20.4,13.45,28.16,33.89,31.84,56.79,2.39,14.88-.98,30.16,3.52,44.84-.49,5.64-5.24,4.31-8.44,4.77-33.26,4.87-63.17,18.38-91.99,34.94-4.93,2.83-7.52,9.19-14.21,9.21-7.39-7.87-10.1-17.96-13.18-27.88-.29-.56-.58-1.13-.87-1.69-2.82-2.56-4.62-5.73-5.64-9.37-10.53-17.54-16.07-35.92-10.63-56.56,3.59-13.63,8.54-26.67,16.16-38.49,6.48-10.04,9.06-20.64,7.14-32.38-1.56-3.23.6-4.99,2.83-6.38,9.42-5.89,20.2-8.5,30.45-12.39,1.78-.68,3.62-.09,5.01,1.4Z" style="fill: #81cbbb; stroke-width: 0px;"/>
        <path d="M882.72,1117.44c19.73-18.21,44.39-27.31,68.79-36.68,13.49-5.19,27.53-8.87,42.14-9.53,1.63-.07,3.11-.53,4.21-1.84,3,5.06,4.62,10.61,5.87,16.3-21.81.35-42.32,6.5-61.96,15.21-15.45,6.85-31.52,12.57-45.79,21.87-3.7,2.41-8.87.46-11.78,4.54-5.09-2.59-4.34-6.07-1.49-9.86Z" style="fill: #4bb6b1; stroke-width: 0px;"/>
        <path d="M914.5,934.56c-12.82,3.64-25.27,8.22-36.97,14.65-.72.4-.89,1.79-1.32,2.72-1.97-1.7-4.47-1.23-6.75-1.71-5.59-1.18-8.45-4.68-8.94-10.47-1.4-16.56,2.13-22.64,17.43-29.36,8.25-1.11,16.26-3.21,24.9-1.62,12.27,2.26,14.39,4.11,13.34,16.48-.27,3.13-1.11,6.21-1.69,9.31Z" style="fill: #2a9da2; stroke-width: 0px;"/>
        <path d="M1008.55,1241.62c-7.73,11.4-20.06,10.04-31.43,11.33,3.3-5.07,3.2-11.61,7.15-16.39,4.06-4.91,8.25-8.03,14.28-2.41,3.02,2.82,6.65,5,10,7.46Z" style="fill: #37a8aa; stroke-width: 0px;"/>
      </g>
      <g id="_2-plastic-bag-1" data-name="2-plastic-bag-1" style="opacity: .8;">
        <path d="M1195.65,1142.81c30.15-9.74,60.2-5.81,90.13,1.02,9.11,2.08,16.9,7.18,23.63,13.7,5.43,5.26,7.47,11.13,4.28,18.67-2.97,7.02-8.79,6.47-14.46,6.5-22.11.15-44.27-.74-66.18,3.4-2.52.48-4.99,1.28-7.48,1.94-1.32,1.44-.7,3.29-1.07,4.94-3.53,15.94,1.01,24.57,16.91,29.26,21.41,6.32,41.98,16.07,64.87,16.72,2.55.07,4.81,1.8,7.38,2.15,15.68,2.15,30.91-1.59,46.15-4.07,15.43-2.51,28.95.59,41.45,9.86,11.56,8.58,22.29,18.12,33.19,27.48,10.39,4.83,17.06,14.21,25.75,21.13,13.86,11.03,28.84,19.48,45.96,24.19,4.05,1.11,9.72,1.41,8.48,8.3-12.14,22.67-42.52,22.48-61.46,14.7-16.41-6.73-28.15-19.83-41.81-30.3-11.26-8.64-22.87-16.54-36.33-21.3-4.01-1.42-8.83-3.37-12.27-.02-3.4,3.32-.39,7.7.84,11.34,3.28,9.7,8.76,17.82,16.58,24.78,10.7,9.51,21.65,18.73,28.59,31.98,14.54,27.76,2.26,47.15-18.1,60.39-9.14,5.94-19.13,10.61-28.87,15.58-9.03,4.61-18.21,9.37-25.12,16.63-30.79,32.37-68.1,20.42-91.59-.75-14.34-12.92-24.53-29.03-34.94-44.89-5.52-8.41-12.53-13.9-21.37-17.99-15.71-7.26-30.81-15.62-45.12-25.41-12.72-8.71-23.71-18.7-32.01-32.11-19.77-31.92-14.81-63.16,1.07-94.3,5.74-11.26,12.67-21.91,19.06-32.84.12-3.85,1.49-7.22,3.82-10.25,13.71-17.83,28.29-34.75,48.06-46.32,3.76-2.2,7.56-3.99,11.98-4.14Z" style="fill: #47a7b8; stroke-width: 0px;"/>
        <path d="M1250.95,1367.2c.45-2.55-.73-6.12,2.72-6.55,2.73-.34,4.35,2.59,5.47,4.89,6.12,12.58,13.48,25.17,25.99,31.18,10.37,4.98,18.07,13.33,28.36,17.99,4.18,1.89,10.86,3.92,8.87,9.68-2.08,6.05-8.56,8.65-15.16,7.11-16.65-3.89-29.95-13.61-39.91-26.93-8.21-10.98-15.13-23.17-16.34-37.36Z" style="fill: #21839d; stroke-width: 0px;"/>
      </g>
      <path id="_2-litter-2" data-name="2-litter-2" d="M1278.21,821.6c-9.74.18-17.09-.69-23.78-3.99-18.88-9.3-21.2-32.51-4.78-45.88,5.32-4.33,11.57-7.24,18.04-8.56,25.41-5.18,49.78-13.87,74.57-21.18,11.04-3.26,22.38-5.43,33.88-6.07,13.67-.76,23.27,5.48,27.89,17.39,4.43,11.42,1.5,21.92-8.96,30.76-10.66,9.01-23.38,14.18-36.36,18.72-26.88,9.4-54.06,17.54-80.5,18.8Z" style="fill: #fdb556; opacity: .7; stroke-width: 0px;"/>
      <path id="_2-litter-1" data-name="2-litter-1" d="M2248.01,775.06c-23.78-5.87-48.12-7.85-72.31-11.02-12.22-1.6-18.55-12-20.06-24.19-1.45-11.69,3.74-19.87,14.15-25.38,14.11-7.48,29.67-9.75,44.94-12.65,9.56-1.81,18.69-4.43,27.58-8.13,24.2-10.06,51.2.91,60.99,24.91,6.52,15.98-6.97,42.48-25.85,50.04-9.34,3.74-19.04,6.49-29.44,6.42Z" style="fill: #e4561b; opacity: .8; stroke-width: 0px;"/>
      <g id="_2-cup" data-name="2-cup" style="opacity: .9;">
        <path d="M1384.14,1020.78c-6.36,4.8-11.54,11.05-18.49,15.12-6.84,4-14.19,6.31-22.2,6.23-19.25-4.79-32.81-18.08-46.49-31.16-10.29-9.84-12.71-21.87-9.71-35.42,1.49-6.73,5.39-12.01,9.67-17.12,14.17-16.92,27.21-34.62,37.9-53.98.83-1.51,1.7-3,2.56-4.49,1.94-.81,2.21.99,2.93,1.95,4.29,5.75,9.89,10.4,13.81,16.46,9.83,11.02,19.4,22.22,31.07,31.5,7.31,5.81,14.36,11.97,21.94,17.45,5.63,4.07,10.95,9.01,18.86,7.61.79-.14,1.36.59.93,1.55-9.98,12.48-21.86,23.13-33.32,34.15-3.36,3.23-6.11,6.95-9.45,10.16Z" style="fill: #a5d6c4; stroke-width: 0px;"/>
        <path d="M1345.53,878.82c1.57-11.59,9.33-17.59,21.58-17.03,12.14.55,22.04,6.67,31.29,13.36,22.31,16.13,43.67,33.48,62.54,53.65,2.12,2.26,4.04,4.8,5.6,7.47,5.74,9.81,3.8,20.12-5.21,27.07-9,6.95-19.61,9.19-30.7,9.76-2.94.83-5.27-.47-7.64-1.99-14.67-9.42-28.5-19.92-41.66-31.34-8.05-6.98-14.1-15.65-20.56-23.99-3.37-4.72-6.87-9.33-10.5-13.85-5.57-6.93-8.08-14.41-4.75-23.12Z" style="fill: #e5eac8; stroke-width: 0px;"/>
        <path d="M1362.37,915.23c16.42,23.39,39.47,39.26,62.55,55.1,1.73,1.19,3.82,1.87,5.74,2.78-1.25,1.12-2.49,2.24-3.74,3.35-8.48,2.9-14.31-2.63-20.06-6.97-12.53-9.46-25.46-18.58-36.1-30.24-6.08-6.66-13.47-12.24-17.87-20.39,2.59-2.7,5.87-3.61,9.48-3.63Z" style="fill: #7bc1c0; stroke-width: 0px;"/>
        <path d="M1362.37,915.23c-2.64,2.58-5.79,3.82-9.48,3.63-5.26-6.23-11.68-11.51-15.5-18.92,2.44-7.15,3.71-14.75,8.15-21.12-1.46,11.49,4.03,20.15,11.24,28.23,2.18,2.44,3.74,5.43,5.59,8.18Z" style="fill: #73bec0; stroke-width: 0px;"/>
        <path d="M1437.48,917.58c6.44,5.5,11.13,12.51,16.25,19.12,2.68,3.46,4.62,8.03,1,11.75-4.22,4.33-8.65,6.82-14.62,3.97-8.68-4.14-16.66-9.39-24.11-15.41-17.13-13.83-35.44-26.38-48.8-44.35-1.28-1.71-2.42-3.53-3.53-5.36-2.21-3.64-1.35-7.3.68-10.52,2.02-3.21,5.57-3.05,8.94-2.91,8.5.37,15.91,3.66,22.58,8.68,6.53,4.92,12.88,10.08,19.31,15.13,2.52,3.84,4.84,7.79,7.42,11.6,3.74,5.51,8.08,8.82,14.89,8.3Z" style="fill: #5eb2bf; stroke-width: 0px;"/>
        <path d="M1437.48,917.58c-6.42,3.16-7.59,2.68-11.89-4.25-1.57-2.52-3.29-4.97-5.2-7.16-2.14-2.44-2.77-5.23-2.38-8.5,7.82,4.93,13.62,12.45,19.48,19.9Z" style="fill: #9cccc3; stroke-width: 0px;"/>
      </g>
      <g id="_2-people" data-name="2-people">
        <g id="_2-guy" data-name="2-guy">
          <path d="M2515.14,317.14s1.67,27.01,2.4,31.24,2.66,12.2,2.69,15.57c.03,3.37-.84,6.16.48,8.01,1.32,1.85,2.41,4.04,5.26,5.16s10.53-.26,12.89-.83c2.36-.56,4.15.37,4.29-3.19.14-3.57-3.01-10.7-2.17-21.23.83-10.53,3-22.47,3-22.47l3.59,1.31s.14,18.46,1.03,20.89,2.69,14.22,4.44,17.26c1.76,3.03,7.53,9.54,9.29,9.83s6.56,2.15,8.66,2.15,4,.2,4.54-1.42l.54-1.62s-3.17-3.22-3.95-13.26.72-7.54.7-18.46c-.01-10.93-.22-11.77-.7-16.68s.45-11.79.45-11.79l-57.43-.48Z" style="fill: #fba778; stroke-width: 0px;"/>
          <path d="M2558.58,160.94c3.82-11.07,1.74-21.07-5.81-25.85-8.98-5.68-17.74-2.05-25.06,2.86-9.46,6.36-4.69,15.09-1.34,23.06.28.64.31,1.39.44,2.09,11.12,7.11,21.68,6.03,31.76-2.16Z" style="fill: #0c2245; stroke-width: 0px;"/>
          <path d="M2526.82,163.1c.02.59.08,1.56.24,2.73.93,6.87,3.6,8.5,3.85,14.02.12,2.76,0,4.96,0,4.96l23.87-.29c.95-.9,7.47-7.23,6.51-16.07-.36-3.33-1.67-5.9-2.71-7.52-1.83,1.5-7.45,5.72-15.85,6.19-8.02.45-13.86-2.77-15.91-4.03Z" style="fill: #fba778; stroke-width: 0px;"/>
          <path d="M2504.94,226.96s-3.7,25.93-2.36,39.66c1.35,13.73,1.35,36.67,3.39,37.2s4.47-2.33,4.47-2.33c0,0,4.35-32.06,5.07-37.54.72-5.49-.01-27.88-.01-27.88,0,0-.76-5.72-2.76-7.6s-7.81-1.51-7.81-1.51Z" style="fill: #fba778; stroke-width: 0px;"/>
          <path d="M2587.84,222.83s2.74,3.17,2.55,12.25c-.18,9.08-6.17,52.19-6.85,56.21s-1.92,8.58-3.8,9.61c-1.88,1.04-10.33.72-10.33.72l-1.15,3.86-4.25-23.15,4.06-7.75,3.12-27.37,5.14-18.65,11.52-5.73Z" style="fill: #fba778; stroke-width: 0px;"/>
          <path d="M2513.35,285.57s-2.11,14.89-2.39,18.86c-.29,3.97.79,12.83,1.2,16.01l1.07,8.5s4.56-1.87,8.82-1.98c4.26-.11,8.84,5.57,12.6,5.76,3.76.18,10-1.66,10-1.66h2.84s-.66-.32,1.33-2.12,17.97,1.96,22.82-4.42c4.85-6.38,3.43-5.85,4.21-7.53s-.75-13.5-.75-13.5l-4.8-20.12s-22.82,3.76-29.27,3.55c-6.45-.22-27.68-1.35-27.68-1.35Z" style="fill: #0c2245; stroke-width: 0px;"/>
          <path d="M2515.34,237.66c-.33,16.18-.28,32.36-2.46,48.43,19.54,1.73,39.05,2.65,58.29-2.55,0-.01,0-.02,0-.03,3.73-12.23,3.03-25.04,3.31-37.46.26-11.38,1.65-19.92,13.95-23.04h0c-1.42-5.11-2.61-10.3-4.28-15.33-6.26-18.87-10.69-22.2-30.16-23.22h.01s-.01,0-.02,0c-7.89.1-15.78.2-23.67.28,0,0,0,0-.01.01-17.74,5.89-30.66,27.6-25.24,42.39,7.88-.83,10.44,2.76,10.28,10.52Z" style="fill: #d84f23; stroke-width: 0px;"/>
        </g>
        <g id="_2-gal" data-name="2-gal">
          <path d="M2646.63,222.36c1.64-.08,5.71-.08,10.1,1.93,3.8,1.74,5.92,4.13,6.84,5.3-.85,27.72-4.2,41.84-10.06,42.35-1.16.1-2.42-.33-3.78-1.3-1.55-1.44-3.72-3.75-5.27-6.91-3.13-6.41-1.56-11.89-.28-18.59,1.01-5.27,2.15-12.95,2.45-22.78Z" style="fill: #fba778; stroke-width: 0px;"/>
          <path d="M2725.81,222.8c1.73,8.95-4.47,38.96-6.09,42.68-.08.18-.37.8-.61,1.69-.25.91-.13,1.03-.38,1.81-.23.74-.55,1.37-1.01,2.27-.39.78-.77,1.3-1.36,1.73-.45.33-1.08.51-2.37.68-2.66.35-2.65-2-4.41-4.93-1.77-2.93-1.68-16.09,2.49-41.51.22-1.1.74-3.01,2.18-4.89.91-1.2,2.28-2.99,4.71-3.51,1.8-.39,4.19-.09,5.63,1.43.87.92,1.13,2.02,1.23,2.55Z" style="fill: #fba778; stroke-width: 0px;"/>
          <path d="M2692.34,194.89c9.73-7.41,19.3-5.66,26.78,4.19.18.08.36.17.54.25,4.23-5.66,1.95-10.6-2.44-14.43-8.98-7.82-12.1-17.57-12.76-29.2-.69-12.15-7.65-18.9-17.68-19.67-11.62-.89-19.34,4.7-23.01,16.6-2.9,9.36-1.31,19.29-3.96,28.79-1.25,4.51,5.34,6.01,6.87,9.94h0c1.05.03,1.98.24,2.81.58,2.68-.12,4.94,1.31,6.85,2.98,5.54,4.86,10.22,4.38,16.02-.04Z" style="fill: #d04c22; stroke-width: 0px;"/>
          <path d="M2654.43,315.24c-.43,4.81-.19,9.69-.25,14.53-.94,8.55,2.31,17.5-2.6,25.71-1.09,1.82.35,2.83,2.12,3.37,5.05,1.56,15.72-5.59,17.54-10.76,3.76-10.7,5.2-21.59,4.55-32.83-10.13-.28-17.49-1.85-21.29-2.88.03.96.02,1.91-.07,2.85Z" style="fill: #fba778; stroke-width: 0px;"/>
          <path d="M2683.73,345.61c-.56,4.48-2.84,10.15,4.63,9.7,5.43-.32,14.72,5,14.5-7.73-.11-6.31,1.71-12.66,2.66-19,.36-5.23.73-10.46,1.09-15.69-4.37,1.11-12.67,2.75-23.72,2.82,3.23,9.77,2.1,19.85.84,29.89Z" style="fill: #fba778; stroke-width: 0px;"/>
          <path d="M2653.3,284.49s-.46,18.24-1.23,21.48c-.33,1.38-2.87,6.19-1.57,7.21.28.22.67.21.95.16,2.61.47,6.32,1.11,10.79,1.75,3.25.47,10.17,1.46,16.44,1.91,10.24.73,29.85.8,30.81-3.82.09-.41.06-1.04-.52-1.9-.98-3.96-1.86-8.45-2.44-13.41-.78-6.67-.84-12.69-.59-17.82l-52.51-2.02-.13,6.47Z" style="fill: #ebc283; stroke-width: 0px;"/>
          <path d="M2679.98,309.73c-.23-4.32-.48-8.23-.62-12.15-.17-4.65-.59-9.29-.27-13.95.08-1.19-.47-1.87-1.37-2.41-.23-.14-.5-.15-.73.04-.19.15-.25.42-.08.54,1.6,1.11.94,2.79.96,4.2.07,7.64.58,15.25.98,22.87.03.52-.02,1.17.64,1.27.44.07.51-.43.51-.41Z" style="fill: #b56e40; stroke-width: 0px;"/>
          <path d="M2646.06,222.62s2.8-14.05,8.27-22.69c5.48-8.64,12.85-14.51,16.3-14.21s9.95,10.33,13.69,10.63,9.04-10.62,18.55-10.63,14.05,4.29,16.03,6.5,4.16,9.12,4.16,9.12c0,0,4.04,18.68,2.76,19.86-1.28,1.18-3.93-.25-6.91.77-2.98,1.02-4.61.79-6.03,3.18-1.41,2.4-1.26,46.08-1.45,48.27s-.12,4.91-1.6,6.37-1.51,2.19-3.98,2.48-18.61,4.79-23.21,4.77c-4.6-.02-16.72.05-20.69-.9-3.97-.95-1.88-.09-5-2.45-3.12-2.35-7.35-3.98-7.41-7.22-.06-3.24.68-8.46,2.74-17.14,2.06-8.68,8.63-28.13,7.02-31.07-1.62-2.94-3.19-2.69-6.15-4.03-2.96-1.34-7.09-1.61-7.09-1.61Z" style="fill: #115595; stroke-width: 0px;"/>
          <g>
            <path d="M2720.66,265.01c2.47-.47,4.93-.96,7.31-1.79,3.41-1.19,4.57-2.82,4.53-6.44-.04-3.35-.89-6.57-1.41-9.86-.94-5.8-1.94-11.6-2.84-17.4-.16-1.04-.49-1.52-1.6-1.42-.51.04-1.01.05-1.52.05-1.84,12.35-3.69,24.69-5.53,37.04.36-.06.71-.12,1.07-.18Z" style="fill: #0c2245; stroke-width: 0px;"/>
            <path d="M2713.19,255.57c-.2-5.96-.33-12.04-.37-18.24-.03-3.62-.03-7.21,0-10.75-.1-.08-.24-.16-.41-.2-.61-.17-1.15.22-1.24.29-1.25.14-2.5.24-3.74.45-.69.12-.98-.07-1.13-.75-1.12-5.31-1.99-10.66-2.47-16.08-.3-3.54-.32-7.08-.23-10.63.06-2.7.46-5.36,1.19-7.97.97-3.46,2.34-4.46,5.89-4.36.36,0,.72,0,1.08,0-.02-.02-.03-.03-.05-.05-1.27-.66-2.54-1.19-3.8-1.56-.35,0-.71.01-1.07.05-2.92.96-3.86,3.44-4.56,6.05-1.47,5.46-1.31,11.03-1,16.59.34,6.14,1.32,12.21,2.71,18.2.18.76-.12.97-.74,1.07-.8.13-1.59.27-2.38.45-2.12.49-2.25.7-2.08,2.83.24,3.09.49,6.17.72,9.26.06.89.05,1.8.07,2.69.35,4.51.7,9.01,1.05,13.51.1,1.21.45,4.96.64,6.15.34,2.13,6.64,1.87,10.3,1.02.18-2.24,1.51-4.19,1.68-6.44-.02-.19-.04-.39-.06-.6-.02-.35-.02-.67,0-.96Z" style="fill: #0c2346; stroke-width: 0px;"/>
          </g>
        </g>
      </g>
      <g id="_2-net" data-name="2-net" style="opacity: .9;">
        <path d="M2014.77,624.13c-7.11-2.66-14.09-1.44-21.2.81-20.82,6.58-37.34,20.12-54.02,33.23-34.87,27.39-75.85,28.33-112.56,1.8-2.6-1.88-4.92-1.75-7.79-1.7-33.5.59-62.88,12.28-88.08,33.86-28.25,24.18-49.78,53.55-52.32,91.57-2.11,31.59-10.55,58.55-33.91,80.76-9.43,8.97-18.77,19.04-21.27,32.85-.82,4.51-2.31,9.86,4.44,11.94,5.64,1.74,9.25-.38,11.73-5.42,6.13-12.47,18.24-20.21,25.37-31.92,1.66-2.73,4.06-5.01,7.83-4.76,29.31,1.93,58.57,3.28,82.48,24.28,44.7,39.28,90.21,46.81,150.85,21.05,20.95-8.9,37.19-24.91,52.75-41.24,4.89-5.13,9.22-8.64,16.07-2.18,14.05,13.27,31.19,17.26,50.07,14.92,2.69-.33,5.94.45,6.88-3.28.83-3.31-1.72-5.12-3.65-7.09-2.96-3.02-6.98-3.79-10.85-4.85-6.97-1.91-14.16-3.52-19.8-8.32-7.02-5.97-13.38-12.75-23.31-13.94-3.44-.41-4.96-3.31-3.37-6.28,8.28-15.38,4.49-31.28,2.49-47.13-.46-3.66-1.06-7.96,3.33-9.27,15.09-4.51,28.55-22.99,46.48-5.42,3.01,2.95,7.97,1.93,10.84-1.53,2.69-3.25,1.15-6.95-1.02-10.01-3.49-4.92-6.89-10.42-12.53-12.75-8.01-3.31-7.65-8.19-4.28-14.36,5.81-10.63,8.47-21.63,3.59-33.67,8.93-3.5,15.68,6.42,24.13,2.75,3.04-1.32,8.05.41,8.25-4.86.19-5.08-2.92-8.19-7.99-8.95-6.08-.91-12.16-.09-17.81,1.92-8.53,3.03-14.66.6-19.98-6.27-7.85-10.14-15.93-20.09-24.04-30.02-4.71-5.77.47-7.91,3.86-10.12,8.54-5.58,18.6-7.37,28.13-10.42,4.1-1.31,7.82-2.78,7.82-7.73,0-4.84-3.84-6.85-7.63-8.27ZM1859.07,699.31c2.77-1.31,5.76-1.51,8.19-.18,13.64,7.44,27.4,6.36,41.66,1.89,8.4-2.64,8.16,6.1,10.55,10.24,3.35,5.79-3.03,4.79-5.7,5.91-13.62,5.71-27.49,10.94-39.87,19.16-5.42,3.6-8.35,3.23-9.85-3.63-1.79-8.2-4.22-16.25-6.22-24.41-.76-3.1-1.32-6.33,1.25-8.99ZM1782.18,723.92c-13.31-18.97-12.9-21.22,7.47-31.41,5.35-2.68,10.68-5.54,16.29-7.56,9.6-3.46,13.74-2.29,20.51,4.61,3.78,3.69,6.57,6.52-.13,10.99-11.62,7.76-22.58,16.54-33.57,25.21-4.63,3.65-7.29,2.84-10.57-1.83ZM1821.32,726.42c.68-.42,1.42-.75,2.09-1.19,18.69-12.05,19.15-12.15,23.94,9.96,1.36,6.26,8.06,12.88,3.58,17.73-13.03,9.89-23.57,17.85-34.06,25.87-3,2.29-5.12,1.36-6.84-1.56-.61-1.03-1.12-2.13-1.7-3.18q-16.44-29.55,12.99-47.64ZM1859.58,772.86c5.15,9.95,10.26,19.93,15.48,29.84,2.09,3.97,1.29,6.22-2.81,8.61-8.97,5.25-18,10.62-26.1,17.08-6.83,5.45-9.96,2.3-12.84-3.41-4.33-8.58-8.13-17.44-12.65-25.92-2.26-4.24-.94-6.76,2.35-9.13,8.44-6.08,17.04-11.95,25.28-18.28,4.47-3.43,7.84-3.37,11.28,1.2ZM1716.79,748.55c4.71-5.98,9.6-11.82,14.09-17.32,2.63-2.11,4.57-4.38,7.05-5.51,6.21-2.83,11.27-12.75,16.45-10.31,7.83,3.7,11.64,13.58,16.64,21.23,2.82,4.31-.18,6.54-2.56,9.22-8.25,9.3-16.68,18.44-24.56,28.05-3.44,4.2-6.03,4.58-9.64.73-3.86-4.12-7.97-8.41-13.42-9.93-11.46-3.19-9.59-9.13-4.05-16.15ZM1696.91,829.08c-3.03-1.22-3.62-4.52-3.29-7.17,1.71-13.9,3.57-27.8,5.82-41.62.75-4.61,4.43-3.59,7.63-2.34,4.63,1.81,8,5.25,12.24,9.58,6.96,4.62,6.27,10.58.57,17.35-5.41,6.42-10.4,13.2-15.46,19.91-1.94,2.57-3.5,5.91-7.5,4.3ZM1716.93,839.76c-1.68-1.15-1.89-2.45-1.14-4.02,4.01-8.36,9.01-16.01,16.2-22.03,3.73-3.12,5.64.02,7.68,2.22.89,1.55,2.12,2.85,2.42,4.34,1.52,7.54,12.2,13.21,4.81,22.51-1.74,2.18-26.59-.73-29.96-3.03ZM1789.76,880.22c-1.79,2.58-4.24.39-6.17-1.06-4.47-3.35-8.98-6.65-12.17-9.01-10.75-10.38-7.9-28.61,4.02-34.83,1.97-1.03,3.67-1.01,5.61-.04,2.85,1.43,6.09,2.27,8.66,4.07,7.41,5.18,19.71,9.5,19.4,17.67-.38,9.66-13.44,14.65-19.35,23.18ZM1847.35,891.78c3.13,3.85,3.21,7.26-3.55,7.38-11.33.19-21.9-3.2-32.59-6.14-4.01-1.1-5.54-3.13-1.78-6.54,2.36-2.15,4.61-4.41,8.28-7.93,5.19-7.59,11.2-9.28,17.93,1.6,2.81,4.55,8.26,7.38,11.72,11.63ZM1760.9,801.11q-10.5-18.18,5.48-33.69,15.02-14.58,24.62,3.98c.55,1.06,1.23,2.06,1.79,3.12,8.53,16.43,5.58,25.28-11.52,32.99-8.39,3.79-15.58,1.89-20.37-6.4ZM1818.6,829.75c-8.33-4.08-15.32-7.48-22.28-10.97-.61-.3-.92-1.2-2.04-2.73,4.55-3.51,12.11-10.85,13.24-9.97,6.93,5.41,7.27,14.75,11.07,23.66ZM1907.48,868.97c1.91,4.98-.13,8.42-3.17,11.56-9.24,8.64-20.59,12.04-32.45,14.56-4.24.9-5.92-.8-7.04-4.25-3.71-11.47-9.65-21.91-15.29-32.46-2.26-4.22-2.51-6.98,2.11-9.82,10.54-6.49,20.82-13.4,31.13-20.24,5.33-3.53,8.92-2.24,11.06,3.58,4.55,12.36,8.91,24.79,13.64,37.08ZM1933.51,860.65c-4.86,5.35-8.74,4.98-11.7-1.71-5.51-12.44-10.72-25.02-16.55-37.3-2.73-5.74,1.74-6.01,4.65-7.38,13.75-6.51,27.58-12.85,42.19-19.63,8.56,27.1-1.76,47.49-18.58,66.03ZM1942.06,772.8c1.46,4.77.27,7.76-4.2,9.61-11.47,4.75-22.95,9.47-34.42,14.22-3.85,1.59-7.06,1.3-9.61-4.28-8.65-7.09-11.36-19.23-17.01-29.72-2.79-5.19-.58-8.68,3.87-10.73,14.54-6.71,29.26-13.02,43.86-19.6,4.02-1.81,5.82-.41,6.91,3.53,3.41,12.36,6.84,24.71,10.6,36.97ZM2003.86,716.05c.72,5.51-1.36,10.33-3.86,14.89-5.36,9.8-11.03,19.44-15.8,27.79-6.89,5.44-14.05,5.73-20.28,8.38-2.39,1.01-3.21-1.68-3.79-3.55-3.94-12.6-7.78-25.22-11.77-37.8-1.29-4.06,1.17-4.76,4.18-5.44,15.61-3.5,32.02-2.31,47.22-8.3,3.35-1.32,3.76,1.49,4.1,4.04ZM1973.83,678.21c3.38,6.65,8.1,12.63,12.84,19.81-13.29,1.32-24.54,8.4-37.67,7.37-4.68-.37-19.73-12.92-19.75-17.37,0-.97.64-2.49,1.4-2.83,10.08-4.6,20.03-9.68,30.48-13.23,4.74-1.61,9.77.47,12.71,6.26Z" style="fill: #026849; stroke-width: 0px;"/>
      </g>
      <path id="_2-stone" data-name="2-stone" d="M2809.73,247.84c2.98-6.24,8.18-10.5,13.32-14.78,1.88-1.57,3.96-2.9,6-4.27.82-.55,1.52-1.16,2.03-1.99,2.2,0,3.65-1.66,5.38-2.61,6.21-3.39,12.55-5.85,19.81-6.08,4.62-.15,9.19-.25,13.77.36,4.67.62,8.53,2.82,11.98,5.94,6.18,5.59,12.61,10.92,17.06,18.14,1.81,2.94,3.16,6.06,3.92,9.43.86,3.86-.49,6.48-4.39,8.08-3.11,1.28-6.35,2.06-9.76,2.03-5.89-.04-11.79-.18-17.67.03-8.38.3-16.71,1.58-25.1,1.66-5.95.06-11.89.27-17.85-.22-4.29-.35-8.57-.43-12.81-1.42-3.66-.85-6.61-2.26-7.52-6.26-.03-.12-.06-.23-.08-.35-.51-2.85,0-5.45,1.91-7.7Z" style="fill: #c3c29d; stroke-width: 0px;"/>
      <g id="_2-bottle-on-beach" data-name="2-bottle-on-beach">
        <path d="M2861.56,356.34c1.99-.27,3.98-.51,5.96-.81,1.04-.16,1.88.26,2.72.7.51-.74,1.47-1.41.85-2.4-.57-.91-1.67-.92-2.63-.77-4.43.71-8.92.73-13.33,1.53-4.44.8-8.61,2.44-12.47,4.8-.27.17-.51.4-.73.64-.93.98-.91,1.13.14,2.01,1.37-.32,2.76-.51,4.15-.7.51.18.69-.14.86-.53.81-1.92,2.1-3.13,4.37-3.2,1.53-.05,3.06-.34,4.59-.53,1.46.46,4.63.04,5.52-.72Z" style="fill: #f6b456; stroke-width: 0px;"/>
        <g>
          <path d="M2872.35,366.93l-7.96,1.2-14.52,2.18s-5.27-.73-5.87-5.67c-.6-4.94,4.32-6.99,4.32-6.99l21.33-3.15c1.59.19,3.15.94,4.66,2.23l2.71.22,2.45-.41s1.94-.45,2.42,2.77-1.89,3.37-1.89,3.37l-1.91.25-1.55-.27s-.82,1.32-2.2,2.69-2.01,1.57-2.01,1.57Z" style="fill: #e4f0f4; stroke-width: 0px;"/>
          <path d="M2864.64,368.01l-7.07.84s-2.66-1.76-3.03-6.01c-.37-4.26,2.2-6.55,2.2-6.55l6.74-1.06s-2.43,3.53-1.86,6.63,3.03,6.15,3.03,6.15Z" style="fill: #86ea9b; stroke-width: 0px;"/>
          <path d="M2876.66,362.52c1.49.64,4.03.18,5.16-.94.26-.67.37-1.39.25-2.07-.51-2.73-1.15-3.71-4.75-2.83-1.57.62-1.11,5.03-.67,5.85Z" style="fill: #2d8aab; stroke-width: 0px;"/>
        </g>
      </g>
    </g>
  </g>
</svg>