<?xml version="1.0" encoding="UTF-8"?><svg id="Layer_2" xmlns="http://www.w3.org/2000/svg" viewBox="0 0 3364.16 1603.68"><g id="_2-bush"><path d="M2892.73,197.69c-10.92,10.21-10.91,23-8.6,36.71-8.13-3.39-15.85-8.55-25.19-5.12-6.4,3.23-8.83,11.54-7.44,17.82.49,2.2,1.08,4.38,1.63,6.57,0,2.35,1.84,3.26,3.42,4.34,8.7,5.94,16.67,12.68,23.31,20.91,1.5,1.86,2.29,4.18,4.07,5.82.69.53,1.41,1.02,2.24,1.3,2.69.9,4.26-.26,4.1-3.11-.17-3.03-.99-6-.92-9.06.1-4.07,1.39-5.21,5.47-4.66,2.37.32,4.66,1.01,6.91,1.83,4,1.46,5.04.72,5.18-3.61.05-1.63.02-3.25.02-4.88,0-4.12,1.18-7.92,3.22-11.46,1.68-2.9,3.95-3.25,6.35-.85,1.84,1.84,3.46,3.89,5.11,5.91,1.63,1.99,2.56,1.92,4.05-.13,1.02-1.41,1.8-2.98,2.44-4.59,1.48-3.68,3.73-6.85,6.33-9.8,1.98-2.25,4.18-4.28,7.54-3.45,3.62.9,5.87,3.39,6.54,6.95.7,3.71.97,7.51.71,11.31-.07.97-.22,1.94-.24,2.92-.04,2.31,1.13,2.91,3.12,2.13,1.92-.76,3.89-1.38,5.8-2.13,6.66-2.63,13.92,4.71,12.23,11.72-1.51,6.26-5.56,10.67-9.75,15.1-.59.63-1.33,1.12-1.9,1.77-1.33,1.52-1.36,3.03.42,4.1,1.85,1.11,3.43,2.63,5.43,3.51,4.13.15,8.27-.28,12.39.23,8.38.27,16.67-.19,24.65-3.07,4.26-1.54,7.03-4.4,7.05-9.1.02-4.48-2.54-7.43-6.44-9.35-2.76-1.36-5.64-2.17-9.45-2.02,2.91-1.88,5.29-3.41,7.37-5.35,7.39-6.89,10.18-15.42,8.82-25.29-1.14-8.31-9.53-13.39-18.46-11.27-2.08.49-4.07,1.38-6.28,2.14.79-3.07,1.8-6.09,2.32-9.18.94-5.64.6-11.24-1.71-16.58-4.35-10.05-14.08-12.1-22.84-4.79-2.73,2.28-5.19,4.85-7.84,8.21,1.15-5.4,1.78-10.15.65-14.84-1.42-5.89-4.01-11.16-10.28-13.21-6.3-2.06-11.48.84-16.08,4.7-6.67,5.59-9.77,13.27-11.82,22.1-2.56-4.16-5.13-7.66-8.78-10.25-4.82-3.42-9.69-3.95-14.87-.97v.02Z" fill="#67b14e"/><path d="M2887.02,295.85c1.12-1.01,2.48-.55,3.73-.55,24.36-.05,48.72-.06,73.08-.08-.41-1.92-1.82-2.98-3.48-3.55-2.76-.93-2.65-1.77-.52-3.59,5.31-4.54,9.74-9.72,11.48-16.81,1.11-4.49-.58-8.3-3.51-10.88-2.43-2.15-5.85-3.87-9.85-2.25-2.56,1.04-5.18,2.05-8.13,3.21,1.02-5.77.74-11.23-.22-16.62-.76-4.24-3.51-6.94-7.71-7.81-3.78-.78-6.04,1.66-8.48,4.17-4.49,4.61-6.2,10.8-9.87,16.47-1.28-3.27-3.75-5.11-5.55-7.51-3.09-4.12-6.71-3.36-9.17,1.1-2.82,5.13-3.08,10.47-3,16.02.06,4.43.05,4.32-3.92,2.76-3.01-1.18-6.15-2.07-9.46-2-2.79.07-4.05,1.5-4.22,4.25-.22,3.39.55,6.67.82,10.01.08,1.03,1.05,2.23-.1,2.98-1.2.79-2.51.23-3.61-.62-.34-.26-.62-.64-1.09-.25.93,3.85,1.86,7.69,2.79,11.54h-.01Z" fill="#4c9f41"/></g><g id="_2-tree"><path d="M2969.44,122.9c1.57,2.52,2.16,5.42,3.13,8.17,1.83,5.21,3.5,10.48,5.25,15.72.31.92.67,1.82,1.12,3.02,2.33-2.39,4.46-4.57,6.58-6.76-.66,3.93-2.3,7.43-3.85,10.94-.69,1.58-.77,2.98-.12,4.55,3.19,7.68,6.4,15.37,9,23.28.04.11.23.17.49.34,2.9-4.1,5.59-8.34,8.55-12.55-.74,2.34-1.53,4.66-2.22,7.01-1.12,3.84-3.04,7.41-3.84,11.36-.14.69-.21,1.33.05,1.99,2.93,7.55,5.39,15.29,8.99,22.56,1.35,2.74,1.67,2.78,3.58.27,9.21-12.13,13.81-25.86,12.82-41.05-1.45-22.14-10.35-41.12-25.64-57.16-3.22-3.38-6.83-6.31-10.29-9.43,7.89,3.48,15.48,7.47,22.77,12.04,3.9,2.45,7.76,4.97,11.59,7.53,1.38.92,2.07,1.03,2.18-.95.16-2.77.49-5.53.93-8.31,1.62,3.51,2.4,7.22,2.91,10.97.27,2.01,1.13,3.34,2.82,4.55,6.89,4.92,13.41,10.33,19.86,15.81,1.4,1.19,1.84.85,2.06-.72.57-4.1,1.13-8.2,1.78-12.95,1.41,4.59,2.32,8.72,2.38,12.83.08,4.62,1.94,7.74,5.32,10.76,5.74,5.13,10.92,10.87,15.8,16.86.55.68.96,1.95,1.85,1.76,1.12-.24,1.15-1.64,1.42-2.62,2.86-10.35,2.27-20.64-.59-30.88-4.33-15.48-14.06-26.83-27.19-35.63-14.64-9.81-30.64-15.58-48.28-16.59-5.29-.3-10.58-.28-15.85,1.13.19-.84.97-.87,1.51-1.12,16.1-7.34,32.91-12.11,50.52-13.98,1.14-.12,2.82.2,3.26-.9.37-.93-1-1.88-1.68-2.76-.92-1.2-1.94-2.32-2.93-3.47-.97-1.12-1.95-2.22-2.83-3.43,4.36,2.29,8.29,5.19,12.1,8.23,1.14.91,2.28,1.28,3.7,1.38,9.45.65,18.71,2.54,27.89,4.78.66.16,1.46.65,1.94.18.63-.62-.01-1.43-.29-2.08-3.43-8.04-9.2-14.15-16.2-19.14-12.29-8.76-25.92-12.84-41.04-11.13-9.57,1.08-17.85,5.37-25.73,10.67-8.58,5.77-16.15,12.46-21.11,21.7,6.7-34.5-7.11-58.65-37.79-73.67-15.1-7.39-31.02-7.97-47.55-1.89,4.27,2.92,7.93,5.43,11.6,7.95.75.51,1.61.92,2.21,1.57,3.72,4,8.46,5.25,13.71,5.77,3.95.39,7.83,1.55,11.74,2.65-3.3.35-6.61.63-9.89,1.1-1.26.18-3.11-.32-3.6,1.22-.44,1.38,1.24,2.08,2.1,2.96,4.64,4.77,9.5,9.33,13.69,14.5,1.04,1.28,2.43,1.72,3.94,1.98,3.65.64,7.2,1.65,10.73,3.11-2.63.12-5.26.22-7.88.39-.72.05-1.68-.19-2.05.63-.37.83.48,1.37.9,1.94,6.81,9.26,13.83,18.38,19.36,28.52.85,1.55,1.69,3.11,2.37,4.78-3.81-5.3-8.16-10.1-13.42-13.9-20.62-14.89-43.23-20.48-67.94-12.81-18.03,5.59-30.02,17.85-35.63,36.03-.47,1.53-1.54,3.65-.48,4.69.94.92,2.89-.48,4.37-.93,7.69-2.34,15.51-4.12,23.5-4.97,1.95-.21,3.19-1.06,4.21-2.58,3.06-4.53,6.89-8.36,11.18-11.85-1.83,4.44-4.47,8.54-5.82,13.45,1.75-.12,3.39-.23,5.02-.36,7.47-.56,14.94-.93,22.43-.91,1.34,0,2.26-.41,3.1-1.43,2.39-2.91,5.07-5.54,8.48-7.59-1.19,2.34-2.32,4.71-3.58,7.01-1.1,1.99-1.1,2.18,1.25,2.32,9.97.59,19.86,1.89,29.73,3.36.34.05.68.16,1.66.41-8.81.59-16.68,2.34-24.11,5.75-13.32,6.11-24.71,14.63-32.69,27.14-8.48,13.3-11.76,27.99-11.08,43.64.06,1.37-.16,3.29,1.28,3.84,1.16.44,2.12-1.17,3.05-1.98,6.33-5.51,12.86-10.78,19.48-15.93,1.44-1.12,2.32-2.37,2.59-4.26.78-5.29,1.77-10.55,3.08-15.84.45,4.7.91,9.4,1.4,14.59,3.4-3.11,6.46-5.94,9.55-8.74,2.19-1.98,4.4-3.93,6.63-5.85,1.38-1.19,2.16-2.59,2.36-4.44.42-3.85,1.04-7.68,2.19-11.94,1.02,2.63,1.15,4.89,1.53,7.09.53,3.06.57,3.1,2.91,1.21,7.25-5.82,14.51-11.64,22.42-16.57.5-.31,1.05-.55,1.58-.82,1.56-.1,2.45-1.38,3.65-2.11,2.15-1.3,2.55-1.25,3.29,1.22,1.29,4.33,3.35,8.4,4.1,12.9.06.38.27.7.66.86h.01Z" fill="#66b14e"/><path d="M2969.44,122.9c-.47-5.75-3.32-10.77-4.94-16.17-.38-1.25-1.21-.95-1.94-.44-1.67,1.16-3.48,2.14-4.81,3.73-.73,14.76-.78,29.54-.96,44.32-.46,37.32,4,74.25,8.95,111.15.57,4.26,1.18,8.52,1.77,12.78,2.94,19.99,6.81,39.79,11.98,59.33.66,2.48,1.4,4.95,2.11,7.42.16.61.7.8,1.2.89,4.53.83,7.57,3.87,10.54,7.04.9.96,1.6,2.65,3.08,2.31,1.57-.36,1.16-2.24,1.59-3.47,1.58-4.5,3.27-8.94,6.69-12.46,1.43-1.48,2.98-2.76,4.9-3.58.93-.4,2.08-.65,2.26-1.95-3.6-15.48-9.95-30.1-14.16-45.39-.2-.73-.37-1.46-.55-2.19-3.04-8.56-5.27-17.37-7.8-26.08-8.9-30.63-13.36-62.02-16.23-93.68-1.25-13.84-2.28-27.69-3.41-41.54-.06-.68-.18-1.35-.27-2.02h0Z" fill="#a26d3d"/></g><path id="_2-sand" d="M.16,1603.68h3364c-.21-435.95-.41-871.91-.62-1307.87-193.96-43.85-353-57.29-460.39-61.65-249.58-10.14-292.13,25.79-700.76,30.08-121.25,1.27-259.88-.4-401.14-2.1-73.71-.89-136.54-1.92-186.1-2.84-59.84-1.11-80.46-2.59-120.18-2.43,0,0-76.68.32-164.57,7.37C1226.83,272.55,703.32,396.39.16,610.22v993.46H.16Z" fill="#fdc870"/><path id="_2-water-2" d="M.17,1603.68h3364V239c-126.8,67.97-320.15,153.18-565.17,187.91-445.92,63.21-551.08-113.33-1097.14-162.58-612.9-55.27-932.34,126.39-1328-20.61-17.88-8.73-35.17-15.03-51.48-19.53C180.15,184.82,47.67,262.92,0,294.44c.05,436.42.11,872.82.17,1309.24Z" fill="#c5faff"/><path id="_2-water-1" d="M.16,1601.99h3364V564.25s-24.97,37.15-89.08,42.71c-64.11,5.56-171.68-79.74-254.47-83.37-82.79-3.64-124.47,61.81-270.49,83.37-146.02,21.56-450.22-203.83-655.26-209.99-205.04-6.16-308.36,90.85-470.42,81.2-162.05-9.65-250.65-114.5-404.63-126.64-153.99-12.15-463.34,104.46-571.52,100.44-108.18-4.02-219.28-62.31-300.3-68.59-81.02-6.29-70.16,17.65-140.74,24.54C136.68,414.8.16,351.52.16,351.52v1250.47Z" fill="#98e9f4"/><g id="_2-people"><g id="_2-guy"><path d="M2515.14,317.14s1.67,27.01,2.4,31.24,2.66,12.2,2.69,15.57-.84,6.16.48,8.01,2.41,4.04,5.26,5.16,10.53-.26,12.89-.83c2.36-.56,4.15.37,4.29-3.19.14-3.57-3.01-10.7-2.17-21.23.83-10.53,3-22.47,3-22.47l3.59,1.31s.14,18.46,1.03,20.89,2.69,14.22,4.44,17.26c1.76,3.03,7.53,9.54,9.29,9.83s6.56,2.15,8.66,2.15,4,.2,4.54-1.42l.54-1.62s-3.17-3.22-3.95-13.26.72-7.54.7-18.46c-.01-10.93-.22-11.77-.7-16.68s.45-11.79.45-11.79l-57.43-.48h0Z" fill="#fba778"/><path d="M2558.58,160.94c3.82-11.07,1.74-21.07-5.81-25.85-8.98-5.68-17.74-2.05-25.06,2.86-9.46,6.36-4.69,15.09-1.34,23.06.28.64.31,1.39.44,2.09,11.12,7.11,21.68,6.03,31.76-2.16h.01Z" fill="#0c2245"/><path d="M2526.82,163.1c.02.59.08,1.56.24,2.73.93,6.87,3.6,8.5,3.85,14.02.12,2.76,0,4.96,0,4.96l23.87-.29c.95-.9,7.47-7.23,6.51-16.07-.36-3.33-1.67-5.9-2.71-7.52-1.83,1.5-7.45,5.72-15.85,6.19-8.02.45-13.86-2.77-15.91-4.03h0Z" fill="#fba778"/><path d="M2504.94,226.96s-3.7,25.93-2.36,39.66c1.35,13.73,1.35,36.67,3.39,37.2s4.47-2.33,4.47-2.33c0,0,4.35-32.06,5.07-37.54.72-5.49-.01-27.88-.01-27.88,0,0-.76-5.72-2.76-7.6s-7.81-1.51-7.81-1.51h.01Z" fill="#fba778"/><path d="M2587.84,222.83s2.74,3.17,2.55,12.25c-.18,9.08-6.17,52.19-6.85,56.21s-1.92,8.58-3.8,9.61c-1.88,1.04-10.33.72-10.33.72l-1.15,3.86-4.25-23.15,4.06-7.75,3.12-27.37,5.14-18.65,11.52-5.73h-.01Z" fill="#fba778"/><path d="M2513.35,285.57s-2.11,14.89-2.39,18.86c-.29,3.97.79,12.83,1.2,16.01l1.07,8.5s4.56-1.87,8.82-1.98c4.26-.11,8.84,5.57,12.6,5.76,3.76.18,10-1.66,10-1.66h2.84s-.66-.32,1.33-2.12,17.97,1.96,22.82-4.42,3.43-5.85,4.21-7.53-.75-13.5-.75-13.5l-4.8-20.12s-22.82,3.76-29.27,3.55c-6.45-.22-27.68-1.35-27.68-1.35h0Z" fill="#0c2245"/><path d="M2515.34,237.66c-.33,16.18-.28,32.36-2.46,48.43,19.54,1.73,39.05,2.65,58.29-2.55v-.03c3.73-12.23,3.03-25.04,3.31-37.46.26-11.38,1.65-19.92,13.95-23.04h0c-1.42-5.11-2.61-10.3-4.28-15.33-6.26-18.87-10.69-22.2-30.16-23.22h.01-.02c-7.89.1-15.78.2-23.67.28h-.01c-17.74,5.9-30.66,27.61-25.24,42.4,7.88-.83,10.44,2.76,10.28,10.52h0Z" fill="#d84f23"/></g><g id="_2-gal"><path d="M2646.63,222.36c1.64-.08,5.71-.08,10.1,1.93,3.8,1.74,5.92,4.13,6.84,5.3-.85,27.72-4.2,41.84-10.06,42.35-1.16.1-2.42-.33-3.78-1.3-1.55-1.44-3.72-3.75-5.27-6.91-3.13-6.41-1.56-11.89-.28-18.59,1.01-5.27,2.15-12.95,2.45-22.78h0Z" fill="#fba778"/><path d="M2725.81,222.8c1.73,8.95-4.47,38.96-6.09,42.68-.08.18-.37.8-.61,1.69-.25.91-.13,1.03-.38,1.81-.23.74-.55,1.37-1.01,2.27-.39.78-.77,1.3-1.36,1.73-.45.33-1.08.51-2.37.68-2.66.35-2.65-2-4.41-4.93-1.77-2.93-1.68-16.09,2.49-41.51.22-1.1.74-3.01,2.18-4.89.91-1.2,2.28-2.99,4.71-3.51,1.8-.39,4.19-.09,5.63,1.43.87.92,1.13,2.02,1.23,2.55h0Z" fill="#fba778"/><path d="M2692.34,194.89c9.73-7.41,19.3-5.66,26.78,4.19.18.08.36.17.54.25,4.23-5.66,1.95-10.6-2.44-14.43-8.98-7.82-12.1-17.57-12.76-29.2-.69-12.15-7.65-18.9-17.68-19.67-11.62-.89-19.34,4.7-23.01,16.6-2.9,9.36-1.31,19.29-3.96,28.79-1.25,4.51,5.34,6.01,6.87,9.94h0c1.05.03,1.98.24,2.81.58,2.68-.12,4.94,1.31,6.85,2.98,5.54,4.86,10.22,4.38,16.02-.04h-.02Z" fill="#d04c22"/><path d="M2654.43,315.24c-.43,4.81-.19,9.69-.25,14.53-.94,8.55,2.31,17.5-2.6,25.71-1.09,1.82.35,2.83,2.12,3.37,5.05,1.56,15.72-5.59,17.54-10.76,3.76-10.7,5.2-21.59,4.55-32.83-10.13-.28-17.49-1.85-21.29-2.88.03.96.02,1.91-.07,2.85h0Z" fill="#fba778"/><path d="M2683.73,345.61c-.56,4.48-2.84,10.15,4.63,9.7,5.43-.32,14.72,5,14.5-7.73-.11-6.31,1.71-12.66,2.66-19,.36-5.23.73-10.46,1.09-15.69-4.37,1.11-12.67,2.75-23.72,2.82,3.23,9.77,2.1,19.85.84,29.89h0Z" fill="#fba778"/><path d="M2653.3,284.49s-.46,18.24-1.23,21.48c-.33,1.38-2.87,6.19-1.57,7.21.28.22.67.21.95.16,2.61.47,6.32,1.11,10.79,1.75,3.25.47,10.17,1.46,16.44,1.91,10.24.73,29.85.8,30.81-3.82.09-.41.06-1.04-.52-1.9-.98-3.96-1.86-8.45-2.44-13.41-.78-6.67-.84-12.69-.59-17.82l-52.51-2.02-.13,6.47h0Z" fill="#ebc283"/><path d="M2679.98,309.73c-.23-4.32-.48-8.23-.62-12.15-.17-4.65-.59-9.29-.27-13.95.08-1.19-.47-1.87-1.37-2.41-.23-.14-.5-.15-.73.04-.19.15-.25.42-.08.54,1.6,1.11.94,2.79.96,4.2.07,7.64.58,15.25.98,22.87.03.52-.02,1.17.64,1.27.44.07.51-.43.51-.41h-.02Z" fill="#b56e40"/><path d="M2646.06,222.62s2.8-14.05,8.27-22.69c5.48-8.64,12.85-14.51,16.3-14.21s9.95,10.33,13.69,10.63,9.04-10.62,18.55-10.63,14.05,4.29,16.03,6.5,4.16,9.12,4.16,9.12c0,0,4.04,18.68,2.76,19.86s-3.93-.25-6.91.77-4.61.79-6.03,3.18c-1.41,2.4-1.26,46.08-1.45,48.27s-.12,4.91-1.6,6.37-1.51,2.19-3.98,2.48-18.61,4.79-23.21,4.77c-4.6-.02-16.72.05-20.69-.9-3.97-.95-1.88-.09-5-2.45-3.12-2.35-7.35-3.98-7.41-7.22-.06-3.24.68-8.46,2.74-17.14,2.06-8.68,8.63-28.13,7.02-31.07-1.62-2.94-3.19-2.69-6.15-4.03s-7.09-1.61-7.09-1.61h0Z" fill="#115595"/><path d="M2720.66,265.01c2.47-.47,4.93-.96,7.31-1.79,3.41-1.19,4.57-2.82,4.53-6.44-.04-3.35-.89-6.57-1.41-9.86-.94-5.8-1.94-11.6-2.84-17.4-.16-1.04-.49-1.52-1.6-1.42-.51.04-1.01.05-1.52.05-1.84,12.35-3.69,24.69-5.53,37.04.36-.06.71-.12,1.07-.18h-.01Z" fill="#0c2245"/><path d="M2713.19,255.57c-.2-5.96-.33-12.04-.37-18.24-.03-3.62-.03-7.21,0-10.75-.1-.08-.24-.16-.41-.2-.61-.17-1.15.22-1.24.29-1.25.14-2.5.24-3.74.45-.69.12-.98-.07-1.13-.75-1.12-5.31-1.99-10.66-2.47-16.08-.3-3.54-.32-7.08-.23-10.63.06-2.7.46-5.36,1.19-7.97.97-3.46,2.34-4.46,5.89-4.36h1.08s-.03-.03-.05-.05c-1.27-.66-2.54-1.19-3.8-1.56-.35,0-.71,0-1.07.05-2.92.96-3.86,3.44-4.56,6.05-1.47,5.46-1.31,11.03-1,16.59.34,6.14,1.32,12.21,2.71,18.2.18.76-.12.97-.74,1.07-.8.13-1.59.27-2.38.45-2.12.49-2.25.7-2.08,2.83.24,3.09.49,6.17.72,9.26.06.89.05,1.8.07,2.69.35,4.51.7,9.01,1.05,13.51.1,1.21.45,4.96.64,6.15.34,2.13,6.64,1.87,10.3,1.02.18-2.24,1.51-4.19,1.68-6.44-.02-.19-.04-.39-.06-.6-.02-.35-.02-.67,0-.96v-.02Z" fill="#0c2346"/></g></g><path id="_x32_-stone" d="M2809.73,247.84c2.98-6.24,8.18-10.5,13.32-14.78,1.88-1.57,3.96-2.9,6-4.27.82-.55,1.52-1.16,2.03-1.99,2.2,0,3.65-1.66,5.38-2.61,6.21-3.39,12.55-5.85,19.81-6.08,4.62-.15,9.19-.25,13.77.36,4.67.62,8.53,2.82,11.98,5.94,6.18,5.59,12.61,10.92,17.06,18.14,1.81,2.94,3.16,6.06,3.92,9.43.86,3.86-.49,6.48-4.39,8.08-3.11,1.28-6.35,2.06-9.76,2.03-5.89-.04-11.79-.18-17.67.03-8.38.3-16.71,1.58-25.1,1.66-5.95.06-11.89.27-17.85-.22-4.29-.35-8.57-.43-12.81-1.42-3.66-.85-6.61-2.26-7.52-6.26-.03-.12-.06-.23-.08-.35-.51-2.85,0-5.45,1.91-7.7h0Z" fill="#c3c29d"/></svg>