<?xml version="1.0" encoding="UTF-8"?>
<svg id="Layer_2" data-name="Layer 2" xmlns="http://www.w3.org/2000/svg" viewBox="0 0 3365.59 593.35">
  <g id="Scrollytelling_-llustrations" data-name="Scrollytelling -llustrations">
    <g id="scene3__svg">
      <path id="depth3__sand" d="M2.37,593.35h3362.74V203.24c-222.19,1.42-552.45.43-953.97-12.84-629.19-20.8-629.16-45.16-990.77-45.65C691.74,143.77,2.45,241.77,2.37,241.77v351.58Z" style="fill: #fdc858; stroke-width: 0px;"/>
      <g id="depth3__algae">
        <path d="M2387.46,570.89c-16.18-.77-32.37-1.55-48.55-2.32-24.97-47-29.57-93.91.41-140.77,6.1-9.53,12.08-19.15,17.69-28.96,10.8-18.86,13.93-39.09,8.56-60.14-4.14-16.27-9.36-32.27-14.07-48.4-10.49-35.92-4.31-68.88,17.56-99.08,3.23-4.46,6.09-9.2,9.48-13.52,19.77-25.17,24.99-53.81,20.64-84.83-1.54-11.01-1.14-21.99,1.5-32.8,2.85-11.62,9.99-18.81,19.08-19.78,11.6-1.23,18.47,5.57,23.22,14.63,12.8,24.4,15.93,50.15,11.42,77.4-4.66,28.19-15.07,54.22-28.21,79.11-15.74,29.82-16.4,60.02-6.64,91.47,4.88,15.72,10.47,31.35,11.62,47.99,1.84,26.65-6.46,50.63-19.67,73.25-4.47,7.66-9.01,15.28-13.67,22.82-20,32.35-23.4,66.83-13.78,103.17,1.79,6.74,2.31,13.82,3.41,20.75Z" style="fill: #015569; stroke-width: 0px;"/>
        <path d="M2459.01,577.07c-16.07-1.48-32.14-2.97-48.2-4.45,5.4-8.88,10.9-17.69,16.17-26.64,13.01-22.08,16.77-45.53,10.78-70.62-7.21-30.21-3.51-58.85,13.23-85.46,5.54-8.8,10.63-17.88,16-26.78,14.13-23.4,18.45-48.93,16.31-75.78-1.23-15.37-.39-30.53,3.15-45.53,1.57-6.64,4.36-12.73,8.72-18.01,10.9-13.21,28.61-12.25,37.93,2.14,6.66,10.28,9.1,21.86,10.16,33.88,3.7,41.96-7.82,80.47-26.33,117.46-6.02,12.03-11.71,24.19-16.18,36.94-6.28,17.93-9.34,36.01-5.23,54.9,5.9,27.16-.01,52.11-14.3,75.49-6.85,11.21-13.07,22.82-22.21,32.46Z" style="fill: #015568; stroke-width: 0px;"/>
      </g>
      <g id="depth3__algae1">
        <path d="M1029.13,582.73c16.18-.77,32.37-1.55,48.55-2.32,24.97-47,29.57-93.91-.41-140.77-6.1-9.53-12.08-19.15-17.69-28.96-10.8-18.86-13.93-39.09-8.56-60.14,4.14-16.27,9.36-32.27,14.07-48.4,10.49-35.92,4.31-68.88-17.56-99.08-3.23-4.46-6.09-9.2-9.48-13.52-19.77-25.17-24.99-53.81-20.64-84.83,1.54-11.01,1.14-21.99-1.5-32.8-2.85-11.62-9.99-18.81-19.08-19.78-11.6-1.23-18.47,5.57-23.22,14.63-12.8,24.4-15.93,50.15-11.42,77.4,4.66,28.19,15.07,54.22,28.21,79.11,15.74,29.82,16.4,60.02,6.64,91.47-4.88,15.72-10.47,31.35-11.62,47.99-1.84,26.65,6.46,50.63,19.67,73.25,4.47,7.66,9.01,15.28,13.67,22.82,20,32.35,23.4,66.83,13.78,103.17-1.79,6.74-2.31,13.82-3.41,20.75Z" style="fill: #015569; stroke-width: 0px;"/>
        <path d="M957.59,588.9c16.07-1.48,32.14-2.97,48.2-4.45-5.4-8.88-10.9-17.69-16.17-26.64-13.01-22.08-16.77-45.53-10.78-70.62,7.21-30.21,3.51-58.85-13.23-85.46-5.54-8.8-10.63-17.88-16-26.78-14.13-23.4-18.45-48.93-16.31-75.78,1.23-15.37.39-30.53-3.15-45.53-1.57-6.64-4.36-12.73-8.72-18.01-10.9-13.21-28.61-12.25-37.93,2.14-6.66,10.28-9.1,21.86-10.16,33.88-3.7,41.96,7.82,80.47,26.33,117.46,6.02,12.03,11.71,24.19,16.18,36.94,6.28,17.93,9.34,36.01,5.23,54.9-5.9,27.16.01,52.11,14.3,75.49,6.85,11.21,13.07,22.82,22.21,32.46Z" style="fill: #015568; stroke-width: 0px;"/>
      </g>
      <g id="depth3__rock1">
        <path d="M1079.44,560.02c-28.46-33.88-61.8-60.2-104.16-75.11-44.03-15.5-90.22-16.73-135.67-22.03-25.49-2.97-46.26-13.02-66.07-27.71-25.11-18.62-40.28-45.93-60.62-68.72-21.59-24.19-46.2-43.65-75.66-56.68-43.61-19.29-90.31-26.07-137.12-31.71-49.65-5.99-92.58-26.12-128.49-60.6-17.56-16.86-30.61-37.48-44.72-57.3-37.88-53.24-89.82-87.82-150.86-109.92-35.53-12.86-72.22-19.67-109.62-21.36-22.05-.99-44.35-2.62-66.44.54v563.93h1105.73c-7.91-11.73-17.15-22.46-26.29-33.33Z" style="fill: #085f8e; stroke-width: 0px;"/>
      </g>
      <g id="depth3__rock2">
        <path d="M2233.55,558.39c29.85-35.53,64.81-63.13,109.24-78.77,46.18-16.26,94.61-17.55,142.28-23.1,26.74-3.11,48.51-13.65,69.29-29.06,26.34-19.53,42.24-48.17,63.57-72.07,22.64-25.37,48.46-45.78,79.35-59.44,45.73-20.23,94.71-27.34,143.8-33.26,52.07-6.28,97.09-27.39,134.75-63.55,18.42-17.69,32.1-39.3,46.89-60.09,39.73-55.83,94.19-92.1,158.21-115.28,37.26-13.49,75.74-20.63,114.96-22.4,23.13-1.04,46.51-2.75,69.68.56v591.41h-1159.61c8.3-12.3,17.99-23.55,27.57-34.96Z" style="fill: #085f8e; stroke-width: 0px;"/>
      </g>
    </g>
  </g>
</svg>