<?xml version="1.0" encoding="UTF-8"?>
<svg xmlns="http://www.w3.org/2000/svg" version="1.1" viewBox="0 0 595.28 841.89">
  <defs>
    <style>
      .cls-1 {
        fill: #ffde17;
        stroke: #ffde17;
        stroke-miterlimit: 10;
      }
    </style>
  </defs>
  <!-- Generator: Adobe Illustrator 28.7.6, SVG Export Plug-In . SVG Version: 1.2.0 Build 188)  -->
  <g>
    <g id="Layer_1">
      <g>
        <polygon class="cls-1" points="311.43 602.19 298.12 519.63 215.49 506.78 289.9 468.61 276.59 386.04 335.88 445.01 410.29 406.84 372.53 481.46 431.83 540.43 349.19 527.58 311.43 602.19"/>
        <polygon class="cls-1" points="330.19 324.73 363.52 292.25 342.93 250.51 384.12 272.18 417.46 239.7 409.58 285.57 450.77 307.23 404.71 313.91 396.84 359.78 376.25 318.05 330.19 324.73"/>
        <polygon class="cls-1" points="197.68 398.06 181.08 364.99 144.5 370.55 170.83 344.55 154.23 311.48 187.1 328.48 213.42 302.47 207.41 338.98 240.27 355.98 203.69 361.55 197.68 398.06"/>
      </g>
    </g>
  </g>
</svg>