<?xml version="1.0" encoding="UTF-8"?><svg id="Layer_2" xmlns="http://www.w3.org/2000/svg" viewBox="0 0 3365.59 1596.6"><g id="turtle"><path id="leg-front-left" d="M1143.41,1055.59c.51-76.39,9.5-97.1,18.97-99.01,3.78-.76,5.8,1.84,20.41,4.27,12.41,2.06,22.26,2.07,30.28,2.05,22.93-.08,23.31-3.42,28.96-1.71,26.38,8.02,26.91,83.63,27.2,123.21.17,23.72-.99,43.43-2.11,57.2-9.92,36.25-23.3,62.68-33.42,79.73-5.58,9.39-10.54,16.59-14.09,21.67-13.03,18.63-27.89,35.81-44.53,51.37-2.88,2.69-6.02,5.23-9.39,7.26-16.74,10.09-30.8,3.14-32.37-16.34-1.8-22.41.91-40.61,1.2-41.59,13.81-47.6,17.94-111.7,14.49-152.19-1.35-15.82-3.88-28.46-5.59-35.93h0Z" fill="#578a35"/><path id="leg-back-left" d="M722.89,1192.38c49.61-80.55,83.17,8.76,87.7,8.69,2.4,12.33-3.32,22.39-9.62,31.96-11.3,17.16-26.03,31.32-41.45,44.72-12.42,10.79-25.83,20.28-40.19,28.35-5.2,2.92-10.69,5.23-16.62,6.26-13.89,2.41-22.92-4.97-22.51-19.07.38-13.24,5.61-25.29,10.49-37.37,8.93-22.1,22.39-41.89,32.2-63.53h0Z" fill="#568a34"/><g id="leg-front-right"><path id="leg" d="M1066.71,1024.94c-15.1,14.25-32.23,25.87-48.45,38.67h0c-3.13,2.88-6.1,6.11-7.55,10.01-8.36,22.46-18.83,44.02-27.65,66.27-1.34,3.37-2.87,6.88-.41,10.46-25.9,65.56-56.2,128.85-96.04,187.27-5.8,8.5-10.82,17.38-12.6,27.67-2.01,11.62,3.78,19.88,15.3,22.55,6.48,1.51,12.94,1.43,19.46.54,27.78-3.8,51.55-16.81,74.19-32.35,53.92-37.02,100.28-80.95,127.96-141.6,8.09-17.72,29.43-68.72,25.39-114.74-.77-8.78-2.84-20.75-4.68-30.33l-57.22-52.09c-2.5,2.6-5.05,5.17-7.71,7.67Z" fill="#7ea341"/><path id="front-spot1" d="M1072.05,1174.16c.14,7.59-7,15.99-12.84,15.49-4.8-.42-7.6-3.35-7.78-8.42-.22-6.33,6.91-14.04,13.2-14.29,5.74-.23,7.12,3.44,7.42,7.23h0Z" fill="#367433"/><path id="front-spot3" d="M1106.27,1194.42c.11,10.94-3.68,19.02-9.45,26.26-2.9,3.63-6.96,5.06-11.4,3.54-4.44-1.52-6.5-4.92-6.61-9.79-.19-8.75,2.04-16.85,6.37-24.29,2.8-4.8,5.76-10.77,12.71-9.12,7.46,1.77,8.58,8.15,8.37,13.39h.01Z" fill="#387634"/><path id="front-spot2" d="M1102.99,1137.47c.18,11.82-4.13,18.9-11.03,19.04-6.25.13-11.6-6.83-12.71-16.66-.61-5.44.33-10.68,2.41-15.71,1.62-3.91,4.1-6.75,8.81-6.59,4.35.15,7.44,2.18,9.37,6.1,2.28,4.65,3.38,9.54,3.15,13.82h0Z" fill="#387633"/></g><g id="leg-back-right"><path id="leg2" d="M606.57,1145.23c72.67-49.56,91.76-25.48,99.26,16.59,2.06,9.78-2.14,17.18-8.97,23.57-.92,1.04-2.14,1.93-2.73,3.14-27.62,56.91-74.09,91.9-132.19,113.1-26.59,9.7-53.98,15.68-82.52,12.05-19.27-2.45-26.66-14.15-20.39-32.57,9.77-28.74,29.14-50.96,50.75-71.38,16.62-15.7,36.1-27.39,55.95-38.45,14.14-7.87,27.82-16.43,40.84-26.05h0Z" fill="#7ea341"/><path id="back-spot3" d="M608.08,1243.64c-4.09-.13-7.95-1.8-8.35-7.62-.52-7.53,5.91-14.5,13.46-14.72,6.55-.19,9.33,3.75,9.64,9.49.32,5.89-7.32,12.66-14.76,12.85h0Z" fill="#367533"/><path id="back-spot2" d="M560.47,1273.63c-.2-8.37,7.09-16.32,15.2-16.39,5.98-.05,9.88,2.9,10.28,8.95.5,7.42-8.96,16.16-17.11,15.98-5.32-.12-8.41-2.93-8.37-8.54h0Z" fill="#377634"/><path id="back-spot1" d="M518.07,1264.6c.48-4.75,3.36-9.45,9.44-10.02,5.01-.47,7.72,3.48,7.38,8.42-.42,6.09-4.17,10.25-10.08,10.81-4.75.45-6.81-3.3-6.74-9.21h0Z" fill="#367533"/></g><path d="M1131.64,1069.36l.7.64c-2.19-9.88-3.78-16.72-3.98-16.67,0,0,1.53,6.94,3.28,16.03Z" fill="none"/><path d="M1137.07,1091.75c3.79-2.07,7.72-4.31,11.77-6.72l-16.51-15.03c1.4,6.34,3.05,13.92,4.73,21.75Z" fill="#7ea341"/><path d="M1219.1,922.25c-18.47-8.37-27.3-15.09-32.02-19.02-12.55-10.45-20.55-21.62-25.37-29.56-4.45,3.2-10.95,8.51-17.09,16.43-12.33,15.91-14.57,32.44-16.85,38.91-11.73,33.32-29,62.98-53.35,88.26l57.22,52.09c-1.74-9.09-3.28-16.03-3.28-16.03.2-.05,1.79,6.79,3.98,16.67l16.51,15.03c17.88-10.65,38.09-24.78,58.52-43.44,38.88-35.51,62.62-72.92,76.61-99.67-28.49-4.87-50.28-13.06-64.87-19.67Z" fill="#7ea341"/><path d="M1027.14,967.8c-23.84-20.78-44.86-39.26-67.17-70.12-23.97-33.16-35.71-62.85-41.83-83.03-13.93,1.33-34.78,4.48-56.75,12.96-44.13,17.04-62.88,46-73.81,55.84-19.02,17.13-39.35,32.79-61.09,46.88-.4,3.61-1.94,7.11-4.5,9.69-.87.88-1.73,1.78-2.59,2.67-.15,2.18-.74,4.42-1.87,6.63-10.17,19.92-27.01,34.89-44.04,48.93-1.72,2.29-3.43,4.6-5.13,6.91-13.03,17.68-26.74,38.79-45.51,51.48-162.12,43.96,54.76,128.37,82.73,124.81,0,0,1.38.57,2.03.94,1.04.59,2.06,1.22,3.07,1.86,11.77,3.03,23.05,7.7,34.9,10.46,3.55.83,6.35,2.9,8.32,5.6,43.62-1.53,94.12-6.69,149.29-18.77,107.33-23.5,191.83-64.32,250.79-99.43-54.59-50.71-97.49-88.74-126.84-114.31Z" fill="#7ea341"/><path d="M606.57,1145.23c-14.52-7.01-29.09-13.93-43.54-21.08-8.38-4.15-16.11-9.26-15.88-20.07.22-9.91,6.9-14.9,14.68-20.08,13.64-9.09,24.98-19.88,32.1-36.07,55.92-127.15,151.67-208.02,287.07-239.47,58.11-13.5,117.2-12.35,175.19,4.07,23.18,6.56,43.95,18.22,62.82,33.12,5.57,4.39,10.83,8.98,17.38,12.06,6.49,3.05,7.71,10.15,10.2,16.04,1.75,4.13,2.25,8.81,5.59,12.21,2.18,1.56,2.38,3.73,1.87,6.1-10.73,12.97-15.28,28.96-20.72,44.33-13.87,39.17-34.28,74.01-65.13,102.26-14.87,13.62-30.96,25.71-47.74,36.89-10.73,6.74-21.18,13.88-32.3,20.04-21.25,11.78-42.45,23.58-65.66,31.2-2.29.39-4.04,1.94-6.11,2.83-35.78,12.03-71.57,24.01-109.1,29.46-33.72,4.89-67.58,7.82-101.71,6.07-27.55-1.38-54.96-4.14-81.81-10.65-6.27-1.52-13.71-2.06-17.18-9.28l-.02.02Z" fill="#6b571e"/><path d="M1165.81,854.14c9.63-28.54,20.58-56.47,40.04-80.04,31.68-38.36,71.92-59.01,122.33-57,21.28.85,41.47,6.98,59.33,18.71,36.22,23.79,63.13,54.94,73.83,97.99,2.47,9.93,3.11,20.15,1.13,30.35-5.42,4.89-12.51,3.56-18.68,4.04-27.09,2.12-51.96,10.67-75.55,23.62-6.53,3.58-13.89,5.82-20.49,12.15,5,.2,7.71-1.97,10.54-3.45,21.59-11.27,42.97-23.13,67.34-27.37,6.21-1.08,13.23-4.29,18.86,2.07.16,5.75-2.49,10.12-6.34,14.22-24.52,26.08-53.83,44.38-88.14,54.63-6.04,7.68-15.33,7.05-23.36,7.92-50.49,5.48-95.59-9.77-137-37.57-8.48-5.69-15.68-13.21-21.6-21.53-8.71-12.23-11.01-25.29-2.25-38.75h.01Z" fill="#7ea342"/><path d="M696.86,1185.39c1.67-8.36,6.02-15.7,8.97-23.57,43.29.63,86.26-2.1,128.6-11.77,27.97-6.39,55.13-15.55,82.39-24.34,3.79-1.5,6.04,1.12,7.87,3.48,10.4,13.49,21.33,26.45,34.56,37.32,1.51,1.24,2.75,2.94,1.98,5.21-29.22,10.84-59.45,17.7-90.18,22.33-15.08,2.27-30.31,3.65-45.5,5.14-5.01.49-10.29-1.36-14.96,1.88-1.73,2.65-4.37,3.31-7.3,3.45-24.93,1.24-49.41-2.09-73.7-7.27-2.89-.62-4.94-2.59-6.69-4.87-8.68-2.33-17.35-4.66-26.03-6.99h0Z" fill="#eabf56"/><path d="M1019.13,1072.99c-10.53,29.46-24.01,57.71-35.6,86.74-4.82,2.24-9.39,5.13-14.81,5.85-3.1,1.92-6.14,1.21-8.7-.8-14.64-11.46-26.66-25.41-37.73-40.23,23.62-10.72,47.03-21.84,69.35-35.12,9.17-5.46,18.32-10.96,27.48-16.44h.01Z" fill="#ebbf56"/><path d="M1444.5,875.22c-24.06-.49-45.42,8.5-66.3,19.04-9.11,4.6-18.14,9.39-26.95,14.54-4.79,2.8-5.89-1.27-8.01-3.43-3.05-3.11-.03-4.41,2.1-5.63,36.31-20.83,73.82-37.74,117.13-35.59,1.36,7.27-1.51,10.28-8.98,9.65-2.94-.25-5.99.9-8.99,1.42h0Z" fill="#317236"/><path d="M1290.07,813.27c-.67-9.34,3.9-16.73,14.53-20.46,6.38-2.24,12.5-5.21,18.77-7.78,12.67-5.19,14.02-4.89,23.71,4.91,11.12,11.24,13.86,24.76,7.86,38.79-5.53,12.94-19.36,21.61-33.87,21.22-16.89-.45-31.1-16.51-31.01-36.68h.01Z" fill="#fbf3d5"/><path d="M1291.14,793.8c-3.05.12-4.71-.84-5.39-2.96-.89-2.79-.12-5.51,2.7-6.28,14.25-3.86,27.65-9.76,41.08-15.77,4.89-2.19,7.97,2.29,9.79,5.96,1.16,2.35-.58,5.34-3.92,4.89-15.06-2.01-26.68,7.29-39.74,11.81-1.81.63-3.44,1.78-4.52,2.34h0Z" fill="#2e7032"/><path d="M1264.99,759.04c-.16,8.1-7.54,15.76-15.09,15.36-4.93-.26-7.69-2.71-7.58-8.13.16-8.36,7.45-17.1,14.76-16.96,6.28.12,8.02,4.26,7.91,9.73h0Z" fill="#357433"/><path d="M1219.99,797.37c-4.75-.18-7.65-3.06-7.58-7.4.08-4.97,3.89-7.62,8.64-7.3,4.18.28,7.82,2.62,7.65,7.47-.18,5.24-3.87,7.09-8.71,7.23h0Z" fill="#327333"/><path id="turtle-eyes" d="M1315.83,817.45c-.11-10.94,8.11-19.75,18.67-20.03,9.95-.26,18.71,8.54,18.82,18.9.11,10.51-8.73,19.9-18.89,20.07-10.18.17-18.49-8.3-18.6-18.94Z" fill="#122a4d"/><path d="M1440.5,832.73c.05,3.35-.95,5.55-4.96,4.64-7.48-1.7-11.39-7.19-13.53-13.81-1.13-3.51,1.31-6.04,5.21-5.79,5.32.33,13.21,9.43,13.28,14.97h0Z" fill="#337333"/><g id="around-neck"><path d="M1079.18,920.32c-2.24-.51-3.75-1.55-4.54-3.98-6.4-19.68-11-39.71-12.56-61.53,12.64,9.2,25.25,16.73,38.33,23.47.96.5,1.55,1.98,2.03,3.13,5.98,14.32,14.51,27.21,22.9,41.02-16.04,2.66-31.14,1.27-46.16-2.12h0Z" fill="none"/><path d="M1051.46,845.05c1.65,1.57,1.57,3.36,1.61,5.32.18,8.84,1.28,17.59,2.54,26.34,1.89,13.14,5.56,25.89,8.89,39.22-15.83-5.97-29.03-15.05-42.13-24.27-2.34-1.65-3.37-4.04-3.8-7.1-3.41-24.55-2.52-49.05.31-73.55.36-3.14.39-6.46,2.29-9.88,8.68,16.27,17.31,31.61,30.28,43.92h.01Z" fill="none"/><path d="M1277.86,951.12c-14.75-2.08-33.56-6.52-53.48-16.15-27.2-13.14-42.54-29.21-46.84-34.32-.43-.51-.9-1.08-.9-1.08-7.79-9.44-12.81-17.53-15.96-23.23-8.39.92-20.49,1.39-34.65-1.08-7.34-1.28-31.27-7.2-54.51-24-40.61-29.37-60.58-80.33-49.67-129.24.72-3.24,1.97-6.66-2.65-7.83-4.96-1.26-5.64,2.56-6.47,6-4.69,19.47-3.92,38.94.33,58.35,1.09,4.97.81,9.3-1.02,14.26-5.51,14.98-5.46,30.93-6.28,46.64-.64,12.25-.84,24.54,1.42,38.82-7.8-8.73-14.4-15.92-20.73-23.33-2.12-2.48-3.58-6.07-7.54-3.48-4.3,2.81-1.78,6.31.28,8.87,8.25,10.27,16.8,20.32,26.18,29.59,2.88,2.84,4.4,6,5.19,10.03,4.24,21.55,9.5,42.82,19.33,62.66.46.93.57,2.04.94,3.45-16.87-5.71-31.54-14.46-44.77-25.64-2.58-2.18-4.96-3.99-7.79-1.3-3.01,2.86-1.02,5.47,1.31,7.72,12.46,12,27.28,20.44,43.38,26.03,10.94,3.8,20.05,8.71,26.35,18.75,3.06,4.88,7.46,8.93,11.26,13.35.02.12.04.24.06.35.13-.25.25-.5.38-.75,6.38,6.23,13.64,11.34,22.03,16.39-10.66,1.44-20.34,2.66-30.14,1.95-.2.13-.4.24-.6.39-8.16-.3-16.32-.62-24.48-.89-1.71-.06-3.44-.1-5.13.07-2.73.27-4.3,1.79-4.31,4.64-.02,3.58,2.43,4.06,5.22,4.2,9.44.46,18.87.94,28.31,1.42,1.93,2.15,4.56,2.2,7.14,2.38,4.53.33,9.12.24,13.53-.61,26.18-5.04,53.3-3.93,78.97-12.19,4.16-1.34,8.07-.15,12,1.07,3.3,1.03,6.6,2.1,10.01.39,2.92.63,5.83,1.26,8.75,1.89,34.68,1.93,62.65-12.62,87.09-35.62,7.47-7.02,12.36-13.77,15.25-18.27.62-.96,1.61-2.57,2.71-4.46,3.43-5.88,5.86-10.95,7.46-14.57M1102.45,881.41c5.98,14.32,14.51,27.21,22.9,41.02-16.04,2.66-31.14,1.27-46.16-2.12-2.24-.51-3.75-1.55-4.54-3.98-6.4-19.68-11-39.71-12.56-61.53,12.64,9.2,25.25,16.73,38.33,23.47.96.5,1.55,1.98,2.03,3.13h0ZM1119.36,933.01c.92-.41,1.86-.8,2.85-1.13,2.97-.41,6.16-3.23,8.85.2,8.11,10.35,16.87,20.06,27.74,28.68-12.32,5.58-24.52,8.79-36.73,12.12-7.9,2.16-13.57.66-17.91-6.48-2.25-3.7-5.2-6.99-7.87-10.43-6.24-7.54-11-16.01-16.29-25.56,13.76,3.06,26.58,3.29,39.35,2.6h.01ZM1173.68,910.39c-10.6,3.87-20.91,7.35-31.72,8.87-.97.46-1.95.92-2.94,1.36-1.56.76-3.35,1.83-4.56-.17-7.4-12.25-15.81-23.94-21.87-37.7,14.4,2.95,28.25,4.35,42.25,4.13,2-.03,3.49.14,4.72,2.34,2.72,4.87,5.97,9.43,9.01,14.12,0,.03,0,.05-.01.07,1.63,2.23,3.28,4.48,5.12,6.98ZM1184.11,946.92c-2.43-3.17-.3-7.37-2.25-11.02-3.03,5.03-1.24,11.17-5.11,15.45-3,1.86-6.3,5.98-9.51,3.75-10.12-7.04-19.18-15.42-26.72-26.34,13.39-2.19,25.61-5.41,37.21-10.65,1.78-.8,3.34-.73,4.66.78,5.39,6.19,12.59,10.2,19.06,15.62-5.28,5.1-11.3,8.77-17.33,12.42h-.01ZM1236.95,956.82c-7,6.09-13.94,12.25-20.76,18.53-2.21,2.03-4.47,2.43-7.1,1.46-8.08-2.96-16.25-5.74-23.56-10.45-2.92-3.11-.75-6.1.2-9.11,7.01-5,14.52-9.34,20.83-15.26,2.33-2.19,4.33-1.95,6.94-.66,7.52,3.72,15.08,7.4,22.78,10.74,3.49,1.51,3.13,2.61.66,4.75h.01ZM1225.1,978.54c6.98-6.24,14.04-11.95,20.32-18.43,2.54-2.62,4.55-3.24,7.77-2.55,8.42,1.79,16.91,3.1,26.32,2.73-9.37,13.79-40.69,23.45-54.42,18.25h.01ZM1170.3,1012.41c10.88-6.09,22.43-9.33,31.3-16.83,7.6-6.43,15.43-7.71,24.96-6.56,12.47,1.51,24.61-1.58,37.45-6.76-24.27,27.37-65.6,40.63-93.7,30.14h-.01ZM1153.32,1006.78c-12.22-6.4-23.22-14.51-34.77-23.59,13.61-3.37,26.57-6,38.21-11.92,8.19-4.17,14.78-3.81,21.31,2.32,2.17,2.21,1.47,4.68.84,7.27-.57,2.33-1.9,5.03,1.46,6.7,3.05-3.1,1.75-7.6,3.96-10.81,6.06,2.55,12.12,5.1,19.02,8-14.22,9.21-28.23,16.49-43.26,21.79-2.26.8-4.32,1.52-6.77.24h0ZM1074.16,985.45c6.02.08,12.1.7,18.05.1,9.51-.96,18.34-.92,24.47,8.03.33.49,1.1.67,1.62,1.04,8.1,5.79,16.19,11.58,24.55,17.57-36.97,10.37-54.92,6.62-76.58-16.17-.39-5.77,2.14-9.37,7.88-10.57h0ZM1022.38,902.11c6.18,5.02,12.9,9.29,19.93,12.96,7.04,3.68,14.36,6.85,21.62,10.11,2.6,1.17,4.93,2.28,6.25,5.14,5.19,11.17,12.1,21.31,19.18,31.34v.05s.04-.05.06-.08c3.53,4.49,7.06,8.99,10.98,13.98-6.81.78-12.94,1.15-19.09.13h0s-.04.02-.06.03c-9.8.21-19.21-2.38-28.79-3.88-4.92-.77-7.85-3.05-10.26-7.47-10.01-18.36-15.7-38.14-20.16-58.37-.28-1.26-1.81-2.78.34-3.94h0ZM1021.18,801.13c8.68,16.27,17.31,31.61,30.28,43.92,1.65,1.57,1.57,3.36,1.61,5.32.18,8.84,1.28,17.59,2.54,26.34,1.89,13.14,5.56,25.89,8.89,39.22-15.83-5.97-29.03-15.05-42.13-24.27-2.34-1.65-3.37-4.04-3.8-7.1-3.41-24.55-2.52-49.05.31-73.55.36-3.14.39-6.46,2.29-9.88h.01Z" fill="#fca68f"/></g></g></svg>